  0
SECTION
  2
HEADER
  9
$ACADVER
  1
AC1015
  9
$ACADMAINTVER
 70
     6
  9
$DWGCODEPAGE
  3
ANSI_1252
  9
$INSBASE
 10
0.0
 20
0.0
 30
0.0
  9
$EXTMIN
 10
0.0
 20
-100.0
 30
0.0
  9
$EXTMAX
 10
100.0
 20
0.0
 30
0.0
  9
$LIMMIN
 10
0.0
 20
0.0
  9
$LIMMAX
 10
420.0
 20
297.0
  9
$ORTHOMODE
 70
     0
  9
$REGENMODE
 70
     1
  9
$FILLMODE
 70
     1
  9
$QTEXTMODE
 70
     0
  9
$MIRRTEXT
 70
     1
  9
$LTSCALE
 40
1.0
  9
$ATTMODE
 70
     1
  9
$TEXTSIZE
 40
3.5
  9
$TRACEWID
 40
1.0
  9
$TEXTSTYLE
  7
Standard
  9
$CLAYER
  8
0
  9
$CELTYPE
  6
ByLayer
  9
$CECOLOR
 62
   256
  9
$CELTSCALE
 40
1.0
  9
$DISPSILH
 70
     0
  9
$DIMSCALE
 40
1.0
  9
$DIMASZ
 40
3.302
  9
$DIMEXO
 40
1.0
  9
$DIMDLI
 40
3.75
  9
$DIMRND
 40
0.0
  9
$DIMDLE
 40
0.0
  9
$DIMEXE
 40
1.0
  9
$DIMTP
 40
0.0
  9
$DIMTM
 40
0.0
  9
$DIMTXT
 40
3.5
  9
$DIMCEN
 40
2.5
  9
$DIMTSZ
 40
0.0
  9
$DIMTOL
 70
     0
  9
$DIMLIM
 70
     0
  9
$DIMTIH
 70
     1
  9
$DIMTOH
 70
     1
  9
$DIMSE1
 70
     0
  9
$DIMSE2
 70
     0
  9
$DIMTAD
 70
     1
  9
$DIMZIN
 70
     0
  9
$DIMBLK
  1

  9
$DIMASO
 70
     1
  9
$DIMSHO
 70
     1
  9
$DIMPOST
  1

  9
$DIMAPOST
  1

  9
$DIMALT
 70
     0
  9
$DIMALTD
 70
     3
  9
$DIMALTF
 40
0.0393700787
  9
$DIMLFAC
 40
1.0
  9
$DIMTOFL
 70
     1
  9
$DIMTVP
 40
0.0
  9
$DIMTIX
 70
     0
  9
$DIMSOXD
 70
     0
  9
$DIMSAH
 70
     0
  9
$DIMBLK1
  1

  9
$DIMBLK2
  1

  9
$DIMSTYLE
  2
ISO-25
  9
$DIMCLRD
 70
     0
  9
$DIMCLRE
 70
     0
  9
$DIMCLRT
 70
     0
  9
$DIMTFAC
 40
1.0
  9
$DIMGAP
 40
1.524
  9
$DIMJUST
 70
     0
  9
$DIMSD1
 70
     0
  9
$DIMSD2
 70
     0
  9
$DIMTOLJ
 70
     0
  9
$DIMTZIN
 70
     0
  9
$DIMALTZ
 70
     0
  9
$DIMALTTZ
 70
     0
  9
$DIMUPT
 70
     0
  9
$DIMDEC
 70
     3
  9
$DIMTDEC
 70
     3
  9
$DIMALTU
 70
     2
  9
$DIMALTTD
 70
     3
  9
$DIMTXSTY
  7
Standard
  9
$DIMAUNIT
 70
     0
  9
$DIMADEC
 70
     2
  9
$DIMALTRND
 40
0.0
  9
$DIMAZIN
 70
     0
  9
$DIMDSEP
 70
    44
  9
$DIMATFIT
 70
     3
  9
$DIMFRAC
 70
     0
  9
$DIMLDRBLK
  1

  9
$DIMLUNIT
 70
     2
  9
$DIMLWD
 70
    -2
  9
$DIMLWE
 70
    -2
  9
$DIMTMOVE
 70
     0
  9
$LUNITS
 70
     2
  9
$LUPREC
 70
     2
  9
$SKETCHINC
 40
1.0
  9
$FILLETRAD
 40
10.0
  9
$AUNITS
 70
     0
  9
$AUPREC
 70
     2
  9
$MENU
  1
.
  9
$ELEVATION
 40
0.0
  9
$PELEVATION
 40
0.0
  9
$THICKNESS
 40
0.0
  9
$LIMCHECK
 70
     0
  9
$CHAMFERA
 40
10.0
  9
$CHAMFERB
 40
10.0
  9
$CHAMFERC
 40
20.0
  9
$CHAMFERD
 40
0.0
  9
$SKPOLY
 70
     0
  9
$TDCREATE
 40
2456258.63668669
  9
$TDUCREATE
 40
2456258.970020023
  9
$TDUPDATE
 40
2456258.636686701
  9
$TDUUPDATE
 40
2456258.970020035
  9
$TDINDWG
 40
0.0000000116
  9
$TDUSRTIMER
 40
0.0000000116
  9
$USRTIMER
 70
     1
  9
$ANGBASE
 50
0.0
  9
$ANGDIR
 70
     0
  9
$PDMODE
 70
     0
  9
$PDSIZE
 40
-1.0
  9
$PLINEWID
 40
0.0
  9
$SPLFRAME
 70
     0
  9
$SPLINETYPE
 70
     6
  9
$SPLINESEGS
 70
     8
  9
$HANDSEED
  5
DB
  9
$SURFTAB1
 70
     6
  9
$SURFTAB2
 70
     6
  9
$SURFTYPE
 70
     6
  9
$SURFU
 70
     6
  9
$SURFV
 70
     6
  9
$UCSBASE
  2

  9
$UCSNAME
  2

  9
$UCSORG
 10
0.0
 20
0.0
 30
0.0
  9
$UCSXDIR
 10
1.0
 20
0.0
 30
0.0
  9
$UCSYDIR
 10
0.0
 20
1.0
 30
0.0
  9
$UCSORTHOREF
  2

  9
$UCSORTHOVIEW
 70
     0
  9
$UCSORGTOP
 10
0.0
 20
0.0
 30
0.0
  9
$UCSORGBOTTOM
 10
0.0
 20
0.0
 30
0.0
  9
$UCSORGLEFT
 10
0.0
 20
0.0
 30
0.0
  9
$UCSORGRIGHT
 10
0.0
 20
0.0
 30
0.0
  9
$UCSORGFRONT
 10
0.0
 20
0.0
 30
0.0
  9
$UCSORGBACK
 10
0.0
 20
0.0
 30
0.0
  9
$PUCSBASE
  2

  9
$PUCSNAME
  2

  9
$PUCSORG
 10
0.0
 20
0.0
 30
0.0
  9
$PUCSXDIR
 10
1.0
 20
0.0
 30
0.0
  9
$PUCSYDIR
 10
0.0
 20
1.0
 30
0.0
  9
$PUCSORTHOREF
  2

  9
$PUCSORTHOVIEW
 70
     0
  9
$PUCSORGTOP
 10
0.0
 20
0.0
 30
0.0
  9
$PUCSORGBOTTOM
 10
0.0
 20
0.0
 30
0.0
  9
$PUCSORGLEFT
 10
0.0
 20
0.0
 30
0.0
  9
$PUCSORGRIGHT
 10
0.0
 20
0.0
 30
0.0
  9
$PUCSORGFRONT
 10
0.0
 20
0.0
 30
0.0
  9
$PUCSORGBACK
 10
0.0
 20
0.0
 30
0.0
  9
$USERI1
 70
     0
  9
$USERI2
 70
     0
  9
$USERI3
 70
     0
  9
$USERI4
 70
     0
  9
$USERI5
 70
     0
  9
$USERR1
 40
0.0
  9
$USERR2
 40
0.0
  9
$USERR3
 40
0.0
  9
$USERR4
 40
0.0
  9
$USERR5
 40
0.0
  9
$WORLDVIEW
 70
     1
  9
$SHADEDGE
 70
     3
  9
$SHADEDIF
 70
    70
  9
$TILEMODE
 70
     1
  9
$MAXACTVP
 70
    64
  9
$PINSBASE
 10
0.0
 20
0.0
 30
0.0
  9
$PLIMCHECK
 70
     0
  9
$PEXTMIN
 10
1.0000000000E+20
 20
1.0000000000E+20
 30
1.0000000000E+20
  9
$PEXTMAX
 10
-1.0000000000E+20
 20
-1.0000000000E+20
 30
-1.0000000000E+20
  9
$PLIMMIN
 10
0.0
 20
0.0
  9
$PLIMMAX
 10
420.0
 20
297.0
  9
$UNITMODE
 70
     0
  9
$VISRETAIN
 70
     1
  9
$PLINEGEN
 70
     0
  9
$PSLTSCALE
 70
     1
  9
$TREEDEPTH
 70
  3020
  9
$CMLSTYLE
  2
Standard
  9
$CMLJUST
 70
     0
  9
$CMLSCALE
 40
20.0
  9
$PROXYGRAPHICS
 70
     1
  9
$MEASUREMENT
 70
     1
  9
$CELWEIGHT
370
    -1
  9
$ENDCAPS
280
     0
  9
$JOINSTYLE
280
     0
  9
$LWDISPLAY
290
     1
  9
$INSUNITS
 70
     4
  9
$HYPERLINKBASE
  1

  9
$STYLESHEET
  1

  9
$XEDIT
290
     1
  9
$CEPSNTYPE
380
     0
  9
$PSTYLEMODE
290
     1
  9
$FINGERPRINTGUID
  2
{CDD37191-4E47-4217-B70C-C5F1477ECED9}
  9
$VERSIONGUID
  2
{FAEB1C32-E019-11D5-929B-00C0DF256EC4}
  9
$EXTNAMES
290
     1
  9
$PSVPSCALE
 40
0.0
  9
$OLESTARTUP
290
     0
  0
ENDSEC
  0
SECTION
  2
CLASSES
  0
CLASS
  1
ACDBDICTIONARYWDFLT
  2
AcDbDictionaryWithDefault
  3
ObjectDBX Classes
 90
        0
280
     0
281
     0
  0
CLASS
  1
VISUALSTYLE
  2
AcDbVisualStyle
  3
ObjectDBX Classes
 90
     4095
280
     0
281
     0
  0
CLASS
  1
MATERIAL
  2
AcDbMaterial
  3
ObjectDBX Classes
 90
     1153
280
     0
281
     0
  0
CLASS
  1
ACDBPLACEHOLDER
  2
AcDbPlaceHolder
  3
ObjectDBX Classes
 90
        0
280
     0
281
     0
  0
CLASS
  1
LAYOUT
  2
AcDbLayout
  3
ObjectDBX Classes
 90
        0
280
     0
281
     0
  0
ENDSEC
  0
SECTION
  2
TABLES
  0
TABLE
  2
VPORT
  5
8
330
0
100
AcDbSymbolTable
 70
     1
  0
VPORT
  5
29
330
8
100
AcDbSymbolTableRecord
100
AcDbViewportTableRecord
  2
*Active
 70
     0
 10
0.0
 20
0.0
 11
1.0
 21
1.0
 12
50.0
 22
-50.0
 13
0.0
 23
0.0
 14
10.0
 24
10.0
 15
10.0
 25
10.0
 16
0.0
 26
0.0
 36
1.0
 17
0.0
 27
0.0
 37
0.0
 40
102.0
 41
1.0
 42
50.0
 43
0.0
 44
0.0
 50
0.0
 51
0.0
 71
     0
 72
   100
 73
     1
 74
     3
 75
     0
 76
     0
 77
     0
 78
     0
281
     0
 65
     1
110
0.0
120
0.0
130
0.0
111
1.0
121
0.0
131
0.0
112
0.0
122
1.0
132
0.0
 79
     0
146
0.0
  0
ENDTAB
  0
TABLE
  2
LTYPE
  5
5
330
0
100
AcDbSymbolTable
 70
     6
  0
LTYPE
  5
14
330
5
100
AcDbSymbolTableRecord
100
AcDbLinetypeTableRecord
  2
ByBlock
 70
     0
  3

 72
    65
 73
     0
 40
0.0
  0
LTYPE
  5
15
330
5
100
AcDbSymbolTableRecord
100
AcDbLinetypeTableRecord
  2
ByLayer
 70
     0
  3

 72
    65
 73
     0
 40
0.0
  0
LTYPE
  5
16
330
5
100
AcDbSymbolTableRecord
100
AcDbLinetypeTableRecord
  2
Continuous
 70
     0
  3
Solid line
 72
    65
 73
     0
 40
0.0
  0
LTYPE
  5
3F
330
5
100
AcDbSymbolTableRecord
100
AcDbLinetypeTableRecord
  2
HIDDEN
 70
     0
  3
Hidden __ __ __ __ __ __ __ __ __ __ __ __ __ __
 72
    65
 73
     2
 40
1.905
 49
1.27
 74
     0
 49
-0.635
 74
     0
  0
LTYPE
  5
40
330
5
100
AcDbSymbolTableRecord
100
AcDbLinetypeTableRecord
  2
PHANTOM
 70
     0
  3
Phantom ______  __  __  ______  __  __  ______
 72
    65
 73
     6
 40
12.7
 49
6.35
 74
     0
 49
-1.27
 74
     0
 49
1.27
 74
     0
 49
-1.27
 74
     0
 49
1.27
 74
     0
 49
-1.27
 74
     0
  0
LTYPE
  5
41
330
5
100
AcDbSymbolTableRecord
100
AcDbLinetypeTableRecord
  2
CENTER
 70
     0
  3
Center ____ _ ____ _ ____ _ ____ _ ____ _ ____
 72
    65
 73
     4
 40
10.16
 49
6.35
 74
     0
 49
-1.27
 74
     0
 49
1.27
 74
     0
 49
-1.27
 74
     0
  0
LTYPE
  5
42
330
5
100
AcDbSymbolTableRecord
100
AcDbLinetypeTableRecord
  2
CENTERX2
 70
     0
  3
Center (2x) ________  __  ________  __  _____
 72
    65
 73
     4
 40
20.32
 49
12.7
 74
     0
 49
-2.54
 74
     0
 49
2.54
 74
     0
 49
-2.54
 74
     0
  0
LTYPE
  5
43
330
5
100
AcDbSymbolTableRecord
100
AcDbLinetypeTableRecord
  2
DOT2
 70
     0
  3
Dot (.5x) ........................................
 72
    65
 73
     2
 40
0.635
 49
0.0
 74
     0
 49
-0.635
 74
     0
  0
ENDTAB
  0
TABLE
  2
LAYER
  5
2
330
0
100
AcDbSymbolTable
 70
     1
  0
LAYER
  5
10
330
2
100
AcDbSymbolTableRecord
100
AcDbLayerTableRecord
  2
0
 70
     0
 62
     7
  6
Continuous
370
    -3
390
F
  0
ENDTAB
  0
TABLE
  2
STYLE
  5
3
330
0
100
AcDbSymbolTable
 70
     1
  0
STYLE
  5
11
330
3
100
AcDbSymbolTableRecord
100
AcDbTextStyleTableRecord
  2
Standard
 70
     0
 40
0.0
 41
1.0
 50
0.0
 71
     0
 42
2.5
  3
txt
  4

  0
ENDTAB
  0
TABLE
  2
VIEW
  5
6
330
0
100
AcDbSymbolTable
 70
     0
  0
ENDTAB
  0
TABLE
  2
UCS
  5
7
330
0
100
AcDbSymbolTable
 70
     0
  0
ENDTAB
  0
TABLE
  2
APPID
  5
9
330
0
100
AcDbSymbolTable
 70
     1
  0
APPID
  5
12
330
9
100
AcDbSymbolTableRecord
100
AcDbRegAppTableRecord
  2
ACAD
 70
     0
  0
ENDTAB
  0
TABLE
  2
DIMSTYLE
  5
A
330
0
100
AcDbSymbolTable
 70
     1
100
AcDbDimStyleTable
  0
DIMSTYLE
105
27
330
A
100
AcDbSymbolTableRecord
100
AcDbDimStyleTableRecord
  2
ISO-25
 70
     0
 41
2.5
 42
0.625
 43
3.75
 44
1.25
 73
     0
 74
     0
 77
     1
 78
     8
140
2.5
141
2.5
143
0.0393700787
147
0.625
171
     3
172
     1
178
     0
271
     2
272
     2
274
     3
278
    44
283
     0
284
     8
340
11
  0
ENDTAB
  0
TABLE
  2
BLOCK_RECORD
  5
1
330
0
100
AcDbSymbolTable
 70
     1
  0
BLOCK_RECORD
  5
1F
330
1
100
AcDbSymbolTableRecord
100
AcDbBlockTableRecord
  2
*Model_Space
340
22
  0
BLOCK_RECORD
  5
1B
330
1
100
AcDbSymbolTableRecord
100
AcDbBlockTableRecord
  2
*Paper_Space
340
1E
  0
BLOCK_RECORD
  5
23
330
1
100
AcDbSymbolTableRecord
100
AcDbBlockTableRecord
  2
*Paper_Space0
340
26
  0
ENDTAB
  0
ENDSEC
  0
SECTION
  2
BLOCKS
  0
BLOCK
  5
20
330
1F
100
AcDbEntity
  8
0
100
AcDbBlockBegin
  2
*Model_Space
 70
     0
 10
0.0
 20
0.0
 30
0.0
  3
*Model_Space
  1

  0
ENDBLK
  5
21
330
1F
100
AcDbEntity
  8
0
100
AcDbBlockEnd
  0
BLOCK
  5
1C
330
1B
100
AcDbEntity
 67
     1
  8
0
100
AcDbBlockBegin
  2
*Paper_Space
 70
     0
 10
0.0
 20
0.0
 30
0.0
  3
*Paper_Space
  1

  0
ENDBLK
  5
1D
330
1B
100
AcDbEntity
 67
     1
  8
0
100
AcDbBlockEnd
  0
BLOCK
  5
24
330
23
100
AcDbEntity
  8
0
100
AcDbBlockBegin
  2
*Paper_Space0
 70
     0
 10
0.0
 20
0.0
 30
0.0
  3
*Paper_Space0
  1

  0
ENDBLK
  5
25
330
23
100
AcDbEntity
  8
0
100
AcDbBlockEnd
  0
ENDSEC
  0
SECTION
  2
ENTITIES
  0
LINE
  5
44
330
1F
100
AcDbEntity
  8
0
  6
Continuous
 62
     7
370
    15
100
AcDbLine
 10
73.0600950464
 20
-64.7829876323
 30
0.0
 11
74.8460918818
 21
-66.5689844678
 31
0.0
  0
LINE
  5
45
330
1F
100
AcDbEntity
  8
0
  6
Continuous
 62
     7
370
    15
100
AcDbLine
 10
74.8460918818
 20
-66.5689844678
 30
0.0
 11
73.5624684641
 21
-67.8526078855
 31
0.0
  0
LINE
  5
46
330
1F
100
AcDbEntity
  8
0
  6
Continuous
 62
     7
370
    15
100
AcDbLine
 10
73.5624684641
 20
-67.8526078855
 30
0.0
 11
71.7764716287
 21
-66.06661105
 31
0.0
  0
LINE
  5
47
330
1F
100
AcDbEntity
  8
0
  6
Continuous
 62
     7
370
    15
100
AcDbLine
 10
71.7764716287
 20
-66.06661105
 30
0.0
 11
73.0600950464
 21
-64.7829876323
 31
0.0
  0
SPLINE
  5
48
330
1F
100
AcDbEntity
  8
0
  6
Continuous
 62
     7
370
    15
100
AcDbSpline
210
0.0
220
0.0
230
1.0
 70
     8
 71
     3
 72
    15
 73
    11
 74
     0
 42
0.00000001
 43
0.00000001
 40
0.0
 40
0.0
 40
0.0
 40
0.0
 40
0.1287863365044322
 40
0.2536000578619134
 40
0.3754143942761988
 40
0.4948285532403223
 40
0.6137283825462347
 40
0.736595144425878
 40
0.8650575632363372
 40
1.0
 40
1.0
 40
1.0
 40
1.0
 10
65.41102980964385
 20
-62.30401733230338
 30
0.0
 10
65.52597159983866
 20
-62.31839039594684
 30
0.0
 10
65.75230962167652
 20
-62.34669316369821
 30
0.0
 10
66.08346478786642
 20
-62.41355559656622
 30
0.0
 10
66.40267552256014
 20
-62.49419162655126
 30
0.0
 10
66.71169960418614
 20
-62.59182648455364
 30
0.0
 10
67.01157690954322
 20
-62.71855692828798
 30
0.0
 10
67.299289095734
 20
-62.88743941922832
 30
0.0
 10
67.58032213801782
 20
-63.09305091324144
 30
0.0
 10
67.75191841903217
 20
-63.25661551276793
 30
0.0
 10
67.83982727799828
 20
-63.34040973736667
 30
0.0
  0
SPLINE
  5
49
330
1F
100
AcDbEntity
  8
0
  6
Continuous
 62
     7
370
    15
100
AcDbSpline
210
0.0
220
0.0
230
1.0
 70
     8
 71
     3
 72
    23
 73
    19
 74
     0
 42
0.00000001
 43
0.00000001
 40
0.0
 40
0.0
 40
0.0
 40
0.0
 40
0.0623240552335126
 40
0.1213870813146465
 40
0.178195258766718
 40
0.2338618105305633
 40
0.2885612090961361
 40
0.3431897542665349
 40
0.3990199847805234
 40
0.456824772456974
 40
0.5158777945438183
 40
0.5767525027181255
 40
0.6393288405356397
 40
0.7044740471793548
 40
0.7728407941797041
 40
0.8446624485338954
 40
0.9202837089257251
 40
1.0
 40
1.0
 40
1.0
 40
1.0
 10
67.83982727799828
 20
-63.34040973736667
 30
0.0
 10
67.91812128191772
 20
-63.42255173902263
 30
0.0
 10
68.07061265277942
 20
-63.58253776363229
 30
0.0
 10
68.26411001860421
 20
-63.84390709896863
 30
0.0
 10
68.41932784218984
 20
-64.115340425298
 30
0.0
 10
68.54158286899843
 20
-64.39463899534846
 30
0.0
 10
68.62545526265133
 20
-64.68383334931224
 30
0.0
 10
68.67083703324134
 20
-64.98169643967748
 30
0.0
 10
68.68022143077305
 20
-65.2883776047834
 30
0.0
 10
68.65439508311515
 20
-65.60221441728632
 30
0.0
 10
68.59167184940216
 20
-65.9200370520824
 30
0.0
 10
68.49675608033215
 20
-66.23878818430963
 30
0.0
 10
68.36647939745649
 20
-66.556778119606
 30
0.0
 10
68.2035454686368
 20
-66.87467535576992
 30
0.0
 10
68.00419108144145
 20
-67.19115516792509
 30
0.0
 10
67.77164375582828
 20
-67.5078486128362
 30
0.0
 10
67.50636439160742
 20
-67.82529893872521
 30
0.0
 10
67.30977809829776
 20
-68.02847141678478
 30
0.0
 10
67.20889373369448
 20
-68.13273568673377
 30
0.0
  0
SPLINE
  5
4A
330
1F
100
AcDbEntity
  8
0
  6
Continuous
 62
     7
370
    15
100
AcDbSpline
210
0.0
220
0.0
230
1.0
 70
     8
 71
     3
 72
    15
 73
    11
 74
     0
 42
0.00000001
 43
0.00000001
 40
0.0
 40
0.0
 40
0.0
 40
0.0
 40
0.1425442200591848
 40
0.2788974564572005
 40
0.4115747733162505
 40
0.5401557157898139
 40
0.6634879890083374
 40
0.7808602714660987
 40
0.8922766055226893
 40
1.0
 40
1.0
 40
1.0
 40
1.0
 10
67.2088937336945
 20
-68.13273568673378
 30
0.0
 10
67.09976786276083
 20
-68.23675724442747
 30
0.0
 10
66.88625567808967
 20
-68.44028249326205
 30
0.0
 10
66.54348487034358
 20
-68.70956789384701
 30
0.0
 10
66.18934021971195
 20
-68.93714505490894
 30
0.0
 10
65.8279508301093
 20
-69.12458908467202
 30
0.0
 10
65.4664574166468
 20
-69.27369683617736
 30
0.0
 10
65.10992550419623
 20
-69.38185612915105
 30
0.0
 10
64.76132119282504
 20
-69.45780543354435
 30
0.0
 10
64.52992202894349
 20
-69.47377692281593
 30
0.0
 10
64.41617221470716
 20
-69.48162809179706
 30
0.0
  0
SPLINE
  5
4B
330
1F
100
AcDbEntity
  8
0
  6
Continuous
 62
     7
370
    15
100
AcDbSpline
210
0.0
220
0.0
230
1.0
 70
     8
 71
     3
 72
    15
 73
    11
 74
     0
 42
0.00000001
 43
0.00000001
 40
0.0
 40
0.0
 40
0.0
 40
0.0
 40
0.1291996797496971
 40
0.255487329256065
 40
0.3792904745309349
 40
0.5027938858993716
 40
0.6253603513753208
 40
0.7484371521033096
 40
0.8724690169235095
 40
1.0
 40
1.0
 40
1.0
 40
1.0
 10
64.41617221470715
 20
-69.48162809179705
 30
0.0
 10
64.30069571207449
 20
-69.48361608023212
 30
0.0
 10
64.07234543050562
 20
-69.48754724985153
 30
0.0
 10
63.73511889790411
 20
-69.44727942474026
 30
0.0
 10
63.40825691078538
 20
-69.37864954398003
 30
0.0
 10
63.09332122914277
 20
-69.27639927815008
 30
0.0
 10
62.79357193236635
 20
-69.13777319588694
 30
0.0
 10
62.50746758335861
 20
-68.97212174950779
 30
0.0
 10
62.23767530826898
 20
-68.77269724641558
 30
0.0
 10
62.07420333663445
 20
-68.61839609746482
 30
0.0
 10
61.99133044255525
 20
-68.54017239559452
 30
0.0
  0
SPLINE
  5
4C
330
1F
100
AcDbEntity
  8
0
  6
Continuous
 62
     7
370
    15
100
AcDbSpline
210
0.0
220
0.0
230
1.0
 70
     8
 71
     3
 72
    13
 73
     9
 74
     0
 42
0.00000001
 43
0.00000001
 40
0.0
 40
0.0
 40
0.0
 40
0.0
 40
0.1478418031729819
 40
0.2840746747625189
 40
0.4093103350450427
 40
0.5256390328719504
 40
0.7560120169499378
 40
1.0
 40
1.0
 40
1.0
 40
1.0
 10
61.99133044255525
 20
-68.54017239559452
 30
0.0
 10
61.91980714733159
 20
-68.46657239125342
 30
0.0
 10
61.78237675624772
 20
-68.32515165065777
 30
0.0
 10
61.60000031473071
 20
-68.10703850484364
 30
0.0
 10
61.44570792764171
 20
-67.89472155552167
 30
0.0
 10
61.27749387135389
 20
-67.6132647572777
 30
0.0
 10
61.10776652798152
 20
-67.23872886277142
 30
0.0
 10
61.00292818674204
 20
-66.92659102283804
 30
0.0
 10
60.94900449318816
 20
-66.76604264875907
 30
0.0
  0
LINE
  5
4D
330
1F
100
AcDbEntity
  8
0
  6
Continuous
 62
     7
370
    15
100
AcDbLine
 10
60.9490044932
 20
-66.7660426488
 30
0.0
 11
58.7516152527
 21
-68.9634318893
 31
0.0
  0
LINE
  5
4E
330
1F
100
AcDbEntity
  8
0
  6
Continuous
 62
     7
370
    15
100
AcDbLine
 10
58.7516152527
 20
-68.9634318893
 30
0.0
 11
57.0605551261
 21
-67.2723717627
 31
0.0
  0
LINE
  5
4F
330
1F
100
AcDbEntity
  8
0
  6
Continuous
 62
     7
370
    15
100
AcDbLine
 10
57.0605551261
 20
-67.2723717627
 30
0.0
 11
64.2698114552
 21
-60.0631154336
 31
0.0
  0
LINE
  5
50
330
1F
100
AcDbEntity
  8
0
  6
Continuous
 62
     7
370
    15
100
AcDbLine
 10
64.2698114552
 20
-60.0631154336
 30
0.0
 11
65.9608715818
 21
-61.7541755602
 31
0.0
  0
LINE
  5
51
330
1F
100
AcDbEntity
  8
0
  6
Continuous
 62
     7
370
    15
100
AcDbLine
 10
65.9608715818
 20
-61.7541755602
 30
0.0
 11
65.4110298096
 21
-62.3040173323
 31
0.0
  0
SPLINE
  5
52
330
1F
100
AcDbEntity
  8
0
  6
Continuous
 62
     7
370
    15
100
AcDbSpline
210
0.0
220
0.0
230
1.0
 70
     8
 71
     3
 72
    23
 73
    19
 74
     0
 42
0.00000001
 43
0.00000001
 40
0.0
 40
0.0
 40
0.0
 40
0.0
 40
0.0714723995908104
 40
0.1394503938563526
 40
0.2047166841430939
 40
0.2675249975131309
 40
0.3284764517283636
 40
0.3879821384684734
 40
0.4455894111314169
 40
0.503069178033584
 40
0.5603075944957732
 40
0.6187735853465701
 40
0.6777276756550865
 40
0.7384675356878947
 40
0.801198657780351
 40
0.8650756884509168
 40
0.9314420439577739
 40
0.9999999999999999
 40
0.9999999999999999
 40
0.9999999999999999
 40
0.9999999999999999
 10
55.89558491770869
 20
-52.09236990872265
 30
0.0
 10
55.83097565047472
 20
-52.15439456902529
 30
0.0
 10
55.70491597129606
 20
-52.27541140010314
 30
0.0
 10
55.50879662997185
 20
-52.44114066341667
 30
0.0
 10
55.30838352369592
 20
-52.58366118287999
 30
0.0
 10
55.10570437614787
 20
-52.70645739125644
 30
0.0
 10
54.90204058055104
 20
-52.81308776465768
 30
0.0
 10
54.69443168988099
 20
-52.89590615235524
 30
0.0
 10
54.48427102979591
 20
-52.95753013371573
 30
0.0
 10
54.27255955905412
 20
-53.00124142420067
 30
0.0
 10
54.05683806566977
 20
-53.02665986450474
 30
0.0
 10
53.83802720051875
 20
-53.03660672465818
 30
0.0
 10
53.61473308577406
 20
-53.02990287850481
 30
0.0
 10
53.38692670713785
 20
-53.00998353443945
 30
0.0
 10
53.15446525758568
 20
-52.97643877764861
 30
0.0
 10
52.91737053073363
 20
-52.9285145093577
 30
0.0
 10
52.67611437518378
 20
-52.86574776650241
 30
0.0
 10
52.51580658839566
 20
-52.81195169147517
 30
0.0
 10
52.43435074049349
 20
-52.78461674416568
 30
0.0
  0
LINE
  5
53
330
1F
100
AcDbEntity
  8
0
  6
Continuous
 62
     7
370
    15
100
AcDbLine
 10
52.4343507405
 20
-52.7846167442
 30
0.0
 11
51.7717716266
 21
-58.1149173771
 31
0.0
  0
LINE
  5
54
330
1F
100
AcDbEntity
  8
0
  6
Continuous
 62
     7
370
    15
100
AcDbLine
 10
51.7717716266
 20
-58.1149173771
 30
0.0
 11
49.5684488418
 21
-55.9115945923
 31
0.0
  0
LINE
  5
55
330
1F
100
AcDbEntity
  8
0
  6
Continuous
 62
     7
370
    15
100
AcDbLine
 10
49.5684488418
 20
-55.9115945923
 30
0.0
 11
50.2270722595
 21
-51.4396800353
 31
0.0
  0
LINE
  5
56
330
1F
100
AcDbEntity
  8
0
  6
Continuous
 62
     7
370
    15
100
AcDbLine
 10
50.2270722595
 20
-51.4396800353
 30
0.0
 11
49.3963760569
 21
-50.6089838328
 31
0.0
  0
LINE
  5
57
330
1F
100
AcDbEntity
  8
0
  6
Continuous
 62
     7
370
    15
100
AcDbLine
 10
49.3963760569
 20
-50.6089838328
 30
0.0
 11
46.8311070696
 21
-53.1742528201
 31
0.0
  0
LINE
  5
58
330
1F
100
AcDbEntity
  8
0
  6
Continuous
 62
     7
370
    15
100
AcDbLine
 10
46.8311070696
 20
-53.1742528201
 30
0.0
 11
45.0352209937
 21
-51.3783667442
 31
0.0
  0
LINE
  5
59
330
1F
100
AcDbEntity
  8
0
  6
Continuous
 62
     7
370
    15
100
AcDbLine
 10
45.0352209937
 20
-51.3783667442
 30
0.0
 11
52.0288918797
 21
-44.3846958581
 31
0.0
  0
LINE
  5
5A
330
1F
100
AcDbEntity
  8
0
  6
Continuous
 62
     7
370
    15
100
AcDbLine
 10
52.0288918797
 20
-44.3846958581
 30
0.0
 11
55.0549994747
 21
-47.410803453
 31
0.0
  0
SPLINE
  5
5B
330
1F
100
AcDbEntity
  8
0
  6
Continuous
 62
     7
370
    15
100
AcDbSpline
210
0.0
220
0.0
230
1.0
 70
     8
 71
     3
 72
    15
 73
    11
 74
     0
 42
0.00000001
 43
0.00000001
 40
0.0
 40
0.0
 40
0.0
 40
0.0
 40
0.1519874478531837
 40
0.2930666225786459
 40
0.4239149442361879
 40
0.5441953267427337
 40
0.6582844513909799
 40
0.7719421515717388
 40
0.8849361808384217
 40
1.0
 40
1.0
 40
1.0
 40
1.0
 10
55.05499947467072
 20
-47.41080345302644
 30
0.0
 10
55.1540244875375
 20
-47.51091496472609
 30
0.0
 10
55.34496740079512
 20
-47.70395289667032
 30
0.0
 10
55.60838584271364
 20
-47.99542014639044
 30
0.0
 10
55.84143504728549
 20
-48.27421456644729
 30
0.0
 10
56.05000553527928
 20
-48.54082959043743
 30
0.0
 10
56.22798720516934
 20
-48.81021248732014
 30
0.0
 10
56.37660545652641
 20
-49.08916646109836
 30
0.0
 10
56.49777802312164
 20
-49.38249552386443
 30
0.0
 10
56.55368900274841
 20
-49.58640461093713
 30
0.0
 10
56.58189820884792
 20
-49.68928446568466
 30
0.0
  0
SPLINE
  5
5C
330
1F
100
AcDbEntity
  8
0
  6
Continuous
 62
     7
370
    15
100
AcDbSpline
210
0.0
220
0.0
230
1.0
 70
     8
 71
     3
 72
    15
 73
    11
 74
     0
 42
0.00000001
 43
0.00000001
 40
0.0
 40
0.0
 40
0.0
 40
0.0
 40
0.1212097212031695
 40
0.2389930370646664
 40
0.3565837390346275
 40
0.4741551622599762
 40
0.5943790405457141
 40
0.719954119580334
 40
0.8544606972249671
 40
1.0
 40
1.0
 40
1.0
 40
1.0
 10
56.58189820884792
 20
-49.68928446568466
 30
0.0
 10
56.60486435225543
 20
-49.79302300364568
 30
0.0
 10
56.65014742285521
 20
-49.99756755668852
 30
0.0
 10
56.67371267284624
 20
-50.31020346657751
 30
0.0
 10
56.65643892381799
 20
-50.61938856855135
 30
0.0
 10
56.60692153992193
 20
-50.92749393005559
 30
0.0
 10
56.50883237365647
 20
-51.23169046510153
 30
0.0
 10
56.35771383882979
 20
-51.52991117724701
 30
0.0
 10
56.15092925406976
 20
-51.82046421611462
 30
0.0
 10
55.98290618299001
 20
-51.99938508104215
 30
0.0
 10
55.89558491770868
 20
-52.09236990872265
 30
0.0
  0
LINE
  5
5D
330
1F
100
AcDbEntity
  8
0
  6
Continuous
 62
     7
370
    15
100
AcDbLine
 10
35.7686025261
 20
-34.3704508082
 30
0.0
 11
35.7310234122
 21
-34.4080299222
 31
0.0
  0
SPLINE
  5
5E
330
1F
100
AcDbEntity
  8
0
  6
Continuous
 62
     7
370
    15
100
AcDbSpline
210
0.0
220
0.0
230
1.0
 70
     8
 71
     3
 72
    23
 73
    19
 74
     0
 42
0.00000001
 43
0.00000001
 40
0.0
 40
0.0
 40
0.0
 40
0.0
 40
0.0693907949285604
 40
0.1362223768148748
 40
0.2007955863557476
 40
0.2637852447365888
 40
0.3248733852017372
 40
0.3852472665390453
 40
0.4444187712187302
 40
0.5038305425945747
 40
0.5628937438894644
 40
0.6210419858170675
 40
0.6801133167536132
 40
0.7400027298575232
 40
0.8010095889872548
 40
0.864721867064288
 40
0.9307292584397794
 40
1.0
 40
1.0
 40
1.0
 40
1.0
 10
35.73102341217071
 20
-34.40802992217201
 30
0.0
 10
35.77484642964899
 20
-34.47601853808502
 30
0.0
 10
35.86087622086605
 20
-34.60948827085807
 30
0.0
 10
35.97116191250881
 20
-34.81605594243495
 30
0.0
 10
36.06615450624064
 20
-35.02200407715639
 30
0.0
 10
36.13741106145073
 20
-35.23015962231697
 30
0.0
 10
36.1975811516845
 20
-35.43676673993579
 30
0.0
 10
36.23313974988259
 20
-35.64451773775505
 30
0.0
 10
36.25687948479929
 20
-35.85187970192091
 30
0.0
 10
36.25835039633643
 20
-36.05927366301665
 30
0.0
 10
36.24084157696778
 20
-36.26459849767495
 30
0.0
 10
36.20323788370477
 20
-36.46696377151243
 30
0.0
 10
36.14297711700716
 20
-36.66467687270477
 30
0.0
 10
36.06445717533617
 20
-36.85952634314144
 30
0.0
 10
35.96138276771681
 20
-37.04875619261939
 30
0.0
 10
35.83930082264152
 20
-37.23478782208684
 30
0.0
 10
35.69321656945836
 20
-37.41533488212543
 30
0.0
 10
35.58479925357707
 20
-37.52979766802608
 30
0.0
 10
35.5292829058416
 20
-37.58840966900745
 30
0.0
  0
SPLINE
  5
5F
330
1F
100
AcDbEntity
  8
0
  6
Continuous
 62
     7
370
    15
100
AcDbSpline
210
0.0
220
0.0
230
1.0
 70
     8
 71
     3
 72
    15
 73
    11
 74
     0
 42
0.00000001
 43
0.00000001
 40
0.0
 40
0.0
 40
0.0
 40
0.0
 40
0.1360274637099664
 40
0.2664360794131896
 40
0.3931569041129871
 40
0.5175164410178716
 40
0.6395275369150221
 40
0.7595489809506133
 40
0.8791580728409136
 40
1.0
 40
1.0
 40
1.0
 40
1.0
 10
35.5292829058416
 20
-37.58840966900745
 30
0.0
 10
35.4445968746188
 20
-37.66816875322012
 30
0.0
 10
35.27872291413554
 20
-37.82439233569106
 30
0.0
 10
35.00542460671502
 20
-38.02156717928121
 30
0.0
 10
34.719233323994
 20
-38.17935573829879
 30
0.0
 10
34.42153547908286
 20
-38.29587146304761
 30
0.0
 10
34.11792203006829
 20
-38.37492888175906
 30
0.0
 10
33.81147299297067
 20
-38.41945579129159
 30
0.0
 10
33.50247276644112
 20
-38.42585562140989
 30
0.0
 10
33.29812160133824
 20
-38.40293504517859
 30
0.0
 10
33.19542214634793
 20
-38.39141599812138
 30
0.0
  0
SPLINE
  5
60
330
1F
100
AcDbEntity
  8
0
  6
Continuous
 62
     7
370
    15
100
AcDbSpline
210
0.0
220
0.0
230
1.0
 70
     8
 71
     3
 72
    15
 73
    11
 74
     0
 42
0.00000001
 43
0.00000001
 40
0.0
 40
0.0
 40
0.0
 40
0.0
 40
0.1121871564003875
 40
0.223233468012934
 40
0.3334338390184304
 40
0.4451922360566937
 40
0.5639377785197175
 40
0.695121279660812
 40
0.8405981103688045
 40
0.9999999999999999
 40
0.9999999999999999
 40
0.9999999999999999
 40
0.9999999999999999
 10
33.19542214634793
 20
-38.39141599812138
 30
0.0
 10
33.07620850856517
 20
-38.37147842895706
 30
0.0
 10
32.83899353092809
 20
-38.33180603818523
 30
0.0
 10
32.4943056681583
 20
-38.22858359161514
 30
0.0
 10
32.16101120792055
 20
-38.09548392503098
 30
0.0
 10
31.83491032487431
 20
-37.92615668561021
 30
0.0
 10
31.50844305248367
 20
-37.71312348965549
 30
0.0
 10
31.16901167256827
 20
-37.45584322572233
 30
0.0
 10
30.81338998379565
 20
-37.14886184938069
 30
0.0
 10
30.57877035816874
 20
-36.91928142669482
 30
0.0
 10
30.45610252609476
 20
-36.79924827660239
 30
0.0
  0
LINE
  5
61
330
1F
100
AcDbEntity
  8
0
  6
Continuous
 62
     7
370
    15
100
AcDbLine
 10
30.4561025261
 20
-36.7992482766
 30
0.0
 11
27.4023050577
 21
-33.7454508082
 31
0.0
  0
LINE
  5
62
330
1F
100
AcDbEntity
  8
0
  6
Continuous
 62
     7
370
    15
100
AcDbLine
 10
27.4023050577
 20
-33.7454508082
 30
0.0
 11
34.3959759438
 21
-26.7517799222
 31
0.0
  0
LINE
  5
63
330
1F
100
AcDbEntity
  8
0
  6
Continuous
 62
     7
370
    15
100
AcDbLine
 10
34.3959759438
 20
-26.7517799222
 30
0.0
 11
37.1115613869
 21
-29.4673653652
 31
0.0
  0
SPLINE
  5
64
330
1F
100
AcDbEntity
  8
0
  6
Continuous
 62
     7
370
    15
100
AcDbSpline
210
0.0
220
0.0
230
1.0
 70
     8
 71
     3
 72
    19
 73
    15
 74
     0
 42
0.00000001
 43
0.00000001
 40
0.0
 40
0.0
 40
0.0
 40
0.0
 40
0.0993977180138171
 40
0.1915966287485044
 40
0.277581767203106
 40
0.3559226950960892
 40
0.4275479216134359
 40
0.4925865981652622
 40
0.5509275622127893
 40
0.6022683003918269
 40
0.6989019790030915
 40
0.7965231945736005
 40
0.8970740569403601
 40
0.9999999999999999
 40
0.9999999999999999
 40
0.9999999999999999
 40
0.9999999999999999
 10
37.11156138685426
 20
-29.46736536520999
 30
0.0
 10
37.17950575418016
 20
-29.53589254515294
 30
0.0
 10
37.31047366755103
 20
-29.6679838739789
 30
0.0
 10
37.49959994852466
 20
-29.85997265906375
 30
0.0
 10
37.67083975514898
 20
-30.04085198271246
 30
0.0
 10
37.82470401880821
 20
-30.21054326176661
 30
0.0
 10
37.96720443308018
 20
-30.36316806071624
 30
0.0
 10
38.08802136130103
 20
-30.50897455490594
 30
0.0
 10
38.19832491731141
 20
-30.63790458342185
 30
0.0
 10
38.31934304768761
 20
-30.7975607946762
 30
0.0
 10
38.45735007886512
 20
-30.99236790436817
 30
0.0
 10
38.59692883001532
 20
-31.24264122777953
 30
0.0
 10
38.72338184363458
 20
-31.50665260313692
 30
0.0
 10
38.78913809780182
 20
-31.69307963723174
 30
0.0
 10
38.8223999944492
 20
-31.7873811879948
 30
0.0
  0
SPLINE
  5
65
330
1F
100
AcDbEntity
  8
0
  6
Continuous
 62
     7
370
    15
100
AcDbSpline
210
0.0
220
0.0
230
1.0
 70
     8
 71
     3
 72
    15
 73
    11
 74
     0
 42
0.00000001
 43
0.00000001
 40
0.0
 40
0.0
 40
0.0
 40
0.0
 40
0.1333671233233257
 40
0.2599520138387323
 40
0.3813594371494577
 40
0.5021983188345217
 40
0.6224844403481087
 40
0.744092965313503
 40
0.8689403048778992
 40
1.0
 40
1.0
 40
1.0
 40
1.0
 10
38.8223999944492
 20
-31.7873811879948
 30
0.0
 10
38.8507747652189
 20
-31.88565265727122
 30
0.0
 10
38.90608134018277
 20
-32.07719811243835
 30
0.0
 10
38.94269552586546
 20
-32.36858494779334
 30
0.0
 10
38.93212543860075
 20
-32.652016480595
 30
0.0
 10
38.88085650396548
 20
-32.92612370461458
 30
0.0
 10
38.78790392884743
 20
-33.18901545668662
 30
0.0
 10
38.66081630332568
 20
-33.44048187536721
 30
0.0
 10
38.49427346218078
 20
-33.67836983643609
 30
0.0
 10
38.36072958572816
 20
-33.82213809023295
 30
0.0
 10
38.29233670330996
 20
-33.89576726394417
 30
0.0
  0
SPLINE
  5
66
330
1F
100
AcDbEntity
  8
0
  6
Continuous
 62
     7
370
    15
100
AcDbSpline
210
0.0
220
0.0
230
1.0
 70
     8
 71
     3
 72
    15
 73
    11
 74
     0
 42
0.00000001
 43
0.00000001
 40
0.0
 40
0.0
 40
0.0
 40
0.0
 40
0.1279608382628416
 40
0.2512513022391308
 40
0.3716945254677151
 40
0.492523432964354
 40
0.614312286791519
 40
0.7377114396502731
 40
0.8658611319224555
 40
1.0
 40
1.0
 40
1.0
 40
1.0
 10
38.29233670330996
 20
-33.89576726394417
 30
0.0
 10
38.20688927797674
 20
-33.97501226880484
 30
0.0
 10
38.03911312724652
 20
-34.13060995742183
 30
0.0
 10
37.75263046657337
 20
-34.31343169559972
 30
0.0
 10
37.44834807019046
 20
-34.44789536640985
 30
0.0
 10
37.12809586672828
 20
-34.53302927228436
 30
0.0
 10
36.79575697790555
 20
-34.56970232935203
 30
0.0
 10
36.45593423855685
 20
-34.5502282832065
 30
0.0
 10
36.10863593482907
 20
-34.49204331182455
 30
0.0
 10
35.88365938968546
 20
-34.41159397753164
 30
0.0
 10
35.76860252609476
 20
-34.37045080824797
 30
0.0
  0
ARC
  5
67
330
1F
100
AcDbEntity
  8
0
  6
Continuous
 62
     7
370
    15
100
AcDbCircle
 10
39.2426406871
 20
-23.0
 30
0.0
 40
3.000000000000004
100
AcDbArc
 50
90.0
 51
225.0
  0
LINE
  5
68
330
1F
100
AcDbEntity
  8
0
  6
Continuous
 62
     7
370
    15
100
AcDbLine
 10
39.2426406871
 20
-20.0
 30
0.0
 11
40.0
 21
-20.0
 31
0.0
  0
LINE
  5
69
330
1F
100
AcDbEntity
  8
0
  6
Continuous
 62
     7
370
    15
100
AcDbLine
 10
40.0
 20
0.0
 30
0.0
 11
40.0
 21
-20.0
 31
0.0
  0
LINE
  5
6A
330
1F
100
AcDbEntity
  8
0
  6
Continuous
 62
     7
370
    15
100
AcDbLine
 10
0.0
 20
0.0
 30
0.0
 11
40.0
 21
0.0
 31
0.0
  0
LINE
  5
6B
330
1F
100
AcDbEntity
  8
0
  6
Continuous
 62
     7
370
    15
100
AcDbLine
 10
0.0
 20
0.0
 30
0.0
 11
0.0
 21
-20.0
 31
0.0
  0
LINE
  5
6C
330
1F
100
AcDbEntity
  8
0
  6
Continuous
 62
     7
370
    15
100
AcDbLine
 10
0.0
 20
-20.0
 30
0.0
 11
5.5147186258
 21
-20.0
 31
0.0
  0
ARC
  5
6D
330
1F
100
AcDbEntity
  8
0
  6
Continuous
 62
     7
370
    15
100
AcDbCircle
 10
5.5147186258
 20
-26.0
 30
0.0
 40
6.000000000000004
100
AcDbArc
 50
45.0
 51
90.0
  0
LINE
  5
6E
330
1F
100
AcDbEntity
  8
0
  6
Continuous
 62
     7
370
    15
100
AcDbLine
 10
9.7573593129
 20
-21.7573593129
 30
0.0
 11
78.2426406871
 21
-90.2426406871
 31
0.0
  0
ARC
  5
6F
330
1F
100
AcDbEntity
  8
0
  6
Continuous
 62
     7
370
    15
100
AcDbCircle
 10
74.0
 20
-94.4852813742
 30
0.0
 40
6.0
100
AcDbArc
 50
0.0
 51
45.0
  0
LINE
  5
70
330
1F
100
AcDbEntity
  8
0
  6
Continuous
 62
     7
370
    15
100
AcDbLine
 10
80.0
 20
-94.4852813742
 30
0.0
 11
80.0
 21
-100.0
 31
0.0
  0
LINE
  5
71
330
1F
100
AcDbEntity
  8
0
  6
Continuous
 62
     7
370
    15
100
AcDbLine
 10
80.0
 20
-100.0
 30
0.0
 11
100.0
 21
-100.0
 31
0.0
  0
LINE
  5
72
330
1F
100
AcDbEntity
  8
0
  6
Continuous
 62
     7
370
    15
100
AcDbLine
 10
100.0
 20
-60.0
 30
0.0
 11
100.0
 21
-100.0
 31
0.0
  0
LINE
  5
73
330
1F
100
AcDbEntity
  8
0
  6
Continuous
 62
     7
370
    15
100
AcDbLine
 10
80.0
 20
-60.0
 30
0.0
 11
100.0
 21
-60.0
 31
0.0
  0
LINE
  5
74
330
1F
100
AcDbEntity
  8
0
  6
Continuous
 62
     7
370
    15
100
AcDbLine
 10
80.0
 20
-60.0
 30
0.0
 11
80.0
 21
-60.7573593129
 31
0.0
  0
ARC
  5
75
330
1F
100
AcDbEntity
  8
0
  6
Continuous
 62
     7
370
    15
100
AcDbCircle
 10
77.0
 20
-60.7573593129
 30
0.0
 40
3.0
100
AcDbArc
 50
225.0
 51
0.0
  0
LINE
  5
76
330
1F
100
AcDbEntity
  8
0
  6
Continuous
 62
     7
370
    15
100
AcDbLine
 10
37.1213203436
 20
-25.1213203436
 30
0.0
 11
74.8786796564
 21
-62.8786796564
 31
0.0
  0
CIRCLE
  5
77
330
1F
100
AcDbEntity
  8
0
  6
Continuous
 62
     7
370
    15
100
AcDbCircle
 10
10.0
 20
-10.0
 30
0.0
 40
2.749999999999998
  0
CIRCLE
  5
78
330
1F
100
AcDbEntity
  8
0
  6
Continuous
 62
     7
370
    15
100
AcDbCircle
 10
30.0
 20
-10.0
 30
0.0
 40
2.749999999999998
  0
CIRCLE
  5
79
330
1F
100
AcDbEntity
  8
0
  6
Continuous
 62
     7
370
    15
100
AcDbCircle
 10
90.0
 20
-70.0
 30
0.0
 40
2.75
  0
CIRCLE
  5
7A
330
1F
100
AcDbEntity
  8
0
  6
Continuous
 62
     7
370
    15
100
AcDbCircle
 10
90.0
 20
-90.0
 30
0.0
 40
2.75
  0
LINE
  5
7B
330
1F
100
AcDbEntity
  8
0
  6
Continuous
 62
     7
370
    15
100
AcDbLine
 10
30.8330301534
 20
-23.1888341317
 30
0.0
 11
32.6447390141
 21
-25.0005429925
 31
0.0
  0
LINE
  5
7C
330
1F
100
AcDbEntity
  8
0
  6
Continuous
 62
     7
370
    15
100
AcDbLine
 10
32.6447390141
 20
-25.0005429925
 30
0.0
 11
28.1827136977
 21
-29.462568309
 31
0.0
  0
SPLINE
  5
7D
330
1F
100
AcDbEntity
  8
0
  6
Continuous
 62
     7
370
    15
100
AcDbSpline
210
0.0
220
0.0
230
1.0
 70
     8
 71
     3
 72
    23
 73
    19
 74
     0
 42
0.00000001
 43
0.00000001
 40
0.0
 40
0.0
 40
0.0
 40
0.0
 40
0.0671905060492939
 40
0.1306199039139216
 40
0.191171264721865
 40
0.2492598832531875
 40
0.3055628173153296
 40
0.3607541841903423
 40
0.4157562147719223
 40
0.4712962325164247
 40
0.5275920399756772
 40
0.5856745185478323
 40
0.6458558925179293
 40
0.7088904743598313
 40
0.7753088840471878
 40
0.8457381291293649
 40
0.9203661095994841
 40
1.0
 40
1.0
 40
1.0
 40
1.0
 10
28.18271369768765
 20
-29.46256830895478
 30
0.0
 10
28.0758264115773
 20
-29.56559431872479
 30
0.0
 10
27.86803504547103
 20
-29.76587927396714
 30
0.0
 10
27.53248399709621
 20
-30.0232386620703
 30
0.0
 10
27.19415783630041
 20
-30.24133638535324
 30
0.0
 10
26.8481108250149
 20
-30.41465856868449
 30
0.0
 10
26.49630472956644
 20
-30.54547332016141
 30
0.0
 10
26.13716873847226
 20
-30.62815421788338
 30
0.0
 10
25.77296690258961
 20
-30.67052075202665
 30
0.0
 10
25.403567724156
 20
-30.66890382165158
 30
0.0
 10
25.03088308262657
 20
-30.61940988014194
 30
0.0
 10
24.65529835845032
 20
-30.52916175551557
 30
0.0
 10
24.28002108078584
 20
-30.38743223098105
 30
0.0
 10
23.90299654048488
 20
-30.20423716357311
 30
0.0
 10
23.52393264240973
 20
-29.97713159165428
 30
0.0
 10
23.14408353978905
 20
-29.70484040984585
 30
0.0
 10
22.76282847096515
 20
-29.38660211409129
 30
0.0
 10
22.51797435978639
 20
-29.14972414330571
 30
0.0
 10
22.39157445718132
 20
-29.0274417266763
 30
0.0
  0
SPLINE
  5
7E
330
1F
100
AcDbEntity
  8
0
  6
Continuous
 62
     7
370
    15
100
AcDbSpline
210
0.0
220
0.0
230
1.0
 70
     8
 71
     3
 72
    23
 73
    19
 74
     0
 42
0.00000001
 43
0.00000001
 40
0.0
 40
0.0
 40
0.0
 40
0.0
 40
0.0797164469864241
 40
0.1546516658251591
 40
0.2251539250222173
 40
0.2917948784268978
 40
0.3548948083240669
 40
0.4150354107701781
 40
0.4728877175465298
 40
0.5292418869625002
 40
0.5848394831352733
 40
0.6396015863836835
 40
0.6949188567560193
 40
0.7508968158208453
 40
0.8090456549190899
 40
0.8694996480690821
 40
0.9329427182694343
 40
1.0
 40
1.0
 40
1.0
 40
1.0
 10
22.39157445718132
 20
-29.0274417266763
 30
0.0
 10
22.26918736005578
 20
-28.90113153850193
 30
0.0
 10
22.03175369157837
 20
-28.65608698684018
 30
0.0
 10
21.71465519109807
 20
-28.27318423435979
 30
0.0
 10
21.44212110024392
 20
-27.89257380488512
 30
0.0
 10
21.21268748277063
 20
-27.51454964525599
 30
0.0
 10
21.02910046769064
 20
-27.13741380093098
 30
0.0
 10
20.89074534324181
 20
-26.76187889911541
 30
0.0
 10
20.79920173696042
 20
-26.38759597455198
 30
0.0
 10
20.75016965387454
 20
-26.01541160243754
 30
0.0
 10
20.74857951268798
 20
-25.64675588536364
 30
0.0
 10
20.79031263477316
 20
-25.28283671145908
 30
0.0
 10
20.87637053646046
 20
-24.92598750858287
 30
0.0
 10
21.00392296146006
 20
-24.57377416971012
 30
0.0
 10
21.17838776011632
 20
-24.2296569882452
 30
0.0
 10
21.39254204951492
 20
-23.88929807658849
 30
0.0
 10
21.65416079549795
 20
-23.55814568200815
 30
0.0
 10
21.85253561729998
 20
-23.34946571384123
 30
0.0
 10
21.95447002680158
 20
-23.24223603047377
 30
0.0
  0
LINE
  5
7F
330
1F
100
AcDbEntity
  8
0
  6
Continuous
 62
     7
370
    15
100
AcDbLine
 10
21.9544700268
 20
-23.2422360305
 30
0.0
 11
26.4204510395
 21
-18.7762550178
 31
0.0
  0
LINE
  5
80
330
1F
100
AcDbEntity
  8
0
  6
Continuous
 62
     7
370
    15
100
AcDbLine
 10
26.4204510395
 20
-18.7762550178
 30
0.0
 11
28.2341377483
 21
-20.5899417267
 31
0.0
  0
LINE
  5
81
330
1F
100
AcDbEntity
  8
0
  6
Continuous
 62
     7
370
    15
100
AcDbLine
 10
28.2341377483
 20
-20.5899417267
 30
0.0
 11
23.8710048369
 21
-24.9530746381
 31
0.0
  0
SPLINE
  5
82
330
1F
100
AcDbEntity
  8
0
  6
Continuous
 62
     7
370
    15
100
AcDbSpline
210
0.0
220
0.0
230
1.0
 70
     8
 71
     3
 72
    23
 73
    19
 74
     0
 42
0.00000001
 43
0.00000001
 40
0.0
 40
0.0
 40
0.0
 40
0.0
 40
0.0786757994518202
 40
0.1527680614488733
 40
0.221640136764988
 40
0.2866951947094302
 40
0.3476211843004818
 40
0.4054122066559784
 40
0.460886226826357
 40
0.5139127044810547
 40
0.5664099588341259
 40
0.6193516736736748
 40
0.6743803960425008
 40
0.7315907258855242
 40
0.7919888176192545
 40
0.8568123461166229
 40
0.9257156013017486
 40
1.0
 40
1.0
 40
1.0
 40
1.0
 10
23.87100483692816
 20
-24.9530746380687
 30
0.0
 10
23.81272715120694
 20
-25.01223059193073
 30
0.0
 10
23.69956695283092
 20
-25.12709615996598
 30
0.0
 10
23.5504900847342
 20
-25.30751091431993
 30
0.0
 10
23.4194409145689
 20
-25.48378805506037
 30
0.0
 10
23.31329686794673
 20
-25.6601799715435
 30
0.0
 10
23.2252463308715
 20
-25.83300742198963
 30
0.0
 10
23.15561402190797
 20
-26.00360465331336
 30
0.0
 10
23.11334289049123
 20
-26.17432590205861
 30
0.0
 10
23.08800556121327
 20
-26.34258662244622
 30
0.0
 10
23.08572733848596
 20
-26.51035441096497
 30
0.0
 10
23.10810693511862
 20
-26.67875158102948
 30
0.0
 10
23.15465734912419
 20
-26.84712444489985
 30
0.0
 10
23.22224401797693
 20
-27.01667813699492
 30
0.0
 10
23.31498621447987
 20
-27.18580377822544
 30
0.0
 10
23.43028556472789
 20
-27.35531066308771
 30
0.0
 10
23.56761669344581
 20
-27.52686915835064
 30
0.0
 10
23.672308702685
 20
-27.63585397015672
 30
0.0
 10
23.72662192553575
 20
-27.69239425832187
 30
0.0
  0
SPLINE
  5
83
330
1F
100
AcDbEntity
  8
0
  6
Continuous
 62
     7
370
    15
100
AcDbSpline
210
0.0
220
0.0
230
1.0
 70
     8
 71
     3
 72
    23
 73
    19
 74
     0
 42
0.00000001
 43
0.00000001
 40
0.0
 40
0.0
 40
0.0
 40
0.0
 40
0.0727039370991415
 40
0.1408948980874928
 40
0.2046398736450184
 40
0.264593076056624
 40
0.3212732359184379
 40
0.3756870107319762
 40
0.4280145727582651
 40
0.4797268678936121
 40
0.5324164604340368
 40
0.5869513052450128
 40
0.6446893509610079
 40
0.7068068413690265
 40
0.7725029557727696
 40
0.8428887673842261
 40
0.9184911127516245
 40
1.0
 40
1.0
 40
1.0
 40
1.0
 10
23.72662192553575
 20
-27.69239425832187
 30
0.0
 10
23.78190451606849
 20
-27.74595352496817
 30
0.0
 10
23.88903812216881
 20
-27.84974745576289
 30
0.0
 10
24.0570205164187
 20
-27.98713708338477
 30
0.0
 10
24.22643806057216
 20
-28.09947817700913
 30
0.0
 10
24.39221288739055
 20
-28.19482797310575
 30
0.0
 10
24.55991023913348
 20
-28.26433008821051
 30
0.0
 10
24.72645738325717
 20
-28.31244377277226
 30
0.0
 10
24.89255390930408
 20
-28.33867240809477
 30
0.0
 10
25.05894793270326
 20
-28.34330017307079
 30
0.0
 10
25.22646498086176
 20
-28.32242380045555
 30
0.0
 10
25.3960823121474
 20
-28.27976838765159
 30
0.0
 10
25.57000377150383
 20
-28.216509188588
 30
0.0
 10
25.74442745191378
 20
-28.12550779886844
 30
0.0
 10
25.92422663827997
 20
-28.01701192068712
 30
0.0
 10
26.10361289875606
 20
-27.88232765049113
 30
0.0
 10
26.28882069085109
 20
-27.72818941957579
 30
0.0
 10
26.40804433453911
 20
-27.61216184070555
 30
0.0
 10
26.46989724199145
 20
-27.551967043132
 30
0.0
  0
LINE
  5
84
330
1F
100
AcDbEntity
  8
0
  6
Continuous
 62
     7
370
    15
100
AcDbLine
 10
26.469897242
 20
-27.5519670431
 30
0.0
 11
30.8330301534
 21
-23.1888341317
 31
0.0
  0
SPLINE
  5
85
330
1F
100
AcDbEntity
  8
0
  6
Continuous
 62
     7
370
    15
100
AcDbSpline
210
0.0
220
0.0
230
1.0
 70
     8
 71
     3
 72
    11
 73
     7
 74
     0
 42
0.00000001
 43
0.00000001
 40
0.0
 40
0.0
 40
0.0
 40
0.0
 40
0.259415926681122
 40
0.507323959987884
 40
0.7503266144689761
 40
0.9999999999999999
 40
0.9999999999999999
 40
0.9999999999999999
 40
0.9999999999999999
 10
40.84355582448678
 20
-46.25711296739947
 30
0.0
 10
40.72044614619955
 20
-46.20853152233425
 30
0.0
 10
40.47968803122732
 20
-46.11352374309825
 30
0.0
 10
40.12061963658174
 20
-45.98070907088368
 30
0.0
 10
39.77444354401053
 20
-45.82842799007251
 30
0.0
 10
39.5520075421202
 20
-45.71126574643093
 30
0.0
 10
39.43928367258805
 20
-45.65189144841214
 30
0.0
  0
SPLINE
  5
86
330
1F
100
AcDbEntity
  8
0
  6
Continuous
 62
     7
370
    15
100
AcDbSpline
210
0.0
220
0.0
230
1.0
 70
     8
 71
     3
 72
    13
 73
     9
 74
     0
 42
0.00000001
 43
0.00000001
 40
0.0
 40
0.0
 40
0.0
 40
0.0
 40
0.2306030441229218
 40
0.4433619154725583
 40
0.5545372324534368
 40
0.6844937662089522
 40
0.8326696896927622
 40
1.0
 40
1.0
 40
1.0
 40
1.0
 10
39.43928367258805
 20
-45.65189144841213
 30
0.0
 10
39.29872986210668
 20
-45.57150384291081
 30
0.0
 10
39.02849836156858
 20
-45.41694906289533
 30
0.0
 10
38.70140512379429
 20
-45.20472765549415
 30
0.0
 10
38.44888071724222
 20
-45.01009159368598
 30
0.0
 10
38.2392681277882
 20
-44.83446795993932
 30
0.0
 10
38.01056452961823
 20
-44.62094266217552
 30
0.0
 10
37.85206372310384
 20
-44.46617344467485
 30
0.0
 10
37.76800202701843
 20
-44.38409081550073
 30
0.0
  0
SPLINE
  5
87
330
1F
100
AcDbEntity
  8
0
  6
Continuous
 62
     7
370
    15
100
AcDbSpline
210
0.0
220
0.0
230
1.0
 70
     8
 71
     3
 72
    15
 73
    11
 74
     0
 42
0.00000001
 43
0.00000001
 40
0.0
 40
0.0
 40
0.0
 40
0.0
 40
0.1367586667301435
 40
0.2690336461775126
 40
0.3972883304885008
 40
0.5233108271815413
 40
0.6459312354479363
 40
0.7653681345336372
 40
0.8827993883119742
 40
1.0
 40
1.0
 40
1.0
 40
1.0
 10
37.76800202701843
 20
-44.38409081550073
 30
0.0
 10
37.64309034042105
 20
-44.25359283828112
 30
0.0
 10
37.39736224655345
 20
-43.99687531192899
 30
0.0
 10
37.07366666650803
 20
-43.58317960280586
 30
0.0
 10
36.78959355692124
 20
-43.15854753279742
 30
0.0
 10
36.55309358324473
 20
-42.7200278391301
 30
0.0
 10
36.36016123014177
 20
-42.27297940987562
 30
0.0
 10
36.22493495564192
 20
-41.8172822588023
 30
0.0
 10
36.13309893847056
 20
-41.3575696808651
 30
0.0
 10
36.11675260340267
 20
-41.04788103060636
 30
0.0
 10
36.1085874700564
 20
-40.89318891676655
 30
0.0
  0
SPLINE
  5
88
330
1F
100
AcDbEntity
  8
0
  6
Continuous
 62
     7
370
    15
100
AcDbSpline
210
0.0
220
0.0
230
1.0
 70
     8
 71
     3
 72
    15
 73
    11
 74
     0
 42
0.00000001
 43
0.00000001
 40
0.0
 40
0.0
 40
0.0
 40
0.0
 40
0.1112589898443613
 40
0.2237952419704277
 40
0.3395674813618956
 40
0.4593337981950979
 40
0.5846926004032994
 40
0.715749043661021
 40
0.8539988686047197
 40
1.0
 40
1.0
 40
1.0
 40
1.0
 10
36.1085874700564
 20
-40.89318891676655
 30
0.0
 10
36.11065378313206
 20
-40.73731588303763
 30
0.0
 10
36.11481013072609
 20
-40.42378038043397
 30
0.0
 10
36.19234089918773
 20
-39.95324834481972
 30
0.0
 10
36.32180297650312
 20
-39.48292696631353
 30
0.0
 10
36.50557395462334
 20
-39.01158418637599
 30
0.0
 10
36.74447050011392
 20
-38.54121431647489
 30
0.0
 10
37.05021622567574
 20
-38.08029247366194
 30
0.0
 10
37.40711466765222
 20
-37.62041469283707
 30
0.0
 10
37.68343297413766
 20
-37.33387716742318
 30
0.0
 10
37.82535962195514
 20
-37.1867015749944
 30
0.0
  0
SPLINE
  5
89
330
1F
100
AcDbEntity
  8
0
  6
Continuous
 62
     7
370
    15
100
AcDbSpline
210
0.0
220
0.0
230
1.0
 70
     8
 71
     3
 72
    15
 73
    11
 74
     0
 42
0.00000001
 43
0.00000001
 40
0.0
 40
0.0
 40
0.0
 40
0.0
 40
0.1393370602764723
 40
0.2730718016629671
 40
0.4014809795195067
 40
0.5267166903066539
 40
0.6484484522560974
 40
0.7669933676714211
 40
0.8840049683155998
 40
1.0
 40
1.0
 40
1.0
 40
1.0
 10
37.82535962195514
 20
-37.1867015749944
 30
0.0
 10
37.9636341422999
 20
-37.05439355468246
 30
0.0
 10
38.23462358559451
 20
-36.79509721665615
 30
0.0
 10
38.66951102648193
 20
-36.45502384466006
 30
0.0
 10
39.11473272086504
 20
-36.16302226842457
 30
0.0
 10
39.57184303858892
 20
-35.92325831681423
 30
0.0
 10
40.03766670370877
 20
-35.73451509270924
 30
0.0
 10
40.50909734615549
 20
-35.59651032795318
 30
0.0
 10
40.9855377249272
 20
-35.51083938558868
 30
0.0
 10
41.30537779674219
 20
-35.496731214071
 30
0.0
 10
41.46460012828425
 20
-35.48970790410833
 30
0.0
  0
SPLINE
  5
8A
330
1F
100
AcDbEntity
  8
0
  6
Continuous
 62
     7
370
    15
100
AcDbSpline
210
0.0
220
0.0
230
1.0
 70
     8
 71
     3
 72
    15
 73
    11
 74
     0
 42
0.00000001
 43
0.00000001
 40
0.0
 40
0.0
 40
0.0
 40
0.0
 40
0.1144624642056902
 40
0.2307679270435038
 40
0.3495764102580071
 40
0.4731124598822883
 40
0.5999355089731702
 40
0.7296381433601379
 40
0.8625115090918754
 40
1.0
 40
1.0
 40
1.0
 40
1.0
 10
41.46460012828425
 20
-35.48970790410833
 30
0.0
 10
41.61848837267515
 20
-35.49416224885548
 30
0.0
 10
41.92874266783553
 20
-35.50314265925265
 30
0.0
 10
42.39364146611832
 20
-35.580604937186
 30
0.0
 10
42.85778104565014
 20
-35.71337642182796
 30
0.0
 10
43.31924802950613
 20
-35.89765359150688
 30
0.0
 10
43.77420066228756
 20
-36.13142051017062
 30
0.0
 10
44.21587131387356
 20
-36.41325471981258
 30
0.0
 10
44.64216700922739
 20
-36.7425149083217
 30
0.0
 10
44.904941565058
 20
-36.99369745092216
 30
0.0
 10
45.03857164727159
 20
-37.12143258765263
 30
0.0
  0
SPLINE
  5
8B
330
1F
100
AcDbEntity
  8
0
  6
Continuous
 62
     7
370
    15
100
AcDbSpline
210
0.0
220
0.0
230
1.0
 70
     8
 71
     3
 72
    13
 73
     9
 74
     0
 42
0.00000001
 43
0.00000001
 40
0.0
 40
0.0
 40
0.0
 40
0.0
 40
0.1463371651369858
 40
0.2860492099934113
 40
0.4186517128554885
 40
0.5443576538200435
 40
0.7801449838770951
 40
1.0
 40
1.0
 40
1.0
 40
1.0
 10
45.03857164727159
 20
-37.12143258765263
 30
0.0
 10
45.1095549853296
 20
-37.19353232036976
 30
0.0
 10
45.24830803384726
 20
-37.33446761568702
 30
0.0
 10
45.44399896106824
 20
-37.54780471859894
 30
0.0
 10
45.62275084385353
 20
-37.75715782660927
 30
0.0
 10
45.83134248997377
 20
-38.02771552817838
 30
0.0
 10
46.06813530680142
 20
-38.35289456176023
 30
0.0
 10
46.23283532452889
 20
-38.62154912474499
 30
0.0
 10
46.31230582448678
 20
-38.75117942309566
 30
0.0
  0
SPLINE
  5
8C
330
1F
100
AcDbEntity
  8
0
  6
Continuous
 62
     7
370
    15
100
AcDbSpline
210
0.0
220
0.0
230
1.0
 70
     8
 71
     3
 72
    11
 73
     7
 74
     0
 42
0.00000001
 43
0.00000001
 40
0.0
 40
0.0
 40
0.0
 40
0.0
 40
0.2862517756321937
 40
0.5517455859109224
 40
0.7910953973577046
 40
1.0
 40
1.0
 40
1.0
 40
1.0
 10
46.31230582448678
 20
-38.75117942309566
 30
0.0
 10
46.38317533998314
 20
-38.8812541943327
 30
0.0
 10
46.51977516461094
 20
-39.13197117489955
 30
0.0
 10
46.67881153705716
 20
-39.50938833461618
 30
0.0
 10
46.81256563979059
 20
-39.85337575921424
 30
0.0
 10
46.89090656091417
 20
-40.07156652649962
 30
0.0
 10
46.92741658398045
 20
-40.1732522079058
 30
0.0
  0
LINE
  5
8D
330
1F
100
AcDbEntity
  8
0
  6
Continuous
 62
     7
370
    15
100
AcDbLine
 10
46.927416584
 20
-40.1732522079
 30
0.0
 11
45.2304229131
 21
-41.8702458788
 31
0.0
  0
LINE
  5
8E
330
1F
100
AcDbEntity
  8
0
  6
Continuous
 62
     7
370
    15
100
AcDbLine
 10
45.2304229131
 20
-41.8702458788
 30
0.0
 11
45.0247267106
 21
-41.6645496763
 31
0.0
  0
SPLINE
  5
8F
330
1F
100
AcDbEntity
  8
0
  6
Continuous
 62
     7
370
    15
100
AcDbSpline
210
0.0
220
0.0
230
1.0
 70
     8
 71
     3
 72
    11
 73
     7
 74
     0
 42
0.00000001
 43
0.00000001
 40
0.0
 40
0.0
 40
0.0
 40
0.0
 40
0.1991207577839254
 40
0.4378854407993463
 40
0.7083108025189934
 40
1.0
 40
1.0
 40
1.0
 40
1.0
 10
45.02472671056273
 20
-41.66454967626022
 30
0.0
 10
45.01665040421932
 20
-41.57351363797259
 30
0.0
 10
44.99888984021494
 20
-41.37331675143072
 30
0.0
 10
44.95855911454738
 20
-41.05077539889553
 30
0.0
 10
44.90649009957399
 20
-40.68657554967812
 30
0.0
 10
44.84500332233976
 20
-40.43586518561519
 30
0.0
 10
44.8130969637273
 20
-40.30576803069061
 30
0.0
  0
SPLINE
  5
90
330
1F
100
AcDbEntity
  8
0
  6
Continuous
 62
     7
370
    15
100
AcDbSpline
210
0.0
220
0.0
230
1.0
 70
     8
 71
     3
 72
    13
 73
     9
 74
     0
 42
0.00000001
 43
0.00000001
 40
0.0
 40
0.0
 40
0.0
 40
0.0
 40
0.2379682111919458
 40
0.4831604820754479
 40
0.609331377230646
 40
0.7364366536648272
 40
0.8666826682354783
 40
1.0
 40
1.0
 40
1.0
 40
1.0
 10
44.81309696372729
 20
-40.30576803069061
 30
0.0
 10
44.77334644607031
 20
-40.16884545377526
 30
0.0
 10
44.69263869448579
 20
-39.89084370749973
 30
0.0
 10
44.54246134124777
 20
-39.55756299880397
 30
0.0
 10
44.40538621113767
 20
-39.2922710647339
 30
0.0
 10
44.27588742857863
 20
-39.10230730191096
 30
0.0
 10
44.13261444459295
 20
-38.91721298633697
 30
0.0
 10
44.02366522812479
 20
-38.80301184522528
 30
0.0
 10
43.96855582448678
 20
-38.74524587879187
 30
0.0
  0
SPLINE
  5
91
330
1F
100
AcDbEntity
  8
0
  6
Continuous
 62
     7
370
    15
100
AcDbSpline
210
0.0
220
0.0
230
1.0
 70
     8
 71
     3
 72
    15
 73
    11
 74
     0
 42
0.00000001
 43
0.00000001
 40
0.0
 40
0.0
 40
0.0
 40
0.0
 40
0.1261930750121568
 40
0.249162583820968
 40
0.3725396445219897
 40
0.4938761441160247
 40
0.6158749677433344
 40
0.739754251042799
 40
0.8673458318395905
 40
1.0
 40
1.0
 40
1.0
 40
1.0
 10
43.96855582448678
 20
-38.74524587879187
 30
0.0
 10
43.90422178685109
 20
-38.68419418675408
 30
0.0
 10
43.77719710627017
 20
-38.56365035078436
 30
0.0
 10
43.57092491284175
 20
-38.40189995240588
 30
0.0
 10
43.35464263388707
 20
-38.26010294720722
 30
0.0
 10
43.12728731216102
 20
-38.13834114467268
 30
0.0
 10
42.88926990171187
 20
-38.03729811542051
 30
0.0
 10
42.63585824555187
 20
-37.96719791368533
 30
0.0
 10
42.36946898254573
 20
-37.92035486103143
 30
0.0
 10
42.18671194102488
 20
-37.91126938978329
 30
0.0
 10
42.09355582448678
 20
-37.90663828385516
 30
0.0
  0
SPLINE
  5
92
330
1F
100
AcDbEntity
  8
0
  6
Continuous
 62
     7
370
    15
100
AcDbSpline
210
0.0
220
0.0
230
1.0
 70
     8
 71
     3
 72
    15
 73
    11
 74
     0
 42
0.00000001
 43
0.00000001
 40
0.0
 40
0.0
 40
0.0
 40
0.0
 40
0.1012176660284451
 40
0.2066665313159236
 40
0.3177912276775326
 40
0.4362385393140996
 40
0.5625454880057286
 40
0.6975730198838819
 40
0.8430968051670359
 40
1.0
 40
1.0
 40
1.0
 40
1.0
 10
42.09355582448678
 20
-37.90663828385516
 30
0.0
 10
42.00106742338539
 20
-37.90822127564439
 30
0.0
 10
41.81222433114088
 20
-37.9114534329843
 30
0.0
 10
41.52547162772127
 20
-37.96205497725408
 30
0.0
 10
41.23135377610025
 20
-38.0468677695569
 30
0.0
 10
40.92781032566285
 20
-38.16361936659915
 30
0.0
 10
40.61713375195801
 20
-38.31932231951042
 30
0.0
 10
40.30898618016625
 20
-38.52770980917276
 30
0.0
 10
39.9944279590461
 20
-38.77445941959391
 30
0.0
 10
39.79560188005425
 20
-38.96618661645478
 30
0.0
 10
39.69244822955007
 20
-39.06565727119693
 30
0.0
  0
SPLINE
  5
93
330
1F
100
AcDbEntity
  8
0
  6
Continuous
 62
     7
370
    15
100
AcDbSpline
210
0.0
220
0.0
230
1.0
 70
     8
 71
     3
 72
    15
 73
    11
 74
     0
 42
0.00000001
 43
0.00000001
 40
0.0
 40
0.0
 40
0.0
 40
0.0
 40
0.160166707078159
 40
0.3076856797328478
 40
0.4443287311475759
 40
0.5710271311676769
 40
0.6890038374305406
 40
0.7982813798603422
 40
0.9017628353086479
 40
0.9999999999999999
 40
0.9999999999999999
 40
0.9999999999999999
 40
0.9999999999999999
 10
39.69244822955007
 20
-39.06565727119693
 30
0.0
 10
39.58968764911335
 20
-39.17275324322497
 30
0.0
 10
39.39228108679961
 20
-39.378488239912
 30
0.0
 10
39.13742852803129
 20
-39.70254023731479
 30
0.0
 10
38.93118536066955
 20
-40.02321050893555
 30
0.0
 10
38.7761344238742
 20
-40.34142542357081
 30
0.0
 10
38.66509009428719
 20
-40.65058637147956
 30
0.0
 10
38.59136468237102
 20
-40.94820661357612
 30
0.0
 10
38.54791484435039
 20
-41.23404712165453
 30
0.0
 10
38.55014418436089
 20
-41.42114064444197
 30
0.0
 10
38.5512298751197
 20
-41.51225537246277
 30
0.0
  0
SPLINE
  5
94
330
1F
100
AcDbEntity
  8
0
  6
Continuous
 62
     7
370
    15
100
AcDbSpline
210
0.0
220
0.0
230
1.0
 70
     8
 71
     3
 72
    15
 73
    11
 74
     0
 42
0.00000001
 43
0.00000001
 40
0.0
 40
0.0
 40
0.0
 40
0.0
 40
0.1308740917937923
 40
0.2589038479969686
 40
0.3857552960785454
 40
0.5130421267279919
 40
0.6387449079067793
 40
0.7617673266283211
 40
0.8819452653408977
 40
1.0
 40
1.0
 40
1.0
 40
1.0
 10
38.55122987511969
 20
-41.51225537246276
 30
0.0
 10
38.55858783614371
 20
-41.60150241984346
 30
0.0
 10
38.57314384487254
 20
-41.77805687514112
 30
0.0
 10
38.62757849449934
 20
-42.03684897176782
 30
0.0
 10
38.70870511706534
 20
-42.28578051134222
 30
0.0
 10
38.81813747157216
 20
-42.52191344454482
 30
0.0
 10
38.94761072852516
 20
-42.74427393696094
 30
0.0
 10
39.08753628436662
 20
-42.95427605318643
 30
0.0
 10
39.23946381307486
 20
-43.14954105177281
 30
0.0
 10
39.35191407028439
 20
-43.26749214380734
 30
0.0
 10
39.40763810296779
 20
-43.32594208132352
 30
0.0
  0
SPLINE
  5
95
330
1F
100
AcDbEntity
  8
0
  6
Continuous
 62
     7
370
    15
100
AcDbSpline
210
0.0
220
0.0
230
1.0
 70
     8
 71
     3
 72
    15
 73
    11
 74
     0
 42
0.00000001
 43
0.00000001
 40
0.0
 40
0.0
 40
0.0
 40
0.0
 40
0.1251171218048475
 40
0.2502206392398397
 40
0.3751971111434306
 40
0.5030947536311976
 40
0.6302895831782649
 40
0.7549205643923234
 40
0.878545998302335
 40
1.0
 40
1.0
 40
1.0
 40
1.0
 10
39.40763810296779
 20
-43.32594208132352
 30
0.0
 10
39.46346745025491
 20
-43.3796671065711
 30
0.0
 10
39.57512007433232
 20
-43.48711131537885
 30
0.0
 10
39.75817337645994
 20
-43.63054501695621
 30
0.0
 10
39.95139924400609
 20
-43.76271646364749
 30
0.0
 10
40.15578824373178
 20
-43.87959487413799
 30
0.0
 10
40.36636511293215
 20
-43.9842318739873
 30
0.0
 10
40.58091582560503
 20
-44.07395386520793
 30
0.0
 10
40.79803245735594
 20
-44.14692092689065
 30
0.0
 10
40.94484872710772
 20
-44.18515766178862
 30
0.0
 10
41.01760645739817
 20
-44.20410663828554
 30
0.0
  0
SPLINE
  5
96
330
1F
100
AcDbEntity
  8
0
  6
Continuous
 62
     7
370
    15
100
AcDbSpline
210
0.0
220
0.0
230
1.0
 70
     8
 71
     3
 72
    11
 73
     7
 74
     0
 42
0.00000001
 43
0.00000001
 40
0.0
 40
0.0
 40
0.0
 40
0.0
 40
0.2809413010746735
 40
0.552422385669615
 40
0.7981420293577808
 40
0.9999999999999999
 40
0.9999999999999999
 40
0.9999999999999999
 40
0.9999999999999999
 10
41.01760645739817
 20
-44.20410663828554
 30
0.0
 10
41.13856245177409
 20
-44.2328774241661
 30
0.0
 10
41.37640145486327
 20
-44.28945018905657
 30
0.0
 10
41.72593163509727
 20
-44.3420232524245
 30
0.0
 10
42.04249317139386
 20
-44.3735328098434
 30
0.0
 10
42.23989246247851
 20
-44.38898772242362
 30
0.0
 10
42.32891974853741
 20
-44.39595790410833
 30
0.0
  0
LINE
  5
97
330
1F
100
AcDbEntity
  8
0
  6
Continuous
 62
     7
370
    15
100
AcDbLine
 10
42.3289197485
 20
-44.3959579041
 30
0.0
 11
42.5168153182
 21
-44.5838534737
 31
0.0
  0
LINE
  5
98
330
1F
100
AcDbEntity
  8
0
  6
Continuous
 62
     7
370
    15
100
AcDbLine
 10
42.5168153182
 20
-44.5838534737
 30
0.0
 11
40.8435558245
 21
-46.2571129674
 31
0.0
  0
LINE
  5
99
330
1F
100
AcDbEntity
  8
0
  6
Continuous
 62
     7
370
    15
100
AcDbLine
 10
57.4218129431
 20
-63.7649586936
 30
0.0
 11
55.7445977533
 21
-62.0877435038
 31
0.0
  0
LINE
  5
9A
330
1F
100
AcDbEntity
  8
0
  6
Continuous
 62
     7
370
    15
100
AcDbLine
 10
55.7445977533
 20
-62.0877435038
 30
0.0
 11
56.3043287659
 21
-61.5280124911
 31
0.0
  0
SPLINE
  5
9B
330
1F
100
AcDbEntity
  8
0
  6
Continuous
 62
     7
370
    15
100
AcDbSpline
210
0.0
220
0.0
230
1.0
 70
     8
 71
     3
 72
    11
 73
     7
 74
     0
 42
0.00000001
 43
0.00000001
 40
0.0
 40
0.0
 40
0.0
 40
0.0
 40
0.2198927685128847
 40
0.4858761649635985
 40
0.7576025603445499
 40
1.0
 40
1.0
 40
1.0
 40
1.0
 10
56.30432876591836
 20
-61.52801249110954
 30
0.0
 10
56.21530595962624
 20
-61.51559202635323
 30
0.0
 10
56.0186007200313
 20
-61.48814770508849
 30
0.0
 10
55.71233660095728
 20
-61.44293639851038
 30
0.0
 10
55.39858640832863
 20
-61.38279275930714
 30
0.0
 10
55.1982356803934
 20
-61.31884347308711
 30
0.0
 10
55.10377496845001
 20
-61.28869287085637
 30
0.0
  0
SPLINE
  5
9C
330
1F
100
AcDbEntity
  8
0
  6
Continuous
 62
     7
370
    15
100
AcDbSpline
210
0.0
220
0.0
230
1.0
 70
     8
 71
     3
 72
    11
 73
     7
 74
     0
 42
0.00000001
 43
0.00000001
 40
0.0
 40
0.0
 40
0.0
 40
0.0
 40
0.2385536894904902
 40
0.4784267967900118
 40
0.7285440590004925
 40
1.0
 40
1.0
 40
1.0
 40
1.0
 10
55.10377496845
 20
-61.28869287085637
 30
0.0
 10
54.98577930093022
 20
-61.23998499564922
 30
0.0
 10
54.74913534305573
 20
-61.14229984660133
 30
0.0
 10
54.41271146394848
 20
-60.94363685974987
 30
0.0
 10
54.08687190601977
 20
-60.69814210978487
 30
0.0
 10
53.8854341119238
 20
-60.50507678849514
 30
0.0
 10
53.78059458870317
 20
-60.40459476959054
 30
0.0
  0
SPLINE
  5
9D
330
1F
100
AcDbEntity
  8
0
  6
Continuous
 62
     7
370
    15
100
AcDbSpline
210
0.0
220
0.0
230
1.0
 70
     8
 71
     3
 72
    23
 73
    19
 74
     0
 42
0.00000001
 43
0.00000001
 40
0.0
 40
0.0
 40
0.0
 40
0.0
 40
0.0680111596287503
 40
0.1338507744831492
 40
0.1977650051182295
 40
0.2599198780122065
 40
0.3213208331210775
 40
0.3827804443116776
 40
0.4447934452720448
 40
0.5075636433355245
 40
0.5700781919601109
 40
0.6308960579081869
 40
0.6906870894073527
 40
0.7506452878228251
 40
0.810507700969852
 40
0.8714658418419371
 40
0.9349085289633736
 40
1.0
 40
1.0
 40
1.0
 40
1.0
 10
53.78059458870317
 20
-60.40459476959054
 30
0.0
 10
53.72097513213239
 20
-60.34148667276627
 30
0.0
 10
53.60363982304747
 20
-60.21728547281328
 30
0.0
 10
53.44647141744401
 20
-60.0193163277679
 30
0.0
 10
53.31334336234667
 20
-59.81324925288222
 30
0.0
 10
53.20457023708804
 20
-59.5998124871503
 30
0.0
 10
53.11429757891598
 20
-59.38135126825896
 30
0.0
 10
53.04632101111069
 20
-59.15491771753187
 30
0.0
 10
53.00367913097434
 20
-58.9207146617924
 30
0.0
 10
52.98148029880603
 20
-58.68240058388844
 30
0.0
 10
52.98338723685389
 20
-58.44450516075671
 30
0.0
 10
53.0088011503371
 20
-58.21176549920759
 30
0.0
 10
53.05885927799856
 20
-57.98640086468212
 30
0.0
 10
53.1316518973013
 20
-57.76857531294141
 30
0.0
 10
53.22977441395887
 20
-57.559227652107
 30
0.0
 10
53.35184897083938
 20
-57.35783824886581
 30
0.0
 10
53.49753858547307
 20
-57.16412351273406
 30
0.0
 10
53.61060092055834
 20
-57.04514683406421
 30
0.0
 10
53.66785724693101
 20
-56.98489540250193
 30
0.0
  0
SPLINE
  5
9E
330
1F
100
AcDbEntity
  8
0
  6
Continuous
 62
     7
370
    15
100
AcDbSpline
210
0.0
220
0.0
230
1.0
 70
     8
 71
     3
 72
    15
 73
    11
 74
     0
 42
0.00000001
 43
0.00000001
 40
0.0
 40
0.0
 40
0.0
 40
0.0
 40
0.1427695093873548
 40
0.2737980491360757
 40
0.396291633076952
 40
0.5129892013728021
 40
0.6290703556331478
 40
0.7476419464867113
 40
0.8704673305751537
 40
0.9999999999999999
 40
0.9999999999999999
 40
0.9999999999999999
 40
0.9999999999999999
 10
53.66785724693101
 20
-56.98489540250193
 30
0.0
 10
53.76326881517606
 20
-56.89598456578001
 30
0.0
 10
53.9462455681439
 20
-56.72547467367505
 30
0.0
 10
54.24561440393492
 20
-56.51932056623006
 30
0.0
 10
54.55368335831273
 20
-56.37689484297314
 30
0.0
 10
54.86822002428426
 20
-56.29098930674733
 30
0.0
 10
55.1890323592793
 20
-56.26440524864149
 30
0.0
 10
55.51597655916854
 20
-56.27656717151415
 30
0.0
 10
55.84965421653909
 20
-56.34214208845793
 30
0.0
 10
56.06776858211668
 20
-56.41660903180712
 30
0.0
 10
56.17972433553861
 20
-56.45483211136269
 30
0.0
  0
SPLINE
  5
9F
330
1F
100
AcDbEntity
  8
0
  6
Continuous
 62
     7
370
    15
100
AcDbSpline
210
0.0
220
0.0
230
1.0
 70
     8
 71
     3
 72
    13
 73
     9
 74
     0
 42
0.00000001
 43
0.00000001
 40
0.0
 40
0.0
 40
0.0
 40
0.0
 40
0.1008992224235284
 40
0.2099434002569917
 40
0.3273297729288391
 40
0.4546005606619186
 40
0.7227268762374635
 40
0.9999999999999999
 40
0.9999999999999999
 40
0.9999999999999999
 40
0.9999999999999999
 10
56.17972433553861
 20
-56.45483211136269
 30
0.0
 10
56.29681946380961
 20
-56.50268991387635
 30
0.0
 10
56.54046206870056
 20
-56.60226877630179
 30
0.0
 10
56.89884018285169
 20
-56.80304195672691
 30
0.0
 10
57.27320808089249
 20
-57.04040166999637
 30
0.0
 10
57.78757692374462
 20
-57.42574978161783
 30
0.0
 10
58.44629849934395
 20
-57.95145259335671
 30
0.0
 10
58.96032906804065
 20
-58.40161103416054
 30
0.0
 10
59.22165471528545
 20
-58.6304650227551
 30
0.0
  0
LINE
  5
A0
330
1F
100
AcDbEntity
  8
0
  6
Continuous
 62
     7
370
    15
100
AcDbLine
 10
59.2216547153
 20
-58.6304650228
 30
0.0
 11
59.2493445887
 21
-58.6027751493
 31
0.0
  0
SPLINE
  5
A1
330
1F
100
AcDbEntity
  8
0
  6
Continuous
 62
     7
370
    15
100
AcDbSpline
210
0.0
220
0.0
230
1.0
 70
     8
 71
     3
 72
    23
 73
    19
 74
     0
 42
0.00000001
 43
0.00000001
 40
0.0
 40
0.0
 40
0.0
 40
0.0
 40
0.0576984495451832
 40
0.1116621981608524
 40
0.1625326127911253
 40
0.2113891942930999
 40
0.2588972404465659
 40
0.307322717107031
 40
0.3569946303729603
 40
0.4097797595842972
 40
0.4662990879453853
 40
0.5267961599014244
 40
0.5923044796527115
 40
0.6630789416990345
 40
0.7387110211621756
 40
0.8199934448710515
 40
0.9070548809032398
 40
1.0
 40
1.0
 40
1.0
 40
1.0
 10
59.24934458870317
 20
-58.60277514933737
 30
0.0
 10
59.28302779164383
 20
-58.56650032425853
 30
0.0
 10
59.34821395368282
 20
-58.49629866826719
 30
0.0
 10
59.4313371872592
 20
-58.38356613926322
 30
0.0
 10
59.49007327842673
 20
-58.26511342224899
 30
0.0
 10
59.53398014578629
 20
-58.14609813588553
 30
0.0
 10
59.55270522558864
 20
-58.02266625490708
 30
0.0
 10
59.5553884183083
 20
-57.8974086124424
 30
0.0
 10
59.53664521173002
 20
-57.76874972853253
 30
0.0
 10
59.49790207119251
 20
-57.63764229504218
 30
0.0
 10
59.44162283901677
 20
-57.50306356235421
 30
0.0
 10
59.3694568370996
 20
-57.36395783971518
 30
0.0
 10
59.28186605478535
 20
-57.21954964178805
 30
0.0
 10
59.17917902629863
 20
-57.06942374969455
 30
0.0
 10
59.05944507865296
 20
-56.91500142375455
 30
0.0
 10
58.92467199285142
 20
-56.75483918786989
 30
0.0
 10
58.77428333766539
 20
-56.58855644162744
 30
0.0
 10
58.66627104161477
 20
-56.47819371273395
 30
0.0
 10
58.61049965199431
 20
-56.42120869364117
 30
0.0
  0
SPLINE
  5
A2
330
1F
100
AcDbEntity
  8
0
  6
Continuous
 62
     7
370
    15
100
AcDbSpline
210
0.0
220
0.0
230
1.0
 70
     8
 71
     3
 72
    15
 73
    11
 74
     0
 42
0.00000001
 43
0.00000001
 40
0.0
 40
0.0
 40
0.0
 40
0.0
 40
0.1307992906124671
 40
0.266808049211341
 40
0.40890404440664
 40
0.5578574691055321
 40
0.7001093853373428
 40
0.8208257697219974
 40
0.9211685072142882
 40
1.0
 40
1.0
 40
1.0
 40
1.0
 10
58.61049965199431
 20
-56.42120869364117
 30
0.0
 10
58.53783056189069
 20
-56.35195922806084
 30
0.0
 10
58.38959812058524
 20
-56.2107022324464
 30
0.0
 10
58.14002653309934
 20
-56.01991409648191
 30
0.0
 10
57.86658411297372
 20
-55.83917688390205
 30
0.0
 10
57.575601542191
 20
-55.67813177022271
 30
0.0
 10
57.2938423842193
 20
-55.53528772159029
 30
0.0
 10
57.04673122135021
 20
-55.40647541953103
 30
0.0
 10
56.83958586346122
 20
-55.30645937841334
 30
0.0
 10
56.71510806481199
 20
-55.24824527187979
 30
0.0
 10
56.66034142414621
 20
-55.22263274427408
 30
0.0
  0
LINE
  5
A3
330
1F
100
AcDbEntity
  8
0
  6
Continuous
 62
     7
370
    15
100
AcDbLine
 10
56.6603414241
 20
-55.2226327443
 30
0.0
 11
56.5060692722
 21
-55.0683605924
 31
0.0
  0
LINE
  5
A4
330
1F
100
AcDbEntity
  8
0
  6
Continuous
 62
     7
370
    15
100
AcDbLine
 10
56.5060692722
 20
-55.0683605924
 30
0.0
 11
57.7778256014
 21
-53.7966042633
 31
0.0
  0
SPLINE
  5
A5
330
1F
100
AcDbEntity
  8
0
  6
Continuous
 62
     7
370
    15
100
AcDbSpline
210
0.0
220
0.0
230
1.0
 70
     8
 71
     3
 72
    19
 73
    15
 74
     0
 42
0.00000001
 43
0.00000001
 40
0.0
 40
0.0
 40
0.0
 40
0.0
 40
0.0354899542860353
 40
0.0755506336574771
 40
0.1207665429430727
 40
0.1711462079588479
 40
0.2261471356767046
 40
0.2863255799772362
 40
0.3516845888497403
 40
0.4222265387584057
 40
0.5675459046388845
 40
0.7117843025909927
 40
0.8560027483281772
 40
0.9999999999999999
 40
0.9999999999999999
 40
0.9999999999999999
 40
0.9999999999999999
 10
57.77782560136139
 20
-53.79660426326142
 30
0.0
 10
57.80827258297741
 20
-53.81420603329092
 30
0.0
 10
57.87308779055729
 20
-53.85167649235391
 30
0.0
 10
57.97408659629774
 20
-53.91589409592107
 30
0.0
 10
58.08682904809462
 20
-53.98907089199023
 30
0.0
 10
58.21111997124449
 20
-54.07166072010649
 30
0.0
 10
58.34578501697807
 20
-54.1653499386501
 30
0.0
 10
58.49221258227169
 20
-54.26810816618018
 30
0.0
 10
58.65030848476344
 20
-54.38103573767667
 30
0.0
 10
58.87679602445353
 20
-54.54336395023841
 30
0.0
 10
59.16093158138718
 20
-54.75931271205832
 30
0.0
 10
59.49461817489533
 20
-55.03034795863332
 30
0.0
 10
59.81521413524104
 20
-55.31494083961986
 30
0.0
 10
60.01950737496211
 20
-55.51452911744033
 30
0.0
 10
60.1215756013614
 20
-55.61424666832471
 30
0.0
  0
SPLINE
  5
A6
330
1F
100
AcDbEntity
  8
0
  6
Continuous
 62
     7
370
    15
100
AcDbSpline
210
0.0
220
0.0
230
1.0
 70
     8
 71
     3
 72
    23
 73
    19
 74
     0
 42
0.00000001
 43
0.00000001
 40
0.0
 40
0.0
 40
0.0
 40
0.0
 40
0.0923951207991321
 40
0.1786327979689617
 40
0.258384214731226
 40
0.3324173524810465
 40
0.4005249754355459
 40
0.4631124225424943
 40
0.5210506496281602
 40
0.5747616296285177
 40
0.6257292513327282
 40
0.6756089404063655
 40
0.7252994165444869
 40
0.7754588251202873
 40
0.8274596793718022
 40
0.8817159624895563
 40
0.938885167804877
 40
1.0
 40
1.0
 40
1.0
 40
1.0
 10
60.1215756013614
 20
-55.61424666832471
 30
0.0
 10
60.23607123726949
 20
-55.73122399869239
 30
0.0
 10
60.45743223144974
 20
-55.95738299542067
 30
0.0
 10
60.75979489262043
 20
-56.30128758348584
 30
0.0
 10
61.02455092390106
 20
-56.63417982325847
 30
0.0
 10
61.250914773086
 20
-56.95584896063532
 30
0.0
 10
61.43823928380695
 20
-57.2667367775212
 30
0.0
 10
61.58709188948496
 20
-57.56645774362242
 30
0.0
 10
61.69468335213109
 20
-57.8563151899845
 30
0.0
 10
61.76639739196808
 20
-58.13598399284287
 30
0.0
 10
61.79869012345565
 20
-58.40871711864258
 30
0.0
 10
61.79472622164957
 20
-58.67603295646538
 30
0.0
 10
61.75591061897208
 20
-58.93943630478844
 30
0.0
 10
61.67547858599272
 20
-59.19686959844615
 30
0.0
 10
61.56566420777473
 20
-59.45204705895932
 30
0.0
 10
61.41369056814804
 20
-59.69920777449342
 30
0.0
 10
61.23176177389121
 20
-59.94556918198805
 30
0.0
 10
61.08660608607786
 20
-60.09694944554707
 30
0.0
 10
61.01160724693102
 20
-60.1751643898437
 30
0.0
  0
LINE
  5
A7
330
1F
100
AcDbEntity
  8
0
  6
Continuous
 62
     7
370
    15
100
AcDbLine
 10
61.0116072469
 20
-60.1751643898
 30
0.0
 11
57.4218129431
 21
-63.7649586936
 31
0.0
  0
LINE
  5
A8
330
1F
100
AcDbEntity
  8
0
  6
Continuous
 62
     7
370
    15
100
AcDbLine
 10
71.0723577046
 20
-66.865661683
 30
0.0
 11
72.7634178312
 21
-68.5567218095
 31
0.0
  0
LINE
  5
A9
330
1F
100
AcDbEntity
  8
0
  6
Continuous
 62
     7
370
    15
100
AcDbLine
 10
72.7634178312
 20
-68.5567218095
 30
0.0
 11
67.4884969451
 21
-73.8316426956
 31
0.0
  0
LINE
  5
AA
330
1F
100
AcDbEntity
  8
0
  6
Continuous
 62
     7
370
    15
100
AcDbLine
 10
67.4884969451
 20
-73.8316426956
 30
0.0
 11
65.7974368185
 21
-72.140582569
 31
0.0
  0
LINE
  5
AB
330
1F
100
AcDbEntity
  8
0
  6
Continuous
 62
     7
370
    15
100
AcDbLine
 10
65.7974368185
 20
-72.140582569
 30
0.0
 11
71.0723577046
 21
-66.865661683
 31
0.0
  0
LINE
  5
AC
330
1F
100
AcDbEntity
  8
0
  6
Continuous
 62
     7
370
    15
100
AcDbLine
 10
79.856829338
 20
-71.579721924
 30
0.0
 11
81.5478894646
 21
-73.2707820505
 31
0.0
  0
LINE
  5
AD
330
1F
100
AcDbEntity
  8
0
  6
Continuous
 62
     7
370
    15
100
AcDbLine
 10
81.5478894646
 20
-73.2707820505
 30
0.0
 11
74.2377628823
 21
-80.5809086328
 31
0.0
  0
LINE
  5
AE
330
1F
100
AcDbEntity
  8
0
  6
Continuous
 62
     7
370
    15
100
AcDbLine
 10
74.2377628823
 20
-80.5809086328
 30
0.0
 11
72.5467027557
 21
-78.8898485062
 31
0.0
  0
LINE
  5
AF
330
1F
100
AcDbEntity
  8
0
  6
Continuous
 62
     7
370
    15
100
AcDbLine
 10
72.5467027557
 20
-78.8898485062
 30
0.0
 11
73.0965445279
 21
-78.3400067341
 31
0.0
  0
SPLINE
  5
B0
330
1F
100
AcDbEntity
  8
0
  6
Continuous
 62
     7
370
    15
100
AcDbSpline
210
0.0
220
0.0
230
1.0
 70
     8
 71
     3
 72
    15
 73
    11
 74
     0
 42
0.00000001
 43
0.00000001
 40
0.0
 40
0.0
 40
0.0
 40
0.0
 40
0.1450296628462999
 40
0.280027082671375
 40
0.4044593978226846
 40
0.5200076682152238
 40
0.6324535359182153
 40
0.7488313918296505
 40
0.8706829627163609
 40
1.0
 40
1.0
 40
1.0
 40
1.0
 10
73.09654452788182
 20
-78.34000673408565
 30
0.0
 10
72.96906335513482
 20
-78.32585973003454
 30
0.0
 10
72.72291935811195
 20
-78.29854432299827
 30
0.0
 10
72.37126997827026
 20
-78.2320203761101
 30
0.0
 10
72.04887458036488
 20
-78.15426069892375
 30
0.0
 10
71.75195972897646
 20
-78.05789199351966
 30
0.0
 10
71.47513163870453
 20
-77.92960183925557
 30
0.0
 10
71.20815163569851
 20
-77.77084848225957
 30
0.0
 10
70.94961003846767
 20
-77.57266368886253
 30
0.0
 10
70.78835181727672
 20
-77.41986407554143
 30
0.0
 10
70.70532617345145
 20
-77.3411934429464
 30
0.0
  0
SPLINE
  5
B1
330
1F
100
AcDbEntity
  8
0
  6
Continuous
 62
     7
370
    15
100
AcDbSpline
210
0.0
220
0.0
230
1.0
 70
     8
 71
     3
 72
    23
 73
    19
 74
     0
 42
0.00000001
 43
0.00000001
 40
0.0
 40
0.0
 40
0.0
 40
0.0
 40
0.0604882833053192
 40
0.1182868877796232
 40
0.1743884889369558
 40
0.22925571195871
 40
0.2841358505789957
 40
0.3397298389041738
 40
0.3964879553223667
 40
0.4555163963972894
 40
0.5164239645718439
 40
0.5780100518192528
 40
0.6415396019365789
 40
0.7068780309380718
 40
0.7753368842894511
 40
0.8465695640871742
 40
0.9215332640004174
 40
1.0
 40
1.0
 40
1.0
 40
1.0
 10
70.70532617345145
 20
-77.3411934429464
 30
0.0
 10
70.62899308604143
 20
-77.26035610008527
 30
0.0
 10
70.4797211468997
 20
-77.10227593677244
 30
0.0
 10
70.2906736279886
 20
-76.84261602530086
 30
0.0
 10
70.13706446309503
 20
-76.57264180531315
 30
0.0
 10
70.01943314035653
 20
-76.29089120743129
 30
0.0
 10
69.9353389147426
 20
-75.998340044182
 30
0.0
 10
69.88815987253693
 20
-75.69404848354814
 30
0.0
 10
69.87669303298952
 20
-75.3788266487824
 30
0.0
 10
69.90104718706372
 20
-75.05460212514525
 30
0.0
 10
69.9603530224611
 20
-74.72593294855884
 30
0.0
 10
70.05478760037863
 20
-74.39706592486438
 30
0.0
 10
70.18143203523174
 20
-74.07047698517268
 30
0.0
 10
70.3436637772171
 20
-73.74588450340914
 30
0.0
 10
70.53959926444378
 20
-73.42378274470839
 30
0.0
 10
70.77170949774568
 20
-73.10477722404107
 30
0.0
 10
71.03354325778486
 20
-72.78534785316512
 30
0.0
 10
71.22990413509388
 20
-72.58308381673297
 30
0.0
 10
71.33032617345145
 20
-72.47964281003502
 30
0.0
  0
SPLINE
  5
B2
330
1F
100
AcDbEntity
  8
0
  6
Continuous
 62
     7
370
    15
100
AcDbSpline
210
0.0
220
0.0
230
1.0
 70
     8
 71
     3
 72
    15
 73
    11
 74
     0
 42
0.00000001
 43
0.00000001
 40
0.0
 40
0.0
 40
0.0
 40
0.0
 40
0.1446389025074747
 40
0.281820734397951
 40
0.4125709997250431
 40
0.5375229599082562
 40
0.6578426974243037
 40
0.774844726318281
 40
0.8879446953746961
 40
0.9999999999999999
 40
0.9999999999999999
 40
0.9999999999999999
 40
0.9999999999999999
 10
71.33032617345145
 20
-72.47964281003502
 30
0.0
 10
71.44129135853909
 20
-72.37282597777651
 30
0.0
 10
71.65750075595477
 20
-72.16469941160875
 30
0.0
 10
72.0035679215313
 20
-71.89320753939323
 30
0.0
 10
72.35393560423942
 20
-71.663894804865
 30
0.0
 10
72.70983059362983
 20
-71.47950050507987
 30
0.0
 10
73.06741239145566
 20
-71.3335955708993
 30
0.0
 10
73.4254926044825
 20
-71.22787954114052
 30
0.0
 10
73.78272461683304
 20
-71.15294292911695
 30
0.0
 10
74.02184357332577
 20
-71.13416317235183
 30
0.0
 10
74.14084832535018
 20
-71.12481686066793
 30
0.0
  0
SPLINE
  5
B3
330
1F
100
AcDbEntity
  8
0
  6
Continuous
 62
     7
370
    15
100
AcDbSpline
210
0.0
220
0.0
230
1.0
 70
     8
 71
     3
 72
    15
 73
    11
 74
     0
 42
0.00000001
 43
0.00000001
 40
0.0
 40
0.0
 40
0.0
 40
0.0
 40
0.1247633438851958
 40
0.2495769114846363
 40
0.375293242459231
 40
0.5041649047164989
 40
0.6323454019689536
 40
0.757701407756428
 40
0.87922520122431
 40
1.0
 40
1.0
 40
1.0
 40
1.0
 10
74.14084832535018
 20
-71.12481686066793
 30
0.0
 10
74.25235278407814
 20
-71.12300283300243
 30
0.0
 10
74.47540658785967
 20
-71.11937404743128
 30
0.0
 10
74.80926983388562
 20
-71.15856527532088
 30
0.0
 10
75.1401763381343
 20
-71.23420146540184
 30
0.0
 10
75.46342406626087
 20
-71.34725481428832
 30
0.0
 10
75.77478501726193
 20
-71.48867374938918
 30
0.0
 10
76.0654981244659
 20
-71.65605967264527
 30
0.0
 10
76.33213772614062
 20
-71.84914574992519
 30
0.0
 10
76.49063975862417
 20
-71.9966861112059
 30
0.0
 10
76.56964579370461
 20
-72.070228253073
 30
0.0
  0
SPLINE
  5
B4
330
1F
100
AcDbEntity
  8
0
  6
Continuous
 62
     7
370
    15
100
AcDbSpline
210
0.0
220
0.0
230
1.0
 70
     8
 71
     3
 72
    13
 73
     9
 74
     0
 42
0.00000001
 43
0.00000001
 40
0.0
 40
0.0
 40
0.0
 40
0.0
 40
0.1545709780604306
 40
0.2954462976170273
 40
0.4228013671737768
 40
0.5387073132568986
 40
0.7634225382418771
 40
1.0
 40
1.0
 40
1.0
 40
1.0
 10
76.56964579370461
 20
-72.070228253073
 30
0.0
 10
76.64386097515825
 20
-72.14640868911702
 30
0.0
 10
76.78571555137042
 20
-72.2920196444366
 30
0.0
 10
76.97248724949759
 20
-72.51538671795494
 30
0.0
 10
77.12475930508731
 20
-72.73184561300683
 30
0.0
 10
77.283056168766
 20
-73.01254479820058
 30
0.0
 10
77.44670889876365
 20
-73.3750523339271
 30
0.0
 10
77.5546404025926
 20
-73.67349749629746
 30
0.0
 10
77.60999389497043
 20
-73.82655736699705
 30
0.0
  0
LINE
  5
B5
330
1F
100
AcDbEntity
  8
0
  6
Continuous
 62
     7
370
    15
100
AcDbLine
 10
77.609993895
 20
-73.826557367
 30
0.0
 11
79.856829338
 21
-71.579721924
 31
0.0
  0
SPLINE
  5
B6
330
1F
100
AcDbEntity
  8
0
  6
Continuous
 62
     7
370
    15
100
AcDbSpline
210
0.0
220
0.0
230
1.0
 70
     8
 71
     3
 72
    15
 73
    11
 74
     0
 42
0.00000001
 43
0.00000001
 40
0.0
 40
0.0
 40
0.0
 40
0.0
 40
0.1693498320209967
 40
0.3257066744515094
 40
0.4690396896513465
 40
0.5994003544890798
 40
0.717048932518897
 40
0.8225287016751712
 40
0.916523523131369
 40
0.9999999999999999
 40
0.9999999999999999
 40
0.9999999999999999
 40
0.9999999999999999
 10
33.71164050077831
 20
-31.58959637786822
 30
0.0
 10
33.77981278624922
 20
-31.65856318811618
 30
0.0
 10
33.91092699005745
 20
-31.79120548333032
 30
0.0
 10
34.10602247682882
 20
-31.97580469218813
 30
0.0
 10
34.2834567300055
 20
-32.14653426661562
 30
0.0
 10
34.44681371606099
 20
-32.29992059822168
 30
0.0
 10
34.60062968953254
 20
-32.43174559395482
 30
0.0
 10
34.74721472569863
 20
-32.53903734436024
 30
0.0
 10
34.88532449838477
 20
-32.6247145746662
 30
0.0
 10
34.97892655876901
 20
-32.66459022499383
 30
0.0
 10
35.02295379191755
 20
-32.68334637786822
 30
0.0
  0
SPLINE
  5
B7
330
1F
100
AcDbEntity
  8
0
  6
Continuous
 62
     7
370
    15
100
AcDbSpline
210
0.0
220
0.0
230
1.0
 70
     8
 71
     3
 72
    15
 73
    11
 74
     0
 42
0.00000001
 43
0.00000001
 40
0.0
 40
0.0
 40
0.0
 40
0.0
 40
0.1503078112160633
 40
0.2831039200515514
 40
0.4028068780661852
 40
0.5160724071443954
 40
0.6298245787603872
 40
0.7461100891498665
 40
0.869427103766094
 40
1.0
 40
1.0
 40
1.0
 40
1.0
 10
35.02295379191755
 20
-32.68334637786822
 30
0.0
 10
35.07908623842098
 20
-32.7038955283309
 30
0.0
 10
35.18481138682572
 20
-32.74259973806326
 30
0.0
 10
35.3438082880396
 20
-32.76603251137078
 30
0.0
 10
35.48987158543811
 20
-32.76461340580551
 30
0.0
 10
35.62416684887516
 20
-32.72897216381739
 30
0.0
 10
35.74658874425764
 20
-32.66852588598302
 30
0.0
 10
35.86746264892571
 20
-32.5972114744211
 30
0.0
 10
35.98413299023836
 20
-32.50735380158591
 30
0.0
 10
36.0573121795958
 20
-32.43810557705594
 30
0.0
 10
36.09494746280362
 20
-32.40249194748847
 30
0.0
  0
SPLINE
  5
B8
330
1F
100
AcDbEntity
  8
0
  6
Continuous
 62
     7
370
    15
100
AcDbSpline
210
0.0
220
0.0
230
1.0
 70
     8
 71
     3
 72
    15
 73
    11
 74
     0
 42
0.00000001
 43
0.00000001
 40
0.0
 40
0.0
 40
0.0
 40
0.0
 40
0.111624122237558
 40
0.2251719349204779
 40
0.3434614785492779
 40
0.4662430687056663
 40
0.5906179122203544
 40
0.719246996807616
 40
0.8538962346223599
 40
1.0
 40
1.0
 40
1.0
 40
1.0
 10
36.09494746280362
 20
-32.40249194748847
 30
0.0
 10
36.12289774914899
 20
-32.37291771387463
 30
0.0
 10
36.17928000713954
 20
-32.31325957481713
 30
0.0
 10
36.24815611659145
 20
-32.20824407137649
 30
0.0
 10
36.30689074563443
 20
-32.09324251776564
 30
0.0
 10
36.35767609075604
 20
-31.96999743432239
 30
0.0
 10
36.38889502197343
 20
-31.8359244116238
 30
0.0
 10
36.390487250567
 20
-31.69371893222275
 30
0.0
 10
36.36108661739827
 20
-31.5466226164803
 30
0.0
 10
36.32393371766084
 20
-31.45130438356202
 30
0.0
 10
36.3045993615378
 20
-31.40170080824796
 30
0.0
  0
SPLINE
  5
B9
330
1F
100
AcDbEntity
  8
0
  6
Continuous
 62
     7
370
    15
100
AcDbSpline
210
0.0
220
0.0
230
1.0
 70
     8
 71
     3
 72
    15
 73
    11
 74
     0
 42
0.00000001
 43
0.00000001
 40
0.0
 40
0.0
 40
0.0
 40
0.0
 40
0.0831259309025423
 40
0.1739270435856232
 40
0.271734921934512
 40
0.3779392686816391
 40
0.4996774944646373
 40
0.6445515530528964
 40
0.8110748685357723
 40
1.0
 40
1.0
 40
1.0
 40
1.0
 10
36.3045993615378
 20
-31.40170080824796
 30
0.0
 10
36.28185508267627
 20
-31.3549975864392
 30
0.0
 10
36.23426650065474
 20
-31.25727894188481
 30
0.0
 10
36.13960453908545
 20
-31.11596422174376
 30
0.0
 10
36.02606201959128
 20
-30.9709990337767
 30
0.0
 10
35.88952313787342
 20
-30.82010075299369
 30
0.0
 10
35.72685695094061
 20
-30.65364047072399
 30
0.0
 10
35.53791505675211
 20
-30.46019354032008
 30
0.0
 10
35.317621168743
 20
-30.23875739008154
 30
0.0
 10
35.16137843429247
 20
-30.08118191799636
 30
0.0
 10
35.07833353875299
 20
-29.99742865634923
 30
0.0
  0
LINE
  5
BA
330
1F
100
AcDbEntity
  8
0
  6
Continuous
 62
     7
370
    15
100
AcDbLine
 10
35.0783335388
 20
-29.9974286563
 30
0.0
 11
34.9102164501
 21
-29.8293115677
 31
0.0
  0
LINE
  5
BB
330
1F
100
AcDbEntity
  8
0
  6
Continuous
 62
     7
370
    15
100
AcDbLine
 10
34.9102164501
 20
-29.8293115677
 30
0.0
 11
33.4307860704
 21
-31.3087419475
 31
0.0
  0
LINE
  5
BC
330
1F
100
AcDbEntity
  8
0
  6
Continuous
 62
     7
370
    15
100
AcDbLine
 10
33.4307860704
 20
-31.3087419475
 30
0.0
 11
33.7116405008
 21
-31.5895963779
 31
0.0
  0
SPLINE
  5
BD
330
1F
100
AcDbEntity
  8
0
  6
Continuous
 62
     7
370
    15
100
AcDbSpline
210
0.0
220
0.0
230
1.0
 70
     8
 71
     3
 72
    19
 73
    15
 74
     0
 42
0.00000001
 43
0.00000001
 40
0.0
 40
0.0
 40
0.0
 40
0.0
 40
0.10748036391411
 40
0.2068708079637173
 40
0.2981713321488208
 40
0.3819617804557229
 40
0.4570824649118219
 40
0.5246935503277199
 40
0.5853707009225242
 40
0.6368027234578361
 40
0.7305928329495754
 40
0.8224584876731599
 40
0.9118743431402521
 40
1.0
 40
1.0
 40
1.0
 40
1.0
 10
30.6103746779935
 20
-34.39022928926062
 30
0.0
 10
30.6716753756448
 20
-34.45155526364559
 30
0.0
 10
30.78966273994137
 20
-34.56959127885964
 30
0.0
 10
30.95992447156653
 20
-34.73951823185205
 30
0.0
 10
31.11594620754644
 20
-34.89666203640377
 30
0.0
 10
31.26050791127308
 20
-35.0375590018223
 30
0.0
 10
31.38894985101995
 20
-35.16756757667544
 30
0.0
 10
31.50631633737796
 20
-35.28226150950266
 30
0.0
 10
31.60990538421638
 20
-35.38371543645678
 30
0.0
 10
31.72787733720737
 20
-35.50062591024419
 30
0.0
 10
31.87044579302802
 20
-35.62864739030373
 30
0.0
 10
32.05104574564502
 20
-35.75800827410868
 30
0.0
 10
32.23689435107895
 20
-35.87175365169141
 30
0.0
 10
32.36858419974054
 20
-35.92851202905486
 30
0.0
 10
32.43395062736058
 20
-35.95668498546315
 30
0.0
  0
SPLINE
  5
BE
330
1F
100
AcDbEntity
  8
0
  6
Continuous
 62
     7
370
    15
100
AcDbSpline
210
0.0
220
0.0
230
1.0
 70
     8
 71
     3
 72
    15
 73
    11
 74
     0
 42
0.00000001
 43
0.00000001
 40
0.0
 40
0.0
 40
0.0
 40
0.0
 40
0.1492234898821024
 40
0.2840812931456849
 40
0.4063682212668225
 40
0.5217860264784135
 40
0.6369525329046045
 40
0.7527998677949503
 40
0.8737168055414593
 40
1.0
 40
1.0
 40
1.0
 40
1.0
 10
32.43395062736058
 20
-35.95668498546315
 30
0.0
 10
32.49796379925803
 20
-35.9809576566672
 30
0.0
 10
32.61982762019772
 20
-36.02716627857517
 30
0.0
 10
32.80342726536536
 20
-36.06438355752629
 30
0.0
 10
32.97509780226046
 20
-36.06688892139023
 30
0.0
 10
33.13542815022316
 20
-36.03883704516296
 30
0.0
 10
33.28423669987714
 20
-35.98133827262843
 30
0.0
 10
33.42623243581465
 20
-35.90447648980473
 30
0.0
 10
33.56430848019588
 20
-35.81045183427683
 30
0.0
 10
33.64611508584433
 20
-35.73182180872883
 30
0.0
 10
33.68790632356312
 20
-35.69165333989353
 30
0.0
  0
SPLINE
  5
BF
330
1F
100
AcDbEntity
  8
0
  6
Continuous
 62
     7
370
    15
100
AcDbSpline
210
0.0
220
0.0
230
1.0
 70
     8
 71
     3
 72
    15
 73
    11
 74
     0
 42
0.00000001
 43
0.00000001
 40
0.0
 40
0.0
 40
0.0
 40
0.0
 40
0.1488295963078805
 40
0.28003600180271
 40
0.3987259163640596
 40
0.5064687200613532
 40
0.6130193567626322
 40
0.7284055362914652
 40
0.8572019653349949
 40
1.0
 40
1.0
 40
1.0
 40
1.0
 10
33.68790632356312
 20
-35.69165333989353
 30
0.0
 10
33.73958525389222
 20
-35.63760857251513
 30
0.0
 10
33.83682371576955
 20
-35.53591857972834
 30
0.0
 10
33.95148071005728
 20
-35.37093992786362
 30
0.0
 10
34.03293475446539
 20
-35.21034357626616
 30
0.0
 10
34.08011771144125
 20
-35.04849282620301
 30
0.0
 10
34.08605743577045
 20
-34.88192769922684
 30
0.0
 10
34.06220740229214
 20
-34.7066278985948
 30
0.0
 10
33.99788345532038
 20
-34.5221959106125
 30
0.0
 10
33.93601877346229
 20
-34.40070465775725
 30
0.0
 10
33.90349176660109
 20
-34.33682739052644
 30
0.0
  0
SPLINE
  5
C0
330
1F
100
AcDbEntity
  8
0
  6
Continuous
 62
     7
370
    15
100
AcDbSpline
210
0.0
220
0.0
230
1.0
 70
     8
 71
     3
 72
    13
 73
     9
 74
     0
 42
0.00000001
 43
0.00000001
 40
0.0
 40
0.0
 40
0.0
 40
0.0
 40
0.0866411601734484
 40
0.1870626706489837
 40
0.3014433454972222
 40
0.4307544596917617
 40
0.7095745410092932
 40
0.9999999999999999
 40
0.9999999999999999
 40
0.9999999999999999
 40
0.9999999999999999
 10
33.9034917666011
 20
-34.33682739052645
 30
0.0
 10
33.87549314850714
 20
-34.2886829695976
 30
0.0
 10
33.81504270827005
 20
-34.18473671659533
 30
0.0
 10
33.69487272747606
 20
-34.03246729705359
 30
0.0
 10
33.55282464210256
 20
-33.86327342863077
 30
0.0
 10
33.3213725847783
 20
-33.62017166245345
 30
0.0
 10
33.00638603969892
 20
-33.30095186866716
 30
0.0
 10
32.74913721643914
 20
-33.04129589163733
 30
0.0
 10
32.61789050077831
 20
-32.90882106141252
 30
0.0
  0
LINE
  5
C1
330
1F
100
AcDbEntity
  8
0
  6
Continuous
 62
     7
370
    15
100
AcDbLine
 10
32.6178905008
 20
-32.9088210614
 30
0.0
 11
32.2242987286
 21
-32.5152292893
 31
0.0
  0
LINE
  5
C2
330
1F
100
AcDbEntity
  8
0
  6
Continuous
 62
     7
370
    15
100
AcDbLine
 10
32.2242987286
 20
-32.5152292893
 30
0.0
 11
30.4798367033
 21
-34.2596913146
 31
0.0
  0
LINE
  5
C3
330
1F
100
AcDbEntity
  8
0
  6
Continuous
 62
     7
370
    15
100
AcDbLine
 10
30.4798367033
 20
-34.2596913146
 30
0.0
 11
30.610374678
 21
-34.3902292893
 31
0.0
  0
SPLINE
  5
C4
330
1F
100
AcDbEntity
  8
0
  6
Continuous
 62
     7
370
    15
100
AcDbSpline
210
0.0
220
0.0
230
1.0
 70
     8
 71
     3
 72
    15
 73
    11
 74
     0
 42
0.00000001
 43
0.00000001
 40
0.0
 40
0.0
 40
0.0
 40
0.0
 40
0.1645411091005627
 40
0.3158140644488701
 40
0.4523830919840557
 40
0.5768747479487331
 40
0.6908090983746268
 40
0.7978505163610502
 40
0.9000042963889178
 40
1.0
 40
1.0
 40
1.0
 40
1.0
 10
51.20808491770869
 20
-49.90486990872265
 30
0.0
 10
51.27758358731128
 20
-49.97317952065221
 30
0.0
 10
51.41097674018939
 20
-50.10429044060602
 30
0.0
 10
51.60815340732853
 20
-50.28571056182061
 30
0.0
 10
51.79284968572908
 20
-50.44558726064844
 30
0.0
 10
51.9671300427549
 20
-50.58315538968169
 30
0.0
 10
52.13552942464991
 20
-50.70043784919699
 30
0.0
 10
52.30811079767047
 20
-50.78378374726563
 30
0.0
 10
52.4789091707649
 20
-50.85218786042212
 30
0.0
 10
52.59730418993373
 20
-50.87208467107801
 30
0.0
 10
52.65586972783527
 20
-50.88192687074796
 30
0.0
  0
SPLINE
  5
C5
330
1F
100
AcDbEntity
  8
0
  6
Continuous
 62
     7
370
    15
100
AcDbSpline
210
0.0
220
0.0
230
1.0
 70
     8
 71
     3
 72
    15
 73
    11
 74
     0
 42
0.00000001
 43
0.00000001
 40
0.0
 40
0.0
 40
0.0
 40
0.0
 40
0.1265174949177463
 40
0.2465819787356527
 40
0.3599621626254772
 40
0.4682032338523147
 40
0.5819587117639968
 40
0.7070646620094788
 40
0.846483790629868
 40
1.0
 40
1.0
 40
1.0
 40
1.0
 10
52.65586972783527
 20
-50.88192687074796
 30
0.0
 10
52.70987725638754
 20
-50.88700436297754
 30
0.0
 10
52.81513766535863
 20
-50.8969003704965
 30
0.0
 10
52.96969012199885
 20
-50.89268489260044
 30
0.0
 10
53.1150970648345
 20
-50.87336542397017
 30
0.0
 10
53.25449042553557
 20
-50.83696987710129
 30
0.0
 10
53.39220383288171
 20
-50.7788491117075
 30
0.0
 10
53.52828824133366
 20
-50.69002987747633
 30
0.0
 10
53.67180920967819
 20
-50.58242779450854
 30
0.0
 10
53.76179635102469
 20
-50.49473472243436
 30
0.0
 10
53.80895517087324
 20
-50.44877813657074
 30
0.0
  0
SPLINE
  5
C6
330
1F
100
AcDbEntity
  8
0
  6
Continuous
 62
     7
370
    15
100
AcDbSpline
210
0.0
220
0.0
230
1.0
 70
     8
 71
     3
 72
    15
 73
    11
 74
     0
 42
0.00000001
 43
0.00000001
 40
0.0
 40
0.0
 40
0.0
 40
0.0
 40
0.1342571412274081
 40
0.2586345152239122
 40
0.3776063909741889
 40
0.4914951159141334
 40
0.606262355213296
 40
0.7282816088370084
 40
0.8568433381448508
 40
1.0
 40
1.0
 40
1.0
 40
1.0
 10
53.80895517087324
 20
-50.44877813657074
 30
0.0
 10
53.85020736802938
 20
-50.40484704164478
 30
0.0
 10
53.92967607945776
 20
-50.32021767045782
 30
0.0
 10
54.02886156066425
 20
-50.18202769184578
 30
0.0
 10
54.10155061366948
 20
-50.0387233973787
 30
0.0
 10
54.15577875659267
 20
-49.89197421373382
 30
0.0
 10
54.18254710979642
 20
-49.73577778095222
 30
0.0
 10
54.17655409813275
 20
-49.57122461597096
 30
0.0
 10
54.14503185890987
 20
-49.39652175197007
 30
0.0
 10
54.10109234242523
 20
-49.28255595854237
 30
0.0
 10
54.07794251264539
 20
-49.22251231378593
 30
0.0
  0
SPLINE
  5
C7
330
1F
100
AcDbEntity
  8
0
  6
Continuous
 62
     7
370
    15
100
AcDbSpline
210
0.0
220
0.0
230
1.0
 70
     8
 71
     3
 72
    13
 73
     9
 74
     0
 42
0.00000001
 43
0.00000001
 40
0.0
 40
0.0
 40
0.0
 40
0.0
 40
0.2057248290105549
 40
0.4347164023816901
 40
0.5616450912137556
 40
0.6973578911538291
 40
0.843779746218246
 40
1.0
 40
1.0
 40
1.0
 40
1.0
 10
54.07794251264539
 20
-49.22251231378593
 30
0.0
 10
54.03550788768317
 20
-49.13429087167854
 30
0.0
 10
53.9458394330357
 20
-48.94787045703875
 30
0.0
 10
53.77710213059211
 20
-48.73913003801884
 30
0.0
 10
53.62021281920821
 20
-48.56681713889758
 30
0.0
 10
53.48981613091986
 20
-48.42295436873336
 30
0.0
 10
53.34517782452995
 20
-48.27346878223469
 30
0.0
 10
53.2440615700842
 20
-48.17150537188047
 30
0.0
 10
53.1918665632783
 20
-48.1188730732796
 30
0.0
  0
LINE
  5
C8
330
1F
100
AcDbEntity
  8
0
  6
Continuous
 62
     7
370
    15
100
AcDbLine
 10
53.1918665633
 20
-48.1188730733
 30
0.0
 11
52.5391766899
 21
-47.4661831999
 31
0.0
  0
LINE
  5
C9
330
1F
100
AcDbEntity
  8
0
  6
Continuous
 62
     7
370
    15
100
AcDbLine
 10
52.5391766899
 20
-47.4661831999
 30
0.0
 11
50.6542874494
 21
-49.3510724404
 31
0.0
  0
LINE
  5
CA
330
1F
100
AcDbEntity
  8
0
  6
Continuous
 62
     7
370
    15
100
AcDbLine
 10
50.6542874494
 20
-49.3510724404
 30
0.0
 11
51.2080849177
 21
-49.9048699087
 31
0.0
  0
SPLINE
  5
CB
330
1F
100
AcDbEntity
  8
0
  6
Continuous
 62
     7
370
    15
100
AcDbSpline
210
0.0
220
0.0
230
1.0
 70
     8
 71
     3
 72
    13
 73
     9
 74
     0
 42
0.00000001
 43
0.00000001
 40
0.0
 40
0.0
 40
0.0
 40
0.0
 40
0.1888889663852603
 40
0.3856502218625649
 40
0.5002862601558389
 40
0.6404794507341734
 40
0.8055771890456007
 40
1.0
 40
1.0
 40
1.0
 40
1.0
 10
55.22837939882975
 20
-59.20206312402092
 30
0.0
 10
55.23820027279392
 20
-59.26992223638927
 30
0.0
 10
55.25825132339603
 20
-59.40846861228972
 30
0.0
 10
55.32815280583215
 20
-59.57826572232561
 30
0.0
 10
55.41821176366275
 20
-59.71500649277419
 30
0.0
 10
55.51158211977656
 20
-59.83521007335097
 30
0.0
 10
55.63209575830288
 20
-59.97035025215836
 30
0.0
 10
55.72308314282669
 20
-60.0634852310664
 30
0.0
 10
55.77228762667785
 20
-60.11385109870447
 30
0.0
  0
SPLINE
  5
CC
330
1F
100
AcDbEntity
  8
0
  6
Continuous
 62
     7
370
    15
100
AcDbSpline
210
0.0
220
0.0
230
1.0
 70
     8
 71
     3
 72
    15
 73
    11
 74
     0
 42
0.00000001
 43
0.00000001
 40
0.0
 40
0.0
 40
0.0
 40
0.0
 40
0.1201274475793757
 40
0.2413725171449587
 40
0.3669886778173363
 40
0.4957858420646467
 40
0.6256992536761369
 40
0.7530449267411004
 40
0.8768515710857033
 40
1.0
 40
1.0
 40
1.0
 40
1.0
 10
55.77228762667785
 20
-60.11385109870447
 30
0.0
 10
55.81638340479997
 20
-60.15492373503523
 30
0.0
 10
55.9049852120911
 20
-60.23745113253432
 30
0.0
 10
56.05324096772507
 20
-60.34715715411653
 30
0.0
 10
56.21551466399532
 20
-60.44324863390052
 30
0.0
 10
56.38887598726259
 20
-60.52768390438218
 30
0.0
 10
56.56906087501729
 20
-60.59928255599705
 30
0.0
 10
56.75318351976397
 20
-60.65071368008182
 30
0.0
 10
56.9362671121305
 20
-60.69344433639532
 30
0.0
 10
57.05965201214043
 20
-60.70526609860077
 30
0.0
 10
57.12118003174115
 20
-60.71116122528674
 30
0.0
  0
LINE
  5
CD
330
1F
100
AcDbEntity
  8
0
  6
Continuous
 62
     7
370
    15
100
AcDbLine
 10
57.1211800317
 20
-60.7111612253
 30
0.0
 11
58.220863576
 21
-59.611477681
 31
0.0
  0
SPLINE
  5
CE
330
1F
100
AcDbEntity
  8
0
  6
Continuous
 62
     7
370
    15
100
AcDbSpline
210
0.0
220
0.0
230
1.0
 70
     8
 71
     3
 72
    13
 73
     9
 74
     0
 42
0.00000001
 43
0.00000001
 40
0.0
 40
0.0
 40
0.0
 40
0.0
 40
0.2634571033186277
 40
0.5472035364670602
 40
0.6861592569240792
 40
0.807307233618947
 40
0.9119149883666706
 40
1.0
 40
1.0
 40
1.0
 40
1.0
 10
58.22086357604495
 20
-59.61147768098294
 30
0.0
 10
58.09077369337593
 20
-59.50280984696028
 30
0.0
 10
57.82057546012132
 20
-59.27710546348231
 30
0.0
 10
57.47449184430101
 20
-59.0029382962444
 30
0.0
 10
57.19617130097677
 20
-58.79087600534795
 30
0.0
 10
57.00653472293886
 20
-58.65261932615624
 30
0.0
 10
56.83678947695673
 20
-58.54289864984132
 30
0.0
 10
56.72791259063129
 20
-58.48354604927154
 30
0.0
 10
56.67814205705761
 20
-58.4564143898437
 30
0.0
  0
SPLINE
  5
CF
330
1F
100
AcDbEntity
  8
0
  6
Continuous
 62
     7
370
    15
100
AcDbSpline
210
0.0
220
0.0
230
1.0
 70
     8
 71
     3
 72
    15
 73
    11
 74
     0
 42
0.00000001
 43
0.00000001
 40
0.0
 40
0.0
 40
0.0
 40
0.0
 40
0.1437679235871385
 40
0.2747525112482295
 40
0.3977383251158637
 40
0.5142938004659631
 40
0.6276997109798448
 40
0.7423563598411846
 40
0.8660660990746653
 40
1.0
 40
1.0
 40
1.0
 40
1.0
 10
56.67814205705761
 20
-58.4564143898437
 30
0.0
 10
56.62395733588605
 20
-58.43014723822618
 30
0.0
 10
56.52040580754986
 20
-58.37994851732806
 30
0.0
 10
56.36200459885852
 20
-58.32654164337627
 30
0.0
 10
56.20847130467939
 20
-58.30072727425586
 30
0.0
 10
56.06015145868921
 20
-58.29760616626758
 30
0.0
 10
55.91677670249697
 20
-58.321182258484
 30
0.0
 10
55.77885504497125
 20
-58.37506362195497
 30
0.0
 10
55.64469944893806
 20
-58.45655004881367
 30
0.0
 10
55.56597885780823
 20
-58.5306378204587
 30
0.0
 10
55.52505661401963
 20
-58.56915173161586
 30
0.0
  0
SPLINE
  5
D0
330
1F
100
AcDbEntity
  8
0
  6
Continuous
 62
     7
370
    15
100
AcDbSpline
210
0.0
220
0.0
230
1.0
 70
     8
 71
     3
 72
    13
 73
     9
 74
     0
 42
0.00000001
 43
0.00000001
 40
0.0
 40
0.0
 40
0.0
 40
0.0
 40
0.2899367842653991
 40
0.5254903505195452
 40
0.6298788710898
 40
0.7417195189340504
 40
0.8642648348532745
 40
1.0
 40
1.0
 40
1.0
 40
1.0
 10
55.52505661401963
 20
-58.56915173161586
 30
0.0
 10
55.47646064114669
 20
-58.62016849424109
 30
0.0
 10
55.3883838043854
 20
-58.71263284484854
 30
0.0
 10
55.29613035379068
 20
-58.83606392386225
 30
0.0
 10
55.24889255725531
 20
-58.93583838506094
 30
0.0
 10
55.22988555517342
 20
-59.01644346019976
 30
0.0
 10
55.22194320604832
 20
-59.10638688740718
 30
0.0
 10
55.22616218309606
 20
-59.16910344360667
 30
0.0
 10
55.22837939882975
 20
-59.20206312402092
 30
0.0
  0
SPLINE
  5
D1
330
1F
100
AcDbEntity
  8
0
  6
Continuous
 62
     7
370
    15
100
AcDbSpline
210
0.0
220
0.0
230
1.0
 70
     8
 71
     3
 72
    11
 73
     7
 74
     0
 42
0.00000001
 43
0.00000001
 40
0.0
 40
0.0
 40
0.0
 40
0.0
 40
0.2418542402183025
 40
0.4934663911099601
 40
0.7489921916284434
 40
1.0
 40
1.0
 40
1.0
 40
1.0
 10
61.89243803749196
 20
-65.82260910445528
 30
0.0
 10
61.93043965262017
 20
-65.89974349789732
 30
0.0
 10
62.00797610538914
 20
-66.05712436799473
 30
0.0
 10
62.1676430454872
 20
-66.27103694432975
 30
0.0
 10
62.34461441230005
 20
-66.47363024742715
 30
0.0
 10
62.46943121857804
 20
-66.60302829731421
 30
0.0
 10
62.53128297420081
 20
-66.66715024369579
 30
0.0
  0
SPLINE
  5
D2
330
1F
100
AcDbEntity
  8
0
  6
Continuous
 62
     7
370
    15
100
AcDbSpline
210
0.0
220
0.0
230
1.0
 70
     8
 71
     3
 72
    23
 73
    19
 74
     0
 42
0.00000001
 43
0.00000001
 40
0.0
 40
0.0
 40
0.0
 40
0.0
 40
0.0686865179439364
 40
0.134045831490273
 40
0.1947904236534071
 40
0.2530262006090022
 40
0.3086558484357705
 40
0.3633582705290649
 40
0.4163065032316146
 40
0.4701828887294172
 40
0.5252650714265685
 40
0.5822665001324081
 40
0.6420606505866684
 40
0.7053308648535976
 40
0.772027320454597
 40
0.8431791577345289
 40
0.9191946346959999
 40
1.0
 40
1.0
 40
1.0
 40
1.0
 10
62.53128297420083
 20
-66.6671502436958
 30
0.0
 10
62.5863740379559
 20
-66.7203166513979
 30
0.0
 10
62.69388753070216
 20
-66.82407406320317
 30
0.0
 10
62.86586167768147
 20
-66.95686767481804
 30
0.0
 10
63.03697295783478
 20
-67.07100185190558
 30
0.0
 10
63.21181123614986
 20
-67.15714381664478
 30
0.0
 10
63.38737765522252
 20
-67.224736487817
 30
0.0
 10
63.56515419425336
 20
-67.26598881936732
 30
0.0
 10
63.74457380811527
 20
-67.28384782626784
 30
0.0
 10
63.92540861038119
 20
-67.28039050519926
 30
0.0
 10
64.10844172747306
 20
-67.25137462406761
 30
0.0
 10
64.29371563653042
 20
-67.20181467174605
 30
0.0
 10
64.48059664869186
 20
-67.12770171365959
 30
0.0
 10
64.66786391501411
 20
-67.0292104587362
 30
0.0
 10
64.8592911412292
 20
-66.91246812292863
 30
0.0
 10
65.05109402910423
 20
-66.77075937261047
 30
0.0
 10
65.24491940265973
 20
-66.60640872312729
 30
0.0
 10
65.37020687788475
 20
-66.48464070892541
 30
0.0
 10
65.43476398685905
 20
-66.42189707913884
 30
0.0
  0
SPLINE
  5
D3
330
1F
100
AcDbEntity
  8
0
  6
Continuous
 62
     7
370
    15
100
AcDbSpline
210
0.0
220
0.0
230
1.0
 70
     8
 71
     3
 72
    23
 73
    19
 74
     0
 42
0.00000001
 43
0.00000001
 40
0.0
 40
0.0
 40
0.0
 40
0.0
 40
0.0884723889360658
 40
0.1710352394681819
 40
0.2474259947489557
 40
0.3182939223547801
 40
0.3838257817956039
 40
0.445170346174795
 40
0.501981078559755
 40
0.5549609930335708
 40
0.6063501919765107
 40
0.6570280273834611
 40
0.7085720652412427
 40
0.7611745952273126
 40
0.8159297610648598
 40
0.8733412717827157
 40
0.9345594082487269
 40
1.0
 40
1.0
 40
1.0
 40
1.0
 10
65.43476398685905
 20
-66.42189707913884
 30
0.0
 10
65.49613310305364
 20
-66.35927583838229
 30
0.0
 10
65.61477216785696
 20
-66.2382161604716
 30
0.0
 10
65.7748012212798
 20
-66.05222128950714
 30
0.0
 10
65.91346832740703
 20
-65.8715517846991
 30
0.0
 10
66.03423686591307
 20
-65.69842663687126
 30
0.0
 10
66.12920843650217
 20
-65.52672609874584
 30
0.0
 10
66.20532219158856
 20
-65.36118523196714
 30
0.0
 10
66.25982502617212
 20
-65.20017339075497
 30
0.0
 10
66.29198742361808
 20
-65.04338540221582
 30
0.0
 10
66.30499360498746
 20
-64.88980210488533
 30
0.0
 10
66.29418003402785
 20
-64.73744725195658
 30
0.0
 10
66.2643700189297
 20
-64.58661259563976
 30
0.0
 10
66.21465617385682
 20
-64.4367146012459
 30
0.0
 10
66.14219328631417
 20
-64.28989930356786
 30
0.0
 10
66.0496873372307
 20
-64.1449187854683
 30
0.0
 10
65.93926714868482
 20
-63.99926995772488
 30
0.0
 10
65.85179404081592
 20
-63.90913271956883
 30
0.0
 10
65.80659942989702
 20
-63.86256163610085
 30
0.0
  0
SPLINE
  5
D4
330
1F
100
AcDbEntity
  8
0
  6
Continuous
 62
     7
370
    15
100
AcDbSpline
210
0.0
220
0.0
230
1.0
 70
     8
 71
     3
 72
    11
 73
     7
 74
     0
 42
0.00000001
 43
0.00000001
 40
0.0
 40
0.0
 40
0.0
 40
0.0
 40
0.237225986498866
 40
0.4866507867364372
 40
0.7427794280633007
 40
1.0
 40
1.0
 40
1.0
 40
1.0
 10
65.80659942989703
 20
-63.86256163610086
 30
0.0
 10
65.72187263839169
 20
-63.78440185036341
 30
0.0
 10
65.54806217035545
 20
-63.6240630873904
 30
0.0
 10
65.23848191373837
 20
-63.43717560303912
 30
0.0
 10
64.90619422559311
 20
-63.27250276351257
 30
0.0
 10
64.66670800291782
 20
-63.20310809202369
 30
0.0
 10
64.5467101893907
 20
-63.16833695255654
 30
0.0
  0
LINE
  5
D5
330
1F
100
AcDbEntity
  8
0
  6
Continuous
 62
     7
370
    15
100
AcDbLine
 10
64.5467101894
 20
-63.1683369526
 30
0.0
 11
61.8924380375
 21
-65.8226091045
 31
0.0
  0
SPLINE
  5
D6
330
1F
100
AcDbEntity
  8
0
  6
Continuous
 62
     7
370
    15
100
AcDbSpline
210
0.0
220
0.0
230
1.0
 70
     8
 71
     3
 72
    23
 73
    19
 74
     0
 42
0.00000001
 43
0.00000001
 40
0.0
 40
0.0
 40
0.0
 40
0.0
 40
0.0878772417682772
 40
0.1690218462356837
 40
0.2450175230283748
 40
0.3148459262570209
 40
0.3801423163405906
 40
0.4410295291684154
 40
0.4974851455506667
 40
0.5501957536073271
 40
0.6013081985020698
 40
0.6518146453513056
 40
0.7032440438231037
 40
0.7566037572117559
 40
0.8121698924470933
 40
0.8709522869588303
 40
0.9333552793489617
 40
1.0
 40
1.0
 40
1.0
 40
1.0
 10
73.0925888316793
 20
-74.20234850623756
 30
0.0
 10
73.03050406949303
 20
-74.26558623572092
 30
0.0
 10
72.91109111436757
 20
-74.38721679186895
 30
0.0
 10
72.75039926153057
 20
-74.5750008960152
 30
0.0
 10
72.60924090987993
 20
-74.75529188732438
 30
0.0
 10
72.49185602186044
 20
-74.9330620013736
 30
0.0
 10
72.39366386624738
 20
-75.10479103183135
 30
0.0
 10
72.31813456681606
 20
-75.27305679354781
 30
0.0
 10
72.26367955947056
 20
-75.43596158752582
 30
0.0
 10
72.23084403168036
 20
-75.59462032415996
 30
0.0
 10
72.22048504633612
 20
-75.75044121758758
 30
0.0
 10
72.23324580811345
 20
-75.90467382377247
 30
0.0
 10
72.2648840187373
 20
-76.05840422445515
 30
0.0
 10
72.31874281406722
 20
-76.21141810831034
 30
0.0
 10
72.39577113999493
 20
-76.362297854721
 30
0.0
 10
72.49064971958045
 20
-76.5134491860834
 30
0.0
 10
72.60871331454086
 20
-76.66199570967187
 30
0.0
 10
72.69824849120343
 20
-76.75642832529186
 30
0.0
 10
72.74448756585652
 20
-76.80519660750338
 30
0.0
  0
SPLINE
  5
D7
330
1F
100
AcDbEntity
  8
0
  6
Continuous
 62
     7
370
    15
100
AcDbSpline
210
0.0
220
0.0
230
1.0
 70
     8
 71
     3
 72
    13
 73
     9
 74
     0
 42
0.00000001
 43
0.00000001
 40
0.0
 40
0.0
 40
0.0
 40
0.0
 40
0.1158909882234525
 40
0.2365806012040188
 40
0.3620156646305956
 40
0.494202678748573
 40
0.755413593766486
 40
1.0
 40
1.0
 40
1.0
 40
1.0
 10
72.74448756585652
 20
-76.80519660750338
 30
0.0
 10
72.78477196468907
 20
-76.84280301242069
 30
0.0
 10
72.86700879294506
 20
-76.91957296684808
 30
0.0
 10
73.0041562376334
 20
-77.02391179899223
 30
0.0
 10
73.15532220176821
 20
-77.12168376761163
 30
0.0
 10
73.37349346307487
 20
-77.23672485355412
 30
0.0
 10
73.65330153229635
 20
-77.35783860038563
 30
0.0
 10
73.88861119646083
 20
-77.40927797107072
 30
0.0
 10
74.00239895826158
 20
-77.43415230370591
 30
0.0
  0
LINE
  5
D8
330
1F
100
AcDbEntity
  8
0
  6
Continuous
 62
     7
370
    15
100
AcDbLine
 10
74.0023989583
 20
-77.4341523037
 30
0.0
 11
76.5914021228
 21
-74.8451491391
 31
0.0
  0
SPLINE
  5
D9
330
1F
100
AcDbEntity
  8
0
  6
Continuous
 62
     7
370
    15
100
AcDbSpline
210
0.0
220
0.0
230
1.0
 70
     8
 71
     3
 72
    11
 73
     7
 74
     0
 42
0.00000001
 43
0.00000001
 40
0.0
 40
0.0
 40
0.0
 40
0.0
 40
0.2567168950328673
 40
0.5171524530980666
 40
0.7693427363377232
 40
0.9999999999999999
 40
0.9999999999999999
 40
0.9999999999999999
 40
0.9999999999999999
 10
76.59140212281854
 20
-74.84514913914894
 30
0.0
 10
76.55390022619491
 20
-74.76164360654498
 30
0.0
 10
76.47835320061937
 20
-74.5934229250512
 30
0.0
 10
76.32874553141801
 20
-74.36300459866527
 30
0.0
 10
76.16875968024766
 20
-74.1517335285186
 30
0.0
 10
76.05055744601007
 20
-74.02670903785199
 30
0.0
 10
75.99409199623626
 20
-73.96698458218691
 30
0.0
  0
SPLINE
  5
DA
330
1F
100
AcDbEntity
  8
0
  6
Continuous
 62
     7
370
    15
100
AcDbSpline
210
0.0
220
0.0
230
1.0
 70
     8
 71
     3
 72
    23
 73
    19
 74
     0
 42
0.00000001
 43
0.00000001
 40
0.0
 40
0.0
 40
0.0
 40
0.0
 40
0.0688201924669372
 40
0.1338545363890469
 40
0.1954461770240517
 40
0.2538740925322048
 40
0.311223132537569
 40
0.3666793573126387
 40
0.4223629217030337
 40
0.4785174183376189
 40
0.5353021052408218
 40
0.5940579970714278
 40
0.6541049205202284
 40
0.7167989278642548
 40
0.7823781857419561
 40
0.8507548325379527
 40
0.9236212775662913
 40
1.0
 40
1.0
 40
1.0
 40
1.0
 10
75.99409199623626
 20
-73.96698458218691
 30
0.0
 10
75.93883366545293
 20
-73.91470485729667
 30
0.0
 10
75.83135680461459
 20
-73.81302135298083
 30
0.0
 10
75.6614886999852
 20
-73.67872875435066
 30
0.0
 10
75.48615615875333
 20
-73.57281485448489
 30
0.0
 10
75.31064575079796
 20
-73.48470386351944
 30
0.0
 10
75.13075652250815
 20
-73.42390005130888
 30
0.0
 10
74.94812460509581
 20
-73.38605455543166
 30
0.0
 10
74.7633977891886
 20
-73.36871440987389
 30
0.0
 10
74.5769162984079
 20
-73.38083759663336
 30
0.0
 10
74.38912496341406
 20
-73.40995174464227
 30
0.0
 10
74.20182062895998
 20
-73.46218481138906
 30
0.0
 10
74.01409409960735
 20
-73.53372917597896
 30
0.0
 10
73.82821894030087
 20
-73.62801573280171
 30
0.0
 10
73.64206273910852
 20
-73.74060053448179
 30
0.0
 10
73.45707029747904
 20
-73.875184676926
 30
0.0
 10
73.27136088497923
 20
-74.02838466840925
 30
0.0
 10
73.15310716173828
 20
-74.1434578644304
 30
0.0
 10
73.0925888316793
 20
-74.20234850623756
 30
0.0
  0
ENDSEC
  0
SECTION
  2
OBJECTS
  0
DICTIONARY
  5
C
330
0
100
AcDbDictionary
281
     1
  3
ACAD_GROUP
350
D
  3
ACAD_LAYOUT
350
1A
  3
ACAD_MLINESTYLE
350
17
  3
ACAD_PLOTSETTINGS
350
19
  3
ACAD_PLOTSTYLENAME
350
E
  0
DICTIONARY
  5
D
102
{ACAD_REACTORS
330
C
102
}
330
C
100
AcDbDictionary
281
     1
  0
DICTIONARY
  5
1A
102
{ACAD_REACTORS
330
C
102
}
330
C
100
AcDbDictionary
281
     1
  3
Layout1
350
1E
  3
Layout2
350
26
  3
Model
350
22
  0
DICTIONARY
  5
17
102
{ACAD_REACTORS
330
C
102
}
330
C
100
AcDbDictionary
281
     1
  3
Standard
350
18
  0
DICTIONARY
  5
19
102
{ACAD_REACTORS
330
C
102
}
330
C
100
AcDbDictionary
281
     1
  0
ACDBDICTIONARYWDFLT
  5
E
102
{ACAD_REACTORS
330
C
102
}
330
C
100
AcDbDictionary
281
     1
  3
Normal
350
F
100
AcDbDictionaryWithDefault
340
F
  0
LAYOUT
  5
1E
102
{ACAD_REACTORS
330
1A
102
}
330
1A
100
AcDbPlotSettings
  1

  2
none_device
  4

  6

 40
0.0
 41
0.0
 42
0.0
 43
0.0
 44
0.0
 45
0.0
 46
0.0
 47
0.0
 48
0.0
 49
0.0
140
0.0
141
0.0
142
1.0
143
1.0
 70
   688
 72
     0
 73
     0
 74
     5
  7

 75
    16
147
1.0
148
0.0
149
0.0
100
AcDbLayout
  1
Layout1
 70
     1
 71
     1
 10
0.0
 20
0.0
 11
420.0
 21
297.0
 12
0.0
 22
0.0
 32
0.0
 14
1.0000000000E+20
 24
1.0000000000E+20
 34
1.0000000000E+20
 15
-1.0000000000E+20
 25
-1.0000000000E+20
 35
-1.0000000000E+20
146
0.0
 13
0.0
 23
0.0
 33
0.0
 16
1.0
 26
0.0
 36
0.0
 17
0.0
 27
1.0
 37
0.0
 76
     0
330
1B
  0
LAYOUT
  5
26
102
{ACAD_REACTORS
330
1A
102
}
330
1A
100
AcDbPlotSettings
  1

  2
none_device
  4

  6

 40
0.0
 41
0.0
 42
0.0
 43
0.0
 44
0.0
 45
0.0
 46
0.0
 47
0.0
 48
0.0
 49
0.0
140
0.0
141
0.0
142
1.0
143
1.0
 70
   688
 72
     0
 73
     0
 74
     5
  7

 75
    16
147
1.0
148
0.0
149
0.0
100
AcDbLayout
  1
Layout2
 70
     1
 71
     2
 10
0.0
 20
0.0
 11
0.0
 21
0.0
 12
0.0
 22
0.0
 32
0.0
 14
0.0
 24
0.0
 34
0.0
 15
0.0
 25
0.0
 35
0.0
146
0.0
 13
0.0
 23
0.0
 33
0.0
 16
1.0
 26
0.0
 36
0.0
 17
0.0
 27
1.0
 37
0.0
 76
     0
330
23
  0
LAYOUT
  5
22
102
{ACAD_REACTORS
330
1A
102
}
330
1A
100
AcDbPlotSettings
  1

  2
none_device
  4
ANSI_A_(11.00_x_8.50_Inches)
  6

 40
6.35
 41
19.05
 42
6.35000508
 43
19.05000254
 44
279.4
 45
215.9
 46
26.47949746
 47
195.77049873
 48
0.0
 49
0.0
140
0.0
141
0.0
142
0.08415
143
1.0
 70
  1696
 72
     0
 73
     0
 74
     0
  7

 75
     0
147
0.0179189148
148
0.0
149
0.0
100
AcDbLayout
  1
Model
 70
     1
 71
     0
 10
0.0
 20
0.0
 11
420.0
 21
297.0
 12
0.0
 22
0.0
 32
0.0
 14
0.0
 24
-100.0
 34
0.0
 15
100.0
 25
0.0
 35
0.0
146
0.0
 13
0.0
 23
0.0
 33
0.0
 16
1.0
 26
0.0
 36
0.0
 17
0.0
 27
1.0
 37
0.0
 76
     0
330
1F
331
29
  0
MLINESTYLE
  5
18
102
{ACAD_REACTORS
330
17
102
}
330
17
100
AcDbMlineStyle
  2
Standard
 70
     0
  3

 62
   256
 51
90.0
 52
90.0
 71
     2
 49
0.5
 62
   256
  6
BYLAYER
 49
-0.5
 62
   256
  6
BYLAYER
  0
ACDBPLACEHOLDER
  5
F
102
{ACAD_REACTORS
330
E
102
}
330
E
  0
ENDSEC
  0
EOF
