G04 start of page 2 for group 0 idx 1 *
G04 Title: (unknown), solder *
G04 Creator: pcb 20110918 *
G04 CreationDate: Thu 19 Dec 2013 05:48:54 PM GMT UTC *
G04 For: main-user *
G04 Format: Gerber/RS-274X *
G04 PCB-Dimensions: 1574803 787402 *
G04 PCB-Coordinate-Origin: lower left *
%MOIN*%
%FSLAX25Y25*%
%LNBOTTOM*%
%ADD230C,0.0510*%
%ADD229C,0.0870*%
%ADD228C,0.0670*%
%ADD227C,0.0630*%
%ADD226C,0.0400*%
%ADD225C,0.1260*%
%ADD224C,0.1500*%
%ADD223R,0.0236X0.0236*%
%ADD222C,0.0540*%
%ADD221C,0.1100*%
%ADD220C,0.1660*%
%ADD219C,0.0550*%
%ADD218C,0.0700*%
%ADD217C,0.1400*%
%ADD216C,0.1280*%
%ADD215C,0.0600*%
%ADD214C,0.0650*%
%ADD213C,0.1887*%
%ADD212C,0.1587*%
%ADD211C,0.0300*%
%ADD210C,0.0800*%
%ADD209C,0.0787*%
%ADD208C,0.1287*%
%ADD207C,0.0500*%
%ADD206C,0.0001*%
%ADD205C,0.0122*%
G54D205*X538131Y285276D02*Y291416D01*
X536596Y292951D01*
X533526D02*X536596D01*
X531991Y291416D02*X533526Y292951D01*
X531991Y286811D02*Y291416D01*
X525851Y286811D02*X538131D01*
X531991D02*X525851Y292951D01*
Y298170D02*Y302775D01*
X527386Y296635D02*X525851Y298170D01*
X527386Y296635D02*X530456D01*
X531991Y298170D01*
Y301240D01*
X530456Y302775D01*
X528921Y296635D02*Y302775D01*
X530456D01*
X521246Y307994D02*X530456D01*
X531991Y306459D02*X530456Y307994D01*
X531991Y309529D01*
Y312599D01*
X530456Y314134D01*
X527386D02*X530456D01*
X525851Y312599D02*X527386Y314134D01*
X525851Y309529D02*Y312599D01*
X527386Y307994D02*X525851Y309529D01*
X538131Y317818D02*Y323958D01*
X536596Y325493D01*
X533526D02*X536596D01*
X531991Y323958D02*X533526Y325493D01*
X531991Y319353D02*Y323958D01*
X525851Y319353D02*X538131D01*
X531991D02*X525851Y325493D01*
X531991Y333782D02*X530456Y335317D01*
X531991Y330712D02*Y333782D01*
X530456Y329177D02*X531991Y330712D01*
X527386Y329177D02*X530456D01*
X527386D02*X525851Y330712D01*
X527386Y335317D02*X531991D01*
X527386D02*X525851Y336852D01*
Y330712D02*Y333782D01*
X527386Y335317D01*
X521246Y342071D02*X530456D01*
X531991Y340536D02*X530456Y342071D01*
X531991Y343606D01*
Y346676D01*
X530456Y348211D01*
X527386D02*X530456D01*
X525851Y346676D02*X527386Y348211D01*
X525851Y343606D02*Y346676D01*
X527386Y342071D02*X525851Y343606D01*
X538131Y363561D02*X536596Y365096D01*
X538131Y358956D02*Y363561D01*
X536596Y357421D02*X538131Y358956D01*
X527386Y357421D02*X536596D01*
X527386D02*X525851Y358956D01*
Y363561D01*
X527386Y365096D01*
X530456D01*
X531991Y363561D02*X530456Y365096D01*
X531991Y360491D02*Y363561D01*
X525851Y370315D02*Y374920D01*
X527386Y368780D02*X525851Y370315D01*
X527386Y368780D02*X530456D01*
X531991Y370315D01*
Y373385D01*
X530456Y374920D01*
X528921Y368780D02*Y374920D01*
X530456D01*
X525851Y380139D02*X530456D01*
X531991Y381674D01*
Y383209D01*
X530456Y384744D01*
X525851D02*X530456D01*
X531991Y378604D02*X530456Y380139D01*
X525851Y388428D02*X533526Y396103D01*
X538131D01*
Y388428D02*Y396103D01*
X528921Y405313D02*X531991D01*
X528921D02*X525851Y408383D01*
X528921Y411453D01*
X531991D01*
X525851Y416672D02*Y419742D01*
Y418207D02*X538131D01*
X535061Y415137D02*X538131Y418207D01*
X525851Y423426D02*Y424961D01*
X538131Y428645D02*Y434785D01*
X531991Y428645D02*X538131D01*
X531991D02*X533526Y430180D01*
Y433250D01*
X531991Y434785D01*
X527386D02*X531991D01*
X525851Y433250D02*X527386Y434785D01*
X525851Y430180D02*Y433250D01*
X527386Y428645D02*X525851Y430180D01*
X527386Y443995D02*X538131D01*
X527386D02*X525851Y445530D01*
Y448600D01*
X527386Y450135D01*
X538131D01*
X525851Y453819D02*Y459959D01*
X527386Y461494D01*
X530456D01*
X531991Y459959D02*X530456Y461494D01*
X531991Y455354D02*Y459959D01*
X525851Y455354D02*X538131D01*
Y453819D02*Y459959D01*
X536596Y461494D01*
X533526D02*X536596D01*
X531991Y459959D02*X533526Y461494D01*
X525851Y466713D02*Y471318D01*
X527386Y465178D02*X525851Y466713D01*
X527386Y465178D02*X536596D01*
X538131Y466713D01*
Y471318D01*
X531991Y475002D02*Y481142D01*
X538131Y484826D02*Y490966D01*
X536596Y492501D01*
X533526D02*X536596D01*
X531991Y490966D02*X533526Y492501D01*
X531991Y486361D02*Y490966D01*
X525851Y486361D02*X538131D01*
X531991D02*X525851Y492501D01*
X531991Y500790D02*X530456Y502325D01*
X531991Y497720D02*Y500790D01*
X530456Y496185D02*X531991Y497720D01*
X527386Y496185D02*X530456D01*
X527386D02*X525851Y497720D01*
X527386Y502325D02*X531991D01*
X527386D02*X525851Y503860D01*
Y497720D02*Y500790D01*
X527386Y502325D01*
X521246Y509079D02*X530456D01*
X531991Y507544D02*X530456Y509079D01*
X531991Y510614D01*
Y513684D01*
X530456Y515219D01*
X527386D02*X530456D01*
X525851Y513684D02*X527386Y515219D01*
X525851Y510614D02*Y513684D01*
X527386Y509079D02*X525851Y510614D01*
X533526Y518903D02*X535061D01*
X525851D02*X530456D01*
X525851Y528113D02*X538131D01*
X525851Y526578D02*X527386Y528113D01*
X525851Y523508D02*Y526578D01*
X527386Y521973D02*X525851Y523508D01*
X527386Y521973D02*X530456D01*
X531991Y523508D01*
Y526578D01*
X530456Y528113D01*
X528921Y537323D02*X531991D01*
X528921D02*X525851Y540393D01*
X528921Y543463D01*
X531991D01*
X525851Y548682D02*Y551752D01*
Y550217D02*X538131D01*
X535061Y547147D02*X538131Y550217D01*
X525851Y555436D02*Y556971D01*
X527386Y560655D02*X525851Y562190D01*
X527386Y560655D02*X536596D01*
X538131Y562190D01*
Y565260D01*
X536596Y566795D01*
X527386D02*X536596D01*
X525851Y565260D02*X527386Y566795D01*
X525851Y562190D02*Y565260D01*
X528921Y560655D02*X535061Y566795D01*
G54D206*G36*
X575298Y564902D02*X587500D01*
X600000Y577402D01*
X606254D01*
X605978Y576951D01*
X605707Y576297D01*
X605542Y575608D01*
X605486Y574902D01*
X605542Y574196D01*
X605707Y573507D01*
X605978Y572853D01*
X606348Y572249D01*
X606808Y571710D01*
X607347Y571250D01*
X607951Y570880D01*
X608605Y570609D01*
X609294Y570444D01*
X610000Y570388D01*
X610706Y570444D01*
X611395Y570609D01*
X612049Y570880D01*
X612653Y571250D01*
X613192Y571710D01*
X613652Y572249D01*
X614022Y572853D01*
X614293Y573507D01*
X614458Y574196D01*
X614500Y574902D01*
X614458Y575608D01*
X614293Y576297D01*
X614022Y576951D01*
X613746Y577402D01*
X637022D01*
X636399Y577144D01*
X635320Y576483D01*
X634358Y575662D01*
X633537Y574700D01*
X632876Y573621D01*
X632392Y572452D01*
X632096Y571222D01*
X631997Y569961D01*
X632096Y568700D01*
X632392Y567470D01*
X632876Y566301D01*
X633537Y565222D01*
X634358Y564260D01*
X635320Y563439D01*
X636399Y562778D01*
X637307Y562402D01*
X607500D01*
X595000Y549902D01*
X575298D01*
X576143Y550252D01*
X577217Y550910D01*
X578174Y551728D01*
X578992Y552685D01*
X579650Y553759D01*
X580132Y554922D01*
X580426Y556147D01*
X580500Y557402D01*
X580426Y558657D01*
X580132Y559882D01*
X579650Y561045D01*
X578992Y562119D01*
X578174Y563076D01*
X577217Y563894D01*
X576143Y564552D01*
X575298Y564902D01*
G37*
G36*
X562500D02*X569702D01*
X568857Y564552D01*
X567783Y563894D01*
X566826Y563076D01*
X566008Y562119D01*
X565350Y561045D01*
X564868Y559882D01*
X564574Y558657D01*
X564475Y557402D01*
X564574Y556147D01*
X564868Y554922D01*
X565350Y553759D01*
X566008Y552685D01*
X566826Y551728D01*
X567783Y550910D01*
X568857Y550252D01*
X569702Y549902D01*
X562500D01*
Y564902D01*
G37*
G54D207*X640059Y569961D02*X637559D01*
X640059D02*X635059D01*
G54D208*X640059D02*X662559D01*
G54D209*Y592461D02*X662500Y567402D01*
G54D207*X662559Y592461D03*
G54D210*X637559Y574902D02*X642500Y569961D01*
X639941D02*X625059D01*
X625000Y569902D01*
X630000Y564902D02*X637441D01*
X635000Y569961D02*Y567402D01*
X632500Y564902D01*
X637441D02*X642500Y569961D01*
X627500Y574902D02*X635059D01*
X640000Y569961D01*
X627500Y574902D02*X637559D01*
G54D211*X574941Y384843D02*X604941D01*
G54D212*X570000Y414902D02*X562500Y407402D01*
Y279902D02*Y407402D01*
G54D211*X605000Y319902D02*X574941Y319843D01*
G54D208*X570000Y269902D02*X587441Y269843D01*
X562500Y277402D02*X570000Y269902D01*
X572500Y334902D02*X587441Y334843D01*
G54D212*X570000Y277402D02*Y414902D01*
G54D211*X605000Y319902D02*X609941Y314843D01*
X605000Y384902D02*X609941Y379843D01*
G54D207*X570000Y414902D02*Y427402D01*
X580000Y437402D01*
X666200D01*
X667500Y438702D01*
G54D209*X662559Y567461D02*X939665Y567343D01*
X940000Y592402D02*Y567678D01*
X662500Y574902D02*X940000D01*
X755000Y592402D02*Y572402D01*
X847500Y592402D02*Y572402D01*
G54D210*X935114Y567402D02*X935057Y567345D01*
X940000Y574902D02*X1035000D01*
X1040000D02*X1032500D01*
X1035000Y569902D02*X1032500Y567402D01*
X1035000Y569902D02*Y592402D01*
X935114Y567402D02*X1040000D01*
Y574902D01*
X572500Y557402D02*X585000D01*
G54D207*X610000Y574902D02*Y564902D01*
X622500Y574902D02*X602500D01*
X610000D02*X605000Y569902D01*
X610000Y574902D02*X615000Y569902D01*
G54D210*X632500Y564902D02*X602500D01*
G54D206*G36*
X650000Y642402D02*Y622402D01*
X635000D01*
X620000Y607402D01*
Y587402D01*
X615000Y582402D01*
X609993D01*
Y584189D01*
X610000Y584188D01*
X610706Y584244D01*
X611395Y584409D01*
X612049Y584680D01*
X612653Y585050D01*
X613192Y585510D01*
X613652Y586049D01*
X614022Y586653D01*
X614293Y587307D01*
X614458Y587996D01*
X614500Y588702D01*
X614458Y589408D01*
X614293Y590097D01*
X614022Y590751D01*
X613652Y591355D01*
X613192Y591894D01*
X612653Y592354D01*
X612049Y592724D01*
X611395Y592995D01*
X610706Y593160D01*
X610000Y593216D01*
X609993Y593215D01*
Y619895D01*
X632500Y642402D01*
X650000D01*
G37*
G36*
X609993Y582402D02*X595000D01*
X582500Y569902D01*
X575298D01*
X576143Y570252D01*
X577217Y570910D01*
X578174Y571728D01*
X578992Y572685D01*
X579650Y573759D01*
X580132Y574922D01*
X580426Y576147D01*
X580500Y577402D01*
X580426Y578657D01*
X580132Y579882D01*
X579650Y581045D01*
X578992Y582119D01*
X578174Y583076D01*
X577217Y583894D01*
X576143Y584552D01*
X574980Y585034D01*
X573755Y585328D01*
X572500Y585427D01*
X571245Y585328D01*
X570020Y585034D01*
X568857Y584552D01*
X567783Y583894D01*
X566826Y583076D01*
X566008Y582119D01*
X565350Y581045D01*
X564868Y579882D01*
X564574Y578657D01*
X564475Y577402D01*
X564574Y576147D01*
X564868Y574922D01*
X565350Y573759D01*
X566008Y572685D01*
X566826Y571728D01*
X567783Y570910D01*
X568857Y570252D01*
X569702Y569902D01*
X562500D01*
Y604902D01*
X569702D01*
X568857Y604552D01*
X567783Y603894D01*
X566826Y603076D01*
X566008Y602119D01*
X565350Y601045D01*
X564868Y599882D01*
X564574Y598657D01*
X564475Y597402D01*
X564574Y596147D01*
X564868Y594922D01*
X565350Y593759D01*
X566008Y592685D01*
X566826Y591728D01*
X567783Y590910D01*
X568857Y590252D01*
X570020Y589770D01*
X571245Y589476D01*
X572500Y589377D01*
X573755Y589476D01*
X574980Y589770D01*
X576143Y590252D01*
X577217Y590910D01*
X578174Y591728D01*
X578992Y592685D01*
X579650Y593759D01*
X580132Y594922D01*
X580426Y596147D01*
X580500Y597402D01*
X580426Y598657D01*
X580132Y599882D01*
X579650Y601045D01*
X578992Y602119D01*
X578174Y603076D01*
X577217Y603894D01*
X576143Y604552D01*
X575298Y604902D01*
X595000D01*
X609993Y619895D01*
Y593215D01*
X609294Y593160D01*
X608605Y592995D01*
X607951Y592724D01*
X607347Y592354D01*
X606808Y591894D01*
X606348Y591355D01*
X605978Y590751D01*
X605707Y590097D01*
X605542Y589408D01*
X605486Y588702D01*
X605542Y587996D01*
X605707Y587307D01*
X605978Y586653D01*
X606348Y586049D01*
X606808Y585510D01*
X607347Y585050D01*
X607951Y584680D01*
X608605Y584409D01*
X609294Y584244D01*
X609993Y584189D01*
Y582402D01*
G37*
G54D207*X777500Y429902D02*X735000D01*
X745000D02*Y397402D01*
X735000Y429902D02*X712500Y452402D01*
X745000Y397402D02*X752500Y389902D01*
X765000D01*
X557441Y474843D02*X562441Y479843D01*
X594941D02*X562441D01*
X557441Y457343D02*X562500Y452402D01*
X607500D01*
X557441Y457343D02*Y474843D01*
X617500Y452402D02*X602500D01*
X617500D02*X712500D01*
G54D213*X665000Y394902D02*Y269902D01*
G54D209*X647500Y337402D02*X657441Y337343D01*
X647441Y272343D02*X657441D01*
G54D207*X667500Y397402D02*Y424902D01*
X670000Y397402D02*Y422402D01*
X662500Y397402D02*Y424902D01*
X670000D02*Y399902D01*
Y422402D02*X667500Y424902D01*
X662500D02*X665000Y427402D01*
X667500D01*
X670000Y424902D01*
G54D212*X610000Y399902D02*Y414902D01*
X607500Y397402D02*X665000D01*
X610000Y414902D02*X590000D01*
X607500Y397402D02*X590000Y414902D01*
G54D207*X670000Y399902D02*X665000Y394902D01*
X952500Y347402D02*Y329902D01*
X942500Y404902D02*Y352402D01*
X947500Y347402D01*
X962500D01*
X910000Y404902D02*X1050000D01*
X925000Y412402D02*X932500Y419902D01*
X950000Y404902D02*Y412402D01*
X925000D02*Y404902D01*
X932500Y432402D02*X922500Y442402D01*
X932500Y419902D02*Y432402D01*
X922500Y442402D02*Y449902D01*
G54D211*X952500Y329902D02*Y322402D01*
X942500Y312402D02*X952500Y322402D01*
G54D209*X1100000Y282402D02*X1110000D01*
X1112500D02*X1087500Y254902D01*
Y239902D01*
X1085000Y237402D01*
G54D211*X1010000Y254902D02*X1015000Y259902D01*
Y279902D01*
X942500Y312402D02*Y259902D01*
X970000Y294902D02*X965000Y289902D01*
X942500D02*X965000D01*
X986400Y269202D02*X995090Y264992D01*
X1025000Y264902D02*X1033800Y269202D01*
X995275Y264902D02*X1025000D01*
X1015000Y279902D02*X1020000D01*
X1022500Y282402D01*
Y299902D01*
G54D210*X1112500Y282402D02*X1130000Y264902D01*
G54D209*X1087500Y237402D02*X695000D01*
G54D211*X957500Y254902D02*X1010000D01*
X942500Y259902D02*X947500Y254902D01*
X960000D02*X947500D01*
G54D207*X875000Y262402D02*Y252402D01*
X717500Y247402D02*Y237402D01*
X875000Y257402D02*X795000D01*
X800000D02*X737500D01*
X684883Y257519D02*X705000Y237402D01*
X702500D02*X682383Y257519D01*
X691250Y236152D02*X693750D01*
X705000Y237402D02*X702500D01*
X693750Y236152D02*X695000Y237402D01*
X737500Y257402D02*X727500D01*
X717500Y247402D01*
G54D209*X1190347Y276579D02*X1190000Y492402D01*
G54D210*X1177500Y433544D02*X1190312D01*
X1190347Y433579D01*
X1189917Y417009D02*X1190347Y416579D01*
X1177500Y400473D02*X1189953D01*
X1190347Y400079D01*
X1177500Y367402D02*X1155848D01*
G54D207*X1154907Y366461D02*X1155847Y367401D01*
X1122500Y367402D02*X1154406Y367284D01*
X1154524Y367402D01*
G54D210*X1177847D02*X1189524D01*
X1190347Y366579D01*
X1154524Y367402D02*Y382614D01*
X1155847Y383937D01*
X1190000Y492402D02*Y594902D01*
X1147500Y637402D01*
X1114941Y629961D02*Y604961D01*
X1115000Y604902D01*
Y592402D01*
X1105000D01*
X1174400Y497402D02*X1190000D01*
X1147500Y637402D02*X1022500D01*
X1017559Y629961D02*X1155000Y629902D01*
X1022500Y584902D02*Y592402D01*
X1022559Y592461D01*
X1022526Y617376D02*X1030026D01*
X1045000Y602402D01*
Y592402D02*Y602402D01*
X1037500Y609902D02*X1022536D01*
X1155848Y367402D02*X1155847Y367401D01*
X1130000Y264902D02*X1177846D01*
X1190346Y277402D01*
Y276580D01*
X1190347Y276579D01*
G54D207*X777500Y429902D02*X827500D01*
G54D209*X672559Y597461D02*X652559Y617461D01*
Y582461D02*Y637461D01*
X672559Y592461D02*Y597461D01*
G54D211*X722500Y592520D02*X722559Y592461D01*
G54D207*X832559Y637461D02*Y607461D01*
G54D209*X765059Y597461D02*X745059Y617461D01*
X742559Y607461D02*X752559D01*
X765059Y592461D02*Y597461D01*
X745059Y584961D02*X745000Y637402D01*
X732559Y592461D02*X745059D01*
G54D207*X740059Y637461D02*Y607461D01*
X745059Y602461D01*
G54D209*X670059Y257461D02*X660000Y267402D01*
G54D207*X671316Y256218D02*Y256086D01*
X668802Y258704D02*Y258600D01*
G54D209*X682559Y257461D02*X670000Y269902D01*
G54D207*X677500Y257519D02*X682523D01*
X673791Y261193D02*Y258611D01*
G54D209*X677559Y257461D02*X665000Y269902D01*
G54D207*X671316Y256086D02*X690000Y237402D01*
X695000D01*
Y240019D01*
X677500Y257519D01*
X682523D02*X685000Y255043D01*
X682617Y257519D02*X684883D01*
X673791Y258611D02*X695000Y237402D01*
X668802Y258600D02*X691250Y236152D01*
X827500Y429902D02*X835000Y422402D01*
X892500D02*X835000D01*
X892500D02*X910000Y404902D01*
G54D209*X1010059Y592461D02*X1022559D01*
X950059Y597461D02*X930059Y617461D01*
X1022559Y592461D02*X1022500Y637402D01*
X930059Y584961D02*X930000Y637402D01*
X950059Y592461D02*Y597461D01*
X927559Y607461D02*X940059D01*
G54D207*X925059D02*X930059Y602461D01*
X832559Y607461D02*X837559Y602461D01*
G54D209*X857559Y597461D02*X837559Y617461D01*
Y584961D02*X837500Y637402D01*
X835059Y607461D02*X847559D01*
G54D207*X925059Y637461D02*Y607461D01*
G54D209*X917559Y592461D02*X930059D01*
X857559D02*Y597461D01*
X825059Y592461D02*X837559D01*
X645059Y637461D02*X1027559D01*
X652559Y629961D02*X1022559D01*
G54D210*X610000Y588702D02*Y592402D01*
Y587402D01*
X613800Y588702D02*X615000Y589902D01*
X611200D01*
X610000Y588702D01*
X613800D02*X601200D01*
X600000Y589902D01*
X572500Y597402D02*X585000D01*
X572500D02*Y589902D01*
Y577402D02*Y584902D01*
Y577402D02*X582500D01*
X572500D02*X580000Y584902D01*
X572500Y597402D02*X582500Y587402D01*
G54D211*X972500Y449902D02*Y429902D01*
X952500Y442402D02*X962500Y432402D01*
X960000Y412402D02*X952500Y419902D01*
X962500Y432402D02*Y429902D01*
X952500Y432402D02*Y429902D01*
Y357402D02*Y387402D01*
Y419902D02*X947500D01*
X942500Y424902D01*
Y432402D01*
X962500Y357402D02*Y379002D01*
X978400Y394902D01*
X952500Y387402D02*X960000Y394902D01*
X982500Y449902D02*Y429902D01*
X962500Y457402D02*Y449902D01*
Y457402D02*Y484902D01*
X942500Y442402D02*X952500Y432402D01*
X882500Y437402D02*Y429902D01*
X952500Y457402D02*Y442402D01*
X942500Y457402D02*Y449902D01*
Y452402D01*
Y442402D01*
X952500Y457402D02*X937500Y472402D01*
X932500Y467402D02*X915000D01*
X937500Y472402D02*X922500D01*
X915000Y467402D02*X910000Y472402D01*
X920492Y264902D02*X887500D01*
X907500Y259902D02*X900000Y252402D01*
X885000D02*X900000D01*
X907500Y259902D02*X920492D01*
X920000Y254902D02*X932500D01*
X885000Y262402D02*X887500Y264902D01*
X920492Y269902D02*X910000D01*
X902500Y277402D02*X910000Y269902D01*
X900000Y264902D02*Y270802D01*
X920492Y274902D02*X912500D01*
X942500Y319902D02*X935000Y312402D01*
G54D207*X942500Y339902D02*Y329902D01*
G54D211*X932500Y339902D02*Y319902D01*
X942500Y329902D02*Y319902D01*
X922500D02*X930000Y312402D01*
G54D207*X932500Y349902D02*X942500Y339902D01*
G54D211*X922500D02*Y329902D01*
X912500Y339902D02*Y329902D01*
X902500Y339902D02*Y329902D01*
X890000Y319902D02*X922500D01*
X932500Y339902D02*X922500Y349902D01*
Y339902D02*X912500Y349902D01*
Y339902D02*X902500Y349902D01*
Y339902D02*X892500Y349902D01*
X887500Y322402D02*Y342402D01*
Y322402D02*X890000Y319902D01*
X952500Y304902D02*X955000D01*
X950000Y297402D02*X952500Y294902D01*
X957500D02*X952500D01*
Y304902D02*X950000Y302402D01*
X962500Y299902D02*X957500D01*
X996910Y317618D02*X992500Y319902D01*
X1012500Y332402D02*Y329902D01*
X980000Y319902D02*X992500D01*
X987500Y307402D02*X996910Y317618D01*
X985000Y307402D02*X987500D01*
X937500Y249902D02*X932500Y254902D01*
Y312402D01*
X935000D02*X930000D01*
X905000Y282402D02*X912500Y274902D01*
X915000Y279902D02*X902500Y292402D01*
X867500Y289902D02*X880000Y277402D01*
X867500Y289902D02*Y312402D01*
X877500Y302402D02*Y312402D01*
X887500Y282402D02*X877500Y292402D01*
X897500Y302402D02*X887500Y312402D01*
X897500Y292402D02*X902500D01*
X905000Y282402D02*X887500D01*
X902500Y277402D02*X880000D01*
X915000Y279902D02*X920492D01*
X915000Y299902D02*X920492D01*
X912500Y302402D02*X915000Y299902D01*
X912500Y304902D02*Y302402D01*
X920000Y312402D02*X912500Y304902D01*
X970000Y269902D02*X965000Y264902D01*
X957500D02*X965000D01*
X967500Y259902D02*X957500D01*
X937500Y249902D02*X1032500D01*
X1037500Y254902D01*
Y244902D02*X845000D01*
X965000Y279902D02*Y272402D01*
X962500Y269902D02*X957500D01*
X965000Y272402D02*X962500Y269902D01*
X970000D02*Y277402D01*
X1005200Y279902D02*X995000D01*
X992500Y282402D01*
X982500D01*
X967500Y259902D02*X975000Y267402D01*
X965000Y279902D02*X980000Y294902D01*
X975000Y274902D02*Y267402D01*
X980000Y287402D02*X970000Y277402D01*
X982500Y282402D02*X975000Y274902D01*
X1070000Y247402D02*X1077500D01*
X1037500Y244902D02*X1040000Y247402D01*
Y284902D02*X1047500Y277402D01*
G54D207*X1055000Y302402D02*Y254902D01*
G54D211*X1040000Y289902D02*Y284902D01*
Y289902D02*X1047500Y297402D01*
Y259902D02*X1042500Y254902D01*
X1062500Y262402D02*Y272402D01*
X1047500Y277402D02*Y259902D01*
X1042500Y254902D02*X1037500D01*
G54D207*X1040000Y247402D02*X1047500D01*
X1055000Y254902D01*
G54D211*X992500Y342402D02*Y369902D01*
X972500D02*Y342402D01*
X982500D02*X972500Y332402D01*
X992500Y342402D02*X982500Y332402D01*
X1002500Y342402D02*Y369902D01*
Y332402D02*Y329902D01*
X1012500Y342402D02*Y369902D01*
Y342402D02*X1002500Y332402D01*
G54D207*X1050000Y324902D02*X1045000Y329902D01*
G54D211*X1032500Y342402D02*Y369902D01*
G54D207*Y329902D02*X1045000D01*
G54D211*X1022500Y342402D02*Y369902D01*
Y332402D02*Y329902D01*
X1032500Y342402D02*X1022500Y332402D01*
X1025000Y314902D02*X1040000D01*
X1022500Y342402D02*X1012500Y332402D01*
X1025000Y314902D02*X1022500Y317618D01*
X1002500Y342402D02*X992500Y332402D01*
Y329902D01*
X1005000Y287402D02*X980000D01*
X982500Y369902D02*Y342402D01*
X962500Y332402D02*Y322402D01*
X972500Y332402D02*Y322402D01*
Y342402D02*X962500Y332402D01*
X955000Y304902D02*X972500Y322402D01*
X982500Y329902D02*Y332402D01*
X950000Y302402D02*Y297402D01*
X962500Y299902D02*X970000Y307402D01*
X975000D02*X970000D01*
X962500Y322402D02*X952500Y312402D01*
G54D207*X1087500Y294902D02*X1065000D01*
Y284902D02*Y304902D01*
X1086200Y282402D02*X1087500Y287402D01*
X1065000Y284902D02*X1062500Y282402D01*
X1065000Y317402D02*X1072500Y309902D01*
X1050000Y324902D02*Y307402D01*
X1087500Y287402D02*Y322402D01*
X1077500Y309902D02*X1072500D01*
X1065000Y304902D02*X1057500Y312402D01*
X1055000Y302402D02*X1050000Y307402D01*
X1065000Y367402D02*Y317402D01*
X1050000Y324902D02*X1065000Y339902D01*
X1068072Y334330D02*X1065000Y337402D01*
X1166597Y280329D02*X1166536Y323367D01*
G54D211*X1155453Y417402D02*X1155847Y417008D01*
G54D207*X1166598Y279902D02*Y279000D01*
X1162500Y274902D01*
X1145000D01*
X1166597Y323428D02*X1177500Y334331D01*
X1155640Y318002D02*X1155847Y317795D01*
Y334330D02*X1145598D01*
X1154817Y318825D02*X1156240Y317402D01*
X1140000D02*X1156240D01*
X1145000Y274902D02*X1097500Y322402D01*
X1145000Y334330D02*X1068072D01*
X1132500D02*Y324902D01*
X1140000Y317402D01*
G54D211*X1022500Y449902D02*Y429902D01*
X1057500Y362402D02*Y409902D01*
X1055000Y412402D01*
X960000D01*
G54D207*X1065000Y367402D02*X1092500Y392402D01*
G54D211*X1032500Y429902D02*X1142953D01*
G54D207*X1092500Y392402D02*X1092619D01*
X1093810Y393592D01*
X1158690D01*
X1165000Y399902D01*
G54D211*X1142953Y429902D02*X1155847Y417008D01*
G54D207*X1165000Y482402D02*Y399902D01*
G54D211*X992500Y467402D02*Y429902D01*
X1002500Y464902D02*Y429902D01*
X1012500Y449902D02*Y429902D01*
X1032500Y449902D02*X1137500D01*
X1022500D02*Y472402D01*
X1030000Y479902D01*
X1062500D01*
Y489902D02*X1030000D01*
X1012500Y472402D01*
X1022500Y502402D02*X1015000Y509902D01*
X1012500Y449902D02*Y472402D01*
X1010059Y507402D02*Y517450D01*
X1010054Y517456D01*
X1087500Y489902D02*X1072500D01*
Y479902D02*X1092500D01*
X1082500Y514902D02*X1050000D01*
X1045000Y519902D01*
X992559Y479961D02*Y467461D01*
X992500Y467402D01*
X992559Y479902D02*Y497461D01*
X1002500Y464902D02*Y494902D01*
X1000000Y504902D02*X995059Y499961D01*
X1000000Y534902D02*Y504902D01*
X992559Y497461D02*X995000Y499902D01*
X1005000Y497402D02*X1010000Y502402D01*
Y507343D01*
X1010059Y507402D01*
X1002500Y494902D02*X1006250Y498652D01*
X1010000Y542402D02*X1010059Y514961D01*
X987559D02*X992559Y519961D01*
X980000Y542402D02*X990000D01*
X955000Y514902D02*X987441Y514843D01*
X1000000Y534902D02*Y542402D01*
X1155847Y466615D02*X1154213D01*
G54D207*X1165000Y482402D02*X1162500Y484902D01*
G54D211*X1154213Y466615D02*X1137500Y449902D01*
G54D207*X1160600Y497402D02*X1152500D01*
X1147500Y492402D01*
Y484902D01*
G54D211*X1095000Y497402D02*X1087500Y489902D01*
X1092500Y479902D02*X1105000Y492402D01*
G54D207*X1116000Y546402D02*Y496402D01*
X1127500Y484902D01*
G54D211*X1105000Y492402D02*Y542402D01*
X1095000Y497402D02*Y542402D01*
G54D207*X1162500Y484902D02*X1127500D01*
G54D211*X1086000Y518902D02*Y518402D01*
X1082500Y514902D01*
X1075000Y542402D02*X1085000D01*
G54D209*X980059Y592461D02*Y617461D01*
X970059Y592461D02*Y617461D01*
X960059D02*Y592461D01*
G54D211*X1000000Y592402D02*X1000059Y597461D01*
X1005000Y602402D02*X1012500D01*
G54D209*X990059Y617461D02*Y592461D01*
G54D211*X1000059Y597461D02*X1005000Y602402D01*
G54D207*X1000000Y584902D02*Y592402D01*
G54D211*X942500Y549902D02*X1015000D01*
X1022500Y502402D02*X1032500D01*
X1035000Y504902D01*
G54D207*X1022559Y557343D02*X1022500Y557402D01*
X1010000D02*X1009941Y557461D01*
X1007441D01*
G54D211*X1025000Y554902D02*X1022500Y557402D01*
X1055000Y524902D02*Y542402D01*
X1065000Y524902D02*Y542402D01*
X1022559Y519961D02*X1025000Y522402D01*
X1045000Y519902D02*Y542402D01*
X1035000Y504902D02*Y542402D01*
X1015000Y549902D02*X1017500Y547402D01*
X1025000Y522402D02*Y554902D01*
X1017500Y547402D02*Y527402D01*
X1015000Y524902D01*
Y509902D01*
G54D207*X1010000Y557402D02*X1112500D01*
X1105000Y602402D02*X1097500D01*
X1105000D02*Y619902D01*
X1097500Y602402D02*X1095000Y599902D01*
Y557402D01*
X1116000Y544902D02*Y553902D01*
X1112500Y557402D01*
G54D210*X1055000Y617402D02*Y592402D01*
X1065000Y617402D02*Y592402D01*
X1075000Y617402D02*Y592402D01*
X1085000Y617402D02*Y592402D01*
G54D211*X847559Y504843D02*Y497461D01*
X847500Y497402D02*X847559Y497343D01*
X855059D02*X885000Y467402D01*
X847559Y497461D02*X847500Y497402D01*
X847559Y497343D02*X855059D01*
X922500Y472402D02*X917500Y477402D01*
Y534902D02*Y477402D01*
Y542402D02*Y532402D01*
X947500Y499902D02*X935059D01*
X935000Y499961D01*
X940059Y504843D02*Y499961D01*
X940000Y499902D01*
X862500Y514902D02*X902559Y514961D01*
X857500Y519902D02*X862500Y514902D01*
X857500Y542402D02*Y519902D01*
X867500Y524902D02*Y542402D01*
X940059Y532461D02*Y539961D01*
X910000Y472402D02*Y539902D01*
X907500Y542402D01*
X877500D02*Y524902D01*
X887500Y542402D02*X897500D01*
X852559Y549961D02*X920059D01*
G54D207*X907500Y592402D02*X907559Y584961D01*
G54D211*X912500Y602402D02*X920000D01*
G54D209*X897559Y617461D02*X897500Y592402D01*
X887559Y592461D02*Y617461D01*
X877559Y592461D02*Y617461D01*
X867559D02*Y592461D01*
G54D211*X847500Y544902D02*X852559Y549961D01*
X847500Y542402D02*Y544902D01*
X847559Y534843D02*Y539843D01*
X847500Y539902D01*
Y542402D01*
X947500Y499902D02*X962500Y484902D01*
X950000Y542402D02*Y519902D01*
X955000Y514902D01*
X970000Y542402D02*Y524902D01*
X960000Y542402D02*Y524902D01*
X920059Y549961D02*X925059Y544961D01*
X932559Y514961D02*Y557461D01*
X940059Y542461D02*Y547461D01*
X942500Y549902D01*
X925000Y545020D02*Y537402D01*
X925059Y537343D01*
G54D207*X832500Y412402D02*X825000Y419902D01*
G54D211*X842500Y434902D02*X840000Y437402D01*
X852500Y429902D02*Y439902D01*
X847500Y444902D02*X852500Y439902D01*
X842500Y434902D02*Y429902D01*
X790000Y452402D02*X850000D01*
X792441Y457343D02*X855000Y457402D01*
X820000Y462402D02*X860000D01*
X792382Y457402D02*X792441Y457343D01*
X890000Y404902D02*X807500D01*
X887500Y399902D02*X805000D01*
X802500Y394902D02*X827500D01*
X885000D02*X825000D01*
X837500Y377402D02*X870000D01*
X820000Y359902D02*X837500Y377402D01*
X882500Y387402D02*X805000D01*
X877500Y382402D02*X817500D01*
X792500Y357402D01*
X717500D02*X742500D01*
X792500D02*X737500D01*
X800000Y412402D02*X770000D01*
X765000Y407402D02*X770000Y412402D01*
X797500Y407402D02*X777500D01*
X775000Y399902D02*Y404902D01*
X765000Y407402D02*Y399902D01*
X777500Y382402D02*X775000Y384902D01*
X777500Y382402D02*X800000D01*
X775000Y384902D02*Y389902D01*
Y404902D02*X777500Y407402D01*
X797500Y399902D02*X785000D01*
X805000Y387402D02*X800000Y382402D01*
G54D207*X795000Y389902D02*X785000D01*
G54D211*X802500Y394902D02*X797500Y399902D01*
X807500Y404902D02*X800000Y412402D01*
X805000Y399902D02*X797500Y407402D01*
X850000Y452402D02*X862500Y439902D01*
X855000Y457402D02*X872500Y439902D01*
X865000Y457402D02*X860000Y462402D01*
X865000Y457402D02*X867500D01*
X875000Y459902D02*X867500Y467402D01*
X870000Y472402D02*X880000Y462402D01*
X867500Y467402D02*X827629D01*
X830000Y472402D02*X870000D01*
X875000Y459902D02*Y444902D01*
X882500Y437402D02*X875000Y444902D01*
X885000Y449902D02*Y467402D01*
X745000Y452402D02*X725000Y472402D01*
X927500Y459902D02*X932500Y454902D01*
X927500Y459902D02*X895000D01*
X932500Y442402D02*Y454902D01*
X892500Y457402D02*X895000Y459902D01*
X880000Y447402D02*Y462402D01*
X892500Y434902D02*Y429902D01*
Y434902D02*X880000Y447402D01*
X902500Y432402D02*X885000Y449902D01*
X912500Y442402D02*Y449902D01*
X902500Y442402D02*Y449902D01*
X912500Y432402D02*X902500Y442402D01*
Y429902D02*Y432402D01*
X912500D02*Y429902D01*
X942500Y457402D02*X932500Y467402D01*
X930059Y499961D02*X935059D01*
X925059Y504961D02*X930059Y499961D01*
X925059Y537461D02*Y504961D01*
X940059D02*Y534843D01*
X907500Y592402D02*Y597402D01*
X912559Y602461D01*
G54D207*X892500Y412402D02*X832500D01*
G54D211*X905000Y389902D02*X890000Y404902D01*
X902500Y377402D02*Y349902D01*
X892500D02*Y377402D01*
X872500Y439902D02*Y429902D01*
X862500Y439902D02*Y429902D01*
X872500Y374902D02*Y369902D01*
X870000Y377402D02*X872500Y374902D01*
X877500Y382402D02*X882500Y377402D01*
X842500Y369902D02*Y352402D01*
X862500Y369902D02*Y344902D01*
X852500Y369902D02*Y347402D01*
X922500Y419902D02*X915000Y412402D01*
X922500Y419902D02*Y432402D01*
G54D207*X932500Y387402D02*X922500Y397402D01*
X907500D01*
X892500Y412402D01*
G54D211*X915000Y389902D02*X905000D01*
X902500Y377402D02*X885000Y394902D01*
X907500Y384902D02*X902500D01*
X912500Y379902D02*X907500Y384902D01*
X882500Y377402D02*Y369902D01*
X902500Y384902D02*X887500Y399902D01*
X892500Y377402D02*X882500Y387402D01*
X912500Y379902D02*Y349902D01*
X922500Y432402D02*X912500Y442402D01*
X922500Y382402D02*X915000Y389902D01*
X922500Y382402D02*Y349902D01*
G54D207*X932500D02*Y387402D01*
G54D211*X942500Y432402D02*X932500Y442402D01*
X832559Y504961D02*X837559Y499961D01*
X847559Y504961D02*Y534843D01*
X832559Y537461D02*Y504961D01*
X837618Y499902D02*Y499784D01*
X840000Y497402D01*
X847500D01*
X840059Y514961D02*Y557461D01*
X832500Y545020D02*Y537461D01*
X832559Y537402D01*
X712500Y292402D02*X737500D01*
X752500D02*X735000D01*
X775000Y247402D02*X842500D01*
X845000Y244902D01*
X757500Y267402D02*X737500D01*
Y247402D02*X777500D01*
X887500Y342402D02*X867500D01*
X862500Y344902D02*X835000Y317402D01*
X818750Y358652D02*X752500Y292402D01*
X842500Y352402D02*X757500Y267402D01*
X835000Y317402D02*Y267402D01*
X852500Y347402D02*X790000Y284902D01*
Y267402D02*Y284902D01*
X627441Y307343D02*X635000Y314902D01*
G54D209*X640000Y282402D02*X647441Y282343D01*
G54D208*X640000Y282402D02*X615000D01*
G54D207*X600059Y312461D02*X599941Y289843D01*
G54D211*X635000Y314902D02*X639882Y314784D01*
X627500Y307402D02*Y294902D01*
G54D209*X647500Y347402D02*X639941Y347343D01*
G54D211*X627500Y372402D02*X635000Y379902D01*
G54D208*X609567Y352717D02*X614941Y347343D01*
G54D211*X640000Y379902D02*X635000D01*
X627500Y372402D02*Y359902D01*
G54D208*X615000Y347402D02*X639941Y347343D01*
X594941Y352717D02*X609567D01*
Y287717D02*X614941Y282343D01*
G54D207*X600000Y377402D02*X599941Y354843D01*
G54D208*X594941Y287717D02*X609567D01*
G54D211*X595000Y460202D02*X592500Y462402D01*
X592441Y489843D02*X567441D01*
X595000Y487402D02*X592500Y489902D01*
X567441Y462343D02*X592441D01*
X595000Y460202D02*X597441Y459843D01*
X595000Y487402D02*X602500D01*
X622500Y467402D01*
X595341Y459902D02*X715000D01*
X717500Y467402D02*X622500D01*
X722559Y597461D02*X727500Y602402D01*
X735000D02*X735059Y602461D01*
X727500Y602402D02*X735000D01*
G54D207*X722559Y584961D02*X722500Y592402D01*
G54D211*X722559Y597461D02*Y592461D01*
X725000Y539902D02*Y472402D01*
X692500Y524902D02*Y542402D01*
X672500Y542520D02*X672559Y542461D01*
X672500Y519902D02*X677500Y514902D01*
X672500Y542402D02*Y519902D01*
Y542402D02*X672559Y542461D01*
X682559D02*Y524961D01*
G54D209*X692559Y592461D02*Y617461D01*
X682559D02*Y592461D01*
X712559Y617461D02*Y592461D01*
X702559D02*Y617461D01*
G54D211*X692500Y542402D02*X692559Y542461D01*
X702559D02*X712559D01*
X667559Y549961D02*X735059D01*
X732559Y542461D02*Y532402D01*
X722559Y542461D02*Y542343D01*
X725000Y539902D01*
X662559Y542461D02*Y544961D01*
X677500Y517402D02*X717441Y517343D01*
X662559Y544961D02*X667559Y549961D01*
G54D207*X662500Y557402D02*X652500D01*
X645000Y549902D01*
X610000D01*
X550000D02*Y609902D01*
X557500Y617402D01*
X572500D01*
X562500Y537402D02*X550000Y549902D01*
X597500Y537402D02*X562500D01*
X610000Y549902D02*X597500Y537402D01*
G54D211*X810000Y467402D02*X815000D01*
X820000Y462402D01*
X810000Y467402D02*X802500Y474902D01*
G54D207*X795000Y419902D02*X825000D01*
G54D211*X840000Y437402D02*X737500D01*
X847500Y444902D02*X740000D01*
X717500Y467402D01*
X737500Y437402D02*X715000Y459902D01*
X790000Y452402D02*X745000D01*
X750000Y457402D02*X792382D01*
X830000Y472402D02*X825000Y477402D01*
X817564Y477338D02*X827500Y467402D01*
X732559Y474843D02*X750000Y457402D01*
X750059Y499961D02*X755059Y504961D01*
Y534843D01*
X755000Y542402D02*Y544902D01*
X755059Y542343D02*X755000Y542402D01*
Y532520D01*
X755059Y532461D01*
X745059Y499961D02*X750059D01*
X740059Y504961D02*X745059Y499961D01*
X732559Y502461D02*Y474843D01*
X740059Y537461D02*Y504961D01*
X732559Y534961D02*Y502461D01*
X735059Y549961D02*X740059Y544961D01*
X740118Y544902D02*Y535020D01*
X740059Y534961D01*
X825000Y534902D02*X825059Y502461D01*
X825000Y532411D02*X825005Y532407D01*
X817559Y529961D02*X817500Y529902D01*
X825059Y502402D02*Y499843D01*
X825000Y499902D02*X825064Y499966D01*
X825000Y477402D02*Y499902D01*
X817500Y477402D02*Y529902D01*
G54D207*X815000Y592402D02*Y584902D01*
G54D211*Y597402D02*X820000Y602402D01*
X827500D01*
G54D209*X805059Y617461D02*Y592461D01*
G54D211*X815000Y592402D02*Y597402D01*
G54D209*X795000Y592402D02*X795059Y617461D01*
X785059Y592461D02*Y617461D01*
X775059D02*Y592461D01*
G54D211*X760059Y549961D02*X827559D01*
X785000Y542402D02*Y524902D01*
X815000Y542402D02*X817559Y539843D01*
Y529961D01*
X795000Y542402D02*X805000D01*
X817559Y539843D02*X815000Y542402D01*
X809941Y514961D02*X770000Y514902D01*
X827559Y549961D02*X832559Y544961D01*
G54D207*X662500Y557402D02*X1007559Y557461D01*
G54D211*X747441Y557358D02*X747500Y557417D01*
X825000Y542402D02*Y532411D01*
X765000Y519902D02*X770000Y514902D01*
X765000Y542402D02*Y519902D01*
X775000Y542402D02*Y524902D01*
X755000Y544902D02*X760059Y549961D01*
X747441Y517343D02*Y557358D01*
G54D210*X835000Y267402D03*
Y257402D03*
Y247402D03*
X737500Y267402D03*
Y257402D03*
Y247402D03*
X790000Y267402D03*
Y257402D03*
Y247402D03*
G54D214*X627500Y359902D03*
G54D215*X610000Y379902D03*
X640000D03*
G54D210*X647500Y357402D03*
X600000Y377402D03*
G54D214*X627500Y349902D03*
G54D210*X647500Y347402D03*
Y337402D03*
G54D216*X594941Y271969D03*
X587441Y269843D03*
X594941Y287717D03*
X587441Y289843D03*
G54D210*X600000Y312402D03*
G54D215*X610000Y314902D03*
G54D217*X570000Y414902D03*
X590000D03*
X610000D03*
X630000D03*
G54D216*X594941Y336969D03*
Y352717D03*
X587441Y334843D03*
Y354843D03*
G54D210*X560000Y312402D03*
Y377402D03*
X647500Y292402D03*
G54D214*X627500Y294902D03*
Y284902D03*
G54D215*X640000Y314902D03*
G54D210*X647500Y282402D03*
Y272402D03*
G54D215*X687500Y357402D03*
X717500D03*
X682500Y292402D03*
X712500D03*
G54D210*X567500Y462402D03*
Y452402D03*
G54D215*X595000D03*
Y460202D03*
G54D210*X567500Y489902D03*
Y479902D03*
G54D215*X595000Y487702D03*
Y479902D03*
X667500Y438702D03*
Y424902D03*
G54D218*X672559Y542461D03*
X662559D03*
X682559D03*
G54D210*Y524961D03*
Y514961D03*
G54D218*X692559Y542461D03*
X702559D03*
X722559Y592461D03*
X712559D03*
X702559D03*
X692559D03*
G54D210*Y524961D03*
Y514961D03*
G54D215*X717441Y517343D03*
G54D218*X672559Y592461D03*
X662559D03*
X682559D03*
G54D219*X652559Y572461D03*
Y582461D03*
G54D215*X610000Y574902D03*
Y588702D03*
G54D217*X572500Y557402D03*
Y577402D03*
Y597402D03*
Y617402D03*
G54D210*X775000Y524902D03*
G54D218*X765000Y542402D03*
X775000D03*
X755000D03*
G54D210*X775000Y514902D03*
G54D218*X785000Y542402D03*
X795000D03*
G54D210*X785000Y524902D03*
Y514902D03*
G54D215*X839941Y514961D03*
X809941D03*
X747441Y517343D03*
G54D218*X805000Y542402D03*
X815000D03*
X825000D03*
X857500D03*
X847500D03*
X795000Y592402D03*
X785000D03*
G54D219*X837559Y574961D03*
Y584961D03*
G54D218*X765000Y592402D03*
X755000D03*
X775000D03*
X712559Y542461D03*
X722559D03*
X732559D03*
Y592461D03*
G54D219*X745059Y574961D03*
Y584961D03*
Y602461D03*
X735059D03*
G54D210*X712559Y617461D03*
X702559D03*
X692559D03*
X682559D03*
G54D218*X815000Y592402D03*
X805000D03*
X825000D03*
X857500D03*
X847500D03*
X867500D03*
G54D219*X837500Y602402D03*
X827500D03*
G54D210*X805059Y617461D03*
X795059D03*
X785059D03*
X775059D03*
G54D218*X867500Y542402D03*
X877500D03*
X887500D03*
X897500D03*
X907500D03*
X917500D03*
X907500Y592402D03*
X897500D03*
X887500D03*
X877500D03*
X917500D03*
G54D219*X920000Y602402D03*
G54D210*X897559Y617461D03*
X887559D03*
X877559D03*
X867559D03*
X867500Y524902D03*
X877500D03*
X867500Y514902D03*
X877500D03*
G54D215*X902559Y514961D03*
G54D210*X1077500Y309902D03*
X1087500D03*
Y322402D03*
X1097500D03*
G54D215*X1040000Y314902D03*
G54D209*X1022500Y317618D03*
G54D215*X1062500Y262402D03*
X1092500D03*
G54D214*X1077500Y247402D03*
X1087500D03*
G54D215*X1070000D03*
G54D214*X1062500Y282402D03*
Y272402D03*
G54D215*X1040000Y284902D03*
X1086200Y282402D03*
G54D219*X1057500Y312402D03*
Y362402D03*
G54D215*X1100000Y282402D03*
X1015000Y279902D03*
X1005200D03*
Y287702D03*
X1015000D03*
G54D210*X1012500Y329902D03*
X1022500D03*
X1032500D03*
G54D219*X962500Y357402D03*
Y347402D03*
X952500Y357402D03*
Y347402D03*
G54D210*X962500Y329902D03*
G54D219*X975000Y307402D03*
G54D209*X996910Y317618D03*
G54D210*X992500Y329902D03*
X1002500D03*
G54D215*X1040000Y247402D03*
G54D220*X1033800Y269202D03*
X986400D03*
G54D209*X1022500Y299902D03*
X996910D03*
G54D219*X985000Y307402D03*
X980000Y294902D03*
X970000D03*
G54D210*X972500Y329902D03*
X982500D03*
G54D215*X802500Y444902D03*
X815000Y437402D03*
X802500Y474902D03*
X815000Y467402D03*
G54D210*X785000Y399902D03*
Y389902D03*
X775000Y399902D03*
X765000D03*
X775000Y389902D03*
X765000D03*
G54D215*X877500Y312402D03*
Y342402D03*
G54D214*Y302402D03*
Y292402D03*
G54D215*X867500Y312402D03*
X887500D03*
G54D214*X897500Y302402D03*
Y292402D03*
G54D219*X875000Y252402D03*
X885000D03*
X875000Y262402D03*
X885000D03*
G54D215*X900000Y252402D03*
Y270802D03*
G54D210*X902500Y329902D03*
X912500D03*
X922500D03*
X932500D03*
X942500D03*
X952500D03*
G54D215*X867500Y342402D03*
X887500D03*
X842500Y369902D03*
X852500D03*
X862500D03*
X872500D03*
X882500D03*
X892500D03*
X902500D03*
X978400Y394902D03*
X960000D03*
G54D219*Y412402D03*
X942500Y357402D03*
X932500D03*
G54D215*X942500Y369902D03*
X952500D03*
X962500D03*
X972500D03*
X982500D03*
G54D219*X950000Y412402D03*
G54D215*X952500Y429902D03*
X942500D03*
G54D219*X915000Y412402D03*
X925000D03*
G54D215*X912500Y369902D03*
X922500D03*
X932500D03*
Y429902D03*
X922500D03*
X912500D03*
X902500D03*
X892500D03*
X882500D03*
X872500D03*
X862500D03*
X852500D03*
X842500D03*
G54D210*X972500Y449902D03*
X962500D03*
X952500D03*
X942500D03*
X932500D03*
X922500D03*
X912500D03*
X902500D03*
G54D221*X1177500Y466615D03*
Y450080D03*
X1155847Y466615D03*
Y450079D03*
G54D222*Y433543D03*
G54D215*X1160600Y497402D03*
X1174400D03*
G54D210*X1072500Y489902D03*
X1062500D03*
X1072500Y479902D03*
X1062500D03*
G54D221*X1177500Y433544D03*
Y417009D03*
Y400473D03*
Y383938D03*
Y367402D03*
Y350867D03*
Y334331D03*
Y317796D03*
Y301261D03*
Y284725D03*
X1155847Y417008D03*
G54D222*Y400472D03*
G54D221*Y383937D03*
Y367401D03*
Y350866D03*
Y334330D03*
Y317795D03*
Y301261D03*
Y284725D03*
G54D215*X992500Y369902D03*
Y429902D03*
X982500D03*
X972500D03*
X962500D03*
X1002500Y369902D03*
Y429902D03*
X1012500Y369902D03*
X1022500D03*
X1032500D03*
Y429902D03*
X1022500D03*
X1012500D03*
G54D210*X1032500Y449902D03*
X1022500D03*
X1012500D03*
X1002500D03*
X992500D03*
X982500D03*
G54D218*X990000Y542402D03*
Y592402D03*
G54D210*X990059Y617461D03*
G54D218*X1000000Y542402D03*
Y592402D03*
X1010000Y542402D03*
Y592402D03*
G54D219*X1022500Y574902D03*
Y584902D03*
Y602402D03*
X1012500D03*
G54D215*X1022559Y519961D03*
X992559D03*
G54D218*X1035000Y542402D03*
X950000Y592402D03*
X940000D03*
X960000D03*
G54D219*X930000Y602402D03*
G54D210*X960059Y617461D03*
G54D218*X970000Y542402D03*
Y592402D03*
G54D210*Y524902D03*
Y514902D03*
X970059Y617461D03*
G54D218*X980000Y542402D03*
Y592402D03*
G54D210*X980059Y617461D03*
G54D218*X950000Y542402D03*
X960000D03*
X940000D03*
G54D210*X960000Y524902D03*
Y514902D03*
G54D215*X932559Y514961D03*
G54D219*X930059Y574961D03*
Y584961D03*
G54D210*X1065000Y617402D03*
X1055000D03*
G54D218*X1045000Y592402D03*
X1035000D03*
X1065000D03*
X1055000D03*
G54D215*X1116000Y518902D03*
X1086000D03*
G54D210*X1065000Y524902D03*
Y514902D03*
X1055000Y524902D03*
Y514902D03*
G54D219*X1115000Y602402D03*
X1105000D03*
G54D210*Y629902D03*
Y619902D03*
X1085000Y617402D03*
X1075000D03*
G54D218*X1045000Y542402D03*
X1055000D03*
X1065000D03*
X1075000D03*
X1085000D03*
X1095000D03*
X1105000D03*
X1095000Y592402D03*
X1085000D03*
X1075000D03*
X1105000D03*
G54D223*X954744Y299902D02*X960256D01*
X954744Y294902D02*X960256D01*
X954744Y289902D02*X960256D01*
X954744Y284902D02*X960256D01*
X954744Y279902D02*X960256D01*
X954744Y274902D02*X960256D01*
X954744Y269902D02*X960256D01*
X954744Y264902D02*X960256D01*
X954744Y259902D02*X960256D01*
X954744Y254902D02*X960256D01*
X917736Y269902D02*X923248D01*
X917736Y274902D02*X923248D01*
X917736Y279902D02*X923248D01*
X917736Y284902D02*X923248D01*
X917736Y254902D02*X923248D01*
X917736Y259902D02*X923248D01*
X917736Y264902D02*X923248D01*
X917736Y289902D02*X923248D01*
X917736Y294902D02*X923248D01*
X917736Y299902D02*X923248D01*
G54D215*X1050000Y404902D03*
X892500Y457402D03*
X867500D03*
X795000Y419902D03*
Y389902D03*
X1065000Y297402D03*
X980000Y319902D03*
X932500D03*
X1047500Y297402D03*
X952500Y312402D03*
X920000D03*
G54D224*X1180000Y249902D03*
G54D215*X1122500Y367402D03*
G54D224*X1180000Y627402D03*
X1140000Y602402D03*
G54D215*X907559Y584961D03*
X907500Y557402D03*
X1000000Y584902D03*
Y557402D03*
G54D224*X1140000Y532402D03*
X537500Y249902D03*
X637500Y532402D03*
X537500Y627402D03*
G54D215*X815059Y584961D03*
Y557461D03*
X722559Y584961D03*
Y557461D03*
G54D224*X637500Y602402D03*
G54D211*G54D225*G54D211*G54D225*G54D211*G54D225*G54D211*G54D225*G54D226*G54D211*G54D226*G54D211*G54D226*G54D227*G54D226*G54D227*G54D226*G54D211*G54D228*G54D227*G54D226*G54D211*G54D226*G54D211*G54D226*G54D211*G54D226*G54D211*G54D226*G54D211*G54D226*G54D211*G54D228*G54D226*G54D211*G54D226*G54D211*G54D226*G54D211*G54D226*G54D211*G54D226*G54D211*G54D226*G54D211*G54D226*G54D211*G54D226*G54D211*G54D226*G54D211*G54D226*G54D211*G54D226*G54D211*G54D229*G54D226*G54D211*G54D226*G54D211*G54D226*G54D211*G54D226*G54D211*G54D226*G54D230*G54D211*G54D226*G54D230*G54D211*G54D226*G54D211*G54D226*G54D211*G54D226*G54D211*G54D226*G54D211*G54D226*G54D211*G54D226*M02*
