M48
INCH
T258C0.126
T257C0.051
T256C0.087
T255C0.067
T254C0.063
T253C0.030
T252C0.040
%
T253
X062750Y035990
X061000Y037990
X064000Y037990
X062750Y034990
X061000Y031490
X062750Y029490
X062750Y028490
X064000Y031490
X068750Y035740
X071750Y035740
X068250Y029240
X071250Y029240
X059500Y045240
X059500Y046020
X059500Y048770
X059500Y047990
X066750Y043870
X066750Y042490
X071744Y051734
X065256Y057246
X065256Y058246
X061000Y057490
X061000Y058870
X083994Y051496
X080994Y051496
X074744Y051734
X083756Y057496
X083756Y058496
X074506Y057496
X074506Y058496
X074506Y060246
X073506Y060246
X083750Y060240
X082750Y060240
X092000Y060240
X090256Y051496
X104000Y031490
X106250Y026240
X109250Y026240
X107750Y024740
X108750Y024740
X107000Y024740
X106250Y028240
X106250Y027240
X104000Y028490
X108620Y028240
X105750Y031240
X105750Y036240
X110000Y028240
X101500Y027990
X100520Y027990
X100520Y028770
X101500Y028770
X096250Y035740
X096250Y034740
X095250Y035740
X095250Y034740
X097500Y030740
X104000Y024740
X098500Y030740
X098000Y029490
X097000Y029490
X080250Y044490
X081500Y043740
X080250Y047490
X081500Y046740
X087750Y031240
X087750Y034240
X087750Y030240
X087750Y029240
X086750Y031240
X088750Y031240
X089750Y030240
X089750Y029240
X087500Y025240
X088500Y025240
X087500Y026240
X088500Y026240
X090000Y025240
X090000Y027080
X086750Y034240
X088750Y034240
X084250Y036990
X085250Y036990
X086250Y036990
X087250Y036990
X088250Y036990
X089250Y036990
X090250Y036990
X097840Y039490
X096000Y039490
X096000Y041240
X094250Y035740
X093250Y035740
X094250Y036990
X095250Y036990
X096250Y036990
X097250Y036990
X098250Y036990
X095000Y041240
X095250Y042990
X094250Y042990
X091500Y041240
X092500Y041240
X091250Y036990
X092250Y036990
X093250Y036990
X093250Y042990
X092250Y042990
X091250Y042990
X090250Y042990
X089250Y042990
X088250Y042990
X087250Y042990
X086250Y042990
X085250Y042990
X084250Y042990
X116060Y049740
X117440Y049740
X099250Y036990
X099250Y042990
X098250Y042990
X097250Y042990
X096250Y042990
X100250Y036990
X100250Y042990
X101250Y036990
X102250Y036990
X103250Y036990
X103250Y042990
X102250Y042990
X101250Y042990
X102250Y057490
X102250Y058490
X102250Y060240
X101250Y060240
X102256Y051996
X099256Y051996
X093000Y060240
X093256Y051496
X093006Y057496
X093006Y058496
X111600Y051890
X108600Y051890
X111500Y060240
X110500Y060240
X105000Y040490
X089250Y045740
X086750Y045740
X079500Y041990
X079500Y038990
X106500Y029740
X098000Y031990
X093250Y031990
X104750Y029740
X095250Y031240
X092000Y031240
X112250Y036740
X090756Y058496
X090750Y055740
X100000Y058490
X100000Y055740
X081506Y058496
X081506Y055746
X072256Y058496
X072256Y055746
T252
X083500Y026740
X083500Y025740
X083500Y024740
X073750Y026740
X073750Y025740
X073750Y024740
X079000Y026740
X079000Y025740
X079000Y024740
X064750Y035740
X060000Y037740
X064750Y034740
X064750Y033740
X058744Y026984
X058744Y028984
X060000Y031240
X058744Y033484
X058744Y035484
X056000Y031240
X056000Y037740
X064750Y029240
X064750Y028240
X064750Y027240
X056750Y046240
X056750Y045240
X056750Y048990
X056750Y047990
X067256Y054246
X066256Y054246
X068256Y054246
X068256Y052496
X068256Y051496
X069256Y054246
X070256Y054246
X072256Y059246
X071256Y059246
X070256Y059246
X069256Y059246
X069256Y052496
X069256Y051496
X067256Y059246
X066256Y059246
X068256Y059246
X077500Y052490
X076500Y054240
X077500Y054240
X075500Y054240
X077500Y051490
X078500Y054240
X079500Y054240
X078500Y052490
X078500Y051490
X080500Y054240
X081500Y054240
X082500Y054240
X085750Y054240
X084750Y054240
X079500Y059240
X078500Y059240
X076500Y059240
X075500Y059240
X077500Y059240
X071256Y054246
X072256Y054246
X073256Y054246
X073256Y059246
X071256Y061746
X070256Y061746
X069256Y061746
X068256Y061746
X081500Y059240
X080500Y059240
X082500Y059240
X085750Y059240
X084750Y059240
X086750Y059240
X080506Y061746
X079506Y061746
X078506Y061746
X077506Y061746
X086750Y054240
X087750Y054240
X088750Y054240
X089750Y054240
X090750Y054240
X091750Y054240
X090750Y059240
X089750Y059240
X088750Y059240
X087750Y059240
X091750Y059240
X089756Y061746
X088756Y061746
X087756Y061746
X086756Y061746
X086750Y052490
X087750Y052490
X086750Y051490
X087750Y051490
X107750Y030990
X108750Y030990
X108750Y032240
X109750Y032240
X102250Y031762
X101250Y032990
X102250Y032990
X103250Y032990
X096250Y032990
X099691Y031762
X099250Y032990
X100250Y032990
X102250Y029990
X099691Y029990
X097250Y032990
X098250Y032990
X078500Y039990
X078500Y038990
X077500Y039990
X076500Y039990
X077500Y038990
X076500Y038990
X090250Y032990
X091250Y032990
X092250Y032990
X093250Y032990
X094250Y032990
X095250Y032990
X097250Y044990
X096250Y044990
X095250Y044990
X094250Y044990
X093250Y044990
X092250Y044990
X091250Y044990
X090250Y044990
X107250Y048990
X106250Y048990
X107250Y047990
X106250Y047990
X103250Y044990
X102250Y044990
X101250Y044990
X100250Y044990
X099250Y044990
X098250Y044990
X099000Y054240
X099000Y059240
X099006Y061746
X100000Y054240
X100000Y059240
X101000Y054240
X101000Y059240
X103500Y054240
X095000Y059240
X094000Y059240
X096000Y059240
X096006Y061746
X097000Y054240
X097000Y059240
X097000Y052490
X097000Y051490
X097006Y061746
X098000Y054240
X098000Y059240
X098006Y061746
X095000Y054240
X096000Y054240
X094000Y054240
X096000Y052490
X096000Y051490
X106500Y061740
X105500Y061740
X104500Y059240
X103500Y059240
X106500Y059240
X105500Y059240
X106500Y052490
X106500Y051490
X105500Y052490
X105500Y051490
X110500Y062990
X110500Y061990
X108500Y061740
X107500Y061740
X104500Y054240
X105500Y054240
X106500Y054240
X107500Y054240
X108500Y054240
X109500Y054240
X110500Y054240
X109500Y059240
X108500Y059240
X107500Y059240
X110500Y059240
T257
X117750Y046662
X117750Y045008
X115585Y046662
X115585Y045008
X115585Y043354
X117750Y043354
X117750Y041701
X117750Y040047
X117750Y038394
X117750Y036740
X117750Y035087
X117750Y033433
X117750Y031780
X117750Y030126
X117750Y028472
X115585Y041701
X115585Y040047
X115585Y038394
X115585Y036740
X115585Y035087
X115585Y033433
X115585Y031780
X115585Y030126
X115585Y028472
T254
X059494Y027197
X059494Y028772
X059494Y033697
X059494Y035272
T255
X057000Y041490
X059000Y041490
X061000Y041490
X063000Y041490
X057250Y055740
X057250Y057740
X057250Y059740
X057250Y061740
T256
X103380Y026920
X098640Y026920
T258
X118000Y024990
X118000Y062740
X114000Y060240
X114000Y053240
X053750Y024990
X063750Y053240
X053750Y062740
X063750Y060240
M30
