G04 start of page 9 for group -4078 idx -4078 *
G04 Title: (unknown), bottomsilk *
G04 Creator: pcb 20110918 *
G04 CreationDate: Thu 19 Dec 2013 05:48:54 PM GMT UTC *
G04 For: main-user *
G04 Format: Gerber/RS-274X *
G04 PCB-Dimensions: 1574803 787402 *
G04 PCB-Coordinate-Origin: lower left *
%MOIN*%
%FSLAX25Y25*%
%LNBOTTOMSILK*%
%ADD296C,0.0050*%
%ADD295C,0.0200*%
%ADD294C,0.0100*%
G54D294*X953760Y302599D02*Y252205D01*
X924232Y302599D02*X953760D01*
X924232D02*Y252205D01*
X953760D01*
G54D295*X919311Y251418D02*G75*G03X919311Y251418I0J0D01*G01*
G54D296*X914496Y297402D02*X917996D01*
X914496D02*X913996Y297902D01*
Y298902D01*
X914496Y299402D01*
X917996D01*
X914496Y300602D02*X913996Y301102D01*
X914496Y300602D02*X915496D01*
X915996Y301102D01*
Y302102D01*
X915496Y302602D01*
X914496D02*X915496D01*
X913996Y302102D02*X914496Y302602D01*
X913996Y301102D02*Y302102D01*
X916496Y300602D02*X915996Y301102D01*
X916496Y300602D02*X917496D01*
X917996Y301102D01*
Y302102D01*
X917496Y302602D01*
X916496D02*X917496D01*
X915996Y302102D02*X916496Y302602D01*
M02*
