G04 start of page 8 for group -4079 idx -4079 *
G04 Title: (unknown), topsilk *
G04 Creator: pcb 20110918 *
G04 CreationDate: Thu 19 Dec 2013 05:48:54 PM GMT UTC *
G04 For: main-user *
G04 Format: Gerber/RS-274X *
G04 PCB-Dimensions: 1574803 787402 *
G04 PCB-Coordinate-Origin: lower left *
%MOIN*%
%FSLAX25Y25*%
%LNTOPSILK*%
%ADD293C,0.0080*%
%ADD292C,0.0060*%
%ADD291C,0.0100*%
%ADD290C,0.0063*%
%ADD289C,0.0057*%
%ADD288C,0.0050*%
G54D288*X528950Y584297D02*Y582482D01*
X529555Y584902D02*X528950Y584297D01*
X529555Y584902D02*X533185D01*
X533790Y584297D01*
Y582482D01*
X528950Y580425D02*X530765D01*
X531370Y579820D01*
Y578610D01*
Y581030D02*X530765Y580425D01*
X528950Y576553D02*Y574738D01*
X529555Y577158D02*X528950Y576553D01*
X529555Y577158D02*X530765D01*
X531370Y576553D01*
Y575343D01*
X530765Y574738D01*
X530160Y577158D02*Y574738D01*
X530765D01*
X531370Y571471D02*X530765Y570866D01*
X531370Y572681D02*Y571471D01*
X530765Y573286D02*X531370Y572681D01*
X529555Y573286D02*X530765D01*
X529555D02*X528950Y572681D01*
X529555Y570866D02*X531370D01*
X529555D02*X528950Y570261D01*
Y572681D02*Y571471D01*
X529555Y570866D01*
Y568204D02*X533790D01*
X529555D02*X528950Y567599D01*
X531975Y568809D02*Y567599D01*
Y566389D02*X532580D01*
X528950D02*X530765D01*
X530160Y565179D02*X531370D01*
X530160D02*X528950Y563969D01*
X530160Y562759D01*
X531370D01*
X528950Y560702D02*Y558887D01*
X529555Y561307D02*X528950Y560702D01*
X529555Y561307D02*X530765D01*
X531370Y560702D01*
Y559492D01*
X530765Y558887D01*
X530160Y561307D02*Y558887D01*
X530765D01*
X528950Y554652D02*Y552837D01*
X529555Y555257D02*X528950Y554652D01*
X529555Y555257D02*X533185D01*
X533790Y554652D01*
Y552837D01*
X529555Y551385D02*X530765D01*
X531370Y550780D01*
Y549570D01*
X530765Y548965D01*
X529555D02*X530765D01*
X528950Y549570D02*X529555Y548965D01*
X528950Y550780D02*Y549570D01*
X529555Y551385D02*X528950Y550780D01*
Y546908D02*X530765D01*
X531370Y546303D01*
Y545698D01*
X530765Y545093D01*
X528950D02*X530765D01*
X531370Y544488D01*
Y543883D01*
X530765Y543278D01*
X528950D02*X530765D01*
X531370Y547513D02*X530765Y546908D01*
X528950Y541221D02*X530765D01*
X531370Y540616D01*
Y540011D01*
X530765Y539406D01*
X528950D02*X530765D01*
X531370Y538801D01*
Y538196D01*
X530765Y537591D01*
X528950D02*X530765D01*
X531370Y541826D02*X530765Y541221D01*
X529555Y536139D02*X530765D01*
X531370Y535534D01*
Y534324D01*
X530765Y533719D01*
X529555D02*X530765D01*
X528950Y534324D02*X529555Y533719D01*
X528950Y535534D02*Y534324D01*
X529555Y536139D02*X528950Y535534D01*
Y531662D02*X530765D01*
X531370Y531057D01*
Y530452D01*
X530765Y529847D01*
X528950D02*X530765D01*
X531370Y532267D02*X530765Y531662D01*
X528950Y527790D02*Y525975D01*
X529555Y525370D01*
X530160Y525975D02*X529555Y525370D01*
X530160Y527790D02*Y525975D01*
X530765Y528395D02*X530160Y527790D01*
X530765Y528395D02*X531370Y527790D01*
Y525975D01*
X530765Y525370D01*
X529555Y528395D02*X528950Y527790D01*
Y521740D02*Y519320D01*
X529555Y518715D01*
X530765D01*
X531370Y519320D02*X530765Y518715D01*
X531370Y521135D02*Y519320D01*
X528950Y521135D02*X533790D01*
Y521740D02*Y519320D01*
X533185Y518715D01*
X531975D02*X533185D01*
X531370Y519320D02*X531975Y518715D01*
X533185Y517263D02*X533790D01*
X533185D02*X531975Y516053D01*
X533185Y514843D01*
X533790D01*
X528950Y516053D02*X531975D01*
X531370Y513391D02*Y510971D01*
X528950Y509519D02*X533790D01*
X533185D02*X533790D01*
X533185D02*X530160Y506494D01*
X528950D02*X533790D01*
X528950Y504437D02*Y502622D01*
X529555Y505042D02*X528950Y504437D01*
X529555Y505042D02*X533185D01*
X533790Y504437D01*
Y502622D01*
X531370Y501170D02*Y498750D01*
X533790Y494878D02*X533185Y494273D01*
X533790Y496693D02*Y494878D01*
X533185Y497298D02*X533790Y496693D01*
X531975Y497298D02*X533185D01*
X531975D02*X531370Y496693D01*
Y494878D01*
X530765Y494273D01*
X529555D02*X530765D01*
X528950Y494878D02*X529555Y494273D01*
X528950Y496693D02*Y494878D01*
X529555Y497298D02*X528950Y496693D01*
Y492821D02*X533185D01*
X533790Y492216D01*
Y490401D01*
X533185Y489796D01*
X528950D02*X533185D01*
X531370Y492821D02*Y489796D01*
X533185Y486166D02*X533790Y485561D01*
Y484351D01*
X533185Y483746D01*
X529555D02*X533185D01*
X528950Y484351D02*X529555Y483746D01*
X528950Y485561D02*Y484351D01*
X529555Y486166D02*X528950Y485561D01*
X531370D02*Y483746D01*
X528950Y482294D02*Y481689D01*
X529555Y480237D02*X528950Y479632D01*
X529555Y480237D02*X533185D01*
X533790Y479632D01*
Y478422D01*
X533185Y477817D01*
X529555D02*X533185D01*
X528950Y478422D02*X529555Y477817D01*
X528950Y479632D02*Y478422D01*
X530160Y480237D02*X532580Y477817D01*
X528950Y474187D02*X533790D01*
X528950D02*Y471767D01*
X531975Y470315D02*X532580D01*
X528950D02*X530765D01*
X531370Y468500D02*Y466685D01*
X530765Y469105D02*X531370Y468500D01*
X529555Y469105D02*X530765D01*
X529555D02*X528950Y468500D01*
Y466685D01*
Y464628D02*Y462813D01*
X529555Y465233D02*X528950Y464628D01*
X529555Y465233D02*X530765D01*
X531370Y464628D01*
Y463418D01*
X530765Y462813D01*
X530160Y465233D02*Y462813D01*
X530765D01*
X528950Y460756D02*X530765D01*
X531370Y460151D01*
Y459546D01*
X530765Y458941D01*
X528950D02*X530765D01*
X531370Y461361D02*X530765Y460756D01*
X531370Y456884D02*Y455069D01*
X530765Y457489D02*X531370Y456884D01*
X529555Y457489D02*X530765D01*
X529555D02*X528950Y456884D01*
Y455069D01*
Y453012D02*Y451197D01*
X529555Y453617D02*X528950Y453012D01*
X529555Y453617D02*X530765D01*
X531370Y453012D01*
Y451802D01*
X530765Y451197D01*
X530160Y453617D02*Y451197D01*
X530765D01*
X528950Y442402D02*X533790D01*
X530765D02*X531370Y441797D01*
Y440587D01*
X530765Y439982D01*
X528950D02*X530765D01*
X529555Y437925D02*X533790D01*
X529555D02*X528950Y437320D01*
X531975Y438530D02*Y437320D01*
X529555Y435505D02*X533790D01*
X529555D02*X528950Y434900D01*
X531975Y436110D02*Y434900D01*
X527135Y433085D02*X530765D01*
X531370Y433690D02*X530765Y433085D01*
X531370Y432480D01*
Y431270D01*
X530765Y430665D01*
X529555D02*X530765D01*
X528950Y431270D02*X529555Y430665D01*
X528950Y432480D02*Y431270D01*
X529555Y433085D02*X528950Y432480D01*
X531975Y429213D02*Y428608D01*
X530765Y429213D02*Y428608D01*
X529555Y427156D02*X533185Y423526D01*
X529555Y422074D02*X533185Y418444D01*
X528950Y416387D02*X530765D01*
X531370Y415782D01*
Y414572D01*
Y416992D02*X530765Y416387D01*
X528950Y412515D02*Y410700D01*
X529555Y413120D02*X528950Y412515D01*
X529555Y413120D02*X530765D01*
X531370Y412515D01*
Y411305D01*
X530765Y410700D01*
X530160Y413120D02*Y410700D01*
X530765D01*
X527135Y408643D02*X530765D01*
X531370Y409248D02*X530765Y408643D01*
X531370Y408038D01*
Y406828D01*
X530765Y406223D01*
X529555D02*X530765D01*
X528950Y406828D02*X529555Y406223D01*
X528950Y408038D02*Y406828D01*
X529555Y408643D02*X528950Y408038D01*
Y404166D02*X530765D01*
X531370Y403561D01*
Y402351D01*
Y404771D02*X530765Y404166D01*
X531370Y399084D02*X530765Y398479D01*
X531370Y400294D02*Y399084D01*
X530765Y400899D02*X531370Y400294D01*
X529555Y400899D02*X530765D01*
X529555D02*X528950Y400294D01*
X529555Y398479D02*X531370D01*
X529555D02*X528950Y397874D01*
Y400294D02*Y399084D01*
X529555Y398479D01*
X527135Y395817D02*X530765D01*
X531370Y396422D02*X530765Y395817D01*
X531370Y395212D01*
Y394002D01*
X530765Y393397D01*
X529555D02*X530765D01*
X528950Y394002D02*X529555Y393397D01*
X528950Y395212D02*Y394002D01*
X529555Y395817D02*X528950Y395212D01*
Y391945D02*Y391340D01*
X529555Y389888D02*X530765D01*
X531370Y389283D01*
Y388073D01*
X530765Y387468D01*
X529555D02*X530765D01*
X528950Y388073D02*X529555Y387468D01*
X528950Y389283D02*Y388073D01*
X529555Y389888D02*X528950Y389283D01*
Y385411D02*X530765D01*
X531370Y384806D01*
Y383596D01*
Y386016D02*X530765Y385411D01*
X531370Y380329D02*X530765Y379724D01*
X531370Y381539D02*Y380329D01*
X530765Y382144D02*X531370Y381539D01*
X529555Y382144D02*X530765D01*
X529555D02*X528950Y381539D01*
Y380329D01*
X529555Y379724D01*
X527740Y382144D02*X527135Y381539D01*
Y380329D01*
X527740Y379724D01*
X531370D01*
X529555Y378272D02*X533185Y374642D01*
X529555Y373190D02*X531370D01*
X529555D02*X528950Y372585D01*
Y371980D01*
X529555Y371375D01*
X531370D01*
X529555D02*X528950Y370770D01*
Y370165D01*
X529555Y369560D01*
X531370D01*
X531975Y368108D02*X532580D01*
X528950D02*X530765D01*
X528950Y366898D02*X533790D01*
X530765D02*X528950Y365083D01*
X530765Y366898D02*X531975Y365688D01*
Y363631D02*X532580D01*
X528950D02*X530765D01*
X529555Y362421D02*X533185Y358791D01*
X533790Y354919D02*X533185Y354314D01*
X533790Y356734D02*Y354919D01*
X533185Y357339D02*X533790Y356734D01*
X529555Y357339D02*X533185D01*
X529555D02*X528950Y356734D01*
Y354919D01*
X529555Y354314D01*
X530765D01*
X531370Y354919D02*X530765Y354314D01*
X531370Y356129D02*Y354919D01*
X528950Y352257D02*Y350442D01*
X529555Y352862D02*X528950Y352257D01*
X529555Y352862D02*X530765D01*
X531370Y352257D01*
Y351047D01*
X530765Y350442D01*
X530160Y352862D02*Y350442D01*
X530765D01*
X528950Y348385D02*X530765D01*
X531370Y347780D01*
Y347175D01*
X530765Y346570D01*
X528950D02*X530765D01*
X531370Y348990D02*X530765Y348385D01*
X528950Y344513D02*Y342698D01*
X529555Y345118D02*X528950Y344513D01*
X529555Y345118D02*X530765D01*
X531370Y344513D01*
Y343303D01*
X530765Y342698D01*
X530160Y345118D02*Y342698D01*
X530765D01*
X528950Y340641D02*X530765D01*
X531370Y340036D01*
Y338826D01*
Y341246D02*X530765Y340641D01*
X531370Y335559D02*X530765Y334954D01*
X531370Y336769D02*Y335559D01*
X530765Y337374D02*X531370Y336769D01*
X529555Y337374D02*X530765D01*
X529555D02*X528950Y336769D01*
X529555Y334954D02*X531370D01*
X529555D02*X528950Y334349D01*
Y336769D02*Y335559D01*
X529555Y334954D01*
Y332292D02*X533790D01*
X529555D02*X528950Y331687D01*
X531975Y332897D02*Y331687D01*
Y330477D02*X532580D01*
X528950D02*X530765D01*
X529555Y329267D02*X530765D01*
X531370Y328662D01*
Y327452D01*
X530765Y326847D01*
X529555D02*X530765D01*
X528950Y327452D02*X529555Y326847D01*
X528950Y328662D02*Y327452D01*
X529555Y329267D02*X528950Y328662D01*
Y324790D02*X530765D01*
X531370Y324185D01*
Y323580D01*
X530765Y322975D01*
X528950D02*X530765D01*
X531370Y325395D02*X530765Y324790D01*
X528950Y321523D02*Y319103D01*
Y317651D02*X531975Y314626D01*
X533790D01*
Y317651D02*Y314626D01*
X528950Y313174D02*Y310754D01*
X531370Y309302D02*Y307487D01*
X528950Y309302D02*Y306882D01*
Y309302D02*X533790D01*
Y306882D01*
X529555Y305430D02*X533790D01*
X529555D02*X528950Y304825D01*
Y303010D02*Y301195D01*
X529555Y303615D02*X528950Y303010D01*
X529555Y303615D02*X530765D01*
X531370Y303010D01*
Y301800D01*
X530765Y301195D01*
X530160Y303615D02*Y301195D01*
X530765D01*
X531370Y299138D02*Y297323D01*
X530765Y299743D02*X531370Y299138D01*
X529555Y299743D02*X530765D01*
X529555D02*X528950Y299138D01*
Y297323D01*
X529555Y295266D02*X533790D01*
X529555D02*X528950Y294661D01*
X531975Y295871D02*Y294661D01*
X528950Y292846D02*X530765D01*
X531370Y292241D01*
Y291031D01*
Y293451D02*X530765Y292846D01*
X529555Y289579D02*X530765D01*
X531370Y288974D01*
Y287764D01*
X530765Y287159D01*
X529555D02*X530765D01*
X528950Y287764D02*X529555Y287159D01*
X528950Y288974D02*Y287764D01*
X529555Y289579D02*X528950Y288974D01*
Y285102D02*X530765D01*
X531370Y284497D01*
Y283892D01*
X530765Y283287D01*
X528950D02*X530765D01*
X531370Y285707D02*X530765Y285102D01*
X531975Y281835D02*X532580D01*
X528950D02*X530765D01*
X531370Y280020D02*Y278205D01*
X530765Y280625D02*X531370Y280020D01*
X529555Y280625D02*X530765D01*
X529555D02*X528950Y280020D01*
Y278205D01*
Y276148D02*Y274333D01*
X529555Y273728D01*
X530160Y274333D02*X529555Y273728D01*
X530160Y276148D02*Y274333D01*
X530765Y276753D02*X530160Y276148D01*
X530765Y276753D02*X531370Y276148D01*
Y274333D01*
X530765Y273728D01*
X529555Y276753D02*X528950Y276148D01*
G54D289*X777559Y640031D02*Y639316D01*
X778989Y637886D01*
X780419Y639316D01*
Y640031D02*Y639316D01*
X778989Y637886D02*Y634311D01*
X782135Y637171D02*X784995D01*
X786711Y639316D02*Y634311D01*
Y639316D02*X787426Y640031D01*
X789571D01*
X790286Y639316D01*
Y634311D01*
X786711Y637171D02*X790286D01*
X792002D02*X794862Y634311D01*
X792002D02*X794862Y637171D01*
X796578Y638601D02*Y637886D01*
Y636456D02*Y634311D01*
X798723D02*X800868D01*
X801583Y635026D01*
X800868Y635741D02*X801583Y635026D01*
X798723Y635741D02*X800868D01*
X798008Y636456D02*X798723Y635741D01*
X798008Y636456D02*X798723Y637171D01*
X800868D01*
X801583Y636456D01*
X798008Y635026D02*X798723Y634311D01*
X870059Y640031D02*X873634D01*
Y639316D01*
X870059Y635741D02*X873634Y639316D01*
X870059Y635741D02*Y634311D01*
X873634D01*
X875350Y637171D02*X878210D01*
X879926Y639316D02*Y634311D01*
Y639316D02*X880641Y640031D01*
X882786D01*
X883501Y639316D01*
Y634311D01*
X879926Y637171D02*X883501D01*
X885217D02*X888077Y634311D01*
X885217D02*X888077Y637171D01*
X889793Y638601D02*Y637886D01*
Y636456D02*Y634311D01*
X891938D02*X894083D01*
X894798Y635026D01*
X894083Y635741D02*X894798Y635026D01*
X891938Y635741D02*X894083D01*
X891223Y636456D02*X891938Y635741D01*
X891223Y636456D02*X891938Y637171D01*
X894083D01*
X894798Y636456D01*
X891223Y635026D02*X891938Y634311D01*
X685059Y640031D02*Y639316D01*
X688634Y635741D01*
Y634311D01*
X685059Y635741D02*Y634311D01*
Y635741D02*X688634Y639316D01*
Y640031D02*Y639316D01*
X690350Y637171D02*X693210D01*
X694926Y639316D02*Y634311D01*
Y639316D02*X695641Y640031D01*
X697786D01*
X698501Y639316D01*
Y634311D01*
X694926Y637171D02*X698501D01*
X700217D02*X703077Y634311D01*
X700217D02*X703077Y637171D01*
X704793Y638601D02*Y637886D01*
Y636456D02*Y634311D01*
X706938D02*X709083D01*
X709798Y635026D01*
X709083Y635741D02*X709798Y635026D01*
X706938Y635741D02*X709083D01*
X706223Y636456D02*X706938Y635741D01*
X706223Y636456D02*X706938Y637171D01*
X709083D01*
X709798Y636456D01*
X706223Y635026D02*X706938Y634311D01*
X1068930Y272762D02*X1069645Y273477D01*
X1068930Y272762D02*Y270617D01*
X1069645Y269902D02*X1068930Y270617D01*
X1069645Y269902D02*X1071075D01*
X1071790Y270617D01*
Y272762D02*Y270617D01*
Y272762D02*X1072505Y273477D01*
X1073935D01*
X1074650Y272762D02*X1073935Y273477D01*
X1074650Y272762D02*Y270617D01*
X1073935Y269902D02*X1074650Y270617D01*
X1068930Y275908D02*X1073935D01*
X1074650Y276623D01*
X1071075D02*Y275193D01*
X1071790Y280198D02*X1072505Y280913D01*
X1071790Y280198D02*Y278768D01*
X1072505Y278053D02*X1071790Y278768D01*
X1072505Y278053D02*X1073935D01*
X1074650Y278768D01*
X1071790Y280913D02*X1073935D01*
X1074650Y281628D01*
Y280198D02*Y278768D01*
Y280198D02*X1073935Y280913D01*
X1072505Y284059D02*X1074650D01*
X1072505D02*X1071790Y284774D01*
Y285489D02*Y284774D01*
Y285489D02*X1072505Y286204D01*
X1074650D01*
X1071790Y283344D02*X1072505Y284059D01*
X1068930Y290780D02*X1074650D01*
Y290065D02*X1073935Y290780D01*
X1074650Y290065D02*Y288635D01*
X1073935Y287920D02*X1074650Y288635D01*
X1072505Y287920D02*X1073935D01*
X1072505D02*X1071790Y288635D01*
Y290065D02*Y288635D01*
Y290065D02*X1072505Y290780D01*
X1068930Y292496D02*X1074650D01*
X1073935D02*X1074650Y293211D01*
Y294641D02*Y293211D01*
Y294641D02*X1073935Y295356D01*
X1072505D02*X1073935D01*
X1071790Y294641D02*X1072505Y295356D01*
X1071790Y294641D02*Y293211D01*
X1072505Y292496D02*X1071790Y293211D01*
Y297072D02*X1073935D01*
X1074650Y297787D01*
X1071790Y299932D02*X1076080D01*
X1076795Y299217D02*X1076080Y299932D01*
X1076795Y299217D02*Y297787D01*
X1076080Y297072D02*X1076795Y297787D01*
X1074650Y299217D02*Y297787D01*
Y299217D02*X1073935Y299932D01*
X1061500Y236612D02*X1064360D01*
X1062930Y238042D02*Y235182D01*
X1066076Y239472D02*X1068936D01*
X1066076D02*Y236612D01*
X1066791Y237327D01*
X1068221D01*
X1068936Y236612D01*
Y234467D01*
X1068221Y233752D02*X1068936Y234467D01*
X1066791Y233752D02*X1068221D01*
X1066076Y234467D02*X1066791Y233752D01*
X1073226Y239472D02*Y235182D01*
X1074656Y233752D01*
X1076086Y235182D01*
Y239472D02*Y235182D01*
X957559Y637171D02*X959704D01*
X957559Y634311D02*X960419D01*
X957559Y640031D02*Y634311D01*
Y640031D02*X960419D01*
X962135Y637171D02*X964995Y634311D01*
X962135D02*X964995Y637171D01*
X967426Y640031D02*Y635026D01*
X968141Y634311D01*
X966711Y637886D02*X968141D01*
X970286Y636456D02*Y634311D01*
Y636456D02*X971001Y637171D01*
X972431D01*
X969571D02*X970286Y636456D01*
X974147Y637171D02*Y635026D01*
X974862Y634311D01*
X976292D01*
X977007Y635026D01*
Y637171D02*Y635026D01*
X981583Y640031D02*Y634311D01*
X980868D02*X981583Y635026D01*
X979438Y634311D02*X980868D01*
X978723Y635026D02*X979438Y634311D01*
X978723Y636456D02*Y635026D01*
Y636456D02*X979438Y637171D01*
X980868D01*
X981583Y636456D01*
X984014Y634311D02*X986159D01*
X983299Y635026D02*X984014Y634311D01*
X983299Y636456D02*Y635026D01*
Y636456D02*X984014Y637171D01*
X985444D01*
X986159Y636456D01*
X983299Y635741D02*X986159D01*
Y636456D02*Y635741D01*
X988590Y636456D02*Y634311D01*
Y636456D02*X989305Y637171D01*
X990735D01*
X987875D02*X988590Y636456D01*
G54D290*X1115000Y635812D02*X1118180D01*
X1115000D02*Y632632D01*
X1115795Y633427D01*
X1117385D01*
X1118180Y632632D01*
Y630247D01*
X1117385Y629452D02*X1118180Y630247D01*
X1115795Y629452D02*X1117385D01*
X1115000Y630247D02*X1115795Y629452D01*
X1120088Y635812D02*Y631042D01*
X1121678Y629452D01*
X1123268Y631042D01*
Y635812D02*Y631042D01*
X1128038Y635812D02*Y629452D01*
Y635812D02*X1131218D01*
X1128038Y632632D02*X1130423D01*
X1133126Y635017D02*Y629452D01*
Y635017D02*X1133921Y635812D01*
X1136306D01*
X1137101Y635017D01*
Y629452D01*
X1133126Y632632D02*X1137101D01*
X1139009Y635812D02*Y629452D01*
Y635812D02*Y635017D01*
X1142984Y631042D01*
Y635812D02*Y629452D01*
G54D291*X802500Y452402D02*Y444902D01*
Y474902D02*Y467402D01*
X798500Y452402D02*X806500D01*
X798500Y467402D02*X806500D01*
X798500D02*Y452402D01*
X806500Y467402D02*Y452402D01*
X815000Y444902D02*Y437402D01*
Y467402D02*Y459902D01*
X811000Y444902D02*X819000D01*
X811000Y459902D02*X819000D01*
X811000D02*Y444902D01*
X819000Y459902D02*Y444902D01*
X805000Y379902D02*Y384902D01*
Y379902D02*X800000D01*
X745000D02*Y384902D01*
Y379902D02*X750000D01*
X805000Y409902D02*Y404902D01*
Y409902D02*X800000D01*
X745000D02*Y404902D01*
Y409902D02*X750000D01*
X790000Y404902D02*Y384902D01*
X760000Y404902D02*Y384902D01*
X790000D01*
X760000Y404902D02*X790000D01*
X797500Y272402D02*Y242402D01*
X777500Y272402D02*X802500D01*
X777500Y242402D02*X802500D01*
Y272402D02*Y242402D01*
X777500Y272402D02*Y242402D01*
X770000Y519902D02*X780000D01*
Y529902D02*X770000D01*
X780000Y509902D02*Y529902D01*
X770000Y509902D02*X780000D01*
X770000Y529902D02*Y509902D01*
X750000Y537402D02*X830000D01*
X750000Y597402D02*Y537402D01*
Y597402D02*X830000D01*
Y537402D01*
G54D292*X770059Y609961D02*X810059D01*
G54D291*Y629961D02*Y604961D01*
X770059Y629961D02*Y604961D01*
X810059D01*
X770059Y629961D02*X810059D01*
X780000Y519902D02*X790000D01*
Y529902D02*X780000D01*
X790000Y509902D02*Y529902D01*
X780000Y509902D02*X790000D01*
X780000Y529902D02*Y509902D01*
X745000Y272402D02*Y242402D01*
X725000Y272402D02*X750000D01*
X725000Y242402D02*X750000D01*
Y272402D02*Y242402D01*
X725000Y272402D02*Y242402D01*
X682500Y292402D02*X690000D01*
X705000D02*X712500D01*
X690000Y296402D02*Y288402D01*
X705000Y296402D02*Y288402D01*
X690000Y296402D02*X705000D01*
X690000Y288402D02*X705000D01*
X634000Y361902D02*Y357902D01*
X632000Y359902D02*X636000D01*
X623328Y359074D02*G75*G03X623328Y350730I4172J-4172D01*G01*
X631672Y350730D02*G75*G03X633310Y355927I-4172J4172D01*G01*
X621914Y360488D02*G75*G03X621914Y349316I5586J-5586D01*G01*
X633086Y349316D02*G75*G03X635280Y356274I-5586J5586D01*G01*
X602791Y367143D02*Y363143D01*
Y326543D02*Y322543D01*
X572091Y367143D02*X604941D01*
X572091Y322543D02*X604941D01*
Y367143D02*Y322543D01*
X572091Y367143D02*Y322543D01*
X611541Y360591D02*X616541D01*
X611541Y329095D02*X616541D01*
Y360591D02*Y355591D01*
Y334095D02*Y329095D01*
X573341Y360591D02*X604941D01*
X573341Y329095D02*X604941D01*
X573341Y360591D02*Y329095D01*
X602791Y302143D02*Y298143D01*
Y261543D02*Y257543D01*
X572091Y302143D02*X604941D01*
X572091Y257543D02*X604941D01*
Y302143D02*Y257543D01*
X572091Y302143D02*Y257543D01*
X611541Y295591D02*X616541D01*
X611541Y264095D02*X616541D01*
Y295591D02*Y290591D01*
Y269095D02*Y264095D01*
X573341Y295591D02*X604941D01*
X573341Y264095D02*X604941D01*
X573341Y295591D02*Y264095D01*
X573300Y319002D02*Y305802D01*
X586700D02*X573300Y312402D01*
X586700Y319002D02*Y305802D01*
X573300Y312402D02*X586700Y319002D01*
Y312402D02*X600000D01*
X560000D02*X573300D01*
X634000Y296902D02*Y292902D01*
X632000Y294902D02*X636000D01*
X623328Y294074D02*G75*G03X623328Y285730I4172J-4172D01*G01*
X631672Y285730D02*G75*G03X633310Y290927I-4172J4172D01*G01*
X621914Y295488D02*G75*G03X621914Y284316I5586J-5586D01*G01*
X633086Y284316D02*G75*G03X635280Y291274I-5586J5586D01*G01*
X610000Y314902D02*X617500D01*
X632500D02*X640000D01*
X617500Y318902D02*Y310902D01*
X632500Y318902D02*Y310902D01*
X617500Y318902D02*X632500D01*
X617500Y310902D02*X632500D01*
X610000Y379902D02*X617500D01*
X632500D02*X640000D01*
X617500Y383902D02*Y375902D01*
X632500Y383902D02*Y375902D01*
X617500Y383902D02*X632500D01*
X617500Y375902D02*X632500D01*
X645800Y405602D02*X638800Y398602D01*
X554200Y405602D02*X561200Y398602D01*
X638800D01*
X554200Y431202D02*X645800D01*
Y405602D01*
X554200Y431202D02*Y405602D01*
X573300Y384002D02*Y370802D01*
X586700D02*X573300Y377402D01*
X586700Y384002D02*Y370802D01*
X573300Y377402D02*X586700Y384002D01*
Y377402D02*X600000D01*
X560000D02*X573300D01*
X639840Y367402D02*Y327402D01*
X652590Y367402D02*Y327402D01*
X657590Y367402D02*Y327402D01*
X639840D02*X657590D01*
X639840Y367402D02*X657590D01*
X639840Y302402D02*Y262402D01*
X652590Y302402D02*Y262402D01*
X657590Y302402D02*Y262402D01*
X639840D02*X657590D01*
X639840Y302402D02*X657590D01*
X671500Y438702D02*X675500D01*
X673500Y440702D02*Y436702D01*
X667500Y447602D02*G75*G03X667500Y447602I0J-15800D01*G01*
X687500Y357402D02*X695000D01*
X710000D02*X717500D01*
X695000Y361402D02*Y353402D01*
X710000Y361402D02*Y353402D01*
X695000Y361402D02*X710000D01*
X695000Y353402D02*X710000D01*
X575000Y467402D02*Y447402D01*
X555000Y467402D02*X580000D01*
X555000Y447402D02*X580000D01*
Y467402D02*Y447402D01*
X555000Y467402D02*Y447402D01*
X599000Y460202D02*X602500D01*
X600500Y462202D02*Y458202D01*
X595000Y466102D02*G75*G03X595000Y466102I0J-9800D01*G01*
X575000Y494902D02*Y474902D01*
X555000Y494902D02*X580000D01*
X555000Y474902D02*X580000D01*
Y494902D02*Y474902D01*
X555000Y494902D02*Y474902D01*
X599000Y487702D02*X602500D01*
X600500Y489702D02*Y485702D01*
X595000Y493602D02*G75*G03X595000Y493602I0J-9800D01*G01*
X602000Y574902D02*X606000D01*
X604000Y576902D02*Y572902D01*
X610000Y566002D02*G75*G03X610000Y566002I0J15800D01*G01*
X657559Y537461D02*X737559D01*
X657559Y597461D02*Y537461D01*
Y597461D02*X737559D01*
Y537461D01*
X741559Y588461D02*Y571461D01*
Y588461D02*X748559D01*
Y571461D01*
X741559D02*X748559D01*
X649059Y585961D02*Y568961D01*
Y585961D02*X656059D01*
Y568961D01*
X649059D02*X656059D01*
X731559Y598961D02*X748559D01*
X731559Y605961D02*Y598961D01*
Y605961D02*X748559D01*
Y598961D01*
G54D292*X677559Y609961D02*X717559D01*
G54D291*Y629961D02*Y604961D01*
X677559Y629961D02*Y604961D01*
X717559D01*
X677559Y629961D02*X717559D01*
X581800Y633202D02*X588800Y626202D01*
X581800Y541602D02*X588800Y548602D01*
Y626202D02*Y548602D01*
X556200Y633202D02*Y541602D01*
Y633202D02*X581800D01*
X556200Y541602D02*X581800D01*
X687559Y519961D02*X697559D01*
Y529961D02*X687559D01*
X697559Y509961D02*Y529961D01*
X687559Y509961D02*X697559D01*
X687559Y529961D02*Y509961D01*
X677559Y519961D02*X687559D01*
Y529961D02*X677559D01*
X687559Y509961D02*Y529961D01*
X677559Y509961D02*X687559D01*
X677559Y529961D02*Y509961D01*
X739941Y517343D02*X747441D01*
X717441D02*X724941D01*
X739941Y521343D02*Y513343D01*
X724941Y521343D02*Y513343D01*
X739941D01*
X724941Y521343D02*X739941D01*
X956700Y404702D02*X981700D01*
X956700Y385102D02*X981700D01*
X956700Y404702D02*G75*G03X956700Y385102I0J-9800D01*G01*
X981700D02*G75*G03X981700Y404702I0J9800D01*G01*
X946500Y408902D02*X963500D01*
X946500Y415902D02*Y408902D01*
Y415902D02*X963500D01*
Y408902D01*
X911500Y415902D02*X928500D01*
Y408902D01*
X911500D01*
Y415902D01*
G54D292*X849000Y418902D02*X932500D01*
X849000D02*Y380902D01*
X932500Y418902D02*Y380902D01*
X849000D02*X932500D01*
X942500Y418902D02*X1026000D01*
Y380902D01*
X942500Y418902D02*Y380902D01*
X1026000D01*
G54D291*X837500Y364902D02*X1037500D01*
Y434902D02*Y364902D01*
X837500Y434902D02*X1037500D01*
X837500Y394902D02*Y364902D01*
Y434902D02*Y404902D01*
Y394902D02*G75*G03X837500Y404902I0J5000D01*G01*
G54D292*X1052500Y464902D02*Y446902D01*
Y410902D02*Y392902D01*
Y356902D02*Y338902D01*
Y302902D02*Y284902D01*
X817500Y464902D02*X841000D01*
X888000D02*X911500D01*
X958500D02*X982000D01*
X1029000D02*X1052500D01*
X817500D02*Y446902D01*
Y410902D02*Y392902D01*
Y356902D02*Y338902D01*
Y302902D02*Y284902D01*
X841000D01*
X888000D02*X911500D01*
X958500D02*X982000D01*
X1029000D02*X1052500D01*
G54D291*X1037500Y454902D02*Y444902D01*
X897500Y454902D02*X1037500D01*
X897500D02*Y444902D01*
X1037500D01*
Y334902D02*Y324902D01*
X897500Y334902D02*X1037500D01*
X897500D02*Y324902D01*
X1037500D01*
X877500Y319902D02*Y312402D01*
Y342402D02*Y334902D01*
X873500Y319902D02*X881500D01*
X873500Y334902D02*X881500D01*
X873500D02*Y319902D01*
X881500Y334902D02*Y319902D01*
X871500Y334902D02*Y319902D01*
X863500Y334902D02*Y319902D01*
Y334902D02*X871500D01*
X863500Y319902D02*X871500D01*
X867500Y342402D02*Y334902D01*
Y319902D02*Y312402D01*
X891500Y334902D02*Y319902D01*
X883500Y334902D02*Y319902D01*
Y334902D02*X891500D01*
X883500Y319902D02*X891500D01*
X887500Y342402D02*Y334902D01*
Y319902D02*Y312402D01*
X902000Y302402D02*X906000D01*
X904000Y304402D02*Y300402D01*
X903086Y291816D02*G75*G03X905280Y298774I-5586J5586D01*G01*
X891914Y302988D02*G75*G03X891914Y291816I5586J-5586D01*G01*
X901672Y293230D02*G75*G03X903310Y298427I-4172J4172D01*G01*
X893328Y301574D02*G75*G03X893328Y293230I4172J-4172D01*G01*
X882000Y302402D02*X886000D01*
X884000Y304402D02*Y300402D01*
X883086Y291816D02*G75*G03X885280Y298774I-5586J5586D01*G01*
X871914Y302988D02*G75*G03X871914Y291816I5586J-5586D01*G01*
X881672Y293230D02*G75*G03X883310Y298427I-4172J4172D01*G01*
X873328Y301574D02*G75*G03X873328Y293230I4172J-4172D01*G01*
X871500Y255902D02*X888500D01*
Y248902D01*
X871500D01*
Y255902D01*
Y265902D02*X888500D01*
Y258902D01*
X871500D01*
Y265902D01*
X890200Y274102D02*Y249102D01*
X909800Y274102D02*Y249102D01*
X890200D02*G75*G03X909800Y249102I9800J0D01*G01*
Y274102D02*G75*G03X890200Y274102I-9800J0D01*G01*
X842500Y272402D02*Y242402D01*
X822500Y272402D02*X847500D01*
X822500Y242402D02*X847500D01*
Y272402D02*Y242402D01*
X822500Y272402D02*Y242402D01*
X966000Y360902D02*Y343902D01*
X959000D02*X966000D01*
X959000Y360902D02*Y343902D01*
Y360902D02*X966000D01*
X956000D02*Y343902D01*
X949000D02*X956000D01*
X949000Y360902D02*Y343902D01*
Y360902D02*X956000D01*
X929000Y353902D02*X946000D01*
X929000Y360902D02*Y353902D01*
Y360902D02*X946000D01*
Y353902D01*
X1082500Y314902D02*Y304902D01*
X1072500Y314902D02*Y304902D01*
Y314902D02*X1092500D01*
Y304902D01*
X1072500D02*X1092500D01*
X1069000Y284402D02*Y280402D01*
X1067000Y282402D02*X1071000D01*
X1058328Y281574D02*G75*G03X1058328Y273230I4172J-4172D01*G01*
X1066672Y273230D02*G75*G03X1068310Y278427I-4172J4172D01*G01*
X1056914Y282988D02*G75*G03X1056914Y271816I5586J-5586D01*G01*
X1068086Y271816D02*G75*G03X1070280Y278774I-5586J5586D01*G01*
X1092500Y327402D02*Y317402D01*
X1082500Y327402D02*Y317402D01*
Y327402D02*X1102500D01*
Y317402D01*
X1082500D02*X1102500D01*
X1062500Y262402D02*X1070000D01*
X1085000D02*X1092500D01*
X1070000Y266402D02*Y258402D01*
X1085000Y266402D02*Y258402D01*
X1070000Y266402D02*X1085000D01*
X1070000Y258402D02*X1085000D01*
X1075500Y253902D02*X1079500D01*
X1077500Y255902D02*Y251902D01*
X1078328Y243230D02*G75*G03X1086672Y243230I4172J4172D01*G01*
X1086672Y251574D02*G75*G03X1081475Y253212I-4172J-4172D01*G01*
X1076914Y241816D02*G75*G03X1088086Y241816I5586J5586D01*G01*
X1088086Y252988D02*G75*G03X1081128Y255182I-5586J-5586D01*G01*
X1040000Y314902D02*Y307402D01*
Y292402D02*Y284902D01*
X1036000Y307402D02*X1044000D01*
X1036000Y292402D02*X1044000D01*
Y307402D02*Y292402D01*
X1036000Y307402D02*Y292402D01*
X1053500Y324902D02*X1061500D01*
Y349902D02*Y324902D01*
X1053500Y349902D02*X1061500D01*
X1053500D02*Y324902D01*
X1057500Y362402D02*Y349902D01*
Y324902D02*Y312402D01*
X1086200Y290402D02*Y286402D01*
X1084200Y288402D02*X1088200D01*
X1077300Y282402D02*G75*G03X1077300Y282402I15800J0D01*G01*
X1040000Y247402D02*X1047500D01*
X1062500D02*X1070000D01*
X1047500Y251402D02*Y243402D01*
X1062500Y251402D02*Y243402D01*
X1047500Y251402D02*X1062500D01*
X1047500Y243402D02*X1062500D01*
X1033800Y263202D02*Y228702D01*
X986400D02*X1033800D01*
X986400Y263202D02*Y228702D01*
X1033800Y292702D02*Y275202D01*
X986400Y292702D02*X1033800D01*
X986400D02*Y275202D01*
X1039800Y269202D02*G75*G03X1039800Y269202I-6000J0D01*G01*
X992400D02*G75*G03X992400Y269202I-6000J0D01*G01*
X971500Y303902D02*X988500D01*
X971500Y310902D02*Y303902D01*
Y310902D02*X988500D01*
Y303902D01*
X1001831Y320571D02*X1017579D01*
X1001831Y296949D02*X1017579D01*
X1022500Y312697D02*Y304823D01*
X998878Y312697D02*Y304823D01*
X1013642Y308760D02*G75*G03X1009705Y312697I-3937J0D01*G01*
X1009704Y304823D02*G75*G03X1013642Y308761I0J3938D01*G01*
X1005768Y308760D02*G75*G03X1009705Y304823I3937J0D01*G01*
Y312697D02*G75*G03X1005768Y308760I0J-3937D01*G01*
X966500Y291402D02*X983500D01*
X966500Y298402D02*Y291402D01*
Y298402D02*X983500D01*
Y291402D01*
X1146989Y477048D02*Y275080D01*
X1186359Y477048D02*Y275080D01*
X1146989D02*X1186359D01*
X1144234Y368979D02*X1146990D01*
X1144234Y382364D02*X1146990D01*
X1144234D02*Y368979D01*
X1146989Y477048D02*X1186359D01*
X1160600Y505402D02*Y501402D01*
X1158600Y503402D02*X1162600D01*
X1151700Y497402D02*G75*G03X1151700Y497402I15800J0D01*G01*
X1057500Y494902D02*X1077500D01*
X1057500D02*Y484902D01*
X1077500D01*
Y494902D02*Y484902D01*
X1067500Y494902D02*Y484902D01*
X1057500D02*X1077500D01*
X1057500D02*Y474902D01*
X1077500D01*
Y484902D02*Y474902D01*
X1067500Y484902D02*Y474902D01*
X1009000Y598902D02*X1026000D01*
X1009000Y605902D02*Y598902D01*
Y605902D02*X1026000D01*
Y598902D01*
X1101500D02*X1118500D01*
X1101500Y605902D02*Y598902D01*
Y605902D02*X1118500D01*
Y598902D01*
X1100000Y634902D02*Y614902D01*
X1110000D01*
Y634902D02*Y614902D01*
X1100000Y634902D02*X1110000D01*
X1100000Y624902D02*X1110000D01*
X1050000Y629902D02*X1090000D01*
X1050000Y604902D02*X1090000D01*
X1050000Y629902D02*Y604902D01*
X1090000Y629902D02*Y604902D01*
G54D292*X1050000Y609902D02*X1090000D01*
G54D291*X1093500Y522902D02*X1108500D01*
X1093500Y514902D02*X1108500D01*
X1093500Y522902D02*Y514902D01*
X1108500Y522902D02*Y514902D01*
X1086000Y518902D02*X1093500D01*
X1108500D02*X1116000D01*
X1060000Y529902D02*Y509902D01*
X1070000D01*
Y529902D01*
X1060000D01*
Y519902D02*X1070000D01*
X1050000Y529902D02*Y509902D01*
X1060000D01*
Y529902D01*
X1050000D01*
Y519902D02*X1060000D01*
X1030000Y537402D02*X1110000D01*
X1030000Y597402D02*Y537402D01*
Y597402D02*X1110000D01*
Y537402D01*
X935000D02*X1015000D01*
X935000Y597402D02*Y537402D01*
Y597402D02*X1015000D01*
Y537402D01*
X842500D02*X922500D01*
X842500Y597402D02*Y537402D01*
Y597402D02*X922500D01*
Y537402D01*
X1019000Y588402D02*Y571402D01*
Y588402D02*X1026000D01*
Y571402D01*
X1019000D02*X1026000D01*
X834059Y588461D02*Y571461D01*
Y588461D02*X841059D01*
Y571461D01*
X834059D02*X841059D01*
X926559Y588461D02*Y571461D01*
Y588461D02*X933559D01*
Y571461D01*
X926559D02*X933559D01*
X916500Y598902D02*X933500D01*
X916500Y605902D02*Y598902D01*
Y605902D02*X933500D01*
Y598902D01*
G54D292*X862559Y609961D02*X902559D01*
G54D291*Y629961D02*Y604961D01*
X862559Y629961D02*Y604961D01*
X902559D01*
X862559Y629961D02*X902559D01*
X824000Y598902D02*X841000D01*
X824000Y605902D02*Y598902D01*
Y605902D02*X841000D01*
Y598902D01*
X1000059Y523961D02*X1015059D01*
X1000059Y515961D02*X1015059D01*
X1000059Y523961D02*Y515961D01*
X1015059Y523961D02*Y515961D01*
X992559Y519961D02*X1000059D01*
X1015059D02*X1022559D01*
X955000Y519902D02*X965000D01*
Y529902D02*X955000D01*
X965000Y509902D02*Y529902D01*
X955000Y509902D02*X965000D01*
X955000Y529902D02*Y509902D01*
X965000Y519902D02*X975000D01*
Y529902D02*X965000D01*
X975000Y509902D02*Y529902D01*
X965000Y509902D02*X975000D01*
X965000Y529902D02*Y509902D01*
X862500Y519902D02*X872500D01*
Y529902D02*X862500D01*
X872500Y509902D02*Y529902D01*
X862500Y509902D02*X872500D01*
X862500Y529902D02*Y509902D01*
X872500Y519902D02*X882500D01*
Y529902D02*X872500D01*
X882500Y509902D02*Y529902D01*
X872500Y509902D02*X882500D01*
X872500Y529902D02*Y509902D01*
X925059Y514961D02*X932559D01*
X902559D02*X910059D01*
X925059Y518961D02*Y510961D01*
X910059Y518961D02*Y510961D01*
X925059D01*
X910059Y518961D02*X925059D01*
X832441Y514961D02*X839941D01*
X809941D02*X817441D01*
X832441Y518961D02*Y510961D01*
X817441Y518961D02*Y510961D01*
X832441D01*
X817441Y518961D02*X832441D01*
G54D292*X955059Y609961D02*X995059D01*
G54D291*Y629961D02*Y604961D01*
X955059Y629961D02*Y604961D01*
X995059D01*
X955059Y629961D02*X995059D01*
G54D288*X904500Y250452D02*X908000D01*
X908500Y250952D01*
Y251952D02*Y250952D01*
Y251952D02*X908000Y252452D01*
X904500D02*X908000D01*
X908500Y253652D02*X906000Y256152D01*
X904500D02*X906000D01*
X904500D02*Y253652D01*
X825000Y238902D02*X827500D01*
Y238402D01*
X825000Y235902D02*X827500Y238402D01*
X825000Y235902D02*Y234902D01*
X827500D01*
X828700D02*X830700D01*
X831900Y238902D02*Y234902D01*
Y238902D02*X833400Y237402D01*
X834900Y238902D01*
Y234902D01*
X836100Y238902D02*X837100D01*
X836600D02*Y234902D01*
X836100D02*X837100D01*
X838300Y238902D02*Y234902D01*
Y238902D02*Y238402D01*
X840800Y235902D01*
Y238902D02*Y234902D01*
X727500Y238902D02*Y238402D01*
X730000Y235902D01*
Y234902D01*
X727500Y235902D02*Y234902D01*
Y235902D02*X730000Y238402D01*
Y238902D02*Y238402D01*
X731200Y234902D02*X733200D01*
X734400Y238902D02*Y234902D01*
Y238902D02*X735900Y237402D01*
X737400Y238902D01*
Y234902D01*
X738600Y238902D02*X739600D01*
X739100D02*Y234902D01*
X738600D02*X739600D01*
X740800Y238902D02*Y234902D01*
Y238902D02*Y238402D01*
X743300Y235902D01*
Y238902D02*Y234902D01*
X780000Y238902D02*Y238402D01*
X781000Y237402D01*
X782000Y238402D01*
Y238902D02*Y238402D01*
X781000Y237402D02*Y234902D01*
X783200D02*X785200D01*
X786400Y238902D02*Y234902D01*
Y238902D02*X787900Y237402D01*
X789400Y238902D01*
Y234902D01*
X790600Y238902D02*X791600D01*
X791100D02*Y234902D01*
X790600D02*X791600D01*
X792800Y238902D02*Y234902D01*
Y238902D02*Y238402D01*
X795300Y235902D01*
Y238902D02*Y234902D01*
X697500Y359402D02*X699500D01*
X700000Y358902D01*
Y357902D01*
X699500Y357402D02*X700000Y357902D01*
X698000Y357402D02*X699500D01*
X698000Y359402D02*Y355402D01*
Y357402D02*X700000Y355402D01*
X701700D02*X702700D01*
X702200Y359402D02*Y355402D01*
X701200Y358402D02*X702200Y359402D01*
X704400Y355402D02*X705400D01*
X704900Y359402D02*Y355402D01*
X703900Y358402D02*X704900Y359402D01*
X633000Y269902D02*X636000D01*
X636500Y269402D01*
Y268402D01*
X636000Y267902D01*
X633000D02*X636000D01*
X632500Y268402D02*X633000Y267902D01*
X632500Y269402D02*Y268402D01*
X633000Y269902D02*X632500Y269402D01*
X633500Y268902D02*X632500Y267902D01*
X636000Y266702D02*X636500Y266202D01*
Y264702D01*
X636000Y264202D01*
X635000D02*X636000D01*
X632500Y266702D02*X635000Y264202D01*
X632500Y266702D02*Y264202D01*
X562441Y297717D02*X566441D01*
X562441Y295217D02*X566441D01*
X564441Y297717D02*Y295217D01*
Y294017D02*Y292517D01*
X562441Y294017D02*Y292017D01*
Y294017D02*X566441D01*
Y292017D01*
X562441Y290817D02*X565941D01*
X566441Y290317D01*
Y288817D01*
X565941Y288317D01*
X562441D02*X565941D01*
X564441Y290817D02*Y288317D01*
X566441Y287117D02*Y285117D01*
X562441Y286117D02*X566441D01*
X564441Y283917D02*Y282417D01*
X562441Y283917D02*Y281917D01*
Y283917D02*X566441D01*
Y281917D01*
Y280717D02*Y278717D01*
X565941Y278217D01*
X564941D02*X565941D01*
X564441Y278717D02*X564941Y278217D01*
X564441Y280217D02*Y278717D01*
X562441Y280217D02*X566441D01*
X564441D02*X562441Y278217D01*
Y277017D02*Y275017D01*
Y273817D02*Y271817D01*
X562941Y271317D01*
X563941D01*
X564441Y271817D02*X563941Y271317D01*
X564441Y273317D02*Y271817D01*
X562441Y273317D02*X566441D01*
Y273817D02*Y271817D01*
X565941Y271317D01*
X564941D02*X565941D01*
X564441Y271817D02*X564941Y271317D01*
X564441Y270117D02*Y268617D01*
X562441Y270117D02*Y268117D01*
Y270117D02*X566441D01*
Y268117D01*
X562441Y266417D02*X566441D01*
Y264917D02*X565941Y264417D01*
X562941D02*X565941D01*
X562441Y264917D02*X562941Y264417D01*
X562441Y266917D02*Y264917D01*
X566441Y266917D02*Y264917D01*
X589200Y318002D02*Y314002D01*
X590700Y318002D02*X591200Y317502D01*
Y314502D01*
X590700Y314002D02*X591200Y314502D01*
X588700Y314002D02*X590700D01*
X588700Y318002D02*X590700D01*
X592400Y317502D02*X592900Y318002D01*
X594400D01*
X594900Y317502D01*
Y316502D01*
X592400Y314002D02*X594900Y316502D01*
X592400Y314002D02*X594900D01*
X622500Y280902D02*Y276902D01*
X624500D01*
X625700Y278902D02*X627200D01*
X625700Y276902D02*X627700D01*
X625700Y280902D02*Y276902D01*
Y280902D02*X627700D01*
X629400D02*Y276902D01*
X630900Y280902D02*X631400Y280402D01*
Y277402D01*
X630900Y276902D02*X631400Y277402D01*
X628900Y276902D02*X630900D01*
X628900Y280902D02*X630900D01*
X632600Y280402D02*X633100Y280902D01*
X634600D01*
X635100Y280402D01*
Y279402D01*
X632600Y276902D02*X635100Y279402D01*
X632600Y276902D02*X635100D01*
X620000Y316902D02*X622000D01*
X622500Y316402D01*
Y315402D01*
X622000Y314902D02*X622500Y315402D01*
X620500Y314902D02*X622000D01*
X620500Y316902D02*Y312902D01*
Y314902D02*X622500Y312902D01*
X624200D02*X625200D01*
X624700Y316902D02*Y312902D01*
X623700Y315902D02*X624700Y316902D01*
X626400Y314902D02*X628400Y316902D01*
X626400Y314902D02*X628900D01*
X628400Y316902D02*Y312902D01*
X692500Y294402D02*X694500D01*
X695000Y293902D01*
Y292902D01*
X694500Y292402D02*X695000Y292902D01*
X693000Y292402D02*X694500D01*
X693000Y294402D02*Y290402D01*
Y292402D02*X695000Y290402D01*
X696700D02*X697700D01*
X697200Y294402D02*Y290402D01*
X696200Y293402D02*X697200Y294402D01*
X698900Y293902D02*X699400Y294402D01*
X700900D01*
X701400Y293902D01*
Y292902D01*
X698900Y290402D02*X701400Y292902D01*
X698900Y290402D02*X701400D01*
X622500Y345902D02*Y341902D01*
X624500D01*
X625700Y343902D02*X627200D01*
X625700Y341902D02*X627700D01*
X625700Y345902D02*Y341902D01*
Y345902D02*X627700D01*
X629400D02*Y341902D01*
X630900Y345902D02*X631400Y345402D01*
Y342402D01*
X630900Y341902D02*X631400Y342402D01*
X628900Y341902D02*X630900D01*
X628900Y345902D02*X630900D01*
X632600D02*X634600D01*
X632600D02*Y343902D01*
X633100Y344402D01*
X634100D01*
X634600Y343902D01*
Y342402D01*
X634100Y341902D02*X634600Y342402D01*
X633100Y341902D02*X634100D01*
X632600Y342402D02*X633100Y341902D01*
X620000Y381902D02*X622000D01*
X622500Y381402D01*
Y380402D01*
X622000Y379902D02*X622500Y380402D01*
X620500Y379902D02*X622000D01*
X620500Y381902D02*Y377902D01*
Y379902D02*X622500Y377902D01*
X623700Y381402D02*X624200Y381902D01*
X625700D01*
X626200Y381402D01*
Y380402D01*
X623700Y377902D02*X626200Y380402D01*
X623700Y377902D02*X626200D01*
X627400Y381402D02*X627900Y381902D01*
X629400D01*
X629900Y381402D01*
Y380402D01*
X627400Y377902D02*X629900Y380402D01*
X627400Y377902D02*X629900D01*
X633000Y334902D02*X636000D01*
X636500Y334402D01*
Y333402D01*
X636000Y332902D01*
X633000D02*X636000D01*
X632500Y333402D02*X633000Y332902D01*
X632500Y334402D02*Y333402D01*
X633000Y334902D02*X632500Y334402D01*
X633500Y333902D02*X632500Y332902D01*
Y331202D02*Y330202D01*
Y330702D02*X636500D01*
X635500Y331702D02*X636500Y330702D01*
X595500Y392402D02*X597000D01*
X595000Y392902D02*X595500Y392402D01*
X595000Y395902D02*Y392902D01*
Y395902D02*X595500Y396402D01*
X597000D01*
X598200Y395902D02*Y392902D01*
Y395902D02*X598700Y396402D01*
X599700D01*
X600200Y395902D01*
Y392902D01*
X599700Y392402D02*X600200Y392902D01*
X598700Y392402D02*X599700D01*
X598200Y392902D02*X598700Y392402D01*
X601400Y396402D02*Y392402D01*
Y396402D02*Y395902D01*
X603900Y393402D01*
Y396402D02*Y392402D01*
X605100Y396402D02*Y392402D01*
Y396402D02*Y395902D01*
X607600Y393402D01*
Y396402D02*Y392402D01*
X608800Y395902D02*X609300Y396402D01*
X610300D01*
X610800Y395902D01*
Y392902D01*
X610300Y392402D02*X610800Y392902D01*
X609300Y392402D02*X610300D01*
X608800Y392902D02*X609300Y392402D01*
Y394402D02*X610800D01*
X562441Y362717D02*X566441D01*
X562441Y360217D02*X566441D01*
X564441Y362717D02*Y360217D01*
Y359017D02*Y357517D01*
X562441Y359017D02*Y357017D01*
Y359017D02*X566441D01*
Y357017D01*
X562441Y355817D02*X565941D01*
X566441Y355317D01*
Y353817D01*
X565941Y353317D01*
X562441D02*X565941D01*
X564441Y355817D02*Y353317D01*
X566441Y352117D02*Y350117D01*
X562441Y351117D02*X566441D01*
X564441Y348917D02*Y347417D01*
X562441Y348917D02*Y346917D01*
Y348917D02*X566441D01*
Y346917D01*
Y345717D02*Y343717D01*
X565941Y343217D01*
X564941D02*X565941D01*
X564441Y343717D02*X564941Y343217D01*
X564441Y345217D02*Y343717D01*
X562441Y345217D02*X566441D01*
X564441D02*X562441Y343217D01*
Y342017D02*Y340017D01*
X564441Y338817D02*Y337317D01*
X562441Y338817D02*Y336817D01*
Y338817D02*X566441D01*
Y336817D01*
X565941Y335617D02*X566441D01*
X565941D02*X563441Y333117D01*
X562441D02*X563441D01*
X562441Y335617D02*X563441D01*
X565941Y333117D01*
X566441D01*
Y331917D02*Y329917D01*
X562441Y330917D02*X566441D01*
X589200Y383002D02*Y379002D01*
X590700Y383002D02*X591200Y382502D01*
Y379502D01*
X590700Y379002D02*X591200Y379502D01*
X588700Y379002D02*X590700D01*
X588700Y383002D02*X590700D01*
X592900Y379002D02*X593900D01*
X593400Y383002D02*Y379002D01*
X592400Y382002D02*X593400Y383002D01*
X551500Y467402D02*Y465402D01*
X547500Y466402D02*X551500D01*
X549500Y464202D02*Y462702D01*
X547500Y464202D02*Y462202D01*
Y464202D02*X551500D01*
Y462202D01*
X547500Y461002D02*X551500D01*
X550000Y459502D01*
X551500Y458002D01*
X547500D02*X551500D01*
X547500Y456302D02*X551500D01*
Y456802D02*Y454802D01*
X551000Y454302D01*
X550000D02*X551000D01*
X549500Y454802D02*X550000Y454302D01*
X549500Y456302D02*Y454802D01*
X547500Y453102D02*Y451102D01*
Y449902D02*Y447902D01*
X548000Y447402D01*
X549000D01*
X549500Y447902D02*X549000Y447402D01*
X549500Y449402D02*Y447902D01*
X547500Y449402D02*X551500D01*
Y449902D02*Y447902D01*
X551000Y447402D01*
X550000D02*X551000D01*
X549500Y447902D02*X550000Y447402D01*
X549500Y446202D02*Y444702D01*
X547500Y446202D02*Y444202D01*
Y446202D02*X551500D01*
Y444202D01*
X547500Y442502D02*X551500D01*
Y441002D02*X551000Y440502D01*
X548000D02*X551000D01*
X547500Y441002D02*X548000Y440502D01*
X547500Y443002D02*Y441002D01*
X551500Y443002D02*Y441002D01*
X598300Y466802D02*X599800D01*
X597800Y467302D02*X598300Y466802D01*
X597800Y470302D02*Y467302D01*
Y470302D02*X598300Y470802D01*
X599800D01*
X601000D02*X603000D01*
X602000D02*Y466802D01*
X604700D02*X605700D01*
X605200Y470802D02*Y466802D01*
X604200Y469802D02*X605200Y470802D01*
X583800Y469102D02*X585300D01*
X583300Y469602D02*X583800Y469102D01*
X583300Y472602D02*Y469602D01*
Y472602D02*X583800Y473102D01*
X585300D01*
X586500D02*X588500D01*
X587500D02*Y469102D01*
X589700Y472602D02*X590200Y473102D01*
X591700D01*
X592200Y472602D01*
Y471602D01*
X589700Y469102D02*X592200Y471602D01*
X589700Y469102D02*X592200D01*
X676100Y428802D02*Y427302D01*
X675600Y426802D02*X676100Y427302D01*
X672600Y426802D02*X675600D01*
X672600D02*X672100Y427302D01*
Y428802D02*Y427302D01*
X676100Y430002D02*X673600Y432502D01*
X672100D02*X673600D01*
X672100D02*Y430002D01*
X551500Y502402D02*Y500402D01*
X547500Y501402D02*X551500D01*
X549500Y499202D02*Y497702D01*
X547500Y499202D02*Y497202D01*
Y499202D02*X551500D01*
Y497202D01*
X547500Y496002D02*X551500D01*
X550000Y494502D01*
X551500Y493002D01*
X547500D02*X551500D01*
X547500Y491302D02*X551500D01*
Y491802D02*Y489802D01*
X551000Y489302D01*
X550000D02*X551000D01*
X549500Y489802D02*X550000Y489302D01*
X549500Y491302D02*Y489802D01*
X547500Y488102D02*Y486102D01*
X549500Y484902D02*Y483402D01*
X547500Y484902D02*Y482902D01*
Y484902D02*X551500D01*
Y482902D01*
X551000Y481702D02*X551500D01*
X551000D02*X548500Y479202D01*
X547500D02*X548500D01*
X547500Y481702D02*X548500D01*
X551000Y479202D01*
X551500D01*
Y478002D02*Y476002D01*
X547500Y477002D02*X551500D01*
X549114Y595051D02*Y593551D01*
X549614Y595551D02*X549114Y595051D01*
X549614Y595551D02*X552614D01*
X553114Y595051D01*
Y593551D01*
X549614Y592351D02*X552614D01*
X553114Y591851D01*
Y590851D01*
X552614Y590351D01*
X549614D02*X552614D01*
X549114Y590851D02*X549614Y590351D01*
X549114Y591851D02*Y590851D01*
X549614Y592351D02*X549114Y591851D01*
Y589151D02*X553114D01*
X552614D02*X553114D01*
X552614D02*X550114Y586651D01*
X549114D02*X553114D01*
X549114Y585451D02*X553114D01*
X552614D02*X553114D01*
X552614D02*X550114Y582951D01*
X549114D02*X553114D01*
X552614Y581751D02*X553114Y581251D01*
Y579751D01*
X552614Y579251D01*
X551614D02*X552614D01*
X549114Y581751D02*X551614Y579251D01*
X549114Y581751D02*Y579251D01*
X659559Y534461D02*Y530961D01*
X660059Y530461D01*
X661059D01*
X661559Y530961D01*
Y534461D02*Y530961D01*
X662759Y534461D02*X664759D01*
X662759D02*Y532461D01*
X663259Y532961D01*
X664259D01*
X664759Y532461D01*
Y530961D01*
X664259Y530461D02*X664759Y530961D01*
X663259Y530461D02*X664259D01*
X662759Y530961D02*X663259Y530461D01*
X654559Y560461D02*Y558961D01*
X654059Y558461D02*X654559Y558961D01*
X651059Y558461D02*X654059D01*
X651059D02*X650559Y558961D01*
Y560461D02*Y558961D01*
X654559Y563161D02*Y562161D01*
X650559Y562661D02*X654559D01*
X651559Y561661D02*X650559Y562661D01*
X654059Y564361D02*X654559Y564861D01*
X651059Y564361D02*X654059D01*
X651059D02*X650559Y564861D01*
Y565861D02*Y564861D01*
Y565861D02*X651059Y566361D01*
X654059D01*
X654559Y565861D02*X654059Y566361D01*
X654559Y565861D02*Y564861D01*
X653559Y564361D02*X651559Y566361D01*
X600500Y586802D02*Y585302D01*
X601000Y587302D02*X600500Y586802D01*
X601000Y587302D02*X604000D01*
X604500Y586802D01*
Y585302D01*
X600500Y583602D02*Y582602D01*
Y583102D02*X604500D01*
X603500Y584102D02*X604500Y583102D01*
X800500Y456902D02*Y454902D01*
Y456902D02*X801000Y457402D01*
X802000D01*
X802500Y456902D02*X802000Y457402D01*
X802500Y456902D02*Y455402D01*
X800500D02*X804500D01*
X802500D02*X804500Y457402D01*
X800500Y460602D02*Y458602D01*
Y459602D02*X804500D01*
X801000Y461802D02*X800500Y462302D01*
Y463802D02*Y462302D01*
Y463802D02*X801000Y464302D01*
X802000D01*
X804500Y461802D02*X802000Y464302D01*
X804500D02*Y461802D01*
X813000Y449402D02*Y447402D01*
Y449402D02*X813500Y449902D01*
X814500D01*
X815000Y449402D02*X814500Y449902D01*
X815000Y449402D02*Y447902D01*
X813000D02*X817000D01*
X815000D02*X817000Y449902D01*
X813000Y453102D02*Y451102D01*
Y452102D02*X817000D01*
Y455802D02*Y454802D01*
X813000Y455302D02*X817000D01*
X814000Y454302D02*X813000Y455302D01*
X830000Y419902D02*X833500D01*
X830000D02*X829500Y419402D01*
Y418402D01*
X830000Y417902D01*
X833500D01*
X829500Y416202D02*Y415202D01*
Y415702D02*X833500D01*
X832500Y416702D02*X833500Y415702D01*
X763000Y377402D02*X764500D01*
X762500Y377902D02*X763000Y377402D01*
X762500Y380902D02*Y377902D01*
Y380902D02*X763000Y381402D01*
X764500D01*
X765700Y380902D02*Y377902D01*
Y380902D02*X766200Y381402D01*
X767200D01*
X767700Y380902D01*
Y377902D01*
X767200Y377402D02*X767700Y377902D01*
X766200Y377402D02*X767200D01*
X765700Y377902D02*X766200Y377402D01*
X768900Y381402D02*Y377402D01*
Y381402D02*Y380902D01*
X771400Y378402D01*
Y381402D02*Y377402D01*
X772600Y381402D02*Y377402D01*
Y381402D02*Y380902D01*
X775100Y378402D01*
Y381402D02*Y377402D01*
X777800Y381402D02*X778300Y380902D01*
X776800Y381402D02*X777800D01*
X776300Y380902D02*X776800Y381402D01*
X776300Y380902D02*Y377902D01*
X776800Y377402D01*
X777800Y379402D02*X778300Y378902D01*
X776300Y379402D02*X777800D01*
X776800Y377402D02*X777800D01*
X778300Y377902D01*
Y378902D02*Y377902D01*
X772003Y507802D02*X773503D01*
Y504302D01*
X773003Y503802D02*X773503Y504302D01*
X772503Y503802D02*X773003D01*
X772003Y504302D02*X772503Y503802D01*
X774703Y504302D02*X775203Y503802D01*
X774703Y505302D02*Y504302D01*
Y505302D02*X775203Y505802D01*
X776203D01*
X776703Y505302D01*
Y504302D01*
X776203Y503802D02*X776703Y504302D01*
X775203Y503802D02*X776203D01*
X774703Y506302D02*X775203Y505802D01*
X774703Y507302D02*Y506302D01*
Y507302D02*X775203Y507802D01*
X776203D01*
X776703Y507302D01*
Y506302D01*
X776203Y505802D02*X776703Y506302D01*
X819941Y516961D02*X821941D01*
X822441Y516461D01*
Y515461D01*
X821941Y514961D02*X822441Y515461D01*
X820441Y514961D02*X821941D01*
X820441Y516961D02*Y512961D01*
Y514961D02*X822441Y512961D01*
X823641Y513461D02*X824141Y512961D01*
X823641Y514461D02*Y513461D01*
Y514461D02*X824141Y514961D01*
X825141D01*
X825641Y514461D01*
Y513461D01*
X825141Y512961D02*X825641Y513461D01*
X824141Y512961D02*X825141D01*
X823641Y515461D02*X824141Y514961D01*
X823641Y516461D02*Y515461D01*
Y516461D02*X824141Y516961D01*
X825141D01*
X825641Y516461D01*
Y515461D01*
X825141Y514961D02*X825641Y515461D01*
X777503Y512802D02*X779003D01*
Y509302D01*
X778503Y508802D02*X779003Y509302D01*
X778003Y508802D02*X778503D01*
X777503Y509302D02*X778003Y508802D01*
X780203D02*X782203Y510802D01*
Y512302D02*Y510802D01*
X781703Y512802D02*X782203Y512302D01*
X780703Y512802D02*X781703D01*
X780203Y512302D02*X780703Y512802D01*
X780203Y512302D02*Y511302D01*
X780703Y510802D01*
X782203D01*
X752118Y534520D02*Y531020D01*
X752618Y530520D01*
X753618D01*
X754118Y531020D01*
Y534520D02*Y531020D01*
X755318Y532520D02*X757318Y534520D01*
X755318Y532520D02*X757818D01*
X757318Y534520D02*Y530520D01*
X727441Y519343D02*X729441D01*
X729941Y518843D01*
Y517843D01*
X729441Y517343D02*X729941Y517843D01*
X727941Y517343D02*X729441D01*
X727941Y519343D02*Y515343D01*
Y517343D02*X729941Y515343D01*
X731641D02*X732641D01*
X732141Y519343D02*Y515343D01*
X731141Y518343D02*X732141Y519343D01*
X733841Y515843D02*X734341Y515343D01*
X733841Y518843D02*Y515843D01*
Y518843D02*X734341Y519343D01*
X735341D01*
X735841Y518843D01*
Y515843D01*
X735341Y515343D02*X735841Y515843D01*
X734341Y515343D02*X735341D01*
X733841Y516343D02*X735841Y518343D01*
X844618Y534520D02*Y531020D01*
X845118Y530520D01*
X846118D01*
X846618Y531020D01*
Y534520D02*Y531020D01*
X847818Y534020D02*X848318Y534520D01*
X849318D01*
X849818Y534020D01*
Y531020D01*
X849318Y530520D02*X849818Y531020D01*
X848318Y530520D02*X849318D01*
X847818Y531020D02*X848318Y530520D01*
Y532520D02*X849818D01*
X864503Y507802D02*X866003D01*
Y504302D01*
X865503Y503802D02*X866003Y504302D01*
X865003Y503802D02*X865503D01*
X864503Y504302D02*X865003Y503802D01*
X867203Y507802D02*X869203D01*
X867203D02*Y505802D01*
X867703Y506302D01*
X868703D01*
X869203Y505802D01*
Y504302D01*
X868703Y503802D02*X869203Y504302D01*
X867703Y503802D02*X868703D01*
X867203Y504302D02*X867703Y503802D01*
X875503Y507802D02*X877003D01*
Y504302D01*
X876503Y503802D02*X877003Y504302D01*
X876003Y503802D02*X876503D01*
X875503Y504302D02*X876003Y503802D01*
X879703Y507802D02*X880203Y507302D01*
X878703Y507802D02*X879703D01*
X878203Y507302D02*X878703Y507802D01*
X878203Y507302D02*Y504302D01*
X878703Y503802D01*
X879703Y505802D02*X880203Y505302D01*
X878203Y505802D02*X879703D01*
X878703Y503802D02*X879703D01*
X880203Y504302D01*
Y505302D02*Y504302D01*
X839559Y565461D02*Y563961D01*
X839059Y563461D02*X839559Y563961D01*
X836059Y563461D02*X839059D01*
X836059D02*X835559Y563961D01*
Y565461D02*Y563961D01*
X839059Y566661D02*X839559Y567161D01*
X838059Y566661D02*X839059D01*
X838059D02*X837559Y567161D01*
Y568161D02*Y567161D01*
Y568161D02*X838059Y568661D01*
X839059D01*
X839559Y568161D02*X839059Y568661D01*
X839559Y568161D02*Y567161D01*
X837059Y566661D02*X837559Y567161D01*
X836059Y566661D02*X837059D01*
X836059D02*X835559Y567161D01*
Y568161D02*Y567161D01*
Y568161D02*X836059Y568661D01*
X837059D01*
X837559Y568161D02*X837059Y568661D01*
X747059Y565461D02*Y563961D01*
X746559Y563461D02*X747059Y563961D01*
X743559Y563461D02*X746559D01*
X743559D02*X743059Y563961D01*
Y565461D02*Y563961D01*
X747059Y566661D02*X745059Y568661D01*
X743559D02*X745059D01*
X743059Y568161D02*X743559Y568661D01*
X743059Y568161D02*Y567161D01*
X743559Y566661D02*X743059Y567161D01*
X743559Y566661D02*X744559D01*
X745059Y567161D01*
Y568661D02*Y567161D01*
X736559Y607961D02*X738059D01*
X736059Y608461D02*X736559Y607961D01*
X736059Y611461D02*Y608461D01*
Y611461D02*X736559Y611961D01*
X738059D01*
X739759Y607961D02*X740759D01*
X740259Y611961D02*Y607961D01*
X739259Y610961D02*X740259Y611961D01*
X741959Y607961D02*X744459Y610461D01*
Y611961D02*Y610461D01*
X741959Y611961D02*X744459D01*
X829000Y607902D02*X830500D01*
X828500Y608402D02*X829000Y607902D01*
X828500Y611402D02*Y608402D01*
Y611402D02*X829000Y611902D01*
X830500D01*
X832200Y607902D02*X833200D01*
X832700Y611902D02*Y607902D01*
X831700Y610902D02*X832700Y611902D01*
X834400Y611402D02*X834900Y611902D01*
X835900D01*
X836400Y611402D01*
Y608402D01*
X835900Y607902D02*X836400Y608402D01*
X834900Y607902D02*X835900D01*
X834400Y608402D02*X834900Y607902D01*
Y609902D02*X836400D01*
X689562Y507861D02*X691062D01*
Y504361D01*
X690562Y503861D02*X691062Y504361D01*
X690062Y503861D02*X690562D01*
X689562Y504361D02*X690062Y503861D01*
X692762D02*X693762D01*
X693262Y507861D02*Y503861D01*
X692262Y506861D02*X693262Y507861D01*
X694962Y507361D02*X695462Y507861D01*
X696962D01*
X697462Y507361D01*
Y506361D01*
X694962Y503861D02*X697462Y506361D01*
X694962Y503861D02*X697462D01*
X678562Y507861D02*X680062D01*
Y504361D01*
X679562Y503861D02*X680062Y504361D01*
X679062Y503861D02*X679562D01*
X678562Y504361D02*X679062Y503861D01*
X681762D02*X682762D01*
X682262Y507861D02*Y503861D01*
X681262Y506861D02*X682262Y507861D01*
X684462Y503861D02*X685462D01*
X684962Y507861D02*Y503861D01*
X683962Y506861D02*X684962Y507861D01*
X965350Y392902D02*Y389402D01*
X965850Y388902D01*
X966850D01*
X967350Y389402D01*
Y392902D02*Y389402D01*
X970050Y392902D02*X970550Y392402D01*
X969050Y392902D02*X970050D01*
X968550Y392402D02*X969050Y392902D01*
X968550Y392402D02*Y389402D01*
X969050Y388902D01*
X970050Y390902D02*X970550Y390402D01*
X968550Y390902D02*X970050D01*
X969050Y388902D02*X970050D01*
X970550Y389402D01*
Y390402D02*Y389402D01*
X916500Y402902D02*X918000D01*
X916000Y403402D02*X916500Y402902D01*
X916000Y406402D02*Y403402D01*
Y406402D02*X916500Y406902D01*
X918000D01*
X919700Y402902D02*X920700D01*
X920200Y406902D02*Y402902D01*
X919200Y405902D02*X920200Y406902D01*
X921900Y403402D02*X922400Y402902D01*
X921900Y404402D02*Y403402D01*
Y404402D02*X922400Y404902D01*
X923400D01*
X923900Y404402D01*
Y403402D01*
X923400Y402902D02*X923900Y403402D01*
X922400Y402902D02*X923400D01*
X921900Y405402D02*X922400Y404902D01*
X921900Y406402D02*Y405402D01*
Y406402D02*X922400Y406902D01*
X923400D01*
X923900Y406402D01*
Y405402D01*
X923400Y404902D02*X923900Y405402D01*
X875500Y324402D02*Y322402D01*
Y324402D02*X876000Y324902D01*
X877000D01*
X877500Y324402D02*X877000Y324902D01*
X877500Y324402D02*Y322902D01*
X875500D02*X879500D01*
X877500D02*X879500Y324902D01*
X876000Y326102D02*X875500Y326602D01*
Y328102D02*Y326602D01*
Y328102D02*X876000Y328602D01*
X877000D01*
X879500Y326102D02*X877000Y328602D01*
X879500D02*Y326102D01*
X865500Y324402D02*Y322402D01*
Y324402D02*X866000Y324902D01*
X867000D01*
X867500Y324402D02*X867000Y324902D01*
X867500Y324402D02*Y322902D01*
X865500D02*X869500D01*
X867500D02*X869500Y324902D01*
X866000Y326102D02*X865500Y326602D01*
Y327602D02*Y326602D01*
Y327602D02*X866000Y328102D01*
X869000D01*
X869500Y327602D02*X869000Y328102D01*
X869500Y327602D02*Y326602D01*
X869000Y326102D02*X869500Y326602D01*
X867500Y328102D02*Y326602D01*
X885500Y324402D02*Y322402D01*
Y324402D02*X886000Y324902D01*
X887000D01*
X887500Y324402D02*X887000Y324902D01*
X887500Y324402D02*Y322902D01*
X885500D02*X889500D01*
X887500D02*X889500Y324902D01*
Y327602D02*Y326602D01*
X885500Y327102D02*X889500D01*
X886500Y326102D02*X885500Y327102D01*
X898000Y318402D02*X899500D01*
X897500Y318902D02*X898000Y318402D01*
X897500Y321902D02*Y318902D01*
Y321902D02*X898000Y322402D01*
X899500D01*
X900700Y321902D02*Y318902D01*
Y321902D02*X901200Y322402D01*
X902200D01*
X902700Y321902D01*
Y318902D01*
X902200Y318402D02*X902700Y318902D01*
X901200Y318402D02*X902200D01*
X900700Y318902D02*X901200Y318402D01*
X903900Y322402D02*Y318402D01*
Y322402D02*Y321902D01*
X906400Y319402D01*
Y322402D02*Y318402D01*
X907600Y322402D02*Y318402D01*
Y322402D02*Y321902D01*
X910100Y319402D01*
Y322402D02*Y318402D01*
X911300Y320402D02*X913300Y322402D01*
X911300Y320402D02*X913800D01*
X913300Y322402D02*Y318402D01*
X892500Y288402D02*X894500D01*
X895000Y287902D01*
Y286902D01*
X894500Y286402D02*X895000Y286902D01*
X893000Y286402D02*X894500D01*
X893000Y288402D02*Y284402D01*
Y286402D02*X895000Y284402D01*
X896200Y286402D02*X898200Y284402D01*
X896200D02*X898200Y286402D01*
X899400Y288402D02*Y284402D01*
X901400D01*
X902600Y286402D02*X904100D01*
X902600Y284402D02*X904600D01*
X902600Y288402D02*Y284402D01*
Y288402D02*X904600D01*
X906300D02*Y284402D01*
X907800Y288402D02*X908300Y287902D01*
Y284902D01*
X907800Y284402D02*X908300Y284902D01*
X905800Y284402D02*X907800D01*
X905800Y288402D02*X907800D01*
X872500D02*X874500D01*
X873500D02*Y284402D01*
X875700Y286402D02*X877700Y284402D01*
X875700D02*X877700Y286402D01*
X878900Y288402D02*Y284402D01*
X880900D01*
X882100Y286402D02*X883600D01*
X882100Y284402D02*X884100D01*
X882100Y288402D02*Y284402D01*
Y288402D02*X884100D01*
X885800D02*Y284402D01*
X887300Y288402D02*X887800Y287902D01*
Y284902D01*
X887300Y284402D02*X887800Y284902D01*
X885300Y284402D02*X887300D01*
X885300Y288402D02*X887300D01*
X876500Y267902D02*X878000D01*
X876000Y268402D02*X876500Y267902D01*
X876000Y271402D02*Y268402D01*
Y271402D02*X876500Y271902D01*
X878000D01*
X879200D02*X881200D01*
X879200D02*Y269902D01*
X879700Y270402D01*
X880700D01*
X881200Y269902D01*
Y268402D01*
X880700Y267902D02*X881200Y268402D01*
X879700Y267902D02*X880700D01*
X879200Y268402D02*X879700Y267902D01*
X964500Y337902D02*Y336402D01*
X964000Y335902D02*X964500Y336402D01*
X961000Y335902D02*X964000D01*
X961000D02*X960500Y336402D01*
Y337902D02*Y336402D01*
X962500Y339102D02*X960500Y341102D01*
X962500Y341602D02*Y339102D01*
X960500Y341102D02*X964500D01*
X954500Y337902D02*Y336402D01*
X954000Y335902D02*X954500Y336402D01*
X951000Y335902D02*X954000D01*
X951000D02*X950500Y336402D01*
Y337902D02*Y336402D01*
X951000Y339102D02*X950500Y339602D01*
Y340602D02*Y339602D01*
Y340602D02*X951000Y341102D01*
X954000D01*
X954500Y340602D02*X954000Y341102D01*
X954500Y340602D02*Y339602D01*
X954000Y339102D02*X954500Y339602D01*
X952500Y341102D02*Y339602D01*
X934000Y347902D02*X935500D01*
X933500Y348402D02*X934000Y347902D01*
X933500Y351402D02*Y348402D01*
Y351402D02*X934000Y351902D01*
X935500D01*
X937200Y347902D02*X938200D01*
X937700Y351902D02*Y347902D01*
X936700Y350902D02*X937700Y351902D01*
X939400Y349902D02*X941400Y351902D01*
X939400Y349902D02*X941900D01*
X941400Y351902D02*Y347902D01*
X966500Y410402D02*X968000D01*
X966000Y410902D02*X966500Y410402D01*
X966000Y413902D02*Y410902D01*
Y413902D02*X966500Y414402D01*
X968000D01*
X969700Y410402D02*X970700D01*
X970200Y414402D02*Y410402D01*
X969200Y413402D02*X970200Y414402D01*
X971900Y410402D02*X973900Y412402D01*
Y413902D02*Y412402D01*
X973400Y414402D02*X973900Y413902D01*
X972400Y414402D02*X973400D01*
X971900Y413902D02*X972400Y414402D01*
X971900Y413902D02*Y412902D01*
X972400Y412402D01*
X973900D01*
X1095003Y311302D02*X1096503D01*
Y307802D01*
X1096003Y307302D02*X1096503Y307802D01*
X1095503Y307302D02*X1096003D01*
X1095003Y307802D02*X1095503Y307302D01*
X1098203D02*X1099203D01*
X1098703Y311302D02*Y307302D01*
X1097703Y310302D02*X1098703Y311302D01*
X1100403Y310802D02*X1100903Y311302D01*
X1101903D01*
X1102403Y310802D01*
Y307802D01*
X1101903Y307302D02*X1102403Y307802D01*
X1100903Y307302D02*X1101903D01*
X1100403Y307802D02*X1100903Y307302D01*
Y309302D02*X1102403D01*
X1072003Y323802D02*X1073503D01*
Y320302D01*
X1073003Y319802D02*X1073503Y320302D01*
X1072503Y319802D02*X1073003D01*
X1072003Y320302D02*X1072503Y319802D01*
X1075203D02*X1076203D01*
X1075703Y323802D02*Y319802D01*
X1074703Y322802D02*X1075703Y323802D01*
X1077403Y321802D02*X1079403Y323802D01*
X1077403Y321802D02*X1079903D01*
X1079403Y323802D02*Y319802D01*
X1072500Y264402D02*X1074500D01*
X1075000Y263902D01*
Y262902D01*
X1074500Y262402D02*X1075000Y262902D01*
X1073000Y262402D02*X1074500D01*
X1073000Y264402D02*Y260402D01*
Y262402D02*X1075000Y260402D01*
X1076700D02*X1077700D01*
X1077200Y264402D02*Y260402D01*
X1076200Y263402D02*X1077200Y264402D01*
X1080400D02*X1080900Y263902D01*
X1079400Y264402D02*X1080400D01*
X1078900Y263902D02*X1079400Y264402D01*
X1078900Y263902D02*Y260902D01*
X1079400Y260402D01*
X1080400Y262402D02*X1080900Y261902D01*
X1078900Y262402D02*X1080400D01*
X1079400Y260402D02*X1080400D01*
X1080900Y260902D01*
Y261902D02*Y260902D01*
X1086100Y272402D02*X1087600D01*
X1085600Y272902D02*X1086100Y272402D01*
X1085600Y275902D02*Y272902D01*
Y275902D02*X1086100Y276402D01*
X1087600D01*
X1088800Y275902D02*X1089300Y276402D01*
X1090800D01*
X1091300Y275902D01*
Y274902D01*
X1088800Y272402D02*X1091300Y274902D01*
X1088800Y272402D02*X1091300D01*
X1042000Y304902D02*Y302902D01*
X1041500Y302402D01*
X1040500D02*X1041500D01*
X1040000Y302902D02*X1040500Y302402D01*
X1040000Y304402D02*Y302902D01*
X1038000Y304402D02*X1042000D01*
X1040000D02*X1038000Y302402D01*
X1041500Y301202D02*X1042000Y300702D01*
Y299702D01*
X1041500Y299202D01*
X1038500D02*X1041500D01*
X1038000Y299702D02*X1038500Y299202D01*
X1038000Y300702D02*Y299702D01*
X1038500Y301202D02*X1038000Y300702D01*
X1040000D02*Y299202D01*
X1038500Y298002D02*X1038000Y297502D01*
X1038500Y298002D02*X1041500D01*
X1042000Y297502D01*
Y296502D01*
X1041500Y296002D01*
X1038500D02*X1041500D01*
X1038000Y296502D02*X1038500Y296002D01*
X1038000Y297502D02*Y296502D01*
X1039000Y298002D02*X1041000Y296002D01*
X976500Y312902D02*X978000D01*
X976000Y313402D02*X976500Y312902D01*
X976000Y316402D02*Y313402D01*
Y316402D02*X976500Y316902D01*
X978000D01*
X979200Y316402D02*X979700Y316902D01*
X981200D01*
X981700Y316402D01*
Y315402D01*
X979200Y312902D02*X981700Y315402D01*
X979200Y312902D02*X981700D01*
X983400D02*X984400D01*
X983900Y316902D02*Y312902D01*
X982900Y315902D02*X983900Y316902D01*
X1017500Y308902D02*X1019500D01*
X1020000Y308402D01*
Y307402D01*
X1019500Y306902D02*X1020000Y307402D01*
X1018000Y306902D02*X1019500D01*
X1018000Y308902D02*Y304902D01*
Y306902D02*X1020000Y304902D01*
X1021200Y306902D02*X1022700D01*
X1021200Y304902D02*X1023200D01*
X1021200Y308902D02*Y304902D01*
Y308902D02*X1023200D01*
X1026400D02*X1026900Y308402D01*
X1024900Y308902D02*X1026400D01*
X1024400Y308402D02*X1024900Y308902D01*
X1024400Y308402D02*Y307402D01*
X1024900Y306902D01*
X1026400D01*
X1026900Y306402D01*
Y305402D01*
X1026400Y304902D02*X1026900Y305402D01*
X1024900Y304902D02*X1026400D01*
X1024400Y305402D02*X1024900Y304902D01*
X1028100Y306902D02*X1029600D01*
X1028100Y304902D02*X1030100D01*
X1028100Y308902D02*Y304902D01*
Y308902D02*X1030100D01*
X1031300D02*X1033300D01*
X1032300D02*Y304902D01*
X971500Y285402D02*X973000D01*
X971000Y285902D02*X971500Y285402D01*
X971000Y288902D02*Y285902D01*
Y288902D02*X971500Y289402D01*
X973000D01*
X974200Y288902D02*X974700Y289402D01*
X976200D01*
X976700Y288902D01*
Y287902D01*
X974200Y285402D02*X976700Y287902D01*
X974200Y285402D02*X976700D01*
X977900Y285902D02*X978400Y285402D01*
X977900Y288902D02*Y285902D01*
Y288902D02*X978400Y289402D01*
X979400D01*
X979900Y288902D01*
Y285902D01*
X979400Y285402D02*X979900Y285902D01*
X978400Y285402D02*X979400D01*
X977900Y286402D02*X979900Y288402D01*
X1050000Y249402D02*X1052000D01*
X1052500Y248902D01*
Y247902D01*
X1052000Y247402D02*X1052500Y247902D01*
X1050500Y247402D02*X1052000D01*
X1050500Y249402D02*Y245402D01*
Y247402D02*X1052500Y245402D01*
X1054200D02*X1055200D01*
X1054700Y249402D02*Y245402D01*
X1053700Y248402D02*X1054700Y249402D01*
X1056400Y245902D02*X1056900Y245402D01*
X1056400Y246902D02*Y245902D01*
Y246902D02*X1056900Y247402D01*
X1057900D01*
X1058400Y246902D01*
Y245902D01*
X1057900Y245402D02*X1058400Y245902D01*
X1056900Y245402D02*X1057900D01*
X1056400Y247902D02*X1056900Y247402D01*
X1056400Y248902D02*Y247902D01*
Y248902D02*X1056900Y249402D01*
X1057900D01*
X1058400Y248902D01*
Y247902D01*
X1057900Y247402D02*X1058400Y247902D01*
G54D293*X994300Y234202D02*X997300D01*
X993300Y235202D02*X994300Y234202D01*
X993300Y241202D02*Y235202D01*
Y241202D02*X994300Y242202D01*
X997300D01*
X999700Y241202D02*Y235202D01*
Y241202D02*X1000700Y242202D01*
X1002700D01*
X1003700Y241202D01*
Y235202D01*
X1002700Y234202D02*X1003700Y235202D01*
X1000700Y234202D02*X1002700D01*
X999700Y235202D02*X1000700Y234202D01*
X1006100Y242202D02*Y234202D01*
Y242202D02*Y241202D01*
X1011100Y236202D01*
Y242202D02*Y234202D01*
X1013500Y242202D02*Y234202D01*
Y242202D02*Y241202D01*
X1018500Y236202D01*
Y242202D02*Y234202D01*
X1020900Y242202D02*X1024900D01*
X1020900D02*Y238202D01*
X1021900Y239202D01*
X1023900D01*
X1024900Y238202D01*
Y235202D01*
X1023900Y234202D02*X1024900Y235202D01*
X1021900Y234202D02*X1023900D01*
X1020900Y235202D02*X1021900Y234202D01*
G54D288*X876500Y242902D02*X878000D01*
X876000Y243402D02*X876500Y242902D01*
X876000Y246402D02*Y243402D01*
Y246402D02*X876500Y246902D01*
X878000D01*
X879700Y242902D02*X880700D01*
X880200Y246902D02*Y242902D01*
X879200Y245902D02*X880200Y246902D01*
X881900D02*X883900D01*
X881900D02*Y244902D01*
X882400Y245402D01*
X883400D01*
X883900Y244902D01*
Y243402D01*
X883400Y242902D02*X883900Y243402D01*
X882400Y242902D02*X883400D01*
X881900Y243402D02*X882400Y242902D01*
X1055500Y332402D02*X1059500D01*
Y334402D02*Y332402D01*
Y337102D02*Y336102D01*
X1055500Y336602D02*X1059500D01*
X1056500Y335602D02*X1055500Y336602D01*
X1165000Y386115D02*Y384615D01*
X1165500Y386615D02*X1165000Y386115D01*
X1165500Y386615D02*X1168500D01*
X1169000Y386115D01*
Y384615D01*
X1165500Y383415D02*X1168500D01*
X1169000Y382915D01*
Y381915D01*
X1168500Y381415D01*
X1165500D02*X1168500D01*
X1165000Y381915D02*X1165500Y381415D01*
X1165000Y382915D02*Y381915D01*
X1165500Y383415D02*X1165000Y382915D01*
Y380215D02*X1169000D01*
X1168500D02*X1169000D01*
X1168500D02*X1166000Y377715D01*
X1165000D02*X1169000D01*
X1165000Y376515D02*X1169000D01*
X1168500D02*X1169000D01*
X1168500D02*X1166000Y374015D01*
X1165000D02*X1169000D01*
X1165000Y372315D02*Y371315D01*
Y371815D02*X1169000D01*
X1168000Y372815D02*X1169000Y371815D01*
X1163000Y484902D02*X1164500D01*
X1162500Y485402D02*X1163000Y484902D01*
X1162500Y488402D02*Y485402D01*
Y488402D02*X1163000Y488902D01*
X1164500D01*
X1167200D02*X1167700Y488402D01*
X1166200Y488902D02*X1167200D01*
X1165700Y488402D02*X1166200Y488902D01*
X1165700Y488402D02*Y485402D01*
X1166200Y484902D01*
X1167200Y486902D02*X1167700Y486402D01*
X1165700Y486902D02*X1167200D01*
X1166200Y484902D02*X1167200D01*
X1167700Y485402D01*
Y486402D02*Y485402D01*
X1067503Y501302D02*X1069003D01*
Y497802D01*
X1068503Y497302D02*X1069003Y497802D01*
X1068003Y497302D02*X1068503D01*
X1067503Y497802D02*X1068003Y497302D01*
X1070203Y501302D02*X1072203D01*
X1070203D02*Y499302D01*
X1070703Y499802D01*
X1071703D01*
X1072203Y499302D01*
Y497802D01*
X1071703Y497302D02*X1072203Y497802D01*
X1070703Y497302D02*X1071703D01*
X1070203Y497802D02*X1070703Y497302D01*
X1073403Y497802D02*X1073903Y497302D01*
X1073403Y500802D02*Y497802D01*
Y500802D02*X1073903Y501302D01*
X1074903D01*
X1075403Y500802D01*
Y497802D01*
X1074903Y497302D02*X1075403Y497802D01*
X1073903Y497302D02*X1074903D01*
X1073403Y498302D02*X1075403Y500302D01*
X1070003Y473802D02*X1071503D01*
Y470302D01*
X1071003Y469802D02*X1071503Y470302D01*
X1070503Y469802D02*X1071003D01*
X1070003Y470302D02*X1070503Y469802D01*
X1072703Y473802D02*X1074703D01*
X1072703D02*Y471802D01*
X1073203Y472302D01*
X1074203D01*
X1074703Y471802D01*
Y470302D01*
X1074203Y469802D02*X1074703Y470302D01*
X1073203Y469802D02*X1074203D01*
X1072703Y470302D02*X1073203Y469802D01*
X1076403D02*X1077403D01*
X1076903Y473802D02*Y469802D01*
X1075903Y472802D02*X1076903Y473802D01*
X1096000Y510902D02*X1098000D01*
X1098500Y510402D01*
Y509402D01*
X1098000Y508902D02*X1098500Y509402D01*
X1096500Y508902D02*X1098000D01*
X1096500Y510902D02*Y506902D01*
Y508902D02*X1098500Y506902D01*
X1099700Y510902D02*X1101700D01*
X1099700D02*Y508902D01*
X1100200Y509402D01*
X1101200D01*
X1101700Y508902D01*
Y507402D01*
X1101200Y506902D02*X1101700Y507402D01*
X1100200Y506902D02*X1101200D01*
X1099700Y507402D02*X1100200Y506902D01*
X1102900Y507402D02*X1103400Y506902D01*
X1102900Y510402D02*Y507402D01*
Y510402D02*X1103400Y510902D01*
X1104400D01*
X1104900Y510402D01*
Y507402D01*
X1104400Y506902D02*X1104900Y507402D01*
X1103400Y506902D02*X1104400D01*
X1102900Y507902D02*X1104900Y509902D01*
X1072503Y528802D02*X1074003D01*
Y525302D01*
X1073503Y524802D02*X1074003Y525302D01*
X1073003Y524802D02*X1073503D01*
X1072503Y525302D02*X1073003Y524802D01*
X1075203Y528802D02*X1077203D01*
X1075203D02*Y526802D01*
X1075703Y527302D01*
X1076703D01*
X1077203Y526802D01*
Y525302D01*
X1076703Y524802D02*X1077203Y525302D01*
X1075703Y524802D02*X1076703D01*
X1075203Y525302D02*X1075703Y524802D01*
X1078403Y528302D02*X1078903Y528802D01*
X1080403D01*
X1080903Y528302D01*
Y527302D01*
X1078403Y524802D02*X1080903Y527302D01*
X1078403Y524802D02*X1080903D01*
X937118Y534520D02*Y531020D01*
X937618Y530520D01*
X938618D01*
X939118Y531020D01*
Y534520D02*Y531020D01*
X940318Y534020D02*X940818Y534520D01*
X942318D01*
X942818Y534020D01*
Y533020D01*
X940318Y530520D02*X942818Y533020D01*
X940318Y530520D02*X942818D01*
X1024500Y562902D02*Y561402D01*
X1024000Y560902D02*X1024500Y561402D01*
X1021000Y560902D02*X1024000D01*
X1021000D02*X1020500Y561402D01*
Y562902D02*Y561402D01*
Y566102D02*Y564102D01*
X1022500D01*
X1022000Y564602D01*
Y565602D02*Y564602D01*
Y565602D02*X1022500Y566102D01*
X1024000D01*
X1024500Y565602D02*X1024000Y566102D01*
X1024500Y565602D02*Y564602D01*
X1024000Y564102D02*X1024500Y564602D01*
X1024000Y567302D02*X1024500Y567802D01*
X1021000Y567302D02*X1024000D01*
X1021000D02*X1020500Y567802D01*
Y568802D02*Y567802D01*
Y568802D02*X1021000Y569302D01*
X1024000D01*
X1024500Y568802D02*X1024000Y569302D01*
X1024500Y568802D02*Y567802D01*
X1023500Y567302D02*X1021500Y569302D01*
X1014000Y607902D02*X1015500D01*
X1013500Y608402D02*X1014000Y607902D01*
X1013500Y611402D02*Y608402D01*
Y611402D02*X1014000Y611902D01*
X1015500D01*
X1017200Y607902D02*X1018200D01*
X1017700Y611902D02*Y607902D01*
X1016700Y610902D02*X1017700Y611902D01*
X1019900Y607902D02*X1020900D01*
X1020400Y611902D02*Y607902D01*
X1019400Y610902D02*X1020400Y611902D01*
X921500Y607902D02*X923000D01*
X921000Y608402D02*X921500Y607902D01*
X921000Y611402D02*Y608402D01*
Y611402D02*X921500Y611902D01*
X923000D01*
X924700Y607902D02*X925700D01*
X925200Y611902D02*Y607902D01*
X924200Y610902D02*X925200Y611902D01*
X926900Y611402D02*X927400Y611902D01*
X928900D01*
X929400Y611402D01*
Y610402D01*
X926900Y607902D02*X929400Y610402D01*
X926900Y607902D02*X929400D01*
X932059Y562961D02*Y561461D01*
X931559Y560961D02*X932059Y561461D01*
X928559Y560961D02*X931559D01*
X928559D02*X928059Y561461D01*
Y562961D02*Y561461D01*
X932059Y565661D02*Y564661D01*
X928059Y565161D02*X932059D01*
X929059Y564161D02*X928059Y565161D01*
Y568361D02*X928559Y568861D01*
X928059Y568361D02*Y567361D01*
X928559Y566861D02*X928059Y567361D01*
X928559Y566861D02*X931559D01*
X932059Y567361D01*
X930059Y568361D02*X930559Y568861D01*
X930059Y568361D02*Y566861D01*
X932059Y568361D02*Y567361D01*
Y568361D02*X931559Y568861D01*
X930559D02*X931559D01*
X1027118Y534520D02*Y531020D01*
X1027618Y530520D01*
X1028618D01*
X1029118Y531020D01*
Y534520D02*Y531020D01*
X1030318Y534520D02*X1032318D01*
X1030318D02*Y532520D01*
X1030818Y533020D01*
X1031818D01*
X1032318Y532520D01*
Y531020D01*
X1031818Y530520D02*X1032318Y531020D01*
X1030818Y530520D02*X1031818D01*
X1030318Y531020D02*X1030818Y530520D01*
X1033518Y531020D02*X1034018Y530520D01*
X1033518Y534020D02*Y531020D01*
Y534020D02*X1034018Y534520D01*
X1035018D01*
X1035518Y534020D01*
Y531020D01*
X1035018Y530520D02*X1035518Y531020D01*
X1034018Y530520D02*X1035018D01*
X1033518Y531520D02*X1035518Y533520D01*
X1002559Y521961D02*X1004559D01*
X1005059Y521461D01*
Y520461D01*
X1004559Y519961D02*X1005059Y520461D01*
X1003059Y519961D02*X1004559D01*
X1003059Y521961D02*Y517961D01*
Y519961D02*X1005059Y517961D01*
X1006259Y519961D02*X1008259Y521961D01*
X1006259Y519961D02*X1008759D01*
X1008259Y521961D02*Y517961D01*
X957003Y507802D02*X958503D01*
Y504302D01*
X958003Y503802D02*X958503Y504302D01*
X957503Y503802D02*X958003D01*
X957003Y504302D02*X957503Y503802D01*
X959703Y507302D02*X960203Y507802D01*
X961703D01*
X962203Y507302D01*
Y506302D01*
X959703Y503802D02*X962203Y506302D01*
X959703Y503802D02*X962203D01*
X968003Y507802D02*X969503D01*
Y504302D01*
X969003Y503802D02*X969503Y504302D01*
X968503Y503802D02*X969003D01*
X968003Y504302D02*X968503Y503802D01*
X970703Y507302D02*X971203Y507802D01*
X972203D01*
X972703Y507302D01*
Y504302D01*
X972203Y503802D02*X972703Y504302D01*
X971203Y503802D02*X972203D01*
X970703Y504302D02*X971203Y503802D01*
Y505802D02*X972703D01*
X912559Y516961D02*X914559D01*
X915059Y516461D01*
Y515461D01*
X914559Y514961D02*X915059Y515461D01*
X913059Y514961D02*X914559D01*
X913059Y516961D02*Y512961D01*
Y514961D02*X915059Y512961D01*
X917759Y516961D02*X918259Y516461D01*
X916759Y516961D02*X917759D01*
X916259Y516461D02*X916759Y516961D01*
X916259Y516461D02*Y513461D01*
X916759Y512961D01*
X917759Y514961D02*X918259Y514461D01*
X916259Y514961D02*X917759D01*
X916759Y512961D02*X917759D01*
X918259Y513461D01*
Y514461D02*Y513461D01*
X1040003Y516302D02*X1041503D01*
Y512802D01*
X1041003Y512302D02*X1041503Y512802D01*
X1040503Y512302D02*X1041003D01*
X1040003Y512802D02*X1040503Y512302D01*
X1042703Y516302D02*X1044703D01*
X1042703D02*Y514302D01*
X1043203Y514802D01*
X1044203D01*
X1044703Y514302D01*
Y512802D01*
X1044203Y512302D02*X1044703Y512802D01*
X1043203Y512302D02*X1044203D01*
X1042703Y512802D02*X1043203Y512302D01*
X1045903Y515802D02*X1046403Y516302D01*
X1047403D01*
X1047903Y515802D01*
Y512802D01*
X1047403Y512302D02*X1047903Y512802D01*
X1046403Y512302D02*X1047403D01*
X1045903Y512802D02*X1046403Y512302D01*
Y514302D02*X1047903D01*
X1106500Y607902D02*X1108000D01*
X1106000Y608402D02*X1106500Y607902D01*
X1106000Y611402D02*Y608402D01*
Y611402D02*X1106500Y611902D01*
X1108000D01*
X1109200D02*X1111200D01*
X1109200D02*Y609902D01*
X1109700Y610402D01*
X1110700D01*
X1111200Y609902D01*
Y608402D01*
X1110700Y607902D02*X1111200Y608402D01*
X1109700Y607902D02*X1110700D01*
X1109200Y608402D02*X1109700Y607902D01*
X1112900D02*X1113900D01*
X1113400Y611902D02*Y607902D01*
X1112400Y610902D02*X1113400Y611902D01*
X1097503Y646302D02*X1099003D01*
Y642802D01*
X1098503Y642302D02*X1099003Y642802D01*
X1098003Y642302D02*X1098503D01*
X1097503Y642802D02*X1098003Y642302D01*
X1101703Y646302D02*X1102203Y645802D01*
X1100703Y646302D02*X1101703D01*
X1100203Y645802D02*X1100703Y646302D01*
X1100203Y645802D02*Y642802D01*
X1100703Y642302D01*
X1101703Y644302D02*X1102203Y643802D01*
X1100203Y644302D02*X1101703D01*
X1100703Y642302D02*X1101703D01*
X1102203Y642802D01*
Y643802D02*Y642802D01*
X1103403D02*X1103903Y642302D01*
X1103403Y645802D02*Y642802D01*
Y645802D02*X1103903Y646302D01*
X1104903D01*
X1105403Y645802D01*
Y642802D01*
X1104903Y642302D02*X1105403Y642802D01*
X1103903Y642302D02*X1104903D01*
X1103403Y643302D02*X1105403Y645302D01*
X1061000Y637902D02*Y634402D01*
Y637902D02*X1061500Y638402D01*
X1063000D01*
X1063500Y637902D01*
Y634402D01*
X1061000Y636402D02*X1063500D01*
X1064700Y634402D02*X1066700D01*
X1067900Y638402D02*Y634402D01*
Y638402D02*X1069400Y636902D01*
X1070900Y638402D01*
Y634402D01*
X1072100Y637902D02*Y634902D01*
Y637902D02*X1072600Y638402D01*
X1073600D01*
X1074100Y637902D01*
Y634902D01*
X1073600Y634402D02*X1074100Y634902D01*
X1072600Y634402D02*X1073600D01*
X1072100Y634902D02*X1072600Y634402D01*
X1075300Y638402D02*X1077300D01*
X1076300D02*Y634402D01*
M02*
