G04 start of page 12 for group -3984 idx -3984 *
G04 Title: (unknown), fab *
G04 Creator: pcb 20110918 *
G04 CreationDate: Thu 19 Dec 2013 05:48:54 PM GMT UTC *
G04 For: main-user *
G04 Format: Gerber/RS-274X *
G04 PCB-Dimensions: 1574803 787402 *
G04 PCB-Coordinate-Origin: lower left *
%MOIN*%
%FSLAX25Y25*%
%LNFAB*%
%ADD300C,0.0100*%
%ADD299C,0.0060*%
%ADD298R,0.0080X0.0080*%
G54D298*X537500Y253102D02*Y246702D01*
X534300Y249902D02*X540700D01*
X535900Y251502D02*X539100D01*
X535900D02*Y248302D01*
X539100D01*
Y251502D02*Y248302D01*
X537500Y630602D02*Y624202D01*
X534300Y627402D02*X540700D01*
X535900Y629002D02*X539100D01*
X535900D02*Y625802D01*
X539100D01*
Y629002D02*Y625802D01*
X1180000Y253102D02*Y246702D01*
X1176800Y249902D02*X1183200D01*
X1178400Y251502D02*X1181600D01*
X1178400D02*Y248302D01*
X1181600D01*
Y251502D02*Y248302D01*
X1180000Y630602D02*Y624202D01*
X1176800Y627402D02*X1183200D01*
X1178400Y629002D02*X1181600D01*
X1178400D02*Y625802D01*
X1181600D01*
Y629002D02*Y625802D01*
X1140000Y605602D02*Y599202D01*
X1136800Y602402D02*X1143200D01*
X1138400Y604002D02*X1141600D01*
X1138400D02*Y600802D01*
X1141600D01*
Y604002D02*Y600802D01*
X637500Y535602D02*Y529202D01*
X634300Y532402D02*X640700D01*
X635900Y534002D02*X639100D01*
X635900D02*Y530802D01*
X639100D01*
Y534002D02*Y530802D01*
X637500Y605602D02*Y599202D01*
X634300Y602402D02*X640700D01*
X635900Y604002D02*X639100D01*
X635900D02*Y600802D01*
X639100D01*
Y604002D02*Y600802D01*
X1140000Y535602D02*Y529202D01*
X1136800Y532402D02*X1143200D01*
X1138400Y534002D02*X1141600D01*
X1138400D02*Y530802D01*
X1141600D01*
Y534002D02*Y530802D01*
X15000Y801852D02*Y795452D01*
X11800Y798652D02*X18200D01*
X13400Y800252D02*X16600D01*
X13400D02*Y797052D01*
X16600D01*
Y800252D02*Y797052D01*
G54D299*X135000Y800902D02*Y800152D01*
X136500Y798652D01*
X138000Y800152D01*
Y800902D02*Y800152D01*
X136500Y798652D02*Y794902D01*
X139800Y797902D02*X142050D01*
X139800Y794902D02*X142800D01*
X139800Y800902D02*Y794902D01*
Y800902D02*X142800D01*
X147600D02*X148350Y800152D01*
X145350Y800902D02*X147600D01*
X144600Y800152D02*X145350Y800902D01*
X144600Y800152D02*Y798652D01*
X145350Y797902D01*
X147600D01*
X148350Y797152D01*
Y795652D01*
X147600Y794902D02*X148350Y795652D01*
X145350Y794902D02*X147600D01*
X144600Y795652D02*X145350Y794902D01*
X98000Y795652D02*X98750Y794902D01*
X98000Y797152D02*Y795652D01*
Y797152D02*X98750Y797902D01*
X100250D01*
X101000Y797152D01*
Y795652D01*
X100250Y794902D02*X101000Y795652D01*
X98750Y794902D02*X100250D01*
X98000Y798652D02*X98750Y797902D01*
X98000Y800152D02*Y798652D01*
Y800152D02*X98750Y800902D01*
X100250D01*
X101000Y800152D01*
Y798652D01*
X100250Y797902D02*X101000Y798652D01*
X45000Y795652D02*X45750Y794902D01*
X45000Y800152D02*Y795652D01*
Y800152D02*X45750Y800902D01*
X47250D01*
X48000Y800152D01*
Y795652D01*
X47250Y794902D02*X48000Y795652D01*
X45750Y794902D02*X47250D01*
X45000Y796402D02*X48000Y799402D01*
X49800Y794902D02*X50550D01*
X53100D02*X54600D01*
X53850Y800902D02*Y794902D01*
X52350Y799402D02*X53850Y800902D01*
X56400Y800152D02*X57150Y800902D01*
X59400D01*
X60150Y800152D01*
Y798652D01*
X56400Y794902D02*X60150Y798652D01*
X56400Y794902D02*X60150D01*
X64200Y800902D02*X64950Y800152D01*
X62700Y800902D02*X64200D01*
X61950Y800152D02*X62700Y800902D01*
X61950Y800152D02*Y795652D01*
X62700Y794902D01*
X64200Y797902D02*X64950Y797152D01*
X61950Y797902D02*X64200D01*
X62700Y794902D02*X64200D01*
X64950Y795652D01*
Y797152D02*Y795652D01*
X1033800Y269202D02*Y266002D01*
Y269202D02*X1036573Y270802D01*
X1033800Y269202D02*X1031027Y270802D01*
X1032200Y269202D02*G75*G03X1035400Y269202I1600J0D01*G01*
G75*G03X1032200Y269202I-1600J0D01*G01*
X986400D02*Y266002D01*
Y269202D02*X989173Y270802D01*
X986400Y269202D02*X983627Y270802D01*
X984800Y269202D02*G75*G03X988000Y269202I1600J0D01*G01*
G75*G03X984800Y269202I-1600J0D01*G01*
X15000Y813652D02*Y810452D01*
Y813652D02*X17773Y815252D01*
X15000Y813652D02*X12227Y815252D01*
X13400Y813652D02*G75*G03X16600Y813652I1600J0D01*G01*
G75*G03X13400Y813652I-1600J0D01*G01*
X135000Y815902D02*Y815152D01*
X136500Y813652D01*
X138000Y815152D01*
Y815902D02*Y815152D01*
X136500Y813652D02*Y809902D01*
X139800Y812902D02*X142050D01*
X139800Y809902D02*X142800D01*
X139800Y815902D02*Y809902D01*
Y815902D02*X142800D01*
X147600D02*X148350Y815152D01*
X145350Y815902D02*X147600D01*
X144600Y815152D02*X145350Y815902D01*
X144600Y815152D02*Y813652D01*
X145350Y812902D01*
X147600D01*
X148350Y812152D01*
Y810652D01*
X147600Y809902D02*X148350Y810652D01*
X145350Y809902D02*X147600D01*
X144600Y810652D02*X145350Y809902D01*
X98000Y815152D02*X98750Y815902D01*
X101000D01*
X101750Y815152D01*
Y813652D01*
X98000Y809902D02*X101750Y813652D01*
X98000Y809902D02*X101750D01*
X45000Y810652D02*X45750Y809902D01*
X45000Y815152D02*Y810652D01*
Y815152D02*X45750Y815902D01*
X47250D01*
X48000Y815152D01*
Y810652D01*
X47250Y809902D02*X48000Y810652D01*
X45750Y809902D02*X47250D01*
X45000Y811402D02*X48000Y814402D01*
X49800Y809902D02*X50550D01*
X52350Y810652D02*X53100Y809902D01*
X52350Y815152D02*Y810652D01*
Y815152D02*X53100Y815902D01*
X54600D01*
X55350Y815152D01*
Y810652D01*
X54600Y809902D02*X55350Y810652D01*
X53100Y809902D02*X54600D01*
X52350Y811402D02*X55350Y814402D01*
X57150Y810652D02*X57900Y809902D01*
X57150Y812152D02*Y810652D01*
Y812152D02*X57900Y812902D01*
X59400D01*
X60150Y812152D01*
Y810652D01*
X59400Y809902D02*X60150Y810652D01*
X57900Y809902D02*X59400D01*
X57150Y813652D02*X57900Y812902D01*
X57150Y815152D02*Y813652D01*
Y815152D02*X57900Y815902D01*
X59400D01*
X60150Y815152D01*
Y813652D01*
X59400Y812902D02*X60150Y813652D01*
X61950Y809902D02*X65700Y813652D01*
Y815902D02*Y813652D01*
X61950Y815902D02*X65700D01*
X568400Y416502D02*X571600D01*
X568400D02*Y413302D01*
X571600D01*
Y416502D02*Y413302D01*
X588400Y416502D02*X591600D01*
X588400D02*Y413302D01*
X591600D01*
Y416502D02*Y413302D01*
X608400Y416502D02*X611600D01*
X608400D02*Y413302D01*
X611600D01*
Y416502D02*Y413302D01*
X628400Y416502D02*X631600D01*
X628400D02*Y413302D01*
X631600D01*
Y416502D02*Y413302D01*
X570900Y559002D02*X574100D01*
X570900D02*Y555802D01*
X574100D01*
Y559002D02*Y555802D01*
X570900Y579002D02*X574100D01*
X570900D02*Y575802D01*
X574100D01*
Y579002D02*Y575802D01*
X570900Y599002D02*X574100D01*
X570900D02*Y595802D01*
X574100D01*
Y599002D02*Y595802D01*
X570900Y619002D02*X574100D01*
X570900D02*Y615802D01*
X574100D01*
Y619002D02*Y615802D01*
X13400Y830252D02*X16600D01*
X13400D02*Y827052D01*
X16600D01*
Y830252D02*Y827052D01*
X135000Y830902D02*Y830152D01*
X136500Y828652D01*
X138000Y830152D01*
Y830902D02*Y830152D01*
X136500Y828652D02*Y824902D01*
X139800Y827902D02*X142050D01*
X139800Y824902D02*X142800D01*
X139800Y830902D02*Y824902D01*
Y830902D02*X142800D01*
X147600D02*X148350Y830152D01*
X145350Y830902D02*X147600D01*
X144600Y830152D02*X145350Y830902D01*
X144600Y830152D02*Y828652D01*
X145350Y827902D01*
X147600D01*
X148350Y827152D01*
Y825652D01*
X147600Y824902D02*X148350Y825652D01*
X145350Y824902D02*X147600D01*
X144600Y825652D02*X145350Y824902D01*
X98000Y825652D02*X98750Y824902D01*
X98000Y827152D02*Y825652D01*
Y827152D02*X98750Y827902D01*
X100250D01*
X101000Y827152D01*
Y825652D01*
X100250Y824902D02*X101000Y825652D01*
X98750Y824902D02*X100250D01*
X98000Y828652D02*X98750Y827902D01*
X98000Y830152D02*Y828652D01*
Y830152D02*X98750Y830902D01*
X100250D01*
X101000Y830152D01*
Y828652D01*
X100250Y827902D02*X101000Y828652D01*
X45000Y825652D02*X45750Y824902D01*
X45000Y830152D02*Y825652D01*
Y830152D02*X45750Y830902D01*
X47250D01*
X48000Y830152D01*
Y825652D01*
X47250Y824902D02*X48000Y825652D01*
X45750Y824902D02*X47250D01*
X45000Y826402D02*X48000Y829402D01*
X49800Y824902D02*X50550D01*
X52350Y825652D02*X53100Y824902D01*
X52350Y830152D02*Y825652D01*
Y830152D02*X53100Y830902D01*
X54600D01*
X55350Y830152D01*
Y825652D01*
X54600Y824902D02*X55350Y825652D01*
X53100Y824902D02*X54600D01*
X52350Y826402D02*X55350Y829402D01*
X59400Y830902D02*X60150Y830152D01*
X57900Y830902D02*X59400D01*
X57150Y830152D02*X57900Y830902D01*
X57150Y830152D02*Y825652D01*
X57900Y824902D01*
X59400Y827902D02*X60150Y827152D01*
X57150Y827902D02*X59400D01*
X57900Y824902D02*X59400D01*
X60150Y825652D01*
Y827152D02*Y825652D01*
X61950Y824902D02*X65700Y828652D01*
Y830902D02*Y828652D01*
X61950Y830902D02*X65700D01*
X594141Y336969D02*G75*G03X595741Y336969I800J0D01*G01*
G75*G03X594141Y336969I-800J0D01*G01*
Y352717D02*G75*G03X595741Y352717I800J0D01*G01*
G75*G03X594141Y352717I-800J0D01*G01*
Y271969D02*G75*G03X595741Y271969I800J0D01*G01*
G75*G03X594141Y271969I-800J0D01*G01*
Y287717D02*G75*G03X595741Y287717I800J0D01*G01*
G75*G03X594141Y287717I-800J0D01*G01*
X14200Y843652D02*G75*G03X15800Y843652I800J0D01*G01*
G75*G03X14200Y843652I-800J0D01*G01*
X135000Y845902D02*Y845152D01*
X136500Y843652D01*
X138000Y845152D01*
Y845902D02*Y845152D01*
X136500Y843652D02*Y839902D01*
X139800Y842902D02*X142050D01*
X139800Y839902D02*X142800D01*
X139800Y845902D02*Y839902D01*
Y845902D02*X142800D01*
X147600D02*X148350Y845152D01*
X145350Y845902D02*X147600D01*
X144600Y845152D02*X145350Y845902D01*
X144600Y845152D02*Y843652D01*
X145350Y842902D01*
X147600D01*
X148350Y842152D01*
Y840652D01*
X147600Y839902D02*X148350Y840652D01*
X145350Y839902D02*X147600D01*
X144600Y840652D02*X145350Y839902D01*
X98000Y842902D02*X101000Y845902D01*
X98000Y842902D02*X101750D01*
X101000Y845902D02*Y839902D01*
X45000Y840652D02*X45750Y839902D01*
X45000Y845152D02*Y840652D01*
Y845152D02*X45750Y845902D01*
X47250D01*
X48000Y845152D01*
Y840652D01*
X47250Y839902D02*X48000Y840652D01*
X45750Y839902D02*X47250D01*
X45000Y841402D02*X48000Y844402D01*
X49800Y839902D02*X50550D01*
X52350Y840652D02*X53100Y839902D01*
X52350Y845152D02*Y840652D01*
Y845152D02*X53100Y845902D01*
X54600D01*
X55350Y845152D01*
Y840652D01*
X54600Y839902D02*X55350Y840652D01*
X53100Y839902D02*X54600D01*
X52350Y841402D02*X55350Y844402D01*
X59400Y845902D02*X60150Y845152D01*
X57900Y845902D02*X59400D01*
X57150Y845152D02*X57900Y845902D01*
X57150Y845152D02*Y840652D01*
X57900Y839902D01*
X59400Y842902D02*X60150Y842152D01*
X57150Y842902D02*X59400D01*
X57900Y839902D02*X59400D01*
X60150Y840652D01*
Y842152D02*Y840652D01*
X61950Y845152D02*X62700Y845902D01*
X64200D01*
X64950Y845152D01*
Y840652D01*
X64200Y839902D02*X64950Y840652D01*
X62700Y839902D02*X64200D01*
X61950Y840652D02*X62700Y839902D01*
Y842902D02*X64950D01*
X1176300Y467815D02*X1178700Y465415D01*
X1176300D02*X1178700Y467815D01*
X1176300Y451280D02*X1178700Y448880D01*
X1176300D02*X1178700Y451280D01*
X1176300Y434744D02*X1178700Y432344D01*
X1176300D02*X1178700Y434744D01*
X1176300Y418209D02*X1178700Y415809D01*
X1176300D02*X1178700Y418209D01*
X1176300Y401673D02*X1178700Y399273D01*
X1176300D02*X1178700Y401673D01*
X1176300Y385138D02*X1178700Y382738D01*
X1176300D02*X1178700Y385138D01*
X1176300Y368602D02*X1178700Y366202D01*
X1176300D02*X1178700Y368602D01*
X1176300Y352067D02*X1178700Y349667D01*
X1176300D02*X1178700Y352067D01*
X1176300Y335531D02*X1178700Y333131D01*
X1176300D02*X1178700Y335531D01*
X1176300Y318996D02*X1178700Y316596D01*
X1176300D02*X1178700Y318996D01*
X1154647Y467815D02*X1157047Y465415D01*
X1154647D02*X1157047Y467815D01*
X1154647Y451279D02*X1157047Y448879D01*
X1154647D02*X1157047Y451279D01*
X1154647Y434743D02*X1157047Y432343D01*
X1154647D02*X1157047Y434743D01*
X1154647Y418208D02*X1157047Y415808D01*
X1154647D02*X1157047Y418208D01*
X1154647Y401672D02*X1157047Y399272D01*
X1154647D02*X1157047Y401672D01*
X1154647Y385137D02*X1157047Y382737D01*
X1154647D02*X1157047Y385137D01*
X1154647Y368601D02*X1157047Y366201D01*
X1154647D02*X1157047Y368601D01*
X1154647Y352066D02*X1157047Y349666D01*
X1154647D02*X1157047Y352066D01*
X1154647Y335530D02*X1157047Y333130D01*
X1154647D02*X1157047Y335530D01*
X1154647Y318995D02*X1157047Y316595D01*
X1154647D02*X1157047Y318995D01*
X1176300Y302461D02*X1178700Y300061D01*
X1176300D02*X1178700Y302461D01*
X1176300Y285925D02*X1178700Y283525D01*
X1176300D02*X1178700Y285925D01*
X1154647Y302461D02*X1157047Y300061D01*
X1154647D02*X1157047Y302461D01*
X1154647Y285925D02*X1157047Y283525D01*
X1154647D02*X1157047Y285925D01*
X13800Y859852D02*X16200Y857452D01*
X13800D02*X16200Y859852D01*
X135000Y860902D02*Y860152D01*
X136500Y858652D01*
X138000Y860152D01*
Y860902D02*Y860152D01*
X136500Y858652D02*Y854902D01*
X139800Y857902D02*X142050D01*
X139800Y854902D02*X142800D01*
X139800Y860902D02*Y854902D01*
Y860902D02*X142800D01*
X147600D02*X148350Y860152D01*
X145350Y860902D02*X147600D01*
X144600Y860152D02*X145350Y860902D01*
X144600Y860152D02*Y858652D01*
X145350Y857902D01*
X147600D01*
X148350Y857152D01*
Y855652D01*
X147600Y854902D02*X148350Y855652D01*
X145350Y854902D02*X147600D01*
X144600Y855652D02*X145350Y854902D01*
X98000Y860152D02*X98750Y860902D01*
X101000D01*
X101750Y860152D01*
Y858652D01*
X98000Y854902D02*X101750Y858652D01*
X98000Y854902D02*X101750D01*
X103550Y857902D02*X106550Y860902D01*
X103550Y857902D02*X107300D01*
X106550Y860902D02*Y854902D01*
X45000Y855652D02*X45750Y854902D01*
X45000Y860152D02*Y855652D01*
Y860152D02*X45750Y860902D01*
X47250D01*
X48000Y860152D01*
Y855652D01*
X47250Y854902D02*X48000Y855652D01*
X45750Y854902D02*X47250D01*
X45000Y856402D02*X48000Y859402D01*
X49800Y854902D02*X50550D01*
X52350Y855652D02*X53100Y854902D01*
X52350Y860152D02*Y855652D01*
Y860152D02*X53100Y860902D01*
X54600D01*
X55350Y860152D01*
Y855652D01*
X54600Y854902D02*X55350Y855652D01*
X53100Y854902D02*X54600D01*
X52350Y856402D02*X55350Y859402D01*
X57150Y860902D02*X60150D01*
X57150D02*Y857902D01*
X57900Y858652D01*
X59400D01*
X60150Y857902D01*
Y855652D01*
X59400Y854902D02*X60150Y855652D01*
X57900Y854902D02*X59400D01*
X57150Y855652D02*X57900Y854902D01*
X62700D02*X64200D01*
X63450Y860902D02*Y854902D01*
X61950Y859402D02*X63450Y860902D01*
X1077500Y311502D02*Y308302D01*
X1075900Y309902D02*X1079100D01*
X1087500Y311502D02*Y308302D01*
X1085900Y309902D02*X1089100D01*
X1087500Y324002D02*Y320802D01*
X1085900Y322402D02*X1089100D01*
X1097500Y324002D02*Y320802D01*
X1095900Y322402D02*X1099100D01*
X1022500Y301502D02*Y298302D01*
X1020900Y299902D02*X1024100D01*
X1022500Y319218D02*Y316018D01*
X1020900Y317618D02*X1024100D01*
X996910Y301502D02*Y298302D01*
X995310Y299902D02*X998510D01*
X996910Y319218D02*Y316018D01*
X995310Y317618D02*X998510D01*
X785000Y401502D02*Y398302D01*
X783400Y399902D02*X786600D01*
X785000Y391502D02*Y388302D01*
X783400Y389902D02*X786600D01*
X775000Y401502D02*Y398302D01*
X773400Y399902D02*X776600D01*
X775000Y391502D02*Y388302D01*
X773400Y389902D02*X776600D01*
X765000Y401502D02*Y398302D01*
X763400Y399902D02*X766600D01*
X765000Y391502D02*Y388302D01*
X763400Y389902D02*X766600D01*
X835000Y269002D02*Y265802D01*
X833400Y267402D02*X836600D01*
X835000Y259002D02*Y255802D01*
X833400Y257402D02*X836600D01*
X835000Y249002D02*Y245802D01*
X833400Y247402D02*X836600D01*
X737500Y269002D02*Y265802D01*
X735900Y267402D02*X739100D01*
X737500Y259002D02*Y255802D01*
X735900Y257402D02*X739100D01*
X737500Y249002D02*Y245802D01*
X735900Y247402D02*X739100D01*
X790000Y269002D02*Y265802D01*
X788400Y267402D02*X791600D01*
X790000Y259002D02*Y255802D01*
X788400Y257402D02*X791600D01*
X790000Y249002D02*Y245802D01*
X788400Y247402D02*X791600D01*
X647500Y359002D02*Y355802D01*
X645900Y357402D02*X649100D01*
X647500Y349002D02*Y345802D01*
X645900Y347402D02*X649100D01*
X647500Y339002D02*Y335802D01*
X645900Y337402D02*X649100D01*
X647500Y294002D02*Y290802D01*
X645900Y292402D02*X649100D01*
X647500Y284002D02*Y280802D01*
X645900Y282402D02*X649100D01*
X647500Y274002D02*Y270802D01*
X645900Y272402D02*X649100D01*
X587441Y336443D02*Y333243D01*
X585841Y334843D02*X589041D01*
X587441Y356443D02*Y353243D01*
X585841Y354843D02*X589041D01*
X587441Y271443D02*Y268243D01*
X585841Y269843D02*X589041D01*
X587441Y291443D02*Y288243D01*
X585841Y289843D02*X589041D01*
X560000Y314002D02*Y310802D01*
X558400Y312402D02*X561600D01*
X600000Y314002D02*Y310802D01*
X598400Y312402D02*X601600D01*
X560000Y379002D02*Y375802D01*
X558400Y377402D02*X561600D01*
X600000Y379002D02*Y375802D01*
X598400Y377402D02*X601600D01*
X567500Y464002D02*Y460802D01*
X565900Y462402D02*X569100D01*
X567500Y454002D02*Y450802D01*
X565900Y452402D02*X569100D01*
X567500Y491502D02*Y488302D01*
X565900Y489902D02*X569100D01*
X567500Y481502D02*Y478302D01*
X565900Y479902D02*X569100D01*
X775000Y526502D02*Y523302D01*
X773400Y524902D02*X776600D01*
X775000Y516502D02*Y513302D01*
X773400Y514902D02*X776600D01*
X1072500Y491502D02*Y488302D01*
X1070900Y489902D02*X1074100D01*
X1062500Y491502D02*Y488302D01*
X1060900Y489902D02*X1064100D01*
X1072500Y481502D02*Y478302D01*
X1070900Y479902D02*X1074100D01*
X1062500Y481502D02*Y478302D01*
X1060900Y479902D02*X1064100D01*
X902500Y331502D02*Y328302D01*
X900900Y329902D02*X904100D01*
X912500Y331502D02*Y328302D01*
X910900Y329902D02*X914100D01*
X922500Y331502D02*Y328302D01*
X920900Y329902D02*X924100D01*
X932500Y331502D02*Y328302D01*
X930900Y329902D02*X934100D01*
X942500Y331502D02*Y328302D01*
X940900Y329902D02*X944100D01*
X952500Y331502D02*Y328302D01*
X950900Y329902D02*X954100D01*
X962500Y331502D02*Y328302D01*
X960900Y329902D02*X964100D01*
X972500Y331502D02*Y328302D01*
X970900Y329902D02*X974100D01*
X982500Y331502D02*Y328302D01*
X980900Y329902D02*X984100D01*
X992500Y331502D02*Y328302D01*
X990900Y329902D02*X994100D01*
X1002500Y331502D02*Y328302D01*
X1000900Y329902D02*X1004100D01*
X1012500Y331502D02*Y328302D01*
X1010900Y329902D02*X1014100D01*
X1022500Y331502D02*Y328302D01*
X1020900Y329902D02*X1024100D01*
X1032500Y331502D02*Y328302D01*
X1030900Y329902D02*X1034100D01*
X1032500Y451502D02*Y448302D01*
X1030900Y449902D02*X1034100D01*
X1022500Y451502D02*Y448302D01*
X1020900Y449902D02*X1024100D01*
X1012500Y451502D02*Y448302D01*
X1010900Y449902D02*X1014100D01*
X1002500Y451502D02*Y448302D01*
X1000900Y449902D02*X1004100D01*
X992500Y451502D02*Y448302D01*
X990900Y449902D02*X994100D01*
X982500Y451502D02*Y448302D01*
X980900Y449902D02*X984100D01*
X972500Y451502D02*Y448302D01*
X970900Y449902D02*X974100D01*
X962500Y451502D02*Y448302D01*
X960900Y449902D02*X964100D01*
X952500Y451502D02*Y448302D01*
X950900Y449902D02*X954100D01*
X942500Y451502D02*Y448302D01*
X940900Y449902D02*X944100D01*
X932500Y451502D02*Y448302D01*
X930900Y449902D02*X934100D01*
X922500Y451502D02*Y448302D01*
X920900Y449902D02*X924100D01*
X912500Y451502D02*Y448302D01*
X910900Y449902D02*X914100D01*
X902500Y451502D02*Y448302D01*
X900900Y449902D02*X904100D01*
X950000Y594002D02*Y590802D01*
X948400Y592402D02*X951600D01*
X940000Y594002D02*Y590802D01*
X938400Y592402D02*X941600D01*
X950000Y544002D02*Y540802D01*
X948400Y542402D02*X951600D01*
X960000Y544002D02*Y540802D01*
X958400Y542402D02*X961600D01*
X970000Y544002D02*Y540802D01*
X968400Y542402D02*X971600D01*
X980000Y544002D02*Y540802D01*
X978400Y542402D02*X981600D01*
X990000Y544002D02*Y540802D01*
X988400Y542402D02*X991600D01*
X1000000Y544002D02*Y540802D01*
X998400Y542402D02*X1001600D01*
X1010000Y544002D02*Y540802D01*
X1008400Y542402D02*X1011600D01*
X1000000Y594002D02*Y590802D01*
X998400Y592402D02*X1001600D01*
X990000Y594002D02*Y590802D01*
X988400Y592402D02*X991600D01*
X980000Y594002D02*Y590802D01*
X978400Y592402D02*X981600D01*
X970000Y594002D02*Y590802D01*
X968400Y592402D02*X971600D01*
X960000Y594002D02*Y590802D01*
X958400Y592402D02*X961600D01*
X940000Y544002D02*Y540802D01*
X938400Y542402D02*X941600D01*
X1010000Y594002D02*Y590802D01*
X1008400Y592402D02*X1011600D01*
X765000Y594002D02*Y590802D01*
X763400Y592402D02*X766600D01*
X755000Y594002D02*Y590802D01*
X753400Y592402D02*X756600D01*
X765000Y544002D02*Y540802D01*
X763400Y542402D02*X766600D01*
X775000Y544002D02*Y540802D01*
X773400Y542402D02*X776600D01*
X785000Y544002D02*Y540802D01*
X783400Y542402D02*X786600D01*
X795000Y544002D02*Y540802D01*
X793400Y542402D02*X796600D01*
X805000Y544002D02*Y540802D01*
X803400Y542402D02*X806600D01*
X815000Y544002D02*Y540802D01*
X813400Y542402D02*X816600D01*
X825000Y544002D02*Y540802D01*
X823400Y542402D02*X826600D01*
X815000Y594002D02*Y590802D01*
X813400Y592402D02*X816600D01*
X805000Y594002D02*Y590802D01*
X803400Y592402D02*X806600D01*
X795000Y594002D02*Y590802D01*
X793400Y592402D02*X796600D01*
X785000Y594002D02*Y590802D01*
X783400Y592402D02*X786600D01*
X775000Y594002D02*Y590802D01*
X773400Y592402D02*X776600D01*
X755000Y544002D02*Y540802D01*
X753400Y542402D02*X756600D01*
X825000Y594002D02*Y590802D01*
X823400Y592402D02*X826600D01*
X857500Y594002D02*Y590802D01*
X855900Y592402D02*X859100D01*
X847500Y594002D02*Y590802D01*
X845900Y592402D02*X849100D01*
X857500Y544002D02*Y540802D01*
X855900Y542402D02*X859100D01*
X867500Y544002D02*Y540802D01*
X865900Y542402D02*X869100D01*
X877500Y544002D02*Y540802D01*
X875900Y542402D02*X879100D01*
X887500Y544002D02*Y540802D01*
X885900Y542402D02*X889100D01*
X897500Y544002D02*Y540802D01*
X895900Y542402D02*X899100D01*
X907500Y544002D02*Y540802D01*
X905900Y542402D02*X909100D01*
X917500Y544002D02*Y540802D01*
X915900Y542402D02*X919100D01*
X907500Y594002D02*Y590802D01*
X905900Y592402D02*X909100D01*
X897500Y594002D02*Y590802D01*
X895900Y592402D02*X899100D01*
X887500Y594002D02*Y590802D01*
X885900Y592402D02*X889100D01*
X877500Y594002D02*Y590802D01*
X875900Y592402D02*X879100D01*
X867500Y594002D02*Y590802D01*
X865900Y592402D02*X869100D01*
X847500Y544002D02*Y540802D01*
X845900Y542402D02*X849100D01*
X917500Y594002D02*Y590802D01*
X915900Y592402D02*X919100D01*
X672559Y594061D02*Y590861D01*
X670959Y592461D02*X674159D01*
X662559Y594061D02*Y590861D01*
X660959Y592461D02*X664159D01*
X672559Y544061D02*Y540861D01*
X670959Y542461D02*X674159D01*
X682559Y544061D02*Y540861D01*
X680959Y542461D02*X684159D01*
X692559Y544061D02*Y540861D01*
X690959Y542461D02*X694159D01*
X702559Y544061D02*Y540861D01*
X700959Y542461D02*X704159D01*
X712559Y544061D02*Y540861D01*
X710959Y542461D02*X714159D01*
X722559Y544061D02*Y540861D01*
X720959Y542461D02*X724159D01*
X732559Y544061D02*Y540861D01*
X730959Y542461D02*X734159D01*
X722559Y594061D02*Y590861D01*
X720959Y592461D02*X724159D01*
X712559Y594061D02*Y590861D01*
X710959Y592461D02*X714159D01*
X702559Y594061D02*Y590861D01*
X700959Y592461D02*X704159D01*
X692559Y594061D02*Y590861D01*
X690959Y592461D02*X694159D01*
X682559Y594061D02*Y590861D01*
X680959Y592461D02*X684159D01*
X662559Y544061D02*Y540861D01*
X660959Y542461D02*X664159D01*
X732559Y594061D02*Y590861D01*
X730959Y592461D02*X734159D01*
X897559Y619061D02*Y615861D01*
X895959Y617461D02*X899159D01*
X887559Y619061D02*Y615861D01*
X885959Y617461D02*X889159D01*
X877559Y619061D02*Y615861D01*
X875959Y617461D02*X879159D01*
X867559Y619061D02*Y615861D01*
X865959Y617461D02*X869159D01*
X805059Y619061D02*Y615861D01*
X803459Y617461D02*X806659D01*
X795059Y619061D02*Y615861D01*
X793459Y617461D02*X796659D01*
X785059Y619061D02*Y615861D01*
X783459Y617461D02*X786659D01*
X775059Y619061D02*Y615861D01*
X773459Y617461D02*X776659D01*
X712559Y619061D02*Y615861D01*
X710959Y617461D02*X714159D01*
X702559Y619061D02*Y615861D01*
X700959Y617461D02*X704159D01*
X692559Y619061D02*Y615861D01*
X690959Y617461D02*X694159D01*
X682559Y619061D02*Y615861D01*
X680959Y617461D02*X684159D01*
X1105000Y631502D02*Y628302D01*
X1103400Y629902D02*X1106600D01*
X1105000Y621502D02*Y618302D01*
X1103400Y619902D02*X1106600D01*
X867500Y526502D02*Y523302D01*
X865900Y524902D02*X869100D01*
X867500Y516502D02*Y513302D01*
X865900Y514902D02*X869100D01*
X877500Y526502D02*Y523302D01*
X875900Y524902D02*X879100D01*
X877500Y516502D02*Y513302D01*
X875900Y514902D02*X879100D01*
X960000Y526502D02*Y523302D01*
X958400Y524902D02*X961600D01*
X960000Y516502D02*Y513302D01*
X958400Y514902D02*X961600D01*
X970000Y526502D02*Y523302D01*
X968400Y524902D02*X971600D01*
X970000Y516502D02*Y513302D01*
X968400Y514902D02*X971600D01*
X785000Y526502D02*Y523302D01*
X783400Y524902D02*X786600D01*
X785000Y516502D02*Y513302D01*
X783400Y514902D02*X786600D01*
X692559Y526561D02*Y523361D01*
X690959Y524961D02*X694159D01*
X692559Y516561D02*Y513361D01*
X690959Y514961D02*X694159D01*
X682559Y526561D02*Y523361D01*
X680959Y524961D02*X684159D01*
X682559Y516561D02*Y513361D01*
X680959Y514961D02*X684159D01*
X1065000Y526502D02*Y523302D01*
X1063400Y524902D02*X1066600D01*
X1065000Y516502D02*Y513302D01*
X1063400Y514902D02*X1066600D01*
X1055000Y526502D02*Y523302D01*
X1053400Y524902D02*X1056600D01*
X1055000Y516502D02*Y513302D01*
X1053400Y514902D02*X1056600D01*
X1085000Y619002D02*Y615802D01*
X1083400Y617402D02*X1086600D01*
X1075000Y619002D02*Y615802D01*
X1073400Y617402D02*X1076600D01*
X1065000Y619002D02*Y615802D01*
X1063400Y617402D02*X1066600D01*
X1055000Y619002D02*Y615802D01*
X1053400Y617402D02*X1056600D01*
X1045000Y594002D02*Y590802D01*
X1043400Y592402D02*X1046600D01*
X1035000Y594002D02*Y590802D01*
X1033400Y592402D02*X1036600D01*
X1045000Y544002D02*Y540802D01*
X1043400Y542402D02*X1046600D01*
X1055000Y544002D02*Y540802D01*
X1053400Y542402D02*X1056600D01*
X1065000Y544002D02*Y540802D01*
X1063400Y542402D02*X1066600D01*
X1075000Y544002D02*Y540802D01*
X1073400Y542402D02*X1076600D01*
X1085000Y544002D02*Y540802D01*
X1083400Y542402D02*X1086600D01*
X1095000Y544002D02*Y540802D01*
X1093400Y542402D02*X1096600D01*
X1105000Y544002D02*Y540802D01*
X1103400Y542402D02*X1106600D01*
X1095000Y594002D02*Y590802D01*
X1093400Y592402D02*X1096600D01*
X1085000Y594002D02*Y590802D01*
X1083400Y592402D02*X1086600D01*
X1075000Y594002D02*Y590802D01*
X1073400Y592402D02*X1076600D01*
X1065000Y594002D02*Y590802D01*
X1063400Y592402D02*X1066600D01*
X1055000Y594002D02*Y590802D01*
X1053400Y592402D02*X1056600D01*
X1035000Y544002D02*Y540802D01*
X1033400Y542402D02*X1036600D01*
X1105000Y594002D02*Y590802D01*
X1103400Y592402D02*X1106600D01*
X990059Y619061D02*Y615861D01*
X988459Y617461D02*X991659D01*
X980059Y619061D02*Y615861D01*
X978459Y617461D02*X981659D01*
X970059Y619061D02*Y615861D01*
X968459Y617461D02*X971659D01*
X960059Y619061D02*Y615861D01*
X958459Y617461D02*X961659D01*
X15000Y875252D02*Y872052D01*
X13400Y873652D02*X16600D01*
X135000Y875902D02*Y875152D01*
X136500Y873652D01*
X138000Y875152D01*
Y875902D02*Y875152D01*
X136500Y873652D02*Y869902D01*
X139800Y872902D02*X142050D01*
X139800Y869902D02*X142800D01*
X139800Y875902D02*Y869902D01*
Y875902D02*X142800D01*
X147600D02*X148350Y875152D01*
X145350Y875902D02*X147600D01*
X144600Y875152D02*X145350Y875902D01*
X144600Y875152D02*Y873652D01*
X145350Y872902D01*
X147600D01*
X148350Y872152D01*
Y870652D01*
X147600Y869902D02*X148350Y870652D01*
X145350Y869902D02*X147600D01*
X144600Y870652D02*X145350Y869902D01*
X98750D02*X100250D01*
X99500Y875902D02*Y869902D01*
X98000Y874402D02*X99500Y875902D01*
X102050Y869902D02*X105050Y872902D01*
Y875152D02*Y872902D01*
X104300Y875902D02*X105050Y875152D01*
X102800Y875902D02*X104300D01*
X102050Y875152D02*X102800Y875902D01*
X102050Y875152D02*Y873652D01*
X102800Y872902D01*
X105050D01*
X106850Y875902D02*X109850D01*
X106850D02*Y872902D01*
X107600Y873652D01*
X109100D01*
X109850Y872902D01*
Y870652D01*
X109100Y869902D02*X109850Y870652D01*
X107600Y869902D02*X109100D01*
X106850Y870652D02*X107600Y869902D01*
X45000Y870652D02*X45750Y869902D01*
X45000Y875152D02*Y870652D01*
Y875152D02*X45750Y875902D01*
X47250D01*
X48000Y875152D01*
Y870652D01*
X47250Y869902D02*X48000Y870652D01*
X45750Y869902D02*X47250D01*
X45000Y871402D02*X48000Y874402D01*
X49800Y869902D02*X50550D01*
X52350Y870652D02*X53100Y869902D01*
X52350Y875152D02*Y870652D01*
Y875152D02*X53100Y875902D01*
X54600D01*
X55350Y875152D01*
Y870652D01*
X54600Y869902D02*X55350Y870652D01*
X53100Y869902D02*X54600D01*
X52350Y871402D02*X55350Y874402D01*
X57150Y872902D02*X60150Y875902D01*
X57150Y872902D02*X60900D01*
X60150Y875902D02*Y869902D01*
X62700Y870652D02*X63450Y869902D01*
X62700Y875152D02*Y870652D01*
Y875152D02*X63450Y875902D01*
X64950D01*
X65700Y875152D01*
Y870652D01*
X64950Y869902D02*X65700Y870652D01*
X63450Y869902D02*X64950D01*
X62700Y871402D02*X65700Y874402D01*
X978400Y394902D02*Y393302D01*
Y394902D02*X979787Y395702D01*
X978400Y394902D02*X977013Y395702D01*
X960000Y394902D02*Y393302D01*
Y394902D02*X961387Y395702D01*
X960000Y394902D02*X958613Y395702D01*
X1062500Y282402D02*Y280802D01*
Y282402D02*X1063887Y283202D01*
X1062500Y282402D02*X1061113Y283202D01*
X1062500Y272402D02*Y270802D01*
Y272402D02*X1063887Y273202D01*
X1062500Y272402D02*X1061113Y273202D01*
X802500Y444902D02*Y443302D01*
Y444902D02*X803887Y445702D01*
X802500Y444902D02*X801113Y445702D01*
X802500Y474902D02*Y473302D01*
Y474902D02*X803887Y475702D01*
X802500Y474902D02*X801113Y475702D01*
X1062500Y262402D02*Y260802D01*
Y262402D02*X1063887Y263202D01*
X1062500Y262402D02*X1061113Y263202D01*
X1092500Y262402D02*Y260802D01*
Y262402D02*X1093887Y263202D01*
X1092500Y262402D02*X1091113Y263202D01*
X1077500Y247402D02*Y245802D01*
Y247402D02*X1078887Y248202D01*
X1077500Y247402D02*X1076113Y248202D01*
X1087500Y247402D02*Y245802D01*
Y247402D02*X1088887Y248202D01*
X1087500Y247402D02*X1086113Y248202D01*
X1040000Y314902D02*Y313302D01*
Y314902D02*X1041387Y315702D01*
X1040000Y314902D02*X1038613Y315702D01*
X1040000Y284902D02*Y283302D01*
Y284902D02*X1041387Y285702D01*
X1040000Y284902D02*X1038613Y285702D01*
X1086200Y282402D02*Y280802D01*
Y282402D02*X1087587Y283202D01*
X1086200Y282402D02*X1084813Y283202D01*
X1100000Y282402D02*Y280802D01*
Y282402D02*X1101387Y283202D01*
X1100000Y282402D02*X1098613Y283202D01*
X877500Y312402D02*Y310802D01*
Y312402D02*X878887Y313202D01*
X877500Y312402D02*X876113Y313202D01*
X877500Y342402D02*Y340802D01*
Y342402D02*X878887Y343202D01*
X877500Y342402D02*X876113Y343202D01*
X1040000Y247402D02*Y245802D01*
Y247402D02*X1041387Y248202D01*
X1040000Y247402D02*X1038613Y248202D01*
X1070000Y247402D02*Y245802D01*
Y247402D02*X1071387Y248202D01*
X1070000Y247402D02*X1068613Y248202D01*
X815000Y437402D02*Y435802D01*
Y437402D02*X816387Y438202D01*
X815000Y437402D02*X813613Y438202D01*
X815000Y467402D02*Y465802D01*
Y467402D02*X816387Y468202D01*
X815000Y467402D02*X813613Y468202D01*
X1057500Y312402D02*Y310802D01*
Y312402D02*X1058887Y313202D01*
X1057500Y312402D02*X1056113Y313202D01*
X1057500Y362402D02*Y360802D01*
Y362402D02*X1058887Y363202D01*
X1057500Y362402D02*X1056113Y363202D01*
X1015000Y279902D02*Y278302D01*
Y279902D02*X1016387Y280702D01*
X1015000Y279902D02*X1013613Y280702D01*
X1005200Y279902D02*Y278302D01*
Y279902D02*X1006587Y280702D01*
X1005200Y279902D02*X1003813Y280702D01*
X1005200Y287702D02*Y286102D01*
Y287702D02*X1006587Y288502D01*
X1005200Y287702D02*X1003813Y288502D01*
X1015000Y287702D02*Y286102D01*
Y287702D02*X1016387Y288502D01*
X1015000Y287702D02*X1013613Y288502D01*
X867500Y312402D02*Y310802D01*
Y312402D02*X868887Y313202D01*
X867500Y312402D02*X866113Y313202D01*
X867500Y342402D02*Y340802D01*
Y342402D02*X868887Y343202D01*
X867500Y342402D02*X866113Y343202D01*
X897500Y302402D02*Y300802D01*
Y302402D02*X898887Y303202D01*
X897500Y302402D02*X896113Y303202D01*
X897500Y292402D02*Y290802D01*
Y292402D02*X898887Y293202D01*
X897500Y292402D02*X896113Y293202D01*
X887500Y312402D02*Y310802D01*
Y312402D02*X888887Y313202D01*
X887500Y312402D02*X886113Y313202D01*
X887500Y342402D02*Y340802D01*
Y342402D02*X888887Y343202D01*
X887500Y342402D02*X886113Y343202D01*
X877500Y302402D02*Y300802D01*
Y302402D02*X878887Y303202D01*
X877500Y302402D02*X876113Y303202D01*
X877500Y292402D02*Y290802D01*
Y292402D02*X878887Y293202D01*
X877500Y292402D02*X876113Y293202D01*
X985000Y307402D02*Y305802D01*
Y307402D02*X986387Y308202D01*
X985000Y307402D02*X983613Y308202D01*
X975000Y307402D02*Y305802D01*
Y307402D02*X976387Y308202D01*
X975000Y307402D02*X973613Y308202D01*
X980000Y294902D02*Y293302D01*
Y294902D02*X981387Y295702D01*
X980000Y294902D02*X978613Y295702D01*
X970000Y294902D02*Y293302D01*
Y294902D02*X971387Y295702D01*
X970000Y294902D02*X968613Y295702D01*
X875000Y252402D02*Y250802D01*
Y252402D02*X876387Y253202D01*
X875000Y252402D02*X873613Y253202D01*
X885000Y252402D02*Y250802D01*
Y252402D02*X886387Y253202D01*
X885000Y252402D02*X883613Y253202D01*
X875000Y262402D02*Y260802D01*
Y262402D02*X876387Y263202D01*
X875000Y262402D02*X873613Y263202D01*
X885000Y262402D02*Y260802D01*
Y262402D02*X886387Y263202D01*
X885000Y262402D02*X883613Y263202D01*
X900000Y252402D02*Y250802D01*
Y252402D02*X901387Y253202D01*
X900000Y252402D02*X898613Y253202D01*
X900000Y270802D02*Y269202D01*
Y270802D02*X901387Y271602D01*
X900000Y270802D02*X898613Y271602D01*
X962500Y357402D02*Y355802D01*
Y357402D02*X963887Y358202D01*
X962500Y357402D02*X961113Y358202D01*
X962500Y347402D02*Y345802D01*
Y347402D02*X963887Y348202D01*
X962500Y347402D02*X961113Y348202D01*
X952500Y357402D02*Y355802D01*
Y357402D02*X953887Y358202D01*
X952500Y357402D02*X951113Y358202D01*
X952500Y347402D02*Y345802D01*
Y347402D02*X953887Y348202D01*
X952500Y347402D02*X951113Y348202D01*
X960000Y412402D02*Y410802D01*
Y412402D02*X961387Y413202D01*
X960000Y412402D02*X958613Y413202D01*
X950000Y412402D02*Y410802D01*
Y412402D02*X951387Y413202D01*
X950000Y412402D02*X948613Y413202D01*
X915000Y412402D02*Y410802D01*
Y412402D02*X916387Y413202D01*
X915000Y412402D02*X913613Y413202D01*
X925000Y412402D02*Y410802D01*
Y412402D02*X926387Y413202D01*
X925000Y412402D02*X923613Y413202D01*
X942500Y357402D02*Y355802D01*
Y357402D02*X943887Y358202D01*
X942500Y357402D02*X941113Y358202D01*
X932500Y357402D02*Y355802D01*
Y357402D02*X933887Y358202D01*
X932500Y357402D02*X931113Y358202D01*
X842500Y369902D02*Y368302D01*
Y369902D02*X843887Y370702D01*
X842500Y369902D02*X841113Y370702D01*
X852500Y369902D02*Y368302D01*
Y369902D02*X853887Y370702D01*
X852500Y369902D02*X851113Y370702D01*
X862500Y369902D02*Y368302D01*
Y369902D02*X863887Y370702D01*
X862500Y369902D02*X861113Y370702D01*
X872500Y369902D02*Y368302D01*
Y369902D02*X873887Y370702D01*
X872500Y369902D02*X871113Y370702D01*
X882500Y369902D02*Y368302D01*
Y369902D02*X883887Y370702D01*
X882500Y369902D02*X881113Y370702D01*
X892500Y369902D02*Y368302D01*
Y369902D02*X893887Y370702D01*
X892500Y369902D02*X891113Y370702D01*
X902500Y369902D02*Y368302D01*
Y369902D02*X903887Y370702D01*
X902500Y369902D02*X901113Y370702D01*
X912500Y369902D02*Y368302D01*
Y369902D02*X913887Y370702D01*
X912500Y369902D02*X911113Y370702D01*
X922500Y369902D02*Y368302D01*
Y369902D02*X923887Y370702D01*
X922500Y369902D02*X921113Y370702D01*
X932500Y369902D02*Y368302D01*
Y369902D02*X933887Y370702D01*
X932500Y369902D02*X931113Y370702D01*
X942500Y369902D02*Y368302D01*
Y369902D02*X943887Y370702D01*
X942500Y369902D02*X941113Y370702D01*
X952500Y369902D02*Y368302D01*
Y369902D02*X953887Y370702D01*
X952500Y369902D02*X951113Y370702D01*
X962500Y369902D02*Y368302D01*
Y369902D02*X963887Y370702D01*
X962500Y369902D02*X961113Y370702D01*
X972500Y369902D02*Y368302D01*
Y369902D02*X973887Y370702D01*
X972500Y369902D02*X971113Y370702D01*
X982500Y369902D02*Y368302D01*
Y369902D02*X983887Y370702D01*
X982500Y369902D02*X981113Y370702D01*
X992500Y369902D02*Y368302D01*
Y369902D02*X993887Y370702D01*
X992500Y369902D02*X991113Y370702D01*
X1002500Y369902D02*Y368302D01*
Y369902D02*X1003887Y370702D01*
X1002500Y369902D02*X1001113Y370702D01*
X1012500Y369902D02*Y368302D01*
Y369902D02*X1013887Y370702D01*
X1012500Y369902D02*X1011113Y370702D01*
X1022500Y369902D02*Y368302D01*
Y369902D02*X1023887Y370702D01*
X1022500Y369902D02*X1021113Y370702D01*
X1032500Y369902D02*Y368302D01*
Y369902D02*X1033887Y370702D01*
X1032500Y369902D02*X1031113Y370702D01*
X1032500Y429902D02*Y428302D01*
Y429902D02*X1033887Y430702D01*
X1032500Y429902D02*X1031113Y430702D01*
X1022500Y429902D02*Y428302D01*
Y429902D02*X1023887Y430702D01*
X1022500Y429902D02*X1021113Y430702D01*
X1012500Y429902D02*Y428302D01*
Y429902D02*X1013887Y430702D01*
X1012500Y429902D02*X1011113Y430702D01*
X1002500Y429902D02*Y428302D01*
Y429902D02*X1003887Y430702D01*
X1002500Y429902D02*X1001113Y430702D01*
X992500Y429902D02*Y428302D01*
Y429902D02*X993887Y430702D01*
X992500Y429902D02*X991113Y430702D01*
X982500Y429902D02*Y428302D01*
Y429902D02*X983887Y430702D01*
X982500Y429902D02*X981113Y430702D01*
X972500Y429902D02*Y428302D01*
Y429902D02*X973887Y430702D01*
X972500Y429902D02*X971113Y430702D01*
X962500Y429902D02*Y428302D01*
Y429902D02*X963887Y430702D01*
X962500Y429902D02*X961113Y430702D01*
X952500Y429902D02*Y428302D01*
Y429902D02*X953887Y430702D01*
X952500Y429902D02*X951113Y430702D01*
X942500Y429902D02*Y428302D01*
Y429902D02*X943887Y430702D01*
X942500Y429902D02*X941113Y430702D01*
X932500Y429902D02*Y428302D01*
Y429902D02*X933887Y430702D01*
X932500Y429902D02*X931113Y430702D01*
X922500Y429902D02*Y428302D01*
Y429902D02*X923887Y430702D01*
X922500Y429902D02*X921113Y430702D01*
X912500Y429902D02*Y428302D01*
Y429902D02*X913887Y430702D01*
X912500Y429902D02*X911113Y430702D01*
X902500Y429902D02*Y428302D01*
Y429902D02*X903887Y430702D01*
X902500Y429902D02*X901113Y430702D01*
X892500Y429902D02*Y428302D01*
Y429902D02*X893887Y430702D01*
X892500Y429902D02*X891113Y430702D01*
X882500Y429902D02*Y428302D01*
Y429902D02*X883887Y430702D01*
X882500Y429902D02*X881113Y430702D01*
X872500Y429902D02*Y428302D01*
Y429902D02*X873887Y430702D01*
X872500Y429902D02*X871113Y430702D01*
X862500Y429902D02*Y428302D01*
Y429902D02*X863887Y430702D01*
X862500Y429902D02*X861113Y430702D01*
X852500Y429902D02*Y428302D01*
Y429902D02*X853887Y430702D01*
X852500Y429902D02*X851113Y430702D01*
X842500Y429902D02*Y428302D01*
Y429902D02*X843887Y430702D01*
X842500Y429902D02*X841113Y430702D01*
X627500Y359902D02*Y358302D01*
Y359902D02*X628887Y360702D01*
X627500Y359902D02*X626113Y360702D01*
X627500Y349902D02*Y348302D01*
Y349902D02*X628887Y350702D01*
X627500Y349902D02*X626113Y350702D01*
X610000Y379902D02*Y378302D01*
Y379902D02*X611387Y380702D01*
X610000Y379902D02*X608613Y380702D01*
X640000Y379902D02*Y378302D01*
Y379902D02*X641387Y380702D01*
X640000Y379902D02*X638613Y380702D01*
X627500Y294902D02*Y293302D01*
Y294902D02*X628887Y295702D01*
X627500Y294902D02*X626113Y295702D01*
X627500Y284902D02*Y283302D01*
Y284902D02*X628887Y285702D01*
X627500Y284902D02*X626113Y285702D01*
X610000Y314902D02*Y313302D01*
Y314902D02*X611387Y315702D01*
X610000Y314902D02*X608613Y315702D01*
X640000Y314902D02*Y313302D01*
Y314902D02*X641387Y315702D01*
X640000Y314902D02*X638613Y315702D01*
X595000Y460202D02*Y458602D01*
Y460202D02*X596387Y461002D01*
X595000Y460202D02*X593613Y461002D01*
X595000Y452402D02*Y450802D01*
Y452402D02*X596387Y453202D01*
X595000Y452402D02*X593613Y453202D01*
X595000Y487702D02*Y486102D01*
Y487702D02*X596387Y488502D01*
X595000Y487702D02*X593613Y488502D01*
X595000Y479902D02*Y478302D01*
Y479902D02*X596387Y480702D01*
X595000Y479902D02*X593613Y480702D01*
X667500Y438702D02*Y437102D01*
Y438702D02*X668887Y439502D01*
X667500Y438702D02*X666113Y439502D01*
X667500Y424902D02*Y423302D01*
Y424902D02*X668887Y425702D01*
X667500Y424902D02*X666113Y425702D01*
X687500Y357402D02*Y355802D01*
Y357402D02*X688887Y358202D01*
X687500Y357402D02*X686113Y358202D01*
X717500Y357402D02*Y355802D01*
Y357402D02*X718887Y358202D01*
X717500Y357402D02*X716113Y358202D01*
X682500Y292402D02*Y290802D01*
Y292402D02*X683887Y293202D01*
X682500Y292402D02*X681113Y293202D01*
X712500Y292402D02*Y290802D01*
Y292402D02*X713887Y293202D01*
X712500Y292402D02*X711113Y293202D01*
X1160600Y497402D02*Y495802D01*
Y497402D02*X1161987Y498202D01*
X1160600Y497402D02*X1159213Y498202D01*
X1174400Y497402D02*Y495802D01*
Y497402D02*X1175787Y498202D01*
X1174400Y497402D02*X1173013Y498202D01*
X1022500Y574902D02*Y573302D01*
Y574902D02*X1023887Y575702D01*
X1022500Y574902D02*X1021113Y575702D01*
X1022500Y584902D02*Y583302D01*
Y584902D02*X1023887Y585702D01*
X1022500Y584902D02*X1021113Y585702D01*
X610000Y574902D02*Y573302D01*
Y574902D02*X611387Y575702D01*
X610000Y574902D02*X608613Y575702D01*
X610000Y588702D02*Y587102D01*
Y588702D02*X611387Y589502D01*
X610000Y588702D02*X608613Y589502D01*
X837559Y574961D02*Y573361D01*
Y574961D02*X838946Y575761D01*
X837559Y574961D02*X836172Y575761D01*
X837559Y584961D02*Y583361D01*
Y584961D02*X838946Y585761D01*
X837559Y584961D02*X836172Y585761D01*
X745059Y574961D02*Y573361D01*
Y574961D02*X746446Y575761D01*
X745059Y574961D02*X743672Y575761D01*
X745059Y584961D02*Y583361D01*
Y584961D02*X746446Y585761D01*
X745059Y584961D02*X743672Y585761D01*
X652559Y572461D02*Y570861D01*
Y572461D02*X653946Y573261D01*
X652559Y572461D02*X651172Y573261D01*
X652559Y582461D02*Y580861D01*
Y582461D02*X653946Y583261D01*
X652559Y582461D02*X651172Y583261D01*
X1022500Y602402D02*Y600802D01*
Y602402D02*X1023887Y603202D01*
X1022500Y602402D02*X1021113Y603202D01*
X1012500Y602402D02*Y600802D01*
Y602402D02*X1013887Y603202D01*
X1012500Y602402D02*X1011113Y603202D01*
X930000Y602402D02*Y600802D01*
Y602402D02*X931387Y603202D01*
X930000Y602402D02*X928613Y603202D01*
X920000Y602402D02*Y600802D01*
Y602402D02*X921387Y603202D01*
X920000Y602402D02*X918613Y603202D01*
X837500Y602402D02*Y600802D01*
Y602402D02*X838887Y603202D01*
X837500Y602402D02*X836113Y603202D01*
X827500Y602402D02*Y600802D01*
Y602402D02*X828887Y603202D01*
X827500Y602402D02*X826113Y603202D01*
X930059Y574961D02*Y573361D01*
Y574961D02*X931446Y575761D01*
X930059Y574961D02*X928672Y575761D01*
X930059Y584961D02*Y583361D01*
Y584961D02*X931446Y585761D01*
X930059Y584961D02*X928672Y585761D01*
X745059Y602461D02*Y600861D01*
Y602461D02*X746446Y603261D01*
X745059Y602461D02*X743672Y603261D01*
X735059Y602461D02*Y600861D01*
Y602461D02*X736446Y603261D01*
X735059Y602461D02*X733672Y603261D01*
X1022559Y519961D02*Y518361D01*
Y519961D02*X1023946Y520761D01*
X1022559Y519961D02*X1021172Y520761D01*
X992559Y519961D02*Y518361D01*
Y519961D02*X993946Y520761D01*
X992559Y519961D02*X991172Y520761D01*
X1115000Y602402D02*Y600802D01*
Y602402D02*X1116387Y603202D01*
X1115000Y602402D02*X1113613Y603202D01*
X1105000Y602402D02*Y600802D01*
Y602402D02*X1106387Y603202D01*
X1105000Y602402D02*X1103613Y603202D01*
X932559Y514961D02*Y513361D01*
Y514961D02*X933946Y515761D01*
X932559Y514961D02*X931172Y515761D01*
X902559Y514961D02*Y513361D01*
Y514961D02*X903946Y515761D01*
X902559Y514961D02*X901172Y515761D01*
X839941Y514961D02*Y513361D01*
Y514961D02*X841328Y515761D01*
X839941Y514961D02*X838554Y515761D01*
X809941Y514961D02*Y513361D01*
Y514961D02*X811328Y515761D01*
X809941Y514961D02*X808554Y515761D01*
X747441Y517343D02*Y515743D01*
Y517343D02*X748828Y518143D01*
X747441Y517343D02*X746054Y518143D01*
X717441Y517343D02*Y515743D01*
Y517343D02*X718828Y518143D01*
X717441Y517343D02*X716054Y518143D01*
X1116000Y518902D02*Y517302D01*
Y518902D02*X1117387Y519702D01*
X1116000Y518902D02*X1114613Y519702D01*
X1086000Y518902D02*Y517302D01*
Y518902D02*X1087387Y519702D01*
X1086000Y518902D02*X1084613Y519702D01*
X1065000Y297402D02*Y295802D01*
Y297402D02*X1066387Y298202D01*
X1065000Y297402D02*X1063613Y298202D01*
X1050000Y404902D02*Y403302D01*
Y404902D02*X1051387Y405702D01*
X1050000Y404902D02*X1048613Y405702D01*
X892500Y457402D02*Y455802D01*
Y457402D02*X893887Y458202D01*
X892500Y457402D02*X891113Y458202D01*
X867500Y457402D02*Y455802D01*
Y457402D02*X868887Y458202D01*
X867500Y457402D02*X866113Y458202D01*
X980000Y319902D02*Y318302D01*
Y319902D02*X981387Y320702D01*
X980000Y319902D02*X978613Y320702D01*
X932500Y319902D02*Y318302D01*
Y319902D02*X933887Y320702D01*
X932500Y319902D02*X931113Y320702D01*
X1047500Y297402D02*Y295802D01*
Y297402D02*X1048887Y298202D01*
X1047500Y297402D02*X1046113Y298202D01*
X952500Y312402D02*Y310802D01*
Y312402D02*X953887Y313202D01*
X952500Y312402D02*X951113Y313202D01*
X920000Y312402D02*Y310802D01*
Y312402D02*X921387Y313202D01*
X920000Y312402D02*X918613Y313202D01*
X795000Y419902D02*Y418302D01*
Y419902D02*X796387Y420702D01*
X795000Y419902D02*X793613Y420702D01*
X795000Y389902D02*Y388302D01*
Y389902D02*X796387Y390702D01*
X795000Y389902D02*X793613Y390702D01*
X1122500Y367402D02*Y365802D01*
Y367402D02*X1123887Y368202D01*
X1122500Y367402D02*X1121113Y368202D01*
X815059Y584961D02*Y583361D01*
Y584961D02*X816446Y585761D01*
X815059Y584961D02*X813672Y585761D01*
X907559Y584961D02*Y583361D01*
Y584961D02*X908946Y585761D01*
X907559Y584961D02*X906172Y585761D01*
X815059Y557461D02*Y555861D01*
Y557461D02*X816446Y558261D01*
X815059Y557461D02*X813672Y558261D01*
X907500Y557402D02*Y555802D01*
Y557402D02*X908887Y558202D01*
X907500Y557402D02*X906113Y558202D01*
X722559Y584961D02*Y583361D01*
Y584961D02*X723946Y585761D01*
X722559Y584961D02*X721172Y585761D01*
X722559Y557461D02*Y555861D01*
Y557461D02*X723946Y558261D01*
X722559Y557461D02*X721172Y558261D01*
X1000000Y584902D02*Y583302D01*
Y584902D02*X1001387Y585702D01*
X1000000Y584902D02*X998613Y585702D01*
X1000000Y557402D02*Y555802D01*
Y557402D02*X1001387Y558202D01*
X1000000Y557402D02*X998613Y558202D01*
X15000Y888652D02*Y887052D01*
Y888652D02*X16387Y889452D01*
X15000Y888652D02*X13613Y889452D01*
X135000Y890902D02*Y890152D01*
X136500Y888652D01*
X138000Y890152D01*
Y890902D02*Y890152D01*
X136500Y888652D02*Y884902D01*
X139800Y887902D02*X142050D01*
X139800Y884902D02*X142800D01*
X139800Y890902D02*Y884902D01*
Y890902D02*X142800D01*
X147600D02*X148350Y890152D01*
X145350Y890902D02*X147600D01*
X144600Y890152D02*X145350Y890902D01*
X144600Y890152D02*Y888652D01*
X145350Y887902D01*
X147600D01*
X148350Y887152D01*
Y885652D01*
X147600Y884902D02*X148350Y885652D01*
X145350Y884902D02*X147600D01*
X144600Y885652D02*X145350Y884902D01*
X98750D02*X100250D01*
X99500Y890902D02*Y884902D01*
X98000Y889402D02*X99500Y890902D01*
X104300D02*X105050Y890152D01*
X102800Y890902D02*X104300D01*
X102050Y890152D02*X102800Y890902D01*
X102050Y890152D02*Y885652D01*
X102800Y884902D01*
X104300Y887902D02*X105050Y887152D01*
X102050Y887902D02*X104300D01*
X102800Y884902D02*X104300D01*
X105050Y885652D01*
Y887152D02*Y885652D01*
X109100Y890902D02*X109850Y890152D01*
X107600Y890902D02*X109100D01*
X106850Y890152D02*X107600Y890902D01*
X106850Y890152D02*Y885652D01*
X107600Y884902D01*
X109100Y887902D02*X109850Y887152D01*
X106850Y887902D02*X109100D01*
X107600Y884902D02*X109100D01*
X109850Y885652D01*
Y887152D02*Y885652D01*
X45000D02*X45750Y884902D01*
X45000Y890152D02*Y885652D01*
Y890152D02*X45750Y890902D01*
X47250D01*
X48000Y890152D01*
Y885652D01*
X47250Y884902D02*X48000Y885652D01*
X45750Y884902D02*X47250D01*
X45000Y886402D02*X48000Y889402D01*
X49800Y884902D02*X50550D01*
X52350Y885652D02*X53100Y884902D01*
X52350Y890152D02*Y885652D01*
Y890152D02*X53100Y890902D01*
X54600D01*
X55350Y890152D01*
Y885652D01*
X54600Y884902D02*X55350Y885652D01*
X53100Y884902D02*X54600D01*
X52350Y886402D02*X55350Y889402D01*
X57150Y890152D02*X57900Y890902D01*
X59400D01*
X60150Y890152D01*
Y885652D01*
X59400Y884902D02*X60150Y885652D01*
X57900Y884902D02*X59400D01*
X57150Y885652D02*X57900Y884902D01*
Y887902D02*X60150D01*
X61950Y885652D02*X62700Y884902D01*
X61950Y890152D02*Y885652D01*
Y890152D02*X62700Y890902D01*
X64200D01*
X64950Y890152D01*
Y885652D01*
X64200Y884902D02*X64950Y885652D01*
X62700Y884902D02*X64200D01*
X61950Y886402D02*X64950Y889402D01*
X3000Y905902D02*X3750Y905152D01*
X750Y905902D02*X3000D01*
X0Y905152D02*X750Y905902D01*
X0Y905152D02*Y903652D01*
X750Y902902D01*
X3000D01*
X3750Y902152D01*
Y900652D01*
X3000Y899902D02*X3750Y900652D01*
X750Y899902D02*X3000D01*
X0Y900652D02*X750Y899902D01*
X5550Y902902D02*Y900652D01*
X6300Y899902D01*
X8550Y902902D02*Y898402D01*
X7800Y897652D02*X8550Y898402D01*
X6300Y897652D02*X7800D01*
X5550Y898402D02*X6300Y897652D01*
Y899902D02*X7800D01*
X8550Y900652D01*
X11100Y902152D02*Y899902D01*
Y902152D02*X11850Y902902D01*
X12600D01*
X13350Y902152D01*
Y899902D01*
Y902152D02*X14100Y902902D01*
X14850D01*
X15600Y902152D01*
Y899902D01*
X10350Y902902D02*X11100Y902152D01*
X17400Y905902D02*Y899902D01*
Y900652D02*X18150Y899902D01*
X19650D01*
X20400Y900652D01*
Y902152D02*Y900652D01*
X19650Y902902D02*X20400Y902152D01*
X18150Y902902D02*X19650D01*
X17400Y902152D02*X18150Y902902D01*
X22200Y902152D02*Y900652D01*
Y902152D02*X22950Y902902D01*
X24450D01*
X25200Y902152D01*
Y900652D01*
X24450Y899902D02*X25200Y900652D01*
X22950Y899902D02*X24450D01*
X22200Y900652D02*X22950Y899902D01*
X27000Y905902D02*Y900652D01*
X27750Y899902D01*
X0Y896652D02*X29250D01*
X41750Y905902D02*Y899902D01*
X44000Y905902D02*X44750Y905152D01*
Y900652D01*
X44000Y899902D02*X44750Y900652D01*
X41000Y899902D02*X44000D01*
X41000Y905902D02*X44000D01*
X46550Y904402D02*Y903652D01*
Y902152D02*Y899902D01*
X50300Y902902D02*X51050Y902152D01*
X48800Y902902D02*X50300D01*
X48050Y902152D02*X48800Y902902D01*
X48050Y902152D02*Y900652D01*
X48800Y899902D01*
X51050Y902902D02*Y900652D01*
X51800Y899902D01*
X48800D02*X50300D01*
X51050Y900652D01*
X54350Y902152D02*Y899902D01*
Y902152D02*X55100Y902902D01*
X55850D01*
X56600Y902152D01*
Y899902D01*
Y902152D02*X57350Y902902D01*
X58100D01*
X58850Y902152D01*
Y899902D01*
X53600Y902902D02*X54350Y902152D01*
X60650Y899902D02*X61400D01*
X65900Y900652D02*X66650Y899902D01*
X65900Y905152D02*X66650Y905902D01*
X65900Y905152D02*Y900652D01*
X68450Y905902D02*X69950D01*
X69200D02*Y899902D01*
X68450D02*X69950D01*
X72500Y902152D02*Y899902D01*
Y902152D02*X73250Y902902D01*
X74000D01*
X74750Y902152D01*
Y899902D01*
X71750Y902902D02*X72500Y902152D01*
X77300Y902902D02*X79550D01*
X76550Y902152D02*X77300Y902902D01*
X76550Y902152D02*Y900652D01*
X77300Y899902D01*
X79550D01*
X81350Y905902D02*Y899902D01*
Y902152D02*X82100Y902902D01*
X83600D01*
X84350Y902152D01*
Y899902D01*
X86150Y905902D02*X86900Y905152D01*
Y900652D01*
X86150Y899902D02*X86900Y900652D01*
X41000Y896652D02*X88700D01*
X95750Y899902D02*X98000D01*
X95000Y900652D02*X95750Y899902D01*
X95000Y905152D02*Y900652D01*
Y905152D02*X95750Y905902D01*
X98000D01*
X99800Y902152D02*Y900652D01*
Y902152D02*X100550Y902902D01*
X102050D01*
X102800Y902152D01*
Y900652D01*
X102050Y899902D02*X102800Y900652D01*
X100550Y899902D02*X102050D01*
X99800Y900652D02*X100550Y899902D01*
X104600Y902902D02*Y900652D01*
X105350Y899902D01*
X106850D01*
X107600Y900652D01*
Y902902D02*Y900652D01*
X110150Y902152D02*Y899902D01*
Y902152D02*X110900Y902902D01*
X111650D01*
X112400Y902152D01*
Y899902D01*
X109400Y902902D02*X110150Y902152D01*
X114950Y905902D02*Y900652D01*
X115700Y899902D01*
X114200Y903652D02*X115700D01*
X95000Y896652D02*X117200D01*
X130750Y905902D02*Y899902D01*
X130000Y905902D02*X133000D01*
X133750Y905152D01*
Y903652D01*
X133000Y902902D02*X133750Y903652D01*
X130750Y902902D02*X133000D01*
X135550Y905902D02*Y900652D01*
X136300Y899902D01*
X140050Y902902D02*X140800Y902152D01*
X138550Y902902D02*X140050D01*
X137800Y902152D02*X138550Y902902D01*
X137800Y902152D02*Y900652D01*
X138550Y899902D01*
X140800Y902902D02*Y900652D01*
X141550Y899902D01*
X138550D02*X140050D01*
X140800Y900652D01*
X144100Y905902D02*Y900652D01*
X144850Y899902D01*
X143350Y903652D02*X144850D01*
X147100Y899902D02*X149350D01*
X146350Y900652D02*X147100Y899902D01*
X146350Y902152D02*Y900652D01*
Y902152D02*X147100Y902902D01*
X148600D01*
X149350Y902152D01*
X146350Y901402D02*X149350D01*
Y902152D02*Y901402D01*
X154150Y905902D02*Y899902D01*
X153400D02*X154150Y900652D01*
X151900Y899902D02*X153400D01*
X151150Y900652D02*X151900Y899902D01*
X151150Y902152D02*Y900652D01*
Y902152D02*X151900Y902902D01*
X153400D01*
X154150Y902152D01*
X157450Y902902D02*Y902152D01*
Y900652D02*Y899902D01*
X155950Y905152D02*Y904402D01*
Y905152D02*X156700Y905902D01*
X158200D01*
X158950Y905152D01*
Y904402D01*
X157450Y902902D02*X158950Y904402D01*
X130000Y896652D02*X160750D01*
X0Y920902D02*X3000D01*
X1500D02*Y914902D01*
X4800Y920902D02*Y914902D01*
Y917152D02*X5550Y917902D01*
X7050D01*
X7800Y917152D01*
Y914902D01*
X10350D02*X12600D01*
X9600Y915652D02*X10350Y914902D01*
X9600Y917152D02*Y915652D01*
Y917152D02*X10350Y917902D01*
X11850D01*
X12600Y917152D01*
X9600Y916402D02*X12600D01*
Y917152D02*Y916402D01*
X15150Y917152D02*Y914902D01*
Y917152D02*X15900Y917902D01*
X17400D01*
X14400D02*X15150Y917152D01*
X19950Y914902D02*X22200D01*
X19200Y915652D02*X19950Y914902D01*
X19200Y917152D02*Y915652D01*
Y917152D02*X19950Y917902D01*
X21450D01*
X22200Y917152D01*
X19200Y916402D02*X22200D01*
Y917152D02*Y916402D01*
X28950Y917902D02*X29700Y917152D01*
X27450Y917902D02*X28950D01*
X26700Y917152D02*X27450Y917902D01*
X26700Y917152D02*Y915652D01*
X27450Y914902D01*
X29700Y917902D02*Y915652D01*
X30450Y914902D01*
X27450D02*X28950D01*
X29700Y915652D01*
X33000Y917152D02*Y914902D01*
Y917152D02*X33750Y917902D01*
X35250D01*
X32250D02*X33000Y917152D01*
X37800Y914902D02*X40050D01*
X37050Y915652D02*X37800Y914902D01*
X37050Y917152D02*Y915652D01*
Y917152D02*X37800Y917902D01*
X39300D01*
X40050Y917152D01*
X37050Y916402D02*X40050D01*
Y917152D02*Y916402D01*
X44550Y914902D02*X48300Y918652D01*
Y920902D02*Y918652D01*
X44550Y920902D02*X48300D01*
X55800D02*Y914902D01*
X55050D02*X55800Y915652D01*
X53550Y914902D02*X55050D01*
X52800Y915652D02*X53550Y914902D01*
X52800Y917152D02*Y915652D01*
Y917152D02*X53550Y917902D01*
X55050D01*
X55800Y917152D01*
X57600Y919402D02*Y918652D01*
Y917152D02*Y914902D01*
X59850Y920152D02*Y914902D01*
Y920152D02*X60600Y920902D01*
X61350D01*
X59100Y917902D02*X60600D01*
X63600Y920152D02*Y914902D01*
Y920152D02*X64350Y920902D01*
X65100D01*
X62850Y917902D02*X64350D01*
X67350Y914902D02*X69600D01*
X66600Y915652D02*X67350Y914902D01*
X66600Y917152D02*Y915652D01*
Y917152D02*X67350Y917902D01*
X68850D01*
X69600Y917152D01*
X66600Y916402D02*X69600D01*
Y917152D02*Y916402D01*
X72150Y917152D02*Y914902D01*
Y917152D02*X72900Y917902D01*
X74400D01*
X71400D02*X72150Y917152D01*
X76950Y914902D02*X79200D01*
X76200Y915652D02*X76950Y914902D01*
X76200Y917152D02*Y915652D01*
Y917152D02*X76950Y917902D01*
X78450D01*
X79200Y917152D01*
X76200Y916402D02*X79200D01*
Y917152D02*Y916402D01*
X81750Y917152D02*Y914902D01*
Y917152D02*X82500Y917902D01*
X83250D01*
X84000Y917152D01*
Y914902D01*
X81000Y917902D02*X81750Y917152D01*
X86550Y920902D02*Y915652D01*
X87300Y914902D01*
X85800Y918652D02*X87300D01*
X94500Y920902D02*Y914902D01*
X93750D02*X94500Y915652D01*
X92250Y914902D02*X93750D01*
X91500Y915652D02*X92250Y914902D01*
X91500Y917152D02*Y915652D01*
Y917152D02*X92250Y917902D01*
X93750D01*
X94500Y917152D01*
X97050D02*Y914902D01*
Y917152D02*X97800Y917902D01*
X99300D01*
X96300D02*X97050Y917152D01*
X101100Y919402D02*Y918652D01*
Y917152D02*Y914902D01*
X102600Y920902D02*Y915652D01*
X103350Y914902D01*
X104850Y920902D02*Y915652D01*
X105600Y914902D01*
X110550D02*X112800D01*
X113550Y915652D01*
X112800Y916402D02*X113550Y915652D01*
X110550Y916402D02*X112800D01*
X109800Y917152D02*X110550Y916402D01*
X109800Y917152D02*X110550Y917902D01*
X112800D01*
X113550Y917152D01*
X109800Y915652D02*X110550Y914902D01*
X115350Y919402D02*Y918652D01*
Y917152D02*Y914902D01*
X116850Y917902D02*X119850D01*
X116850Y914902D02*X119850Y917902D01*
X116850Y914902D02*X119850D01*
X122400D02*X124650D01*
X121650Y915652D02*X122400Y914902D01*
X121650Y917152D02*Y915652D01*
Y917152D02*X122400Y917902D01*
X123900D01*
X124650Y917152D01*
X121650Y916402D02*X124650D01*
Y917152D02*Y916402D01*
X127200Y914902D02*X129450D01*
X130200Y915652D01*
X129450Y916402D02*X130200Y915652D01*
X127200Y916402D02*X129450D01*
X126450Y917152D02*X127200Y916402D01*
X126450Y917152D02*X127200Y917902D01*
X129450D01*
X130200Y917152D01*
X126450Y915652D02*X127200Y914902D01*
X134700Y917902D02*Y915652D01*
X135450Y914902D01*
X136950D01*
X137700Y915652D01*
Y917902D02*Y915652D01*
X140250Y914902D02*X142500D01*
X143250Y915652D01*
X142500Y916402D02*X143250Y915652D01*
X140250Y916402D02*X142500D01*
X139500Y917152D02*X140250Y916402D01*
X139500Y917152D02*X140250Y917902D01*
X142500D01*
X143250Y917152D01*
X139500Y915652D02*X140250Y914902D01*
X145800D02*X148050D01*
X145050Y915652D02*X145800Y914902D01*
X145050Y917152D02*Y915652D01*
Y917152D02*X145800Y917902D01*
X147300D01*
X148050Y917152D01*
X145050Y916402D02*X148050D01*
Y917152D02*Y916402D01*
X152850Y920902D02*Y914902D01*
X152100D02*X152850Y915652D01*
X150600Y914902D02*X152100D01*
X149850Y915652D02*X150600Y914902D01*
X149850Y917152D02*Y915652D01*
Y917152D02*X150600Y917902D01*
X152100D01*
X152850Y917152D01*
X157350Y919402D02*Y918652D01*
Y917152D02*Y914902D01*
X159600Y917152D02*Y914902D01*
Y917152D02*X160350Y917902D01*
X161100D01*
X161850Y917152D01*
Y914902D01*
X158850Y917902D02*X159600Y917152D01*
X167100Y920902D02*Y915652D01*
X167850Y914902D01*
X166350Y918652D02*X167850D01*
X169350Y920902D02*Y914902D01*
Y917152D02*X170100Y917902D01*
X171600D01*
X172350Y917152D01*
Y914902D01*
X174150Y919402D02*Y918652D01*
Y917152D02*Y914902D01*
X176400D02*X178650D01*
X179400Y915652D01*
X178650Y916402D02*X179400Y915652D01*
X176400Y916402D02*X178650D01*
X175650Y917152D02*X176400Y916402D01*
X175650Y917152D02*X176400Y917902D01*
X178650D01*
X179400Y917152D01*
X175650Y915652D02*X176400Y914902D01*
X183900Y920902D02*Y915652D01*
X184650Y914902D01*
X188400Y917902D02*X189150Y917152D01*
X186900Y917902D02*X188400D01*
X186150Y917152D02*X186900Y917902D01*
X186150Y917152D02*Y915652D01*
X186900Y914902D01*
X189150Y917902D02*Y915652D01*
X189900Y914902D01*
X186900D02*X188400D01*
X189150Y915652D01*
X191700Y917902D02*Y915652D01*
X192450Y914902D01*
X194700Y917902D02*Y913402D01*
X193950Y912652D02*X194700Y913402D01*
X192450Y912652D02*X193950D01*
X191700Y913402D02*X192450Y912652D01*
Y914902D02*X193950D01*
X194700Y915652D01*
X196500Y917152D02*Y915652D01*
Y917152D02*X197250Y917902D01*
X198750D01*
X199500Y917152D01*
Y915652D01*
X198750Y914902D02*X199500Y915652D01*
X197250Y914902D02*X198750D01*
X196500Y915652D02*X197250Y914902D01*
X201300Y917902D02*Y915652D01*
X202050Y914902D01*
X203550D01*
X204300Y915652D01*
Y917902D02*Y915652D01*
X206850Y920902D02*Y915652D01*
X207600Y914902D01*
X206100Y918652D02*X207600D01*
X209100Y913402D02*X210600Y914902D01*
X215100Y917902D02*X218100Y920902D01*
X215100Y917902D02*X218850D01*
X218100Y920902D02*Y914902D01*
X220650Y915652D02*X221400Y914902D01*
X220650Y920152D02*Y915652D01*
Y920152D02*X221400Y920902D01*
X222900D01*
X223650Y920152D01*
Y915652D01*
X222900Y914902D02*X223650Y915652D01*
X221400Y914902D02*X222900D01*
X220650Y916402D02*X223650Y919402D01*
X225450Y914902D02*X229200Y918652D01*
Y920902D02*Y918652D01*
X225450Y920902D02*X229200D01*
X233700D02*Y914902D01*
Y917152D02*X234450Y917902D01*
X235950D01*
X236700Y917152D01*
Y914902D01*
X238500Y917152D02*Y915652D01*
Y917152D02*X239250Y917902D01*
X240750D01*
X241500Y917152D01*
Y915652D01*
X240750Y914902D02*X241500Y915652D01*
X239250Y914902D02*X240750D01*
X238500Y915652D02*X239250Y914902D01*
X243300Y920902D02*Y915652D01*
X244050Y914902D01*
X246300D02*X248550D01*
X245550Y915652D02*X246300Y914902D01*
X245550Y917152D02*Y915652D01*
Y917152D02*X246300Y917902D01*
X247800D01*
X248550Y917152D01*
X245550Y916402D02*X248550D01*
Y917152D02*Y916402D01*
X251100Y914902D02*X253350D01*
X254100Y915652D01*
X253350Y916402D02*X254100Y915652D01*
X251100Y916402D02*X253350D01*
X250350Y917152D02*X251100Y916402D01*
X250350Y917152D02*X251100Y917902D01*
X253350D01*
X254100Y917152D01*
X250350Y915652D02*X251100Y914902D01*
X259350Y920902D02*Y915652D01*
X260100Y914902D01*
X258600Y918652D02*X260100D01*
X261600Y917152D02*Y915652D01*
Y917152D02*X262350Y917902D01*
X263850D01*
X264600Y917152D01*
Y915652D01*
X263850Y914902D02*X264600Y915652D01*
X262350Y914902D02*X263850D01*
X261600Y915652D02*X262350Y914902D01*
X267150Y920902D02*Y915652D01*
X267900Y914902D01*
X266400Y918652D02*X267900D01*
X271650Y917902D02*X272400Y917152D01*
X270150Y917902D02*X271650D01*
X269400Y917152D02*X270150Y917902D01*
X269400Y917152D02*Y915652D01*
X270150Y914902D01*
X272400Y917902D02*Y915652D01*
X273150Y914902D01*
X270150D02*X271650D01*
X272400Y915652D01*
X274950Y920902D02*Y915652D01*
X275700Y914902D01*
G54D300*X518189Y230591D02*X519390Y641792D01*
X1194997Y229902D02*X518189Y230591D01*
X1195000Y642402D02*X1194997Y229905D01*
X519547Y641792D02*X1195000Y642402D01*
G54D299*X701076Y-9500D02*X704076D01*
X704826Y-8750D01*
Y-7250D02*Y-8750D01*
X704076Y-6500D02*X704826Y-7250D01*
X701826Y-6500D02*X704076D01*
X701826Y-3500D02*Y-9500D01*
X701076Y-3500D02*X704076D01*
X704826Y-4250D01*
Y-5750D01*
X704076Y-6500D02*X704826Y-5750D01*
X706626Y-7250D02*Y-8750D01*
Y-7250D02*X707376Y-6500D01*
X708876D01*
X709626Y-7250D01*
Y-8750D01*
X708876Y-9500D02*X709626Y-8750D01*
X707376Y-9500D02*X708876D01*
X706626Y-8750D02*X707376Y-9500D01*
X713676Y-6500D02*X714426Y-7250D01*
X712176Y-6500D02*X713676D01*
X711426Y-7250D02*X712176Y-6500D01*
X711426Y-7250D02*Y-8750D01*
X712176Y-9500D01*
X714426Y-6500D02*Y-8750D01*
X715176Y-9500D01*
X712176D02*X713676D01*
X714426Y-8750D01*
X717726Y-7250D02*Y-9500D01*
Y-7250D02*X718476Y-6500D01*
X719976D01*
X716976D02*X717726Y-7250D01*
X724776Y-3500D02*Y-9500D01*
X724026D02*X724776Y-8750D01*
X722526Y-9500D02*X724026D01*
X721776Y-8750D02*X722526Y-9500D01*
X721776Y-7250D02*Y-8750D01*
Y-7250D02*X722526Y-6500D01*
X724026D01*
X724776Y-7250D01*
X729276D02*Y-8750D01*
Y-7250D02*X730026Y-6500D01*
X731526D01*
X732276Y-7250D01*
Y-8750D01*
X731526Y-9500D02*X732276Y-8750D01*
X730026Y-9500D02*X731526D01*
X729276Y-8750D02*X730026Y-9500D01*
X734076Y-6500D02*Y-8750D01*
X734826Y-9500D01*
X736326D01*
X737076Y-8750D01*
Y-6500D02*Y-8750D01*
X739626Y-3500D02*Y-8750D01*
X740376Y-9500D01*
X738876Y-5750D02*X740376D01*
X741876Y-3500D02*Y-8750D01*
X742626Y-9500D01*
X744126Y-5000D02*Y-5750D01*
Y-7250D02*Y-9500D01*
X746376Y-7250D02*Y-9500D01*
Y-7250D02*X747126Y-6500D01*
X747876D01*
X748626Y-7250D01*
Y-9500D01*
X745626Y-6500D02*X746376Y-7250D01*
X751176Y-9500D02*X753426D01*
X750426Y-8750D02*X751176Y-9500D01*
X750426Y-7250D02*Y-8750D01*
Y-7250D02*X751176Y-6500D01*
X752676D01*
X753426Y-7250D01*
X750426Y-8000D02*X753426D01*
Y-7250D02*Y-8000D01*
X757926Y-5000D02*Y-5750D01*
Y-7250D02*Y-9500D01*
X760176D02*X762426D01*
X763176Y-8750D01*
X762426Y-8000D02*X763176Y-8750D01*
X760176Y-8000D02*X762426D01*
X759426Y-7250D02*X760176Y-8000D01*
X759426Y-7250D02*X760176Y-6500D01*
X762426D01*
X763176Y-7250D01*
X759426Y-8750D02*X760176Y-9500D01*
X768426Y-3500D02*Y-8750D01*
X769176Y-9500D01*
X767676Y-5750D02*X769176D01*
X770676Y-3500D02*Y-9500D01*
Y-7250D02*X771426Y-6500D01*
X772926D01*
X773676Y-7250D01*
Y-9500D01*
X776226D02*X778476D01*
X775476Y-8750D02*X776226Y-9500D01*
X775476Y-7250D02*Y-8750D01*
Y-7250D02*X776226Y-6500D01*
X777726D01*
X778476Y-7250D01*
X775476Y-8000D02*X778476D01*
Y-7250D02*Y-8000D01*
X783726Y-6500D02*X785976D01*
X782976Y-7250D02*X783726Y-6500D01*
X782976Y-7250D02*Y-8750D01*
X783726Y-9500D01*
X785976D01*
X788526D02*X790776D01*
X787776Y-8750D02*X788526Y-9500D01*
X787776Y-7250D02*Y-8750D01*
Y-7250D02*X788526Y-6500D01*
X790026D01*
X790776Y-7250D01*
X787776Y-8000D02*X790776D01*
Y-7250D02*Y-8000D01*
X793327Y-7250D02*Y-9500D01*
Y-7250D02*X794077Y-6500D01*
X794827D01*
X795577Y-7250D01*
Y-9500D01*
X792577Y-6500D02*X793327Y-7250D01*
X798127Y-3500D02*Y-8750D01*
X798877Y-9500D01*
X797377Y-5750D02*X798877D01*
X801127Y-9500D02*X803377D01*
X800377Y-8750D02*X801127Y-9500D01*
X800377Y-7250D02*Y-8750D01*
Y-7250D02*X801127Y-6500D01*
X802627D01*
X803377Y-7250D01*
X800377Y-8000D02*X803377D01*
Y-7250D02*Y-8000D01*
X805927Y-7250D02*Y-9500D01*
Y-7250D02*X806677Y-6500D01*
X808177D01*
X805177D02*X805927Y-7250D01*
X809977Y-3500D02*Y-8750D01*
X810727Y-9500D01*
X812227Y-5000D02*Y-5750D01*
Y-7250D02*Y-9500D01*
X814477Y-7250D02*Y-9500D01*
Y-7250D02*X815227Y-6500D01*
X815977D01*
X816727Y-7250D01*
Y-9500D01*
X813727Y-6500D02*X814477Y-7250D01*
X819277Y-9500D02*X821527D01*
X818527Y-8750D02*X819277Y-9500D01*
X818527Y-7250D02*Y-8750D01*
Y-7250D02*X819277Y-6500D01*
X820777D01*
X821527Y-7250D01*
X818527Y-8000D02*X821527D01*
Y-7250D02*Y-8000D01*
X826027Y-7250D02*Y-8750D01*
Y-7250D02*X826777Y-6500D01*
X828277D01*
X829027Y-7250D01*
Y-8750D01*
X828277Y-9500D02*X829027Y-8750D01*
X826777Y-9500D02*X828277D01*
X826027Y-8750D02*X826777Y-9500D01*
X831577Y-4250D02*Y-9500D01*
Y-4250D02*X832327Y-3500D01*
X833077D01*
X830827Y-6500D02*X832327D01*
X838027Y-3500D02*Y-8750D01*
X838777Y-9500D01*
X837277Y-5750D02*X838777D01*
X840277Y-3500D02*Y-9500D01*
Y-7250D02*X841027Y-6500D01*
X842527D01*
X843277Y-7250D01*
Y-9500D01*
X845077Y-5000D02*Y-5750D01*
Y-7250D02*Y-9500D01*
X847327D02*X849577D01*
X850327Y-8750D01*
X849577Y-8000D02*X850327Y-8750D01*
X847327Y-8000D02*X849577D01*
X846577Y-7250D02*X847327Y-8000D01*
X846577Y-7250D02*X847327Y-6500D01*
X849577D01*
X850327Y-7250D01*
X846577Y-8750D02*X847327Y-9500D01*
X855577Y-7250D02*Y-11750D01*
X854827Y-6500D02*X855577Y-7250D01*
X856327Y-6500D01*
X857827D01*
X858577Y-7250D01*
Y-8750D01*
X857827Y-9500D02*X858577Y-8750D01*
X856327Y-9500D02*X857827D01*
X855577Y-8750D02*X856327Y-9500D01*
X862627Y-6500D02*X863377Y-7250D01*
X861127Y-6500D02*X862627D01*
X860377Y-7250D02*X861127Y-6500D01*
X860377Y-7250D02*Y-8750D01*
X861127Y-9500D01*
X863377Y-6500D02*Y-8750D01*
X864127Y-9500D01*
X861127D02*X862627D01*
X863377Y-8750D01*
X866677Y-3500D02*Y-8750D01*
X867427Y-9500D01*
X865927Y-5750D02*X867427D01*
X868927Y-3500D02*Y-9500D01*
Y-7250D02*X869677Y-6500D01*
X871177D01*
X871927Y-7250D01*
Y-9500D01*
X200750Y815902D02*Y809902D01*
X203000Y815902D02*X203750Y815152D01*
Y810652D01*
X203000Y809902D02*X203750Y810652D01*
X200000Y809902D02*X203000D01*
X200000Y815902D02*X203000D01*
X207800Y812902D02*X208550Y812152D01*
X206300Y812902D02*X207800D01*
X205550Y812152D02*X206300Y812902D01*
X205550Y812152D02*Y810652D01*
X206300Y809902D01*
X208550Y812902D02*Y810652D01*
X209300Y809902D01*
X206300D02*X207800D01*
X208550Y810652D01*
X211850Y815902D02*Y810652D01*
X212600Y809902D01*
X211100Y813652D02*X212600D01*
X214850Y809902D02*X217100D01*
X214100Y810652D02*X214850Y809902D01*
X214100Y812152D02*Y810652D01*
Y812152D02*X214850Y812902D01*
X216350D01*
X217100Y812152D01*
X214100Y811402D02*X217100D01*
Y812152D02*Y811402D01*
X218900Y813652D02*X219650D01*
X218900Y812152D02*X219650D01*
X224150Y815902D02*X227150D01*
X225650D02*Y809902D01*
X228950Y815902D02*Y809902D01*
Y812152D02*X229700Y812902D01*
X231200D01*
X231950Y812152D01*
Y809902D01*
X233750Y812902D02*Y810652D01*
X234500Y809902D01*
X236000D01*
X236750Y810652D01*
Y812902D02*Y810652D01*
X242000Y809902D02*X243500D01*
X242750Y815902D02*Y809902D01*
X241250Y814402D02*X242750Y815902D01*
X245300Y809902D02*X248300Y812902D01*
Y815152D02*Y812902D01*
X247550Y815902D02*X248300Y815152D01*
X246050Y815902D02*X247550D01*
X245300Y815152D02*X246050Y815902D01*
X245300Y815152D02*Y813652D01*
X246050Y812902D01*
X248300D01*
X253550Y815902D02*Y809902D01*
X255800Y815902D02*X256550Y815152D01*
Y810652D01*
X255800Y809902D02*X256550Y810652D01*
X252800Y809902D02*X255800D01*
X252800Y815902D02*X255800D01*
X259100Y809902D02*X261350D01*
X258350Y810652D02*X259100Y809902D01*
X258350Y812152D02*Y810652D01*
Y812152D02*X259100Y812902D01*
X260600D01*
X261350Y812152D01*
X258350Y811402D02*X261350D01*
Y812152D02*Y811402D01*
X263900Y812902D02*X266150D01*
X263150Y812152D02*X263900Y812902D01*
X263150Y812152D02*Y810652D01*
X263900Y809902D01*
X266150D01*
X270650Y815152D02*X271400Y815902D01*
X273650D01*
X274400Y815152D01*
Y813652D01*
X270650Y809902D02*X274400Y813652D01*
X270650Y809902D02*X274400D01*
X276200Y810652D02*X276950Y809902D01*
X276200Y815152D02*Y810652D01*
Y815152D02*X276950Y815902D01*
X278450D01*
X279200Y815152D01*
Y810652D01*
X278450Y809902D02*X279200Y810652D01*
X276950Y809902D02*X278450D01*
X276200Y811402D02*X279200Y814402D01*
X281750Y809902D02*X283250D01*
X282500Y815902D02*Y809902D01*
X281000Y814402D02*X282500Y815902D01*
X285050Y815152D02*X285800Y815902D01*
X287300D01*
X288050Y815152D01*
Y810652D01*
X287300Y809902D02*X288050Y810652D01*
X285800Y809902D02*X287300D01*
X285050Y810652D02*X285800Y809902D01*
Y812902D02*X288050D01*
X292550Y810652D02*X293300Y809902D01*
X292550Y815152D02*Y810652D01*
Y815152D02*X293300Y815902D01*
X294800D01*
X295550Y815152D01*
Y810652D01*
X294800Y809902D02*X295550Y810652D01*
X293300Y809902D02*X294800D01*
X292550Y811402D02*X295550Y814402D01*
X297350Y815902D02*X300350D01*
X297350D02*Y812902D01*
X298100Y813652D01*
X299600D01*
X300350Y812902D01*
Y810652D01*
X299600Y809902D02*X300350Y810652D01*
X298100Y809902D02*X299600D01*
X297350Y810652D02*X298100Y809902D01*
X302150Y813652D02*X302900D01*
X302150Y812152D02*X302900D01*
X304700Y812902D02*X307700Y815902D01*
X304700Y812902D02*X308450D01*
X307700Y815902D02*Y809902D01*
X310250Y810652D02*X311000Y809902D01*
X310250Y812152D02*Y810652D01*
Y812152D02*X311000Y812902D01*
X312500D01*
X313250Y812152D01*
Y810652D01*
X312500Y809902D02*X313250Y810652D01*
X311000Y809902D02*X312500D01*
X310250Y813652D02*X311000Y812902D01*
X310250Y815152D02*Y813652D01*
Y815152D02*X311000Y815902D01*
X312500D01*
X313250Y815152D01*
Y813652D01*
X312500Y812902D02*X313250Y813652D01*
X315050D02*X315800D01*
X315050Y812152D02*X315800D01*
X317600Y815902D02*X320600D01*
X317600D02*Y812902D01*
X318350Y813652D01*
X319850D01*
X320600Y812902D01*
Y810652D01*
X319850Y809902D02*X320600Y810652D01*
X318350Y809902D02*X319850D01*
X317600Y810652D02*X318350Y809902D01*
X322400Y812902D02*X325400Y815902D01*
X322400Y812902D02*X326150D01*
X325400Y815902D02*Y809902D01*
X331400Y815902D02*Y809902D01*
X330650Y815902D02*X333650D01*
X334400Y815152D01*
Y813652D01*
X333650Y812902D02*X334400Y813652D01*
X331400Y812902D02*X333650D01*
X336200Y815902D02*Y809902D01*
Y815902D02*X338450Y813652D01*
X340700Y815902D01*
Y809902D01*
X348200Y815902D02*X348950Y815152D01*
X345950Y815902D02*X348200D01*
X345200Y815152D02*X345950Y815902D01*
X345200Y815152D02*Y810652D01*
X345950Y809902D01*
X348200D01*
X348950Y810652D01*
Y812152D02*Y810652D01*
X348200Y812902D02*X348950Y812152D01*
X346700Y812902D02*X348200D01*
X350750Y815902D02*Y809902D01*
Y815902D02*X353000Y813652D01*
X355250Y815902D01*
Y809902D01*
X357050Y815902D02*X360050D01*
X358550D02*Y809902D01*
X364550Y815902D02*Y810652D01*
X365300Y809902D01*
X366800D01*
X367550Y810652D01*
Y815902D02*Y810652D01*
X369350Y815902D02*X372350D01*
X370850D02*Y809902D01*
X374900D02*X377150D01*
X374150Y810652D02*X374900Y809902D01*
X374150Y815152D02*Y810652D01*
Y815152D02*X374900Y815902D01*
X377150D01*
X200000Y830152D02*Y824902D01*
Y830152D02*X200750Y830902D01*
X203000D01*
X203750Y830152D01*
Y824902D01*
X200000Y827902D02*X203750D01*
X205550D02*Y825652D01*
X206300Y824902D01*
X207800D01*
X208550Y825652D01*
Y827902D02*Y825652D01*
X211100Y830902D02*Y825652D01*
X211850Y824902D01*
X210350Y828652D02*X211850D01*
X213350Y830902D02*Y824902D01*
Y827152D02*X214100Y827902D01*
X215600D01*
X216350Y827152D01*
Y824902D01*
X218150Y827152D02*Y825652D01*
Y827152D02*X218900Y827902D01*
X220400D01*
X221150Y827152D01*
Y825652D01*
X220400Y824902D02*X221150Y825652D01*
X218900Y824902D02*X220400D01*
X218150Y825652D02*X218900Y824902D01*
X223700Y827152D02*Y824902D01*
Y827152D02*X224450Y827902D01*
X225950D01*
X222950D02*X223700Y827152D01*
X227750Y828652D02*X228500D01*
X227750Y827152D02*X228500D01*
X233750D02*Y824902D01*
Y827152D02*X234500Y827902D01*
X235250D01*
X236000Y827152D01*
Y824902D01*
Y827152D02*X236750Y827902D01*
X237500D01*
X238250Y827152D01*
Y824902D01*
X233000Y827902D02*X233750Y827152D01*
X242300Y827902D02*X243050Y827152D01*
X240800Y827902D02*X242300D01*
X240050Y827152D02*X240800Y827902D01*
X240050Y827152D02*Y825652D01*
X240800Y824902D01*
X243050Y827902D02*Y825652D01*
X243800Y824902D01*
X240800D02*X242300D01*
X243050Y825652D01*
X245600Y829402D02*Y828652D01*
Y827152D02*Y824902D01*
X247850Y827152D02*Y824902D01*
Y827152D02*X248600Y827902D01*
X249350D01*
X250100Y827152D01*
Y824902D01*
X247100Y827902D02*X247850Y827152D01*
X251900Y827902D02*X254900D01*
X256700D02*Y825652D01*
X257450Y824902D01*
X258950D01*
X259700Y825652D01*
Y827902D02*Y825652D01*
X262250Y824902D02*X264500D01*
X265250Y825652D01*
X264500Y826402D02*X265250Y825652D01*
X262250Y826402D02*X264500D01*
X261500Y827152D02*X262250Y826402D01*
X261500Y827152D02*X262250Y827902D01*
X264500D01*
X265250Y827152D01*
X261500Y825652D02*X262250Y824902D01*
X267800D02*X270050D01*
X267050Y825652D02*X267800Y824902D01*
X267050Y827152D02*Y825652D01*
Y827152D02*X267800Y827902D01*
X269300D01*
X270050Y827152D01*
X267050Y826402D02*X270050D01*
Y827152D02*Y826402D01*
X272600Y827152D02*Y824902D01*
Y827152D02*X273350Y827902D01*
X274850D01*
X271850D02*X272600Y827152D01*
X200000Y845902D02*X203000D01*
X201500D02*Y839902D01*
X204800Y844402D02*Y843652D01*
Y842152D02*Y839902D01*
X207050Y845902D02*Y840652D01*
X207800Y839902D01*
X206300Y843652D02*X207800D01*
X209300Y845902D02*Y840652D01*
X210050Y839902D01*
X212300D02*X214550D01*
X211550Y840652D02*X212300Y839902D01*
X211550Y842152D02*Y840652D01*
Y842152D02*X212300Y842902D01*
X213800D01*
X214550Y842152D01*
X211550Y841402D02*X214550D01*
Y842152D02*Y841402D01*
X216350Y843652D02*X217100D01*
X216350Y842152D02*X217100D01*
X221600Y840652D02*X222350Y839902D01*
X221600Y845152D02*X222350Y845902D01*
X221600Y845152D02*Y840652D01*
X224150Y842902D02*Y840652D01*
X224900Y839902D01*
X226400D01*
X227150Y840652D01*
Y842902D02*Y840652D01*
X229700Y842152D02*Y839902D01*
Y842152D02*X230450Y842902D01*
X231200D01*
X231950Y842152D01*
Y839902D01*
X228950Y842902D02*X229700Y842152D01*
X233750Y845902D02*Y839902D01*
Y842152D02*X236000Y839902D01*
X233750Y842152D02*X235250Y843652D01*
X238550Y842152D02*Y839902D01*
Y842152D02*X239300Y842902D01*
X240050D01*
X240800Y842152D01*
Y839902D01*
X237800Y842902D02*X238550Y842152D01*
X242600D02*Y840652D01*
Y842152D02*X243350Y842902D01*
X244850D01*
X245600Y842152D01*
Y840652D01*
X244850Y839902D02*X245600Y840652D01*
X243350Y839902D02*X244850D01*
X242600Y840652D02*X243350Y839902D01*
X247400Y842902D02*Y840652D01*
X248150Y839902D01*
X248900D01*
X249650Y840652D01*
Y842902D02*Y840652D01*
X250400Y839902D01*
X251150D01*
X251900Y840652D01*
Y842902D02*Y840652D01*
X254450Y842152D02*Y839902D01*
Y842152D02*X255200Y842902D01*
X255950D01*
X256700Y842152D01*
Y839902D01*
X253700Y842902D02*X254450Y842152D01*
X258500Y845902D02*X259250Y845152D01*
Y840652D01*
X258500Y839902D02*X259250Y840652D01*
X263750Y842902D02*X266750D01*
X271250Y845902D02*Y839902D01*
Y845902D02*X274250D01*
X271250Y842902D02*X273500D01*
X278300D02*X279050Y842152D01*
X276800Y842902D02*X278300D01*
X276050Y842152D02*X276800Y842902D01*
X276050Y842152D02*Y840652D01*
X276800Y839902D01*
X279050Y842902D02*Y840652D01*
X279800Y839902D01*
X276800D02*X278300D01*
X279050Y840652D01*
X281600Y845902D02*Y839902D01*
Y840652D02*X282350Y839902D01*
X283850D01*
X284600Y840652D01*
Y842152D02*Y840652D01*
X283850Y842902D02*X284600Y842152D01*
X282350Y842902D02*X283850D01*
X281600Y842152D02*X282350Y842902D01*
X287150Y842152D02*Y839902D01*
Y842152D02*X287900Y842902D01*
X289400D01*
X286400D02*X287150Y842152D01*
X291200Y844402D02*Y843652D01*
Y842152D02*Y839902D01*
X293450Y842902D02*X295700D01*
X292700Y842152D02*X293450Y842902D01*
X292700Y842152D02*Y840652D01*
X293450Y839902D01*
X295700D01*
X299750Y842902D02*X300500Y842152D01*
X298250Y842902D02*X299750D01*
X297500Y842152D02*X298250Y842902D01*
X297500Y842152D02*Y840652D01*
X298250Y839902D01*
X300500Y842902D02*Y840652D01*
X301250Y839902D01*
X298250D02*X299750D01*
X300500Y840652D01*
X303800Y845902D02*Y840652D01*
X304550Y839902D01*
X303050Y843652D02*X304550D01*
X306050Y844402D02*Y843652D01*
Y842152D02*Y839902D01*
X307550Y842152D02*Y840652D01*
Y842152D02*X308300Y842902D01*
X309800D01*
X310550Y842152D01*
Y840652D01*
X309800Y839902D02*X310550Y840652D01*
X308300Y839902D02*X309800D01*
X307550Y840652D02*X308300Y839902D01*
X313100Y842152D02*Y839902D01*
Y842152D02*X313850Y842902D01*
X314600D01*
X315350Y842152D01*
Y839902D01*
X312350Y842902D02*X313100Y842152D01*
X320600Y845902D02*Y839902D01*
X322850Y845902D02*X323600Y845152D01*
Y840652D01*
X322850Y839902D02*X323600Y840652D01*
X319850Y839902D02*X322850D01*
X319850Y845902D02*X322850D01*
X326150Y842152D02*Y839902D01*
Y842152D02*X326900Y842902D01*
X328400D01*
X325400D02*X326150Y842152D01*
X332450Y842902D02*X333200Y842152D01*
X330950Y842902D02*X332450D01*
X330200Y842152D02*X330950Y842902D01*
X330200Y842152D02*Y840652D01*
X330950Y839902D01*
X333200Y842902D02*Y840652D01*
X333950Y839902D01*
X330950D02*X332450D01*
X333200Y840652D01*
X335750Y842902D02*Y840652D01*
X336500Y839902D01*
X337250D01*
X338000Y840652D01*
Y842902D02*Y840652D01*
X338750Y839902D01*
X339500D01*
X340250Y840652D01*
Y842902D02*Y840652D01*
X342050Y844402D02*Y843652D01*
Y842152D02*Y839902D01*
X344300Y842152D02*Y839902D01*
Y842152D02*X345050Y842902D01*
X345800D01*
X346550Y842152D01*
Y839902D01*
X343550Y842902D02*X344300Y842152D01*
X350600Y842902D02*X351350Y842152D01*
X349100Y842902D02*X350600D01*
X348350Y842152D02*X349100Y842902D01*
X348350Y842152D02*Y840652D01*
X349100Y839902D01*
X350600D01*
X351350Y840652D01*
X348350Y838402D02*X349100Y837652D01*
X350600D01*
X351350Y838402D01*
Y842902D02*Y838402D01*
M02*
